%TF.GenerationSoftware,KiCad,Pcbnew,9.0.4*%
%TF.CreationDate,2026-01-16T16:12:55-08:00*%
%TF.ProjectId,u_anemometer,755f616e-656d-46f6-9d65-7465722e6b69,rev?*%
%TF.SameCoordinates,Original*%
%TF.FileFunction,Copper,L2,Inr*%
%TF.FilePolarity,Positive*%
%FSLAX46Y46*%
G04 Gerber Fmt 4.6, Leading zero omitted, Abs format (unit mm)*
G04 Created by KiCad (PCBNEW 9.0.4) date 2026-01-16 16:12:55*
%MOMM*%
%LPD*%
G01*
G04 APERTURE LIST*
%TA.AperFunction,ComponentPad*%
%ADD10R,1.000000X1.000000*%
%TD*%
%TA.AperFunction,ComponentPad*%
%ADD11C,1.000000*%
%TD*%
%TA.AperFunction,ComponentPad*%
%ADD12R,1.800000X1.800000*%
%TD*%
%TA.AperFunction,ComponentPad*%
%ADD13C,1.800000*%
%TD*%
%TA.AperFunction,ViaPad*%
%ADD14C,0.609500*%
%TD*%
G04 APERTURE END LIST*
D10*
%TO.N,3.3V*%
%TO.C,SPI1*%
X141425000Y-97000000D03*
D11*
%TO.N,/1_mcu/SPI1_SCK*%
X140175000Y-97000000D03*
%TO.N,/1_mcu/SPI1_MISO*%
X138925000Y-97000000D03*
%TO.N,/1_mcu/SPI1_MOSI*%
X137675000Y-97000000D03*
%TO.N,/1_mcu/SPI1_CS0*%
X136425000Y-97000000D03*
%TO.N,/1_mcu/SPI1_CS1*%
X135175000Y-97000000D03*
%TO.N,unconnected-(SPI1-Pad7)*%
X133925000Y-97000000D03*
%TO.N,GND*%
X132675000Y-97000000D03*
%TD*%
%TO.N,3.3V*%
%TO.C,UART1*%
X150325500Y-119850000D03*
%TO.N,/1_mcu/USART1_RX*%
X151575000Y-119850000D03*
%TO.N,/1_mcu/USART1_TX*%
X152784000Y-119850000D03*
%TO.N,GND*%
X154074500Y-119850000D03*
%TD*%
%TO.N,GND*%
%TO.C,WEST1*%
X128000000Y-110690000D03*
%TO.N,Net-(D12-K)*%
X128000000Y-109410000D03*
%TD*%
%TO.N,3.3V*%
%TO.C,I2C1*%
X157250000Y-109874500D03*
%TO.N,SCL*%
X157250000Y-108625000D03*
%TO.N,SDA*%
X157250000Y-107416000D03*
%TO.N,GND*%
X157250000Y-106125500D03*
%TD*%
%TO.N,GND*%
%TO.C,SOUTH1*%
X149360000Y-88000000D03*
%TO.N,Net-(D8-K)*%
X150640000Y-88000000D03*
%TD*%
%TO.N,+5V*%
%TO.C,CAN1*%
X139974500Y-93550000D03*
%TO.N,Net-(U1-CANH)*%
X138725000Y-93550000D03*
%TO.N,Net-(U1-CANL)*%
X137516000Y-93550000D03*
%TO.N,GND*%
X136225500Y-93550000D03*
%TD*%
%TO.N,GND*%
%TO.C,NORTH1*%
X150640000Y-132000000D03*
%TO.N,Net-(D16-K)*%
X149360000Y-132000000D03*
%TD*%
%TO.N,GND*%
%TO.C,EAST1*%
X172000000Y-109360000D03*
%TO.N,Net-(D4-K)*%
X172000000Y-110640000D03*
%TD*%
%TO.N,3.3V*%
%TO.C,UART2*%
X142975500Y-119900000D03*
%TO.N,/1_mcu/USART2_RX*%
X144225000Y-119900000D03*
%TO.N,/1_mcu/USART2_TX*%
X145434000Y-119900000D03*
%TO.N,GND*%
X146724500Y-119900000D03*
%TD*%
D12*
%TO.N,GND*%
%TO.C,BAT1*%
X164620000Y-109200000D03*
D13*
%TO.N,Net-(D3-+)*%
X162080000Y-109200000D03*
%TD*%
D14*
%TO.N,GND*%
X140050000Y-124600000D03*
X137550000Y-94800000D03*
X128150000Y-117850000D03*
X143750000Y-131100000D03*
X164350000Y-101600000D03*
X137600000Y-113600000D03*
X131000000Y-98600000D03*
X138690054Y-107609946D03*
X143200000Y-87900000D03*
X172200000Y-102550000D03*
X162400000Y-105600000D03*
X134350000Y-103400000D03*
X154150000Y-99250000D03*
X154350000Y-91300000D03*
X142800000Y-99400000D03*
X143200000Y-132150000D03*
X161000000Y-100050000D03*
X141000000Y-115100000D03*
X132000000Y-106700000D03*
X149000000Y-111800000D03*
X139300000Y-103500000D03*
X142800000Y-115100000D03*
X130850000Y-122950000D03*
X161850000Y-95650000D03*
X171950000Y-112000000D03*
X148500000Y-88950000D03*
X152896250Y-129000000D03*
X146850000Y-112600000D03*
X152850000Y-121399500D03*
X171000000Y-100200000D03*
X167895000Y-101100000D03*
X157950000Y-93800000D03*
X141399500Y-118151000D03*
X140100000Y-127300000D03*
X129250000Y-102250000D03*
X133470000Y-98750000D03*
X132750000Y-115150000D03*
X141750000Y-93050000D03*
X156850000Y-132050000D03*
X140000000Y-126100000D03*
X144600000Y-112850000D03*
X144800000Y-117200000D03*
X130050000Y-116900000D03*
X156150000Y-130700000D03*
X132900000Y-117100000D03*
X167200000Y-107950000D03*
X151550000Y-94600000D03*
X134950000Y-94650000D03*
X169901000Y-104399000D03*
X139100000Y-125250000D03*
X146800000Y-110650000D03*
X143250000Y-130250000D03*
X157950000Y-131100000D03*
X154500000Y-131550000D03*
X154250000Y-102500000D03*
X127650000Y-112850000D03*
X161600000Y-117950000D03*
X163100000Y-106450000D03*
X132150000Y-123650000D03*
X144500000Y-94500000D03*
X141699500Y-124346000D03*
X141000000Y-99350000D03*
X172100000Y-107850000D03*
X129000000Y-103700000D03*
X139050000Y-126950000D03*
X140550000Y-88700000D03*
X155550000Y-132250000D03*
X151950000Y-88950000D03*
X142550000Y-100950000D03*
X144550000Y-128550000D03*
X143900000Y-110625000D03*
X151125000Y-113050000D03*
X131050000Y-115250000D03*
X147900000Y-131850000D03*
X164271500Y-112500000D03*
X129800000Y-106800000D03*
X127750000Y-108100000D03*
X159750000Y-104700000D03*
X131400000Y-117800000D03*
X127800000Y-116750000D03*
X161548000Y-90950000D03*
X134250000Y-106700000D03*
X135539000Y-113299000D03*
X138450000Y-118100000D03*
X151700000Y-108800000D03*
X156500000Y-115850000D03*
X140400000Y-117300000D03*
X148850000Y-90900000D03*
X133600000Y-126250000D03*
X146950000Y-108050000D03*
X159700000Y-106550000D03*
X132050000Y-115700000D03*
X142300000Y-113750000D03*
X168250000Y-113550000D03*
X145850000Y-109400000D03*
X143350000Y-128050000D03*
X154650000Y-116100000D03*
X137650000Y-90450000D03*
X151750000Y-117600000D03*
X163150000Y-118000000D03*
X147950000Y-99600000D03*
X159850000Y-89600000D03*
X140400000Y-94600000D03*
X151250000Y-121400000D03*
X172400000Y-105350000D03*
X145850000Y-111700000D03*
X163600000Y-92850000D03*
X130150000Y-100400000D03*
X153650000Y-115450000D03*
X148950000Y-109300000D03*
%TO.N,3.3V*%
X143550000Y-102800000D03*
X143350000Y-94550000D03*
X158350000Y-95650000D03*
X133550000Y-121300000D03*
X146000000Y-99600000D03*
X159950000Y-102850000D03*
X146550000Y-96600000D03*
X146700000Y-129200000D03*
X152350000Y-115250000D03*
X166550000Y-114250000D03*
X150400000Y-94050000D03*
X153200000Y-102450000D03*
X161700000Y-118800000D03*
X145350000Y-94500000D03*
X145750000Y-117300000D03*
X142350000Y-117900000D03*
%TO.N,ECHO_OUT*%
X143800000Y-111650000D03*
X136350000Y-118100000D03*
%TO.N,Net-(Q1-D)*%
X162000000Y-98100000D03*
%TO.N,SDA*%
X145150000Y-100750000D03*
X147150000Y-100250000D03*
X147200000Y-98250000D03*
X150449500Y-106749000D03*
%TO.N,/1_mcu/ADC_CH3*%
X143950000Y-109100000D03*
X138500000Y-102650000D03*
%TO.N,Net-(D4-A)*%
X169800000Y-106550000D03*
%TO.N,Net-(U6-DOUT2)*%
X157600000Y-115700000D03*
%TO.N,/2_anemometer/EAST_IN*%
X153950000Y-124150000D03*
%TO.N,PWR_DRV1*%
X156450000Y-118100000D03*
X149800000Y-118750000D03*
%TO.N,PWR_DRV0*%
X135650000Y-120450000D03*
X146150000Y-118450000D03*
%TO.N,Net-(D8-A)*%
X145450000Y-87950000D03*
%TO.N,Net-(U4-DOUT1)*%
X134049000Y-93800000D03*
X128450500Y-111999000D03*
X129000000Y-116000000D03*
%TO.N,/2_anemometer/SOUTH_IN*%
X148450000Y-122800000D03*
%TO.N,Net-(D12-A)*%
X129550000Y-104500000D03*
%TO.N,Net-(U4-DOUT2)*%
X129550000Y-107700000D03*
%TO.N,SCL*%
X149649500Y-107599500D03*
%TO.N,/2_anemometer/WEST_IN*%
X149400000Y-122700000D03*
%TO.N,Net-(D16-A)*%
X152000000Y-130300000D03*
%TO.N,V_OPA*%
X140750000Y-130850000D03*
X134450000Y-126350000D03*
%TO.N,Net-(U6-DOUT1)*%
X157300000Y-118800000D03*
%TO.N,/2_anemometer/NORTH_IN*%
X150250000Y-126200000D03*
%TO.N,+5V*%
X153500000Y-91000000D03*
X169901000Y-102949000D03*
%TO.N,Net-(D8-K)*%
X145650000Y-88950000D03*
%TO.N,Net-(D12-K)*%
X131200000Y-107000000D03*
%TO.N,Net-(D16-K)*%
X152100000Y-131300000D03*
%TO.N,/1_mcu/USART3_TX*%
X151200000Y-105050000D03*
X156600000Y-91200000D03*
X152950000Y-94750000D03*
%TO.N,/1_mcu/SWCLK*%
X155900000Y-94800000D03*
%TO.N,/1_mcu/USART3_RX*%
X150750000Y-105900000D03*
X156150000Y-90350000D03*
X152799000Y-95600500D03*
%TO.N,/1_mcu/SWDIO*%
X154950000Y-95400000D03*
%TO.N,Net-(Q1-G)*%
X155800000Y-97650000D03*
X152950000Y-98050000D03*
%TO.N,Net-(Q2-G)*%
X151950000Y-132250000D03*
X154900000Y-121700000D03*
%TO.N,Net-(U2-PC6)*%
X154800000Y-110900000D03*
X160750000Y-108100000D03*
%TO.N,Net-(U2-PC7)*%
X159900000Y-108200000D03*
X155050000Y-110050000D03*
%TO.N,/2_anemometer/SOUTH_OUT*%
X130300000Y-117850000D03*
X144850000Y-122250000D03*
%TO.N,/2_anemometer/WEST_OUT*%
X129350000Y-117850000D03*
X144300000Y-123000000D03*
%TO.N,Net-(U5-Y)*%
X144800000Y-125700000D03*
X150000000Y-124750000D03*
%TO.N,Net-(U7A-OUTA)*%
X141450500Y-128450500D03*
%TO.N,/1_mcu/SPI1_SCK*%
X148550000Y-105350000D03*
%TO.N,/1_mcu/SPI1_MOSI*%
X147000000Y-106300000D03*
%TO.N,/1_mcu/SPI1_CS0*%
X146550000Y-107000000D03*
%TO.N,/1_mcu/SPI1_MISO*%
X147750000Y-105900000D03*
%TO.N,/1_mcu/SPI1_CS1*%
X145700000Y-107650000D03*
%TO.N,Net-(U2-PB15)*%
X153000000Y-113800000D03*
X151850000Y-110950000D03*
%TO.N,/1_mcu/SDMMC1_CMD*%
X148550000Y-101900000D03*
%TO.N,/1_mcu/SDMMC1_D2*%
X150800000Y-101750000D03*
%TO.N,/1_mcu/USART2_TX*%
X143550000Y-119050000D03*
%TO.N,Net-(SD1-SH3)*%
X154800000Y-107800000D03*
%TO.N,PWM_IN*%
X147950000Y-124850000D03*
X147500000Y-120950000D03*
%TO.N,/1_mcu/SDMMC1_CK*%
X161150000Y-97650000D03*
X149200000Y-101400000D03*
X160550000Y-98750000D03*
%TO.N,/1_mcu/SDMMC1_D3*%
X150050000Y-101250000D03*
%TO.N,/1_mcu/SDMMC1_D0*%
X157150000Y-101750000D03*
%TO.N,/1_mcu/SDMMC1_D1*%
X156350000Y-102000000D03*
%TD*%
%TA.AperFunction,Conductor*%
%TO.N,GND*%
G36*
X156789148Y-87503927D02*
G01*
X157496526Y-87728368D01*
X157498598Y-87729065D01*
X158270802Y-88004155D01*
X158272848Y-88004925D01*
X158418175Y-88062500D01*
X159034950Y-88306853D01*
X159036903Y-88307666D01*
X159699342Y-88597309D01*
X159718514Y-88610397D01*
X171395936Y-100298184D01*
X171409008Y-100317369D01*
X171680486Y-100939770D01*
X171699278Y-100982852D01*
X171700117Y-100984873D01*
X172002463Y-101750069D01*
X172003231Y-101752117D01*
X172278619Y-102527441D01*
X172279315Y-102529515D01*
X172503989Y-103239969D01*
X172506898Y-103258887D01*
X172500883Y-108391615D01*
X172482525Y-108435788D01*
X172438310Y-108454042D01*
X172414466Y-108449285D01*
X172291686Y-108398428D01*
X172250000Y-108390136D01*
X172250000Y-109193011D01*
X172240060Y-109175795D01*
X172184205Y-109119940D01*
X172115796Y-109080444D01*
X172039496Y-109060000D01*
X171960504Y-109060000D01*
X171884204Y-109080444D01*
X171815795Y-109119940D01*
X171759940Y-109175795D01*
X171720444Y-109244204D01*
X171700000Y-109320504D01*
X171700000Y-109399496D01*
X171720444Y-109475796D01*
X171759940Y-109544205D01*
X171815795Y-109600060D01*
X171833012Y-109610000D01*
X171030137Y-109610000D01*
X171038429Y-109651689D01*
X171038431Y-109651697D01*
X171113811Y-109833678D01*
X171113812Y-109833680D01*
X171223248Y-109997462D01*
X171362537Y-110136751D01*
X171401300Y-110162651D01*
X171427876Y-110202424D01*
X171418545Y-110249340D01*
X171379224Y-110308189D01*
X171379224Y-110308190D01*
X171326419Y-110435675D01*
X171299500Y-110571006D01*
X171299500Y-110708993D01*
X171326419Y-110844326D01*
X171326419Y-110844327D01*
X171379225Y-110971811D01*
X171379226Y-110971813D01*
X171451377Y-111079794D01*
X171455886Y-111086542D01*
X171553458Y-111184114D01*
X171668189Y-111260775D01*
X171795672Y-111313580D01*
X171931007Y-111340500D01*
X172068993Y-111340500D01*
X172204328Y-111313580D01*
X172331811Y-111260775D01*
X172402793Y-111213345D01*
X172449709Y-111204014D01*
X172489483Y-111230590D01*
X172500016Y-111265263D01*
X172500445Y-111800143D01*
X172483230Y-111843269D01*
X171050691Y-113349272D01*
X171049299Y-113350690D01*
X168219985Y-116141770D01*
X168175667Y-116159775D01*
X168166316Y-116159007D01*
X168106290Y-116149500D01*
X168106287Y-116149500D01*
X167893713Y-116149500D01*
X167893711Y-116149500D01*
X167893699Y-116149501D01*
X167683759Y-116182753D01*
X167683758Y-116182753D01*
X167481589Y-116248442D01*
X167481581Y-116248446D01*
X167292182Y-116344949D01*
X167120205Y-116469897D01*
X166969897Y-116620205D01*
X166844949Y-116792182D01*
X166748446Y-116981581D01*
X166748442Y-116981589D01*
X166682753Y-117183758D01*
X166682753Y-117183759D01*
X166649501Y-117393699D01*
X166649500Y-117393715D01*
X166649500Y-117606290D01*
X166657399Y-117656166D01*
X166646231Y-117702680D01*
X166639862Y-117710136D01*
X161000000Y-123349999D01*
X161000000Y-128973368D01*
X160981694Y-129017562D01*
X160980793Y-129018446D01*
X157658587Y-132209078D01*
X157636680Y-132222727D01*
X157611042Y-132232063D01*
X157601962Y-132235369D01*
X157599623Y-132236169D01*
X156787034Y-132496030D01*
X156767997Y-132499000D01*
X152487805Y-132499000D01*
X152443611Y-132480694D01*
X152425305Y-132436500D01*
X152427435Y-132420323D01*
X152455249Y-132316521D01*
X152455250Y-132316515D01*
X152455250Y-132183484D01*
X152455248Y-132183476D01*
X152420819Y-132054984D01*
X152420818Y-132054981D01*
X152411878Y-132039496D01*
X152354301Y-131939769D01*
X152283086Y-131868554D01*
X152264780Y-131824360D01*
X152283086Y-131780166D01*
X152296023Y-131770238D01*
X152410231Y-131704301D01*
X152504301Y-131610231D01*
X152570818Y-131495019D01*
X152605250Y-131366517D01*
X152605250Y-131233483D01*
X152570818Y-131104981D01*
X152504301Y-130989769D01*
X152410231Y-130895699D01*
X152295019Y-130829182D01*
X152295017Y-130829181D01*
X152291471Y-130827134D01*
X152292019Y-130826183D01*
X152261194Y-130795352D01*
X152261199Y-130747516D01*
X152287686Y-130717316D01*
X152310231Y-130704301D01*
X152404301Y-130610231D01*
X152470818Y-130495019D01*
X152505250Y-130366517D01*
X152505250Y-130233483D01*
X152470818Y-130104981D01*
X152404301Y-129989769D01*
X152310231Y-129895699D01*
X152229246Y-129848943D01*
X152195018Y-129829181D01*
X152195015Y-129829180D01*
X152066523Y-129794751D01*
X152066518Y-129794750D01*
X152066517Y-129794750D01*
X151933483Y-129794750D01*
X151933482Y-129794750D01*
X151933476Y-129794751D01*
X151804984Y-129829180D01*
X151804981Y-129829181D01*
X151723996Y-129875937D01*
X151689769Y-129895699D01*
X151689768Y-129895700D01*
X151689764Y-129895703D01*
X151595703Y-129989764D01*
X151595700Y-129989768D01*
X151529181Y-130104981D01*
X151529180Y-130104984D01*
X151494751Y-130233476D01*
X151494750Y-130233484D01*
X151494750Y-130366515D01*
X151494751Y-130366523D01*
X151529180Y-130495015D01*
X151529181Y-130495018D01*
X151529182Y-130495019D01*
X151595699Y-130610231D01*
X151689769Y-130704301D01*
X151804981Y-130770818D01*
X151804982Y-130770818D01*
X151808529Y-130772866D01*
X151807978Y-130773818D01*
X151838802Y-130804639D01*
X151838803Y-130852475D01*
X151812311Y-130882684D01*
X151789769Y-130895699D01*
X151789768Y-130895700D01*
X151789764Y-130895703D01*
X151695703Y-130989764D01*
X151695700Y-130989768D01*
X151629181Y-131104981D01*
X151629180Y-131104984D01*
X151594751Y-131233476D01*
X151594750Y-131233484D01*
X151594750Y-131366515D01*
X151594751Y-131366523D01*
X151614159Y-131438955D01*
X151607916Y-131486381D01*
X151569965Y-131515501D01*
X151522539Y-131509258D01*
X151501822Y-131489854D01*
X151416751Y-131362537D01*
X151277462Y-131223248D01*
X151113680Y-131113812D01*
X151113678Y-131113811D01*
X150931688Y-131038428D01*
X150890000Y-131030136D01*
X150890000Y-131833011D01*
X150880060Y-131815795D01*
X150824205Y-131759940D01*
X150755796Y-131720444D01*
X150679496Y-131700000D01*
X150600504Y-131700000D01*
X150524204Y-131720444D01*
X150455795Y-131759940D01*
X150399940Y-131815795D01*
X150390000Y-131833011D01*
X150390000Y-131030136D01*
X150348311Y-131038428D01*
X150166321Y-131113811D01*
X150166319Y-131113812D01*
X150002537Y-131223248D01*
X149863250Y-131362535D01*
X149863246Y-131362540D01*
X149837346Y-131401302D01*
X149797572Y-131427877D01*
X149750657Y-131418545D01*
X149691813Y-131379226D01*
X149691811Y-131379225D01*
X149564326Y-131326419D01*
X149428993Y-131299500D01*
X149291007Y-131299500D01*
X149155673Y-131326419D01*
X149155672Y-131326419D01*
X149028188Y-131379225D01*
X149028186Y-131379226D01*
X148913458Y-131455885D01*
X148815885Y-131553458D01*
X148739226Y-131668186D01*
X148739225Y-131668188D01*
X148686419Y-131795672D01*
X148686419Y-131795673D01*
X148659500Y-131931006D01*
X148659500Y-132068993D01*
X148686419Y-132204326D01*
X148686419Y-132204327D01*
X148739225Y-132331811D01*
X148739226Y-132331814D01*
X148786283Y-132402239D01*
X148795615Y-132449155D01*
X148769039Y-132488929D01*
X148734339Y-132499462D01*
X143234683Y-132501470D01*
X143215632Y-132498503D01*
X142403777Y-132239012D01*
X142401432Y-132238211D01*
X141528073Y-131920381D01*
X141525772Y-131919491D01*
X141000283Y-131704299D01*
X140665749Y-131567304D01*
X140663474Y-131566320D01*
X139818043Y-131180293D01*
X139815810Y-131179219D01*
X139135107Y-130835167D01*
X139032853Y-130783484D01*
X140244750Y-130783484D01*
X140244750Y-130916515D01*
X140244751Y-130916523D01*
X140279180Y-131045015D01*
X140279181Y-131045018D01*
X140298943Y-131079246D01*
X140345699Y-131160231D01*
X140439769Y-131254301D01*
X140554981Y-131320818D01*
X140554984Y-131320819D01*
X140633621Y-131341889D01*
X140683483Y-131355250D01*
X140683484Y-131355250D01*
X140816516Y-131355250D01*
X140816517Y-131355250D01*
X140945019Y-131320818D01*
X141060231Y-131254301D01*
X141154301Y-131160231D01*
X141220818Y-131045019D01*
X141255250Y-130916517D01*
X141255250Y-130783483D01*
X141220818Y-130654981D01*
X141154301Y-130539769D01*
X141060231Y-130445699D01*
X140979246Y-130398943D01*
X140945018Y-130379181D01*
X140945015Y-130379180D01*
X140816523Y-130344751D01*
X140816518Y-130344750D01*
X140816517Y-130344750D01*
X140683483Y-130344750D01*
X140683482Y-130344750D01*
X140683476Y-130344751D01*
X140554984Y-130379180D01*
X140554981Y-130379181D01*
X140473996Y-130425937D01*
X140439769Y-130445699D01*
X140439768Y-130445700D01*
X140439764Y-130445703D01*
X140345703Y-130539764D01*
X140345700Y-130539768D01*
X140345699Y-130539769D01*
X140334934Y-130558415D01*
X140279181Y-130654981D01*
X140279180Y-130654984D01*
X140244751Y-130783476D01*
X140244750Y-130783484D01*
X139032853Y-130783484D01*
X138986370Y-130759990D01*
X138984181Y-130758828D01*
X138172040Y-130307061D01*
X138169898Y-130305814D01*
X137376254Y-129822171D01*
X137374164Y-129820839D01*
X136600365Y-129306144D01*
X136598329Y-129304731D01*
X136426051Y-129180013D01*
X136361779Y-129133484D01*
X146194750Y-129133484D01*
X146194750Y-129266515D01*
X146194751Y-129266523D01*
X146229180Y-129395015D01*
X146229181Y-129395018D01*
X146248943Y-129429246D01*
X146295699Y-129510231D01*
X146389769Y-129604301D01*
X146504981Y-129670818D01*
X146504984Y-129670819D01*
X146583621Y-129691889D01*
X146633483Y-129705250D01*
X146633484Y-129705250D01*
X146766516Y-129705250D01*
X146766517Y-129705250D01*
X146895019Y-129670818D01*
X147010231Y-129604301D01*
X147104301Y-129510231D01*
X147170818Y-129395019D01*
X147205250Y-129266517D01*
X147205250Y-129133483D01*
X147170818Y-129004981D01*
X147104301Y-128889769D01*
X147010231Y-128795699D01*
X146929246Y-128748943D01*
X146895018Y-128729181D01*
X146895015Y-128729180D01*
X146766523Y-128694751D01*
X146766518Y-128694750D01*
X146766517Y-128694750D01*
X146633483Y-128694750D01*
X146633482Y-128694750D01*
X146633476Y-128694751D01*
X146504984Y-128729180D01*
X146504981Y-128729181D01*
X146423996Y-128775937D01*
X146389769Y-128795699D01*
X146389768Y-128795700D01*
X146389764Y-128795703D01*
X146295703Y-128889764D01*
X146295700Y-128889768D01*
X146229181Y-129004981D01*
X146229180Y-129004984D01*
X146194751Y-129133476D01*
X146194750Y-129133484D01*
X136361779Y-129133484D01*
X136184277Y-129004984D01*
X135845506Y-128759736D01*
X135843536Y-128758249D01*
X135834927Y-128751481D01*
X135536709Y-128517023D01*
X135424774Y-128429020D01*
X135367491Y-128383984D01*
X140945250Y-128383984D01*
X140945250Y-128517015D01*
X140945251Y-128517023D01*
X140979680Y-128645515D01*
X140979681Y-128645518D01*
X140979682Y-128645519D01*
X141046199Y-128760731D01*
X141140269Y-128854801D01*
X141255481Y-128921318D01*
X141255484Y-128921319D01*
X141334121Y-128942389D01*
X141383983Y-128955750D01*
X141383984Y-128955750D01*
X141517016Y-128955750D01*
X141517017Y-128955750D01*
X141645519Y-128921318D01*
X141760731Y-128854801D01*
X141854801Y-128760731D01*
X141921318Y-128645519D01*
X141955750Y-128517017D01*
X141955750Y-128383983D01*
X141921318Y-128255481D01*
X141854801Y-128140269D01*
X141760731Y-128046199D01*
X141669825Y-127993715D01*
X155949500Y-127993715D01*
X155949500Y-128206284D01*
X155949501Y-128206300D01*
X155982753Y-128416240D01*
X155982753Y-128416241D01*
X156048442Y-128618410D01*
X156048446Y-128618418D01*
X156144949Y-128807817D01*
X156269897Y-128979794D01*
X156420205Y-129130102D01*
X156592182Y-129255050D01*
X156592184Y-129255051D01*
X156781588Y-129351557D01*
X156983757Y-129417246D01*
X157072244Y-129431261D01*
X157193699Y-129450498D01*
X157193705Y-129450498D01*
X157193713Y-129450500D01*
X157193715Y-129450500D01*
X157406285Y-129450500D01*
X157406287Y-129450500D01*
X157616243Y-129417246D01*
X157818412Y-129351557D01*
X158007816Y-129255051D01*
X158179792Y-129130104D01*
X158330104Y-128979792D01*
X158455051Y-128807816D01*
X158551557Y-128618412D01*
X158617246Y-128416243D01*
X158650500Y-128206287D01*
X158650500Y-127993713D01*
X158648277Y-127979680D01*
X158617246Y-127783759D01*
X158617246Y-127783758D01*
X158573166Y-127648092D01*
X158551557Y-127581588D01*
X158455051Y-127392184D01*
X158330104Y-127220208D01*
X158330102Y-127220205D01*
X158179794Y-127069897D01*
X158007817Y-126944949D01*
X157818418Y-126848446D01*
X157818410Y-126848442D01*
X157616241Y-126782753D01*
X157406300Y-126749501D01*
X157406288Y-126749500D01*
X157406287Y-126749500D01*
X157193713Y-126749500D01*
X157193711Y-126749500D01*
X157193699Y-126749501D01*
X156983759Y-126782753D01*
X156983758Y-126782753D01*
X156781589Y-126848442D01*
X156781581Y-126848446D01*
X156592182Y-126944949D01*
X156420205Y-127069897D01*
X156269897Y-127220205D01*
X156144949Y-127392182D01*
X156048446Y-127581581D01*
X156048442Y-127581589D01*
X155982753Y-127783758D01*
X155982753Y-127783759D01*
X155949501Y-127993699D01*
X155949500Y-127993715D01*
X141669825Y-127993715D01*
X141669797Y-127993699D01*
X141645518Y-127979681D01*
X141645515Y-127979680D01*
X141517023Y-127945251D01*
X141517018Y-127945250D01*
X141517017Y-127945250D01*
X141383983Y-127945250D01*
X141383982Y-127945250D01*
X141383976Y-127945251D01*
X141255484Y-127979680D01*
X141255481Y-127979681D01*
X141174496Y-128026437D01*
X141140269Y-128046199D01*
X141140268Y-128046200D01*
X141140264Y-128046203D01*
X141046203Y-128140264D01*
X141046200Y-128140268D01*
X140979681Y-128255481D01*
X140979680Y-128255484D01*
X140945251Y-128383976D01*
X140945250Y-128383984D01*
X135367491Y-128383984D01*
X135112943Y-128183860D01*
X135111025Y-128182290D01*
X134496562Y-127658484D01*
X134403767Y-127579379D01*
X134401919Y-127577741D01*
X133719090Y-126947237D01*
X133717303Y-126945519D01*
X133095167Y-126323589D01*
X133060027Y-126288460D01*
X133058341Y-126286707D01*
X133055363Y-126283484D01*
X133944750Y-126283484D01*
X133944750Y-126416515D01*
X133944751Y-126416523D01*
X133979180Y-126545015D01*
X133979181Y-126545018D01*
X133979182Y-126545019D01*
X134045699Y-126660231D01*
X134139769Y-126754301D01*
X134254981Y-126820818D01*
X134254984Y-126820819D01*
X134333621Y-126841889D01*
X134383483Y-126855250D01*
X134383484Y-126855250D01*
X134516516Y-126855250D01*
X134516517Y-126855250D01*
X134645019Y-126820818D01*
X134760231Y-126754301D01*
X134854301Y-126660231D01*
X134920818Y-126545019D01*
X134955250Y-126416517D01*
X134955250Y-126283483D01*
X134920818Y-126154981D01*
X134854301Y-126039769D01*
X134760231Y-125945699D01*
X134672443Y-125895015D01*
X134645018Y-125879181D01*
X134645015Y-125879180D01*
X134516523Y-125844751D01*
X134516518Y-125844750D01*
X134516517Y-125844750D01*
X134383483Y-125844750D01*
X134383482Y-125844750D01*
X134383476Y-125844751D01*
X134254984Y-125879180D01*
X134254981Y-125879181D01*
X134173996Y-125925937D01*
X134139769Y-125945699D01*
X134139768Y-125945700D01*
X134139764Y-125945703D01*
X134045703Y-126039764D01*
X134045700Y-126039768D01*
X133979181Y-126154981D01*
X133979180Y-126154984D01*
X133944751Y-126283476D01*
X133944750Y-126283484D01*
X133055363Y-126283484D01*
X133049116Y-126276723D01*
X132454775Y-125633484D01*
X144294750Y-125633484D01*
X144294750Y-125766515D01*
X144294751Y-125766523D01*
X144329180Y-125895015D01*
X144329181Y-125895018D01*
X144329182Y-125895019D01*
X144395699Y-126010231D01*
X144489769Y-126104301D01*
X144604981Y-126170818D01*
X144604984Y-126170819D01*
X144683621Y-126191889D01*
X144733483Y-126205250D01*
X144733484Y-126205250D01*
X144866516Y-126205250D01*
X144866517Y-126205250D01*
X144995019Y-126170818D01*
X145059684Y-126133484D01*
X149744750Y-126133484D01*
X149744750Y-126266515D01*
X149744751Y-126266523D01*
X149779180Y-126395015D01*
X149779181Y-126395018D01*
X149791594Y-126416517D01*
X149845699Y-126510231D01*
X149939769Y-126604301D01*
X150036644Y-126660231D01*
X150054981Y-126670818D01*
X150054984Y-126670819D01*
X150133621Y-126691889D01*
X150183483Y-126705250D01*
X150183484Y-126705250D01*
X150316516Y-126705250D01*
X150316517Y-126705250D01*
X150445019Y-126670818D01*
X150560231Y-126604301D01*
X150654301Y-126510231D01*
X150720818Y-126395019D01*
X150755250Y-126266517D01*
X150755250Y-126133483D01*
X150741889Y-126083621D01*
X150720819Y-126004984D01*
X150720818Y-126004981D01*
X150654301Y-125889769D01*
X150560231Y-125795699D01*
X150479246Y-125748943D01*
X150445018Y-125729181D01*
X150445015Y-125729180D01*
X150316523Y-125694751D01*
X150316518Y-125694750D01*
X150316517Y-125694750D01*
X150183483Y-125694750D01*
X150183482Y-125694750D01*
X150183476Y-125694751D01*
X150054984Y-125729180D01*
X150054981Y-125729181D01*
X149973996Y-125775937D01*
X149939769Y-125795699D01*
X149939768Y-125795700D01*
X149939764Y-125795703D01*
X149845703Y-125889764D01*
X149845700Y-125889768D01*
X149845699Y-125889769D01*
X149842669Y-125895018D01*
X149779181Y-126004981D01*
X149779180Y-126004984D01*
X149744751Y-126133476D01*
X149744750Y-126133484D01*
X145059684Y-126133484D01*
X145110231Y-126104301D01*
X145204301Y-126010231D01*
X145270818Y-125895019D01*
X145305250Y-125766517D01*
X145305250Y-125633483D01*
X145270818Y-125504981D01*
X145204301Y-125389769D01*
X145110231Y-125295699D01*
X145029246Y-125248943D01*
X144995018Y-125229181D01*
X144995015Y-125229180D01*
X144866523Y-125194751D01*
X144866518Y-125194750D01*
X144866517Y-125194750D01*
X144733483Y-125194750D01*
X144733482Y-125194750D01*
X144733476Y-125194751D01*
X144604984Y-125229180D01*
X144604981Y-125229181D01*
X144559829Y-125255250D01*
X144489769Y-125295699D01*
X144489768Y-125295700D01*
X144489764Y-125295703D01*
X144395703Y-125389764D01*
X144395700Y-125389768D01*
X144329181Y-125504981D01*
X144329180Y-125504984D01*
X144294751Y-125633476D01*
X144294750Y-125633484D01*
X132454775Y-125633484D01*
X132427620Y-125604095D01*
X132425979Y-125602246D01*
X132415964Y-125590506D01*
X131865342Y-124945019D01*
X131822840Y-124895194D01*
X131821269Y-124893276D01*
X131762078Y-124818039D01*
X131762072Y-124818032D01*
X131734892Y-124783484D01*
X147444750Y-124783484D01*
X147444750Y-124916515D01*
X147444751Y-124916523D01*
X147479180Y-125045015D01*
X147479181Y-125045018D01*
X147487967Y-125060235D01*
X147545699Y-125160231D01*
X147639769Y-125254301D01*
X147754981Y-125320818D01*
X147754984Y-125320819D01*
X147833621Y-125341889D01*
X147883483Y-125355250D01*
X147883484Y-125355250D01*
X148016516Y-125355250D01*
X148016517Y-125355250D01*
X148145019Y-125320818D01*
X148260231Y-125254301D01*
X148354301Y-125160231D01*
X148420818Y-125045019D01*
X148455250Y-124916517D01*
X148455250Y-124783483D01*
X148428455Y-124683484D01*
X149494750Y-124683484D01*
X149494750Y-124816515D01*
X149494751Y-124816523D01*
X149529180Y-124945015D01*
X149529181Y-124945018D01*
X149529182Y-124945019D01*
X149595699Y-125060231D01*
X149689769Y-125154301D01*
X149804981Y-125220818D01*
X149804984Y-125220819D01*
X149883621Y-125241889D01*
X149933483Y-125255250D01*
X149933484Y-125255250D01*
X150066516Y-125255250D01*
X150066517Y-125255250D01*
X150195019Y-125220818D01*
X150310231Y-125154301D01*
X150404301Y-125060231D01*
X150470818Y-124945019D01*
X150505250Y-124816517D01*
X150505250Y-124683483D01*
X150470818Y-124554981D01*
X150404301Y-124439769D01*
X150310231Y-124345699D01*
X150229246Y-124298943D01*
X150195018Y-124279181D01*
X150195015Y-124279180D01*
X150066523Y-124244751D01*
X150066518Y-124244750D01*
X150066517Y-124244750D01*
X149933483Y-124244750D01*
X149933482Y-124244750D01*
X149933476Y-124244751D01*
X149804984Y-124279180D01*
X149804981Y-124279181D01*
X149723996Y-124325937D01*
X149689769Y-124345699D01*
X149689768Y-124345700D01*
X149689764Y-124345703D01*
X149595703Y-124439764D01*
X149595700Y-124439768D01*
X149595699Y-124439769D01*
X149583883Y-124460235D01*
X149529181Y-124554981D01*
X149529180Y-124554984D01*
X149494751Y-124683476D01*
X149494750Y-124683484D01*
X148428455Y-124683484D01*
X148420818Y-124654981D01*
X148354301Y-124539769D01*
X148260231Y-124445699D01*
X148179246Y-124398943D01*
X148145018Y-124379181D01*
X148145015Y-124379180D01*
X148016523Y-124344751D01*
X148016518Y-124344750D01*
X148016517Y-124344750D01*
X147883483Y-124344750D01*
X147883482Y-124344750D01*
X147883476Y-124344751D01*
X147754984Y-124379180D01*
X147754981Y-124379181D01*
X147673996Y-124425937D01*
X147639769Y-124445699D01*
X147639768Y-124445700D01*
X147639764Y-124445703D01*
X147545703Y-124539764D01*
X147545700Y-124539768D01*
X147545699Y-124539769D01*
X147536915Y-124554984D01*
X147479181Y-124654981D01*
X147479180Y-124654984D01*
X147444751Y-124783476D01*
X147444750Y-124783484D01*
X131734892Y-124783484D01*
X131464481Y-124439768D01*
X131246608Y-124162833D01*
X131245125Y-124160868D01*
X131212660Y-124116054D01*
X131203639Y-124103602D01*
X131189065Y-124083484D01*
X153444750Y-124083484D01*
X153444750Y-124216515D01*
X153444751Y-124216523D01*
X153479180Y-124345015D01*
X153479181Y-124345018D01*
X153498905Y-124379180D01*
X153545699Y-124460231D01*
X153639769Y-124554301D01*
X153754981Y-124620818D01*
X153754984Y-124620819D01*
X153833621Y-124641889D01*
X153883483Y-124655250D01*
X153883484Y-124655250D01*
X154016516Y-124655250D01*
X154016517Y-124655250D01*
X154145019Y-124620818D01*
X154260231Y-124554301D01*
X154354301Y-124460231D01*
X154420818Y-124345019D01*
X154455250Y-124216517D01*
X154455250Y-124083483D01*
X154420818Y-123954981D01*
X154354301Y-123839769D01*
X154260231Y-123745699D01*
X154179246Y-123698943D01*
X154145018Y-123679181D01*
X154145015Y-123679180D01*
X154016523Y-123644751D01*
X154016518Y-123644750D01*
X154016517Y-123644750D01*
X153883483Y-123644750D01*
X153883482Y-123644750D01*
X153883476Y-123644751D01*
X153754984Y-123679180D01*
X153754981Y-123679181D01*
X153673996Y-123725937D01*
X153639769Y-123745699D01*
X153639768Y-123745700D01*
X153639764Y-123745703D01*
X153545703Y-123839764D01*
X153545700Y-123839768D01*
X153479181Y-123954981D01*
X153479180Y-123954984D01*
X153444751Y-124083476D01*
X153444750Y-124083484D01*
X131189065Y-124083484D01*
X130871229Y-123644750D01*
X130699899Y-123408250D01*
X130698485Y-123406214D01*
X130404149Y-122964023D01*
X130404146Y-122964019D01*
X130383821Y-122933484D01*
X143794750Y-122933484D01*
X143794750Y-123066515D01*
X143794751Y-123066523D01*
X143829180Y-123195015D01*
X143829181Y-123195018D01*
X143835089Y-123205250D01*
X143895699Y-123310231D01*
X143989769Y-123404301D01*
X144104981Y-123470818D01*
X144104984Y-123470819D01*
X144183621Y-123491889D01*
X144233483Y-123505250D01*
X144233484Y-123505250D01*
X144366516Y-123505250D01*
X144366517Y-123505250D01*
X144495019Y-123470818D01*
X144610231Y-123404301D01*
X144704301Y-123310231D01*
X144770818Y-123195019D01*
X144805250Y-123066517D01*
X144805250Y-122933483D01*
X144778574Y-122833926D01*
X144784817Y-122786500D01*
X144822768Y-122757380D01*
X144838944Y-122755250D01*
X144916516Y-122755250D01*
X144916517Y-122755250D01*
X144997749Y-122733484D01*
X147944750Y-122733484D01*
X147944750Y-122866515D01*
X147944751Y-122866523D01*
X147979180Y-122995015D01*
X147979181Y-122995018D01*
X147998943Y-123029246D01*
X148045699Y-123110231D01*
X148139769Y-123204301D01*
X148254981Y-123270818D01*
X148254984Y-123270819D01*
X148333621Y-123291889D01*
X148383483Y-123305250D01*
X148383484Y-123305250D01*
X148516516Y-123305250D01*
X148516517Y-123305250D01*
X148645019Y-123270818D01*
X148760231Y-123204301D01*
X148854301Y-123110231D01*
X148901933Y-123027727D01*
X148939881Y-122998609D01*
X148987307Y-123004852D01*
X149000252Y-123014785D01*
X149051983Y-123066515D01*
X149089769Y-123104301D01*
X149204981Y-123170818D01*
X149204984Y-123170819D01*
X149283621Y-123191889D01*
X149333483Y-123205250D01*
X149333484Y-123205250D01*
X149466516Y-123205250D01*
X149466517Y-123205250D01*
X149595019Y-123170818D01*
X149710231Y-123104301D01*
X149804301Y-123010231D01*
X149870818Y-122895019D01*
X149905250Y-122766517D01*
X149905250Y-122633483D01*
X149877303Y-122529182D01*
X149870819Y-122504984D01*
X149870818Y-122504981D01*
X149862035Y-122489768D01*
X149804301Y-122389769D01*
X149710231Y-122295699D01*
X149629246Y-122248943D01*
X149595018Y-122229181D01*
X149595015Y-122229180D01*
X149466523Y-122194751D01*
X149466518Y-122194750D01*
X149466517Y-122194750D01*
X149333483Y-122194750D01*
X149333482Y-122194750D01*
X149333476Y-122194751D01*
X149204984Y-122229180D01*
X149204981Y-122229181D01*
X149123996Y-122275937D01*
X149089769Y-122295699D01*
X149089768Y-122295700D01*
X149089764Y-122295703D01*
X148995703Y-122389764D01*
X148995698Y-122389770D01*
X148948066Y-122472271D01*
X148910116Y-122501391D01*
X148862689Y-122495146D01*
X148849746Y-122485214D01*
X148760235Y-122395703D01*
X148760231Y-122395699D01*
X148679246Y-122348943D01*
X148645018Y-122329181D01*
X148645015Y-122329180D01*
X148516523Y-122294751D01*
X148516518Y-122294750D01*
X148516517Y-122294750D01*
X148383483Y-122294750D01*
X148383482Y-122294750D01*
X148383476Y-122294751D01*
X148254984Y-122329180D01*
X148254981Y-122329181D01*
X148173996Y-122375937D01*
X148139769Y-122395699D01*
X148139768Y-122395700D01*
X148139764Y-122395703D01*
X148045703Y-122489764D01*
X148045700Y-122489768D01*
X148045699Y-122489769D01*
X148025937Y-122523996D01*
X147979181Y-122604981D01*
X147979180Y-122604984D01*
X147944751Y-122733476D01*
X147944750Y-122733484D01*
X144997749Y-122733484D01*
X145045019Y-122720818D01*
X145160231Y-122654301D01*
X145254301Y-122560231D01*
X145320818Y-122445019D01*
X145355250Y-122316517D01*
X145355250Y-122183483D01*
X145320818Y-122054981D01*
X145254301Y-121939769D01*
X145160231Y-121845699D01*
X145079246Y-121798943D01*
X145045018Y-121779181D01*
X145045015Y-121779180D01*
X144916523Y-121744751D01*
X144916518Y-121744750D01*
X144916517Y-121744750D01*
X144783483Y-121744750D01*
X144783482Y-121744750D01*
X144783476Y-121744751D01*
X144654984Y-121779180D01*
X144654981Y-121779181D01*
X144573996Y-121825937D01*
X144539769Y-121845699D01*
X144539768Y-121845700D01*
X144539764Y-121845703D01*
X144445703Y-121939764D01*
X144445700Y-121939768D01*
X144379181Y-122054981D01*
X144379180Y-122054984D01*
X144344751Y-122183476D01*
X144344750Y-122183484D01*
X144344750Y-122316515D01*
X144344751Y-122316523D01*
X144371426Y-122416074D01*
X144365183Y-122463500D01*
X144327232Y-122492620D01*
X144311056Y-122494750D01*
X144233483Y-122494750D01*
X144233482Y-122494750D01*
X144233476Y-122494751D01*
X144104984Y-122529180D01*
X144104981Y-122529181D01*
X144023996Y-122575937D01*
X143989769Y-122595699D01*
X143989768Y-122595700D01*
X143989764Y-122595703D01*
X143895703Y-122689764D01*
X143895700Y-122689768D01*
X143829181Y-122804981D01*
X143829180Y-122804984D01*
X143794751Y-122933476D01*
X143794750Y-122933484D01*
X130383821Y-122933484D01*
X130183509Y-122632548D01*
X130182198Y-122630491D01*
X130134097Y-122551617D01*
X129698294Y-121837007D01*
X129697055Y-121834880D01*
X129376902Y-121259790D01*
X129376900Y-121259788D01*
X129362257Y-121233484D01*
X133044750Y-121233484D01*
X133044750Y-121366515D01*
X133044751Y-121366523D01*
X133079180Y-121495015D01*
X133079181Y-121495018D01*
X133084935Y-121504984D01*
X133145699Y-121610231D01*
X133239769Y-121704301D01*
X133347542Y-121766523D01*
X133354981Y-121770818D01*
X133354984Y-121770819D01*
X133433621Y-121791889D01*
X133483483Y-121805250D01*
X133483484Y-121805250D01*
X133616516Y-121805250D01*
X133616517Y-121805250D01*
X133745019Y-121770818D01*
X133860231Y-121704301D01*
X133931048Y-121633484D01*
X154394750Y-121633484D01*
X154394750Y-121766515D01*
X154394751Y-121766523D01*
X154429180Y-121895015D01*
X154429181Y-121895018D01*
X154429182Y-121895019D01*
X154495699Y-122010231D01*
X154589769Y-122104301D01*
X154704981Y-122170818D01*
X154704984Y-122170819D01*
X154752221Y-122183476D01*
X154833483Y-122205250D01*
X154833484Y-122205250D01*
X154966516Y-122205250D01*
X154966517Y-122205250D01*
X155095019Y-122170818D01*
X155210231Y-122104301D01*
X155304301Y-122010231D01*
X155370818Y-121895019D01*
X155405250Y-121766517D01*
X155405250Y-121633483D01*
X155370818Y-121504981D01*
X155304301Y-121389769D01*
X155210231Y-121295699D01*
X155129246Y-121248943D01*
X155095018Y-121229181D01*
X155095015Y-121229180D01*
X154966523Y-121194751D01*
X154966518Y-121194750D01*
X154966517Y-121194750D01*
X154833483Y-121194750D01*
X154833482Y-121194750D01*
X154833476Y-121194751D01*
X154704984Y-121229180D01*
X154704981Y-121229181D01*
X154623996Y-121275937D01*
X154589769Y-121295699D01*
X154589768Y-121295700D01*
X154589764Y-121295703D01*
X154495703Y-121389764D01*
X154495700Y-121389768D01*
X154429181Y-121504981D01*
X154429180Y-121504984D01*
X154394751Y-121633476D01*
X154394750Y-121633484D01*
X133931048Y-121633484D01*
X133954301Y-121610231D01*
X134020818Y-121495019D01*
X134055250Y-121366517D01*
X134055250Y-121233483D01*
X134020818Y-121104981D01*
X133954301Y-120989769D01*
X133860231Y-120895699D01*
X133779246Y-120848943D01*
X133745018Y-120829181D01*
X133745015Y-120829180D01*
X133616523Y-120794751D01*
X133616518Y-120794750D01*
X133616517Y-120794750D01*
X133483483Y-120794750D01*
X133483482Y-120794750D01*
X133483476Y-120794751D01*
X133354984Y-120829180D01*
X133354981Y-120829181D01*
X133279788Y-120872594D01*
X133239769Y-120895699D01*
X133239768Y-120895700D01*
X133239764Y-120895703D01*
X133145703Y-120989764D01*
X133145700Y-120989768D01*
X133145699Y-120989769D01*
X133130257Y-121016515D01*
X133079181Y-121104981D01*
X133079180Y-121104984D01*
X133044751Y-121233476D01*
X133044750Y-121233484D01*
X129362257Y-121233484D01*
X129245000Y-121022857D01*
X129243862Y-121020715D01*
X128921518Y-120383484D01*
X135144750Y-120383484D01*
X135144750Y-120516515D01*
X135144751Y-120516523D01*
X135179180Y-120645015D01*
X135179181Y-120645018D01*
X135179182Y-120645019D01*
X135245699Y-120760231D01*
X135339769Y-120854301D01*
X135439043Y-120911616D01*
X135454981Y-120920818D01*
X135454984Y-120920819D01*
X135533621Y-120941889D01*
X135583483Y-120955250D01*
X135583484Y-120955250D01*
X135716516Y-120955250D01*
X135716517Y-120955250D01*
X135845019Y-120920818D01*
X135928546Y-120872594D01*
X146974500Y-120872594D01*
X146994449Y-120909915D01*
X146994750Y-120916042D01*
X146994750Y-121016515D01*
X146994751Y-121016523D01*
X147029180Y-121145015D01*
X147029181Y-121145018D01*
X147029182Y-121145019D01*
X147095699Y-121260231D01*
X147189769Y-121354301D01*
X147304981Y-121420818D01*
X147304984Y-121420819D01*
X147383621Y-121441889D01*
X147433483Y-121455250D01*
X147433484Y-121455250D01*
X147566516Y-121455250D01*
X147566517Y-121455250D01*
X147695019Y-121420818D01*
X147810231Y-121354301D01*
X147904301Y-121260231D01*
X147970818Y-121145019D01*
X148005250Y-121016517D01*
X148005250Y-120883483D01*
X147970818Y-120754981D01*
X147904301Y-120639769D01*
X147810231Y-120545699D01*
X147695019Y-120479182D01*
X147695018Y-120479181D01*
X147695017Y-120479181D01*
X147647949Y-120466569D01*
X147609999Y-120437448D01*
X147603756Y-120390022D01*
X147609815Y-120376701D01*
X147609238Y-120376393D01*
X147610688Y-120373678D01*
X147686068Y-120191697D01*
X147686070Y-120191689D01*
X147694363Y-120150000D01*
X146974500Y-120150000D01*
X146974500Y-120872594D01*
X135928546Y-120872594D01*
X135960231Y-120854301D01*
X136054301Y-120760231D01*
X136120818Y-120645019D01*
X136155250Y-120516517D01*
X136155250Y-120383483D01*
X136139225Y-120323678D01*
X136120819Y-120254984D01*
X136120818Y-120254981D01*
X136101900Y-120222214D01*
X136054301Y-120139769D01*
X135960231Y-120045699D01*
X135855261Y-119985095D01*
X135845018Y-119979181D01*
X135845015Y-119979180D01*
X135716523Y-119944751D01*
X135716518Y-119944750D01*
X135716517Y-119944750D01*
X135583483Y-119944750D01*
X135583482Y-119944750D01*
X135583476Y-119944751D01*
X135454984Y-119979180D01*
X135454981Y-119979181D01*
X135373996Y-120025937D01*
X135339769Y-120045699D01*
X135339768Y-120045700D01*
X135339764Y-120045703D01*
X135245703Y-120139764D01*
X135245700Y-120139768D01*
X135245699Y-120139769D01*
X135244586Y-120141697D01*
X135179181Y-120254981D01*
X135179180Y-120254984D01*
X135144751Y-120383476D01*
X135144750Y-120383484D01*
X128921518Y-120383484D01*
X128824325Y-120191346D01*
X128823258Y-120189127D01*
X128659596Y-119831006D01*
X142275000Y-119831006D01*
X142275000Y-119968993D01*
X142301919Y-120104326D01*
X142301919Y-120104327D01*
X142354725Y-120231811D01*
X142354726Y-120231813D01*
X142431385Y-120346541D01*
X142528958Y-120444114D01*
X142603388Y-120493847D01*
X142643689Y-120520775D01*
X142771172Y-120573580D01*
X142906507Y-120600500D01*
X143044493Y-120600500D01*
X143179828Y-120573580D01*
X143307311Y-120520775D01*
X143422042Y-120444114D01*
X143519614Y-120346542D01*
X143548284Y-120303634D01*
X143588056Y-120277059D01*
X143634973Y-120286391D01*
X143652215Y-120303633D01*
X143665609Y-120323678D01*
X143680885Y-120346541D01*
X143778458Y-120444114D01*
X143852888Y-120493847D01*
X143893189Y-120520775D01*
X144020672Y-120573580D01*
X144156007Y-120600500D01*
X144293993Y-120600500D01*
X144429328Y-120573580D01*
X144556811Y-120520775D01*
X144671542Y-120444114D01*
X144769114Y-120346542D01*
X144777533Y-120333940D01*
X144817305Y-120307365D01*
X144864222Y-120316696D01*
X144881464Y-120333938D01*
X144889886Y-120346542D01*
X144889887Y-120346543D01*
X144987458Y-120444114D01*
X145061888Y-120493847D01*
X145102189Y-120520775D01*
X145229672Y-120573580D01*
X145365007Y-120600500D01*
X145502993Y-120600500D01*
X145638328Y-120573580D01*
X145765811Y-120520775D01*
X145831916Y-120476604D01*
X145878831Y-120467272D01*
X145918605Y-120493847D01*
X145918606Y-120493847D01*
X145947751Y-120537465D01*
X146087037Y-120676751D01*
X146250819Y-120786187D01*
X146250821Y-120786188D01*
X146432802Y-120861568D01*
X146432810Y-120861570D01*
X146474499Y-120869863D01*
X146474500Y-120869863D01*
X146474500Y-120144975D01*
X146509595Y-120180070D01*
X146589405Y-120226148D01*
X146678422Y-120250000D01*
X146770578Y-120250000D01*
X146859595Y-120226148D01*
X146939405Y-120180070D01*
X147004570Y-120114905D01*
X147050648Y-120035095D01*
X147074500Y-119946078D01*
X147074500Y-119853922D01*
X147050648Y-119764905D01*
X147004570Y-119685095D01*
X146969475Y-119650000D01*
X146974500Y-119650000D01*
X147694363Y-119650000D01*
X147694363Y-119649999D01*
X147686070Y-119608310D01*
X147686068Y-119608302D01*
X147610688Y-119426321D01*
X147610687Y-119426319D01*
X147501251Y-119262537D01*
X147361962Y-119123248D01*
X147198180Y-119013812D01*
X147198178Y-119013811D01*
X147016188Y-118938428D01*
X146974500Y-118930136D01*
X146974500Y-119650000D01*
X146969475Y-119650000D01*
X146939405Y-119619930D01*
X146859595Y-119573852D01*
X146770578Y-119550000D01*
X146678422Y-119550000D01*
X146589405Y-119573852D01*
X146509595Y-119619930D01*
X146474500Y-119655025D01*
X146474500Y-118926128D01*
X146455766Y-118891081D01*
X146469651Y-118845305D01*
X146473761Y-118840770D01*
X146554301Y-118760231D01*
X146598610Y-118683484D01*
X149294750Y-118683484D01*
X149294750Y-118816515D01*
X149294751Y-118816523D01*
X149329180Y-118945015D01*
X149329181Y-118945018D01*
X149335089Y-118955250D01*
X149395699Y-119060231D01*
X149489769Y-119154301D01*
X149590638Y-119212537D01*
X149604981Y-119220818D01*
X149604984Y-119220819D01*
X149636356Y-119229225D01*
X149733483Y-119255250D01*
X149733484Y-119255250D01*
X149778706Y-119255250D01*
X149822900Y-119273556D01*
X149841206Y-119317750D01*
X149822900Y-119361944D01*
X149781387Y-119403456D01*
X149781385Y-119403458D01*
X149704726Y-119518186D01*
X149704725Y-119518188D01*
X149651919Y-119645672D01*
X149651919Y-119645673D01*
X149625000Y-119781006D01*
X149625000Y-119918993D01*
X149651919Y-120054326D01*
X149651919Y-120054327D01*
X149704725Y-120181811D01*
X149704726Y-120181813D01*
X149781385Y-120296541D01*
X149878958Y-120394114D01*
X149953388Y-120443847D01*
X149993689Y-120470775D01*
X150121172Y-120523580D01*
X150256507Y-120550500D01*
X150394493Y-120550500D01*
X150529828Y-120523580D01*
X150657311Y-120470775D01*
X150772042Y-120394114D01*
X150869614Y-120296542D01*
X150898284Y-120253634D01*
X150938056Y-120227059D01*
X150984973Y-120236391D01*
X151002215Y-120253633D01*
X151017868Y-120277059D01*
X151030885Y-120296541D01*
X151128458Y-120394114D01*
X151202888Y-120443847D01*
X151243189Y-120470775D01*
X151370672Y-120523580D01*
X151506007Y-120550500D01*
X151643993Y-120550500D01*
X151779328Y-120523580D01*
X151906811Y-120470775D01*
X152021542Y-120394114D01*
X152119114Y-120296542D01*
X152127533Y-120283940D01*
X152167305Y-120257365D01*
X152214222Y-120266696D01*
X152231464Y-120283938D01*
X152239886Y-120296542D01*
X152239887Y-120296543D01*
X152337458Y-120394114D01*
X152411888Y-120443847D01*
X152452189Y-120470775D01*
X152579672Y-120523580D01*
X152715007Y-120550500D01*
X152852993Y-120550500D01*
X152988328Y-120523580D01*
X153115811Y-120470775D01*
X153181916Y-120426604D01*
X153228831Y-120417272D01*
X153268605Y-120443847D01*
X153268606Y-120443847D01*
X153297751Y-120487465D01*
X153437037Y-120626751D01*
X153600819Y-120736187D01*
X153600821Y-120736188D01*
X153782802Y-120811568D01*
X153782810Y-120811570D01*
X153824499Y-120819863D01*
X153824500Y-120819863D01*
X154324500Y-120819863D01*
X154366189Y-120811570D01*
X154366197Y-120811568D01*
X154548178Y-120736188D01*
X154548180Y-120736187D01*
X154711962Y-120626751D01*
X154851251Y-120487462D01*
X154960687Y-120323680D01*
X154960688Y-120323678D01*
X155036068Y-120141697D01*
X155036070Y-120141689D01*
X155044363Y-120100000D01*
X154324500Y-120100000D01*
X154324500Y-120819863D01*
X153824500Y-120819863D01*
X153824500Y-120094975D01*
X153859595Y-120130070D01*
X153939405Y-120176148D01*
X154028422Y-120200000D01*
X154120578Y-120200000D01*
X154209595Y-120176148D01*
X154289405Y-120130070D01*
X154354570Y-120064905D01*
X154400648Y-119985095D01*
X154424500Y-119896078D01*
X154424500Y-119803922D01*
X154400648Y-119714905D01*
X154354570Y-119635095D01*
X154319475Y-119600000D01*
X154324500Y-119600000D01*
X155044363Y-119600000D01*
X155044363Y-119599999D01*
X155036070Y-119558310D01*
X155036068Y-119558302D01*
X154960688Y-119376321D01*
X154960687Y-119376319D01*
X154851251Y-119212537D01*
X154711962Y-119073248D01*
X154548180Y-118963812D01*
X154548178Y-118963811D01*
X154366188Y-118888428D01*
X154324500Y-118880136D01*
X154324500Y-119600000D01*
X154319475Y-119600000D01*
X154289405Y-119569930D01*
X154209595Y-119523852D01*
X154120578Y-119500000D01*
X154028422Y-119500000D01*
X153939405Y-119523852D01*
X153859595Y-119569930D01*
X153824500Y-119605025D01*
X153824500Y-118880136D01*
X153782811Y-118888428D01*
X153600821Y-118963811D01*
X153600819Y-118963812D01*
X153437037Y-119073248D01*
X153297750Y-119212535D01*
X153297746Y-119212540D01*
X153268605Y-119256152D01*
X153228831Y-119282727D01*
X153181916Y-119273395D01*
X153115813Y-119229226D01*
X153115811Y-119229225D01*
X152988326Y-119176419D01*
X152852993Y-119149500D01*
X152715007Y-119149500D01*
X152579673Y-119176419D01*
X152579672Y-119176419D01*
X152452188Y-119229225D01*
X152452186Y-119229226D01*
X152337458Y-119305885D01*
X152239886Y-119403457D01*
X152231466Y-119416059D01*
X152191691Y-119442634D01*
X152144775Y-119433300D01*
X152127534Y-119416059D01*
X152119113Y-119403457D01*
X152021541Y-119305885D01*
X151906813Y-119229226D01*
X151906811Y-119229225D01*
X151779326Y-119176419D01*
X151643993Y-119149500D01*
X151506007Y-119149500D01*
X151370673Y-119176419D01*
X151370672Y-119176419D01*
X151243188Y-119229225D01*
X151243186Y-119229226D01*
X151128458Y-119305885D01*
X151030885Y-119403458D01*
X151002217Y-119446364D01*
X150962443Y-119472940D01*
X150915527Y-119463608D01*
X150898283Y-119446364D01*
X150869614Y-119403458D01*
X150772041Y-119305885D01*
X150657313Y-119229226D01*
X150657311Y-119229225D01*
X150529826Y-119176419D01*
X150394493Y-119149500D01*
X150261014Y-119149500D01*
X150216820Y-119131194D01*
X150198514Y-119087000D01*
X150206886Y-119055753D01*
X150270818Y-118945019D01*
X150305250Y-118816517D01*
X150305250Y-118683483D01*
X150284216Y-118604984D01*
X150270819Y-118554984D01*
X150270818Y-118554981D01*
X150248611Y-118516517D01*
X150204301Y-118439769D01*
X150110231Y-118345699D01*
X150021984Y-118294750D01*
X149995018Y-118279181D01*
X149995015Y-118279180D01*
X149866523Y-118244751D01*
X149866518Y-118244750D01*
X149866517Y-118244750D01*
X149733483Y-118244750D01*
X149733482Y-118244750D01*
X149733476Y-118244751D01*
X149604984Y-118279180D01*
X149604981Y-118279181D01*
X149532863Y-118320819D01*
X149489769Y-118345699D01*
X149489768Y-118345700D01*
X149489764Y-118345703D01*
X149395703Y-118439764D01*
X149395700Y-118439768D01*
X149329181Y-118554981D01*
X149329180Y-118554984D01*
X149294751Y-118683476D01*
X149294750Y-118683484D01*
X146598610Y-118683484D01*
X146620818Y-118645019D01*
X146655250Y-118516517D01*
X146655250Y-118383483D01*
X146627303Y-118279182D01*
X146620819Y-118254984D01*
X146620818Y-118254981D01*
X146594984Y-118210235D01*
X146554301Y-118139769D01*
X146460231Y-118045699D01*
X146439074Y-118033484D01*
X155944750Y-118033484D01*
X155944750Y-118166515D01*
X155944751Y-118166523D01*
X155979180Y-118295015D01*
X155979181Y-118295018D01*
X155984541Y-118304301D01*
X156045699Y-118410231D01*
X156139769Y-118504301D01*
X156254976Y-118570815D01*
X156254981Y-118570818D01*
X156254984Y-118570819D01*
X156333621Y-118591889D01*
X156383483Y-118605250D01*
X156383484Y-118605250D01*
X156516516Y-118605250D01*
X156516517Y-118605250D01*
X156645019Y-118570818D01*
X156748848Y-118510872D01*
X156796272Y-118504629D01*
X156834222Y-118533749D01*
X156840466Y-118581175D01*
X156834224Y-118596246D01*
X156829184Y-118604975D01*
X156829180Y-118604984D01*
X156794751Y-118733476D01*
X156794750Y-118733484D01*
X156794750Y-118866515D01*
X156794751Y-118866523D01*
X156829180Y-118995015D01*
X156829181Y-118995018D01*
X156848943Y-119029246D01*
X156895699Y-119110231D01*
X156989769Y-119204301D01*
X157090638Y-119262537D01*
X157104981Y-119270818D01*
X157104984Y-119270819D01*
X157114598Y-119273395D01*
X157233483Y-119305250D01*
X157233484Y-119305250D01*
X157366516Y-119305250D01*
X157366517Y-119305250D01*
X157495019Y-119270818D01*
X157610231Y-119204301D01*
X157704301Y-119110231D01*
X157770818Y-118995019D01*
X157805250Y-118866517D01*
X157805250Y-118733484D01*
X161194750Y-118733484D01*
X161194750Y-118866515D01*
X161194751Y-118866523D01*
X161229180Y-118995015D01*
X161229181Y-118995018D01*
X161248943Y-119029246D01*
X161295699Y-119110231D01*
X161389769Y-119204301D01*
X161490638Y-119262537D01*
X161504981Y-119270818D01*
X161504984Y-119270819D01*
X161514598Y-119273395D01*
X161633483Y-119305250D01*
X161633484Y-119305250D01*
X161766516Y-119305250D01*
X161766517Y-119305250D01*
X161895019Y-119270818D01*
X162010231Y-119204301D01*
X162104301Y-119110231D01*
X162170818Y-118995019D01*
X162205250Y-118866517D01*
X162205250Y-118733483D01*
X162182381Y-118648135D01*
X162170819Y-118604984D01*
X162170818Y-118604981D01*
X162165775Y-118596246D01*
X162104301Y-118489769D01*
X162010231Y-118395699D01*
X161906437Y-118335774D01*
X161895018Y-118329181D01*
X161895015Y-118329180D01*
X161766523Y-118294751D01*
X161766518Y-118294750D01*
X161766517Y-118294750D01*
X161633483Y-118294750D01*
X161633482Y-118294750D01*
X161633476Y-118294751D01*
X161504984Y-118329180D01*
X161504981Y-118329181D01*
X161432863Y-118370819D01*
X161389769Y-118395699D01*
X161389768Y-118395700D01*
X161389764Y-118395703D01*
X161295703Y-118489764D01*
X161295700Y-118489768D01*
X161229181Y-118604981D01*
X161229180Y-118604984D01*
X161194751Y-118733476D01*
X161194750Y-118733484D01*
X157805250Y-118733484D01*
X157805250Y-118733483D01*
X157782381Y-118648135D01*
X157770819Y-118604984D01*
X157770818Y-118604981D01*
X157765775Y-118596246D01*
X157704301Y-118489769D01*
X157610231Y-118395699D01*
X157506437Y-118335774D01*
X157495018Y-118329181D01*
X157495015Y-118329180D01*
X157366523Y-118294751D01*
X157366518Y-118294750D01*
X157366517Y-118294750D01*
X157233483Y-118294750D01*
X157233482Y-118294750D01*
X157233476Y-118294751D01*
X157104984Y-118329180D01*
X157104981Y-118329181D01*
X157059829Y-118355250D01*
X157001151Y-118389127D01*
X156953727Y-118395370D01*
X156915776Y-118366250D01*
X156909533Y-118318824D01*
X156915778Y-118303748D01*
X156920816Y-118295022D01*
X156920818Y-118295019D01*
X156955250Y-118166517D01*
X156955250Y-118033483D01*
X156920818Y-117904981D01*
X156854301Y-117789769D01*
X156760231Y-117695699D01*
X156679246Y-117648943D01*
X156645018Y-117629181D01*
X156645015Y-117629180D01*
X156516523Y-117594751D01*
X156516518Y-117594750D01*
X156516517Y-117594750D01*
X156383483Y-117594750D01*
X156383482Y-117594750D01*
X156383476Y-117594751D01*
X156254984Y-117629180D01*
X156254981Y-117629181D01*
X156183263Y-117670588D01*
X156139769Y-117695699D01*
X156139768Y-117695700D01*
X156139764Y-117695703D01*
X156045703Y-117789764D01*
X156045700Y-117789768D01*
X156045699Y-117789769D01*
X156036761Y-117805250D01*
X155979181Y-117904981D01*
X155979180Y-117904984D01*
X155944751Y-118033476D01*
X155944750Y-118033484D01*
X146439074Y-118033484D01*
X146379246Y-117998943D01*
X146345018Y-117979181D01*
X146345015Y-117979180D01*
X146216523Y-117944751D01*
X146216518Y-117944750D01*
X146216517Y-117944750D01*
X146083483Y-117944750D01*
X146083482Y-117944750D01*
X146083476Y-117944751D01*
X145954984Y-117979180D01*
X145954981Y-117979181D01*
X145896042Y-118013210D01*
X145839769Y-118045699D01*
X145839768Y-118045700D01*
X145839764Y-118045703D01*
X145745703Y-118139764D01*
X145745700Y-118139768D01*
X145745699Y-118139769D01*
X145733885Y-118160232D01*
X145679181Y-118254981D01*
X145679180Y-118254984D01*
X145644751Y-118383476D01*
X145644750Y-118383484D01*
X145644750Y-118516515D01*
X145644751Y-118516523D01*
X145679180Y-118645015D01*
X145679181Y-118645018D01*
X145680981Y-118648135D01*
X145745699Y-118760231D01*
X145839769Y-118854301D01*
X145954981Y-118920818D01*
X145954984Y-118920819D01*
X145974798Y-118926128D01*
X146083483Y-118955250D01*
X146083484Y-118955250D01*
X146132430Y-118955250D01*
X146176624Y-118973556D01*
X146194930Y-119017750D01*
X146176624Y-119061944D01*
X146167153Y-119069717D01*
X146087037Y-119123248D01*
X145947750Y-119262535D01*
X145947746Y-119262540D01*
X145918605Y-119306152D01*
X145878831Y-119332727D01*
X145831916Y-119323395D01*
X145765813Y-119279226D01*
X145765811Y-119279225D01*
X145638326Y-119226419D01*
X145502993Y-119199500D01*
X145365007Y-119199500D01*
X145229673Y-119226419D01*
X145229672Y-119226419D01*
X145102188Y-119279225D01*
X145102186Y-119279226D01*
X144987458Y-119355885D01*
X144889886Y-119453457D01*
X144881466Y-119466059D01*
X144841691Y-119492634D01*
X144794775Y-119483300D01*
X144777534Y-119466059D01*
X144769113Y-119453457D01*
X144671541Y-119355885D01*
X144556813Y-119279226D01*
X144556811Y-119279225D01*
X144429326Y-119226419D01*
X144293993Y-119199500D01*
X144156007Y-119199500D01*
X144156003Y-119199500D01*
X144124666Y-119205733D01*
X144077750Y-119196400D01*
X144051175Y-119156626D01*
X144052103Y-119128258D01*
X144055250Y-119116517D01*
X144055250Y-118983483D01*
X144020818Y-118854981D01*
X143954301Y-118739769D01*
X143860231Y-118645699D01*
X143774575Y-118596246D01*
X143745018Y-118579181D01*
X143745015Y-118579180D01*
X143616523Y-118544751D01*
X143616518Y-118544750D01*
X143616517Y-118544750D01*
X143483483Y-118544750D01*
X143483482Y-118544750D01*
X143483476Y-118544751D01*
X143354984Y-118579180D01*
X143354981Y-118579181D01*
X143309829Y-118605250D01*
X143239769Y-118645699D01*
X143239768Y-118645700D01*
X143239764Y-118645703D01*
X143145703Y-118739764D01*
X143145700Y-118739768D01*
X143145699Y-118739769D01*
X143133884Y-118760234D01*
X143079181Y-118854981D01*
X143079180Y-118854984D01*
X143044751Y-118983476D01*
X143044750Y-118983484D01*
X143044750Y-119116521D01*
X143045904Y-119120826D01*
X143039658Y-119168252D01*
X143001707Y-119197371D01*
X142985533Y-119199500D01*
X142906507Y-119199500D01*
X142771173Y-119226419D01*
X142771172Y-119226419D01*
X142643688Y-119279225D01*
X142643686Y-119279226D01*
X142528958Y-119355885D01*
X142431385Y-119453458D01*
X142354726Y-119568186D01*
X142354725Y-119568188D01*
X142301919Y-119695672D01*
X142301919Y-119695673D01*
X142275000Y-119831006D01*
X128659596Y-119831006D01*
X128469964Y-119416059D01*
X128436971Y-119343864D01*
X128435986Y-119341590D01*
X128120052Y-118570819D01*
X128083514Y-118481678D01*
X128082621Y-118479373D01*
X128068192Y-118439764D01*
X127829113Y-117783484D01*
X128844750Y-117783484D01*
X128844750Y-117916515D01*
X128844751Y-117916523D01*
X128879180Y-118045015D01*
X128879181Y-118045018D01*
X128898943Y-118079246D01*
X128945699Y-118160231D01*
X129039769Y-118254301D01*
X129151527Y-118318824D01*
X129154981Y-118320818D01*
X129154984Y-118320819D01*
X129233621Y-118341889D01*
X129283483Y-118355250D01*
X129283484Y-118355250D01*
X129416516Y-118355250D01*
X129416517Y-118355250D01*
X129545019Y-118320818D01*
X129660231Y-118254301D01*
X129754301Y-118160231D01*
X129770875Y-118131523D01*
X129808823Y-118102405D01*
X129856250Y-118108648D01*
X129879124Y-118131522D01*
X129895699Y-118160231D01*
X129989769Y-118254301D01*
X130101527Y-118318824D01*
X130104981Y-118320818D01*
X130104984Y-118320819D01*
X130183621Y-118341889D01*
X130233483Y-118355250D01*
X130233484Y-118355250D01*
X130366516Y-118355250D01*
X130366517Y-118355250D01*
X130495019Y-118320818D01*
X130610231Y-118254301D01*
X130704301Y-118160231D01*
X130770818Y-118045019D01*
X130773909Y-118033484D01*
X135844750Y-118033484D01*
X135844750Y-118166515D01*
X135844751Y-118166523D01*
X135879180Y-118295015D01*
X135879181Y-118295018D01*
X135884541Y-118304301D01*
X135945699Y-118410231D01*
X136039769Y-118504301D01*
X136154976Y-118570815D01*
X136154981Y-118570818D01*
X136154984Y-118570819D01*
X136233621Y-118591889D01*
X136283483Y-118605250D01*
X136283484Y-118605250D01*
X136416516Y-118605250D01*
X136416517Y-118605250D01*
X136545019Y-118570818D01*
X136660231Y-118504301D01*
X136754301Y-118410231D01*
X136820818Y-118295019D01*
X136855250Y-118166517D01*
X136855250Y-118033483D01*
X136820818Y-117904981D01*
X136779540Y-117833484D01*
X141844750Y-117833484D01*
X141844750Y-117966515D01*
X141844751Y-117966523D01*
X141879180Y-118095015D01*
X141879181Y-118095018D01*
X141898943Y-118129246D01*
X141945699Y-118210231D01*
X142039769Y-118304301D01*
X142147069Y-118366250D01*
X142154981Y-118370818D01*
X142154984Y-118370819D01*
X142188472Y-118379792D01*
X142283483Y-118405250D01*
X142283484Y-118405250D01*
X142416516Y-118405250D01*
X142416517Y-118405250D01*
X142545019Y-118370818D01*
X142660231Y-118304301D01*
X142754301Y-118210231D01*
X142820818Y-118095019D01*
X142855250Y-117966517D01*
X142855250Y-117833483D01*
X142820818Y-117704981D01*
X142754301Y-117589769D01*
X142660231Y-117495699D01*
X142573628Y-117445699D01*
X142545018Y-117429181D01*
X142545015Y-117429180D01*
X142416523Y-117394751D01*
X142416518Y-117394750D01*
X142416517Y-117394750D01*
X142283483Y-117394750D01*
X142283482Y-117394750D01*
X142283476Y-117394751D01*
X142154984Y-117429180D01*
X142154981Y-117429181D01*
X142073996Y-117475937D01*
X142039769Y-117495699D01*
X142039768Y-117495700D01*
X142039764Y-117495703D01*
X141945703Y-117589764D01*
X141945700Y-117589768D01*
X141945699Y-117589769D01*
X141933883Y-117610235D01*
X141879181Y-117704981D01*
X141879180Y-117704984D01*
X141844751Y-117833476D01*
X141844750Y-117833484D01*
X136779540Y-117833484D01*
X136754301Y-117789769D01*
X136660231Y-117695699D01*
X136579246Y-117648943D01*
X136545018Y-117629181D01*
X136545015Y-117629180D01*
X136416523Y-117594751D01*
X136416518Y-117594750D01*
X136416517Y-117594750D01*
X136283483Y-117594750D01*
X136283482Y-117594750D01*
X136283476Y-117594751D01*
X136154984Y-117629180D01*
X136154981Y-117629181D01*
X136083263Y-117670588D01*
X136039769Y-117695699D01*
X136039768Y-117695700D01*
X136039764Y-117695703D01*
X135945703Y-117789764D01*
X135945700Y-117789768D01*
X135945699Y-117789769D01*
X135936761Y-117805250D01*
X135879181Y-117904981D01*
X135879180Y-117904984D01*
X135844751Y-118033476D01*
X135844750Y-118033484D01*
X130773909Y-118033484D01*
X130805250Y-117916517D01*
X130805250Y-117783483D01*
X130784216Y-117704984D01*
X130770819Y-117654984D01*
X130770818Y-117654981D01*
X130755923Y-117629182D01*
X130704301Y-117539769D01*
X130610231Y-117445699D01*
X130520188Y-117393713D01*
X130495018Y-117379181D01*
X130495015Y-117379180D01*
X130366523Y-117344751D01*
X130366518Y-117344750D01*
X130366517Y-117344750D01*
X130233483Y-117344750D01*
X130233482Y-117344750D01*
X130233476Y-117344751D01*
X130104984Y-117379180D01*
X130104981Y-117379181D01*
X130023996Y-117425937D01*
X129989769Y-117445699D01*
X129989768Y-117445700D01*
X129989764Y-117445703D01*
X129895703Y-117539764D01*
X129895696Y-117539773D01*
X129879126Y-117568474D01*
X129841176Y-117597594D01*
X129793750Y-117591350D01*
X129770874Y-117568474D01*
X129754303Y-117539773D01*
X129754301Y-117539769D01*
X129660231Y-117445699D01*
X129570188Y-117393713D01*
X129545018Y-117379181D01*
X129545015Y-117379180D01*
X129416523Y-117344751D01*
X129416518Y-117344750D01*
X129416517Y-117344750D01*
X129283483Y-117344750D01*
X129283482Y-117344750D01*
X129283476Y-117344751D01*
X129154984Y-117379180D01*
X129154981Y-117379181D01*
X129073996Y-117425937D01*
X129039769Y-117445699D01*
X129039768Y-117445700D01*
X129039764Y-117445703D01*
X128945703Y-117539764D01*
X128945700Y-117539768D01*
X128879181Y-117654981D01*
X128879180Y-117654984D01*
X128844751Y-117783476D01*
X128844750Y-117783484D01*
X127829113Y-117783484D01*
X127764497Y-117606110D01*
X127763702Y-117603784D01*
X127761721Y-117597594D01*
X127645209Y-117233484D01*
X145244750Y-117233484D01*
X145244750Y-117366515D01*
X145244751Y-117366523D01*
X145279180Y-117495015D01*
X145279181Y-117495018D01*
X145298943Y-117529246D01*
X145345699Y-117610231D01*
X145439769Y-117704301D01*
X145554981Y-117770818D01*
X145554984Y-117770819D01*
X145602221Y-117783476D01*
X145683483Y-117805250D01*
X145683484Y-117805250D01*
X145816516Y-117805250D01*
X145816517Y-117805250D01*
X145945019Y-117770818D01*
X146060231Y-117704301D01*
X146154301Y-117610231D01*
X146220818Y-117495019D01*
X146255250Y-117366517D01*
X146255250Y-117233483D01*
X146220818Y-117104981D01*
X146154301Y-116989769D01*
X146060231Y-116895699D01*
X145979246Y-116848943D01*
X145945018Y-116829181D01*
X145945015Y-116829180D01*
X145816523Y-116794751D01*
X145816518Y-116794750D01*
X145816517Y-116794750D01*
X145683483Y-116794750D01*
X145683482Y-116794750D01*
X145683476Y-116794751D01*
X145554984Y-116829180D01*
X145554981Y-116829181D01*
X145488570Y-116867524D01*
X145439769Y-116895699D01*
X145439768Y-116895700D01*
X145439764Y-116895703D01*
X145345703Y-116989764D01*
X145345700Y-116989768D01*
X145279181Y-117104981D01*
X145279180Y-117104984D01*
X145244751Y-117233476D01*
X145244750Y-117233484D01*
X127645209Y-117233484D01*
X127582156Y-117036436D01*
X127503973Y-116792105D01*
X127501000Y-116773057D01*
X127501000Y-115933484D01*
X128494750Y-115933484D01*
X128494750Y-116066515D01*
X128494751Y-116066523D01*
X128529180Y-116195015D01*
X128529181Y-116195018D01*
X128535089Y-116205250D01*
X128595699Y-116310231D01*
X128689769Y-116404301D01*
X128803384Y-116469896D01*
X128804981Y-116470818D01*
X128804984Y-116470819D01*
X128883621Y-116491889D01*
X128933483Y-116505250D01*
X128933484Y-116505250D01*
X129066516Y-116505250D01*
X129066517Y-116505250D01*
X129195019Y-116470818D01*
X129310231Y-116404301D01*
X129404301Y-116310231D01*
X129470818Y-116195019D01*
X129505250Y-116066517D01*
X129505250Y-115933483D01*
X129470818Y-115804981D01*
X129404301Y-115689769D01*
X129310231Y-115595699D01*
X129229246Y-115548943D01*
X129195018Y-115529181D01*
X129195015Y-115529180D01*
X129066523Y-115494751D01*
X129066518Y-115494750D01*
X129066517Y-115494750D01*
X128933483Y-115494750D01*
X128933482Y-115494750D01*
X128933476Y-115494751D01*
X128804984Y-115529180D01*
X128804981Y-115529181D01*
X128723996Y-115575937D01*
X128689769Y-115595699D01*
X128689768Y-115595700D01*
X128689764Y-115595703D01*
X128595703Y-115689764D01*
X128595700Y-115689768D01*
X128529181Y-115804981D01*
X128529180Y-115804984D01*
X128494751Y-115933476D01*
X128494750Y-115933484D01*
X127501000Y-115933484D01*
X127501000Y-115183484D01*
X151844750Y-115183484D01*
X151844750Y-115316515D01*
X151844751Y-115316523D01*
X151879180Y-115445015D01*
X151879181Y-115445018D01*
X151879182Y-115445019D01*
X151945699Y-115560231D01*
X152039769Y-115654301D01*
X152154981Y-115720818D01*
X152154984Y-115720819D01*
X152233621Y-115741889D01*
X152283483Y-115755250D01*
X152283484Y-115755250D01*
X152416516Y-115755250D01*
X152416517Y-115755250D01*
X152545019Y-115720818D01*
X152660231Y-115654301D01*
X152681048Y-115633484D01*
X157094750Y-115633484D01*
X157094750Y-115766515D01*
X157094751Y-115766523D01*
X157129180Y-115895015D01*
X157129181Y-115895018D01*
X157129182Y-115895019D01*
X157195699Y-116010231D01*
X157289769Y-116104301D01*
X157384524Y-116159007D01*
X157404981Y-116170818D01*
X157404984Y-116170819D01*
X157483621Y-116191889D01*
X157533483Y-116205250D01*
X157533484Y-116205250D01*
X157666516Y-116205250D01*
X157666517Y-116205250D01*
X157795019Y-116170818D01*
X157910231Y-116104301D01*
X158004301Y-116010231D01*
X158070818Y-115895019D01*
X158105250Y-115766517D01*
X158105250Y-115633483D01*
X158077303Y-115529182D01*
X158070819Y-115504984D01*
X158070818Y-115504981D01*
X158036199Y-115445019D01*
X158004301Y-115389769D01*
X157910231Y-115295699D01*
X157829246Y-115248943D01*
X157795018Y-115229181D01*
X157795015Y-115229180D01*
X157666523Y-115194751D01*
X157666518Y-115194750D01*
X157666517Y-115194750D01*
X157533483Y-115194750D01*
X157533482Y-115194750D01*
X157533476Y-115194751D01*
X157404984Y-115229180D01*
X157404981Y-115229181D01*
X157323996Y-115275937D01*
X157289769Y-115295699D01*
X157289768Y-115295700D01*
X157289764Y-115295703D01*
X157195703Y-115389764D01*
X157195700Y-115389768D01*
X157129181Y-115504981D01*
X157129180Y-115504984D01*
X157094751Y-115633476D01*
X157094750Y-115633484D01*
X152681048Y-115633484D01*
X152754301Y-115560231D01*
X152820818Y-115445019D01*
X152855250Y-115316517D01*
X152855250Y-115183483D01*
X152820818Y-115054981D01*
X152754301Y-114939769D01*
X152660231Y-114845699D01*
X152579246Y-114798943D01*
X152545018Y-114779181D01*
X152545015Y-114779180D01*
X152416523Y-114744751D01*
X152416518Y-114744750D01*
X152416517Y-114744750D01*
X152283483Y-114744750D01*
X152283482Y-114744750D01*
X152283476Y-114744751D01*
X152154984Y-114779180D01*
X152154981Y-114779181D01*
X152073996Y-114825937D01*
X152039769Y-114845699D01*
X152039768Y-114845700D01*
X152039764Y-114845703D01*
X151945703Y-114939764D01*
X151945700Y-114939768D01*
X151879181Y-115054981D01*
X151879180Y-115054984D01*
X151844751Y-115183476D01*
X151844750Y-115183484D01*
X127501000Y-115183484D01*
X127501000Y-113733484D01*
X152494750Y-113733484D01*
X152494750Y-113866515D01*
X152494751Y-113866523D01*
X152529180Y-113995015D01*
X152529181Y-113995018D01*
X152529182Y-113995019D01*
X152595699Y-114110231D01*
X152689769Y-114204301D01*
X152804981Y-114270818D01*
X152804984Y-114270819D01*
X152883621Y-114291889D01*
X152933483Y-114305250D01*
X152933484Y-114305250D01*
X153066516Y-114305250D01*
X153066517Y-114305250D01*
X153195019Y-114270818D01*
X153310231Y-114204301D01*
X153331048Y-114183484D01*
X166044750Y-114183484D01*
X166044750Y-114316515D01*
X166044751Y-114316523D01*
X166079180Y-114445015D01*
X166079181Y-114445018D01*
X166079182Y-114445019D01*
X166145699Y-114560231D01*
X166239769Y-114654301D01*
X166354981Y-114720818D01*
X166354984Y-114720819D01*
X166433621Y-114741889D01*
X166483483Y-114755250D01*
X166483484Y-114755250D01*
X166616516Y-114755250D01*
X166616517Y-114755250D01*
X166745019Y-114720818D01*
X166860231Y-114654301D01*
X166954301Y-114560231D01*
X167020818Y-114445019D01*
X167055250Y-114316517D01*
X167055250Y-114183483D01*
X167020818Y-114054981D01*
X166954301Y-113939769D01*
X166860231Y-113845699D01*
X166779246Y-113798943D01*
X166745018Y-113779181D01*
X166745015Y-113779180D01*
X166616523Y-113744751D01*
X166616518Y-113744750D01*
X166616517Y-113744750D01*
X166483483Y-113744750D01*
X166483482Y-113744750D01*
X166483476Y-113744751D01*
X166354984Y-113779180D01*
X166354981Y-113779181D01*
X166273996Y-113825937D01*
X166239769Y-113845699D01*
X166239768Y-113845700D01*
X166239764Y-113845703D01*
X166145703Y-113939764D01*
X166145700Y-113939768D01*
X166079181Y-114054981D01*
X166079180Y-114054984D01*
X166044751Y-114183476D01*
X166044750Y-114183484D01*
X153331048Y-114183484D01*
X153404301Y-114110231D01*
X153470818Y-113995019D01*
X153505250Y-113866517D01*
X153505250Y-113733483D01*
X153470818Y-113604981D01*
X153404301Y-113489769D01*
X153310231Y-113395699D01*
X153229246Y-113348943D01*
X153195018Y-113329181D01*
X153195015Y-113329180D01*
X153066523Y-113294751D01*
X153066518Y-113294750D01*
X153066517Y-113294750D01*
X152933483Y-113294750D01*
X152933482Y-113294750D01*
X152933476Y-113294751D01*
X152804984Y-113329180D01*
X152804981Y-113329181D01*
X152723996Y-113375937D01*
X152689769Y-113395699D01*
X152689768Y-113395700D01*
X152689764Y-113395703D01*
X152595703Y-113489764D01*
X152595700Y-113489768D01*
X152529181Y-113604981D01*
X152529180Y-113604984D01*
X152494751Y-113733476D01*
X152494750Y-113733484D01*
X127501000Y-113733484D01*
X127501000Y-111932484D01*
X127945250Y-111932484D01*
X127945250Y-112065515D01*
X127945251Y-112065523D01*
X127979680Y-112194015D01*
X127979681Y-112194018D01*
X127979682Y-112194019D01*
X128046199Y-112309231D01*
X128140269Y-112403301D01*
X128255481Y-112469818D01*
X128255484Y-112469819D01*
X128334121Y-112490889D01*
X128383983Y-112504250D01*
X128383984Y-112504250D01*
X128517016Y-112504250D01*
X128517017Y-112504250D01*
X128645519Y-112469818D01*
X128760731Y-112403301D01*
X128854801Y-112309231D01*
X128921318Y-112194019D01*
X128955750Y-112065517D01*
X128955750Y-111932483D01*
X128921318Y-111803981D01*
X128854801Y-111688769D01*
X128760731Y-111594699D01*
X128741306Y-111583484D01*
X143294750Y-111583484D01*
X143294750Y-111716515D01*
X143294751Y-111716523D01*
X143329180Y-111845015D01*
X143329181Y-111845018D01*
X143329182Y-111845019D01*
X143395699Y-111960231D01*
X143489769Y-112054301D01*
X143604981Y-112120818D01*
X143604984Y-112120819D01*
X143683621Y-112141889D01*
X143733483Y-112155250D01*
X143733484Y-112155250D01*
X143866516Y-112155250D01*
X143866517Y-112155250D01*
X143995019Y-112120818D01*
X144110231Y-112054301D01*
X144204301Y-111960231D01*
X144270818Y-111845019D01*
X144305250Y-111716517D01*
X144305250Y-111583483D01*
X144270818Y-111454981D01*
X144204301Y-111339769D01*
X144110231Y-111245699D01*
X144003562Y-111184114D01*
X143995018Y-111179181D01*
X143995015Y-111179180D01*
X143866523Y-111144751D01*
X143866518Y-111144750D01*
X143866517Y-111144750D01*
X143733483Y-111144750D01*
X143733482Y-111144750D01*
X143733476Y-111144751D01*
X143604984Y-111179180D01*
X143604981Y-111179181D01*
X143523996Y-111225937D01*
X143489769Y-111245699D01*
X143489768Y-111245700D01*
X143489764Y-111245703D01*
X143395703Y-111339764D01*
X143395700Y-111339768D01*
X143329181Y-111454981D01*
X143329180Y-111454984D01*
X143294751Y-111583476D01*
X143294750Y-111583484D01*
X128741306Y-111583484D01*
X128672002Y-111543472D01*
X128642884Y-111505523D01*
X128649127Y-111458097D01*
X128659060Y-111445153D01*
X128776751Y-111327462D01*
X128886187Y-111163680D01*
X128886188Y-111163678D01*
X128961568Y-110981697D01*
X128961570Y-110981689D01*
X128969863Y-110940000D01*
X128250000Y-110940000D01*
X128250000Y-111495261D01*
X128231694Y-111539455D01*
X128218750Y-111549387D01*
X128140272Y-111594696D01*
X128140263Y-111594703D01*
X128046203Y-111688764D01*
X128046200Y-111688768D01*
X127979681Y-111803981D01*
X127979680Y-111803984D01*
X127945251Y-111932476D01*
X127945250Y-111932484D01*
X127501000Y-111932484D01*
X127501000Y-111659238D01*
X127519306Y-111615044D01*
X127563500Y-111596738D01*
X127587418Y-111601496D01*
X127708302Y-111651568D01*
X127708310Y-111651570D01*
X127749999Y-111659863D01*
X127750000Y-111659863D01*
X127750000Y-110856988D01*
X127759940Y-110874205D01*
X127815795Y-110930060D01*
X127884204Y-110969556D01*
X127960504Y-110990000D01*
X128039496Y-110990000D01*
X128115796Y-110969556D01*
X128184205Y-110930060D01*
X128240060Y-110874205D01*
X128279556Y-110805796D01*
X128300000Y-110729496D01*
X128300000Y-110650504D01*
X128279556Y-110574204D01*
X128240060Y-110505795D01*
X128184205Y-110449940D01*
X128166988Y-110440000D01*
X128969863Y-110440000D01*
X128969863Y-110439999D01*
X128961570Y-110398310D01*
X128961568Y-110398302D01*
X128886188Y-110216321D01*
X128886187Y-110216319D01*
X128825824Y-110125980D01*
X128804265Y-110093715D01*
X137049500Y-110093715D01*
X137049500Y-110306284D01*
X137049501Y-110306300D01*
X137082753Y-110516240D01*
X137082753Y-110516241D01*
X137148442Y-110718410D01*
X137148446Y-110718418D01*
X137244949Y-110907817D01*
X137369897Y-111079794D01*
X137520205Y-111230102D01*
X137692182Y-111355050D01*
X137692184Y-111355051D01*
X137881588Y-111451557D01*
X138083757Y-111517246D01*
X138152804Y-111528182D01*
X138293699Y-111550498D01*
X138293705Y-111550498D01*
X138293713Y-111550500D01*
X138293715Y-111550500D01*
X138506285Y-111550500D01*
X138506287Y-111550500D01*
X138513315Y-111549387D01*
X138713648Y-111517657D01*
X138713649Y-111517657D01*
X138714900Y-111517458D01*
X138716243Y-111517246D01*
X138918412Y-111451557D01*
X139107816Y-111355051D01*
X139279792Y-111230104D01*
X139430104Y-111079792D01*
X139555051Y-110907816D01*
X139567449Y-110883484D01*
X151344750Y-110883484D01*
X151344750Y-111016515D01*
X151344751Y-111016523D01*
X151379180Y-111145015D01*
X151379181Y-111145018D01*
X151389956Y-111163680D01*
X151445699Y-111260231D01*
X151539769Y-111354301D01*
X151654981Y-111420818D01*
X151654984Y-111420819D01*
X151733621Y-111441889D01*
X151783483Y-111455250D01*
X151783484Y-111455250D01*
X151916516Y-111455250D01*
X151916517Y-111455250D01*
X152045019Y-111420818D01*
X152160231Y-111354301D01*
X152254301Y-111260231D01*
X152320818Y-111145019D01*
X152355250Y-111016517D01*
X152355250Y-110883483D01*
X152346550Y-110851013D01*
X152345090Y-110845563D01*
X152341853Y-110833484D01*
X154294750Y-110833484D01*
X154294750Y-110966515D01*
X154294751Y-110966523D01*
X154329180Y-111095015D01*
X154329181Y-111095018D01*
X154329182Y-111095019D01*
X154395699Y-111210231D01*
X154489769Y-111304301D01*
X154604981Y-111370818D01*
X154604984Y-111370819D01*
X154683621Y-111391889D01*
X154733483Y-111405250D01*
X154733484Y-111405250D01*
X154866516Y-111405250D01*
X154866517Y-111405250D01*
X154995019Y-111370818D01*
X155110231Y-111304301D01*
X155204301Y-111210231D01*
X155270818Y-111095019D01*
X155305250Y-110966517D01*
X155305250Y-110833483D01*
X155284216Y-110754984D01*
X155270819Y-110704984D01*
X155270818Y-110704981D01*
X155233168Y-110639769D01*
X155215665Y-110609453D01*
X155209423Y-110562029D01*
X155238543Y-110524078D01*
X155244210Y-110521284D01*
X155245015Y-110520818D01*
X155245019Y-110520818D01*
X155360231Y-110454301D01*
X155454301Y-110360231D01*
X155520818Y-110245019D01*
X155555250Y-110116517D01*
X155555250Y-109983483D01*
X155533334Y-109901691D01*
X155520819Y-109854984D01*
X155520818Y-109854981D01*
X155492254Y-109805507D01*
X155454301Y-109739769D01*
X155360231Y-109645699D01*
X155261853Y-109588901D01*
X155245018Y-109579181D01*
X155245015Y-109579180D01*
X155116523Y-109544751D01*
X155116518Y-109544750D01*
X155116517Y-109544750D01*
X154983483Y-109544750D01*
X154983482Y-109544750D01*
X154983476Y-109544751D01*
X154854984Y-109579180D01*
X154854981Y-109579181D01*
X154780036Y-109622451D01*
X154739769Y-109645699D01*
X154739768Y-109645700D01*
X154739764Y-109645703D01*
X154645703Y-109739764D01*
X154645700Y-109739768D01*
X154579181Y-109854981D01*
X154579180Y-109854984D01*
X154544751Y-109983476D01*
X154544750Y-109983484D01*
X154544750Y-110116515D01*
X154544751Y-110116523D01*
X154579180Y-110245015D01*
X154579181Y-110245018D01*
X154595569Y-110273402D01*
X154623073Y-110321042D01*
X154634333Y-110340544D01*
X154640576Y-110387971D01*
X154611456Y-110425921D01*
X154605790Y-110428714D01*
X154556476Y-110457186D01*
X154489769Y-110495699D01*
X154489768Y-110495700D01*
X154489764Y-110495703D01*
X154395703Y-110589764D01*
X154395700Y-110589768D01*
X154395699Y-110589769D01*
X154375937Y-110623996D01*
X154329181Y-110704981D01*
X154329180Y-110704984D01*
X154294751Y-110833476D01*
X154294750Y-110833484D01*
X152341853Y-110833484D01*
X152320819Y-110754984D01*
X152320818Y-110754981D01*
X152306104Y-110729496D01*
X152254301Y-110639769D01*
X152160231Y-110545699D01*
X152072893Y-110495275D01*
X152045018Y-110479181D01*
X152045015Y-110479180D01*
X151916523Y-110444751D01*
X151916518Y-110444750D01*
X151916517Y-110444750D01*
X151783483Y-110444750D01*
X151783482Y-110444750D01*
X151783476Y-110444751D01*
X151654984Y-110479180D01*
X151654981Y-110479181D01*
X151582057Y-110521284D01*
X151539769Y-110545699D01*
X151539768Y-110545700D01*
X151539764Y-110545703D01*
X151445703Y-110639764D01*
X151445700Y-110639768D01*
X151379181Y-110754981D01*
X151379180Y-110754984D01*
X151344751Y-110883476D01*
X151344750Y-110883484D01*
X139567449Y-110883484D01*
X139651557Y-110718412D01*
X139717246Y-110516243D01*
X139750500Y-110306287D01*
X139750500Y-110093713D01*
X139748142Y-110078828D01*
X139730339Y-109966420D01*
X139717246Y-109883757D01*
X139651557Y-109681588D01*
X139555051Y-109492184D01*
X139545467Y-109478993D01*
X139430102Y-109320205D01*
X139279794Y-109169897D01*
X139155992Y-109079951D01*
X139155991Y-109079950D01*
X139107818Y-109044950D01*
X139085315Y-109033484D01*
X143444750Y-109033484D01*
X143444750Y-109166515D01*
X143444751Y-109166523D01*
X143479180Y-109295015D01*
X143479181Y-109295018D01*
X143479182Y-109295019D01*
X143545699Y-109410231D01*
X143639769Y-109504301D01*
X143714593Y-109547500D01*
X143754981Y-109570818D01*
X143754984Y-109570819D01*
X143822449Y-109588896D01*
X143883483Y-109605250D01*
X143883484Y-109605250D01*
X144016516Y-109605250D01*
X144016517Y-109605250D01*
X144145019Y-109570818D01*
X144260231Y-109504301D01*
X144354301Y-109410231D01*
X144420818Y-109295019D01*
X144455250Y-109166517D01*
X144455250Y-109033483D01*
X144441889Y-108983621D01*
X144420819Y-108904984D01*
X144420818Y-108904981D01*
X144410045Y-108886321D01*
X144354301Y-108789769D01*
X144260231Y-108695699D01*
X144179246Y-108648943D01*
X144145018Y-108629181D01*
X144145015Y-108629180D01*
X144016523Y-108594751D01*
X144016518Y-108594750D01*
X144016517Y-108594750D01*
X143883483Y-108594750D01*
X143883482Y-108594750D01*
X143883476Y-108594751D01*
X143754984Y-108629180D01*
X143754981Y-108629181D01*
X143682863Y-108670819D01*
X143639769Y-108695699D01*
X143639768Y-108695700D01*
X143639764Y-108695703D01*
X143545703Y-108789764D01*
X143545700Y-108789768D01*
X143479181Y-108904981D01*
X143479180Y-108904984D01*
X143444751Y-109033476D01*
X143444750Y-109033484D01*
X139085315Y-109033484D01*
X138918418Y-108948446D01*
X138918410Y-108948442D01*
X138716241Y-108882753D01*
X138506300Y-108849501D01*
X138506288Y-108849500D01*
X138506287Y-108849500D01*
X138293713Y-108849500D01*
X138293711Y-108849500D01*
X138293699Y-108849501D01*
X138083759Y-108882753D01*
X138083758Y-108882753D01*
X137881589Y-108948442D01*
X137881581Y-108948446D01*
X137692182Y-109044949D01*
X137520205Y-109169897D01*
X137369897Y-109320205D01*
X137244949Y-109492182D01*
X137148446Y-109681581D01*
X137148442Y-109681589D01*
X137082753Y-109883758D01*
X137082753Y-109883759D01*
X137049501Y-110093699D01*
X137049500Y-110093715D01*
X128804265Y-110093715D01*
X128776751Y-110052537D01*
X128637462Y-109913248D01*
X128598698Y-109887347D01*
X128572122Y-109847573D01*
X128581453Y-109800659D01*
X128620775Y-109741811D01*
X128673580Y-109614328D01*
X128700500Y-109478993D01*
X128700500Y-109341007D01*
X128673580Y-109205672D01*
X128620775Y-109078189D01*
X128544114Y-108963458D01*
X128446542Y-108865886D01*
X128446541Y-108865885D01*
X128331813Y-108789226D01*
X128331811Y-108789225D01*
X128204326Y-108736419D01*
X128068993Y-108709500D01*
X127931007Y-108709500D01*
X127795673Y-108736419D01*
X127795672Y-108736419D01*
X127668188Y-108789225D01*
X127668180Y-108789229D01*
X127598664Y-108835678D01*
X127551748Y-108845010D01*
X127511975Y-108818433D01*
X127501442Y-108783690D01*
X127501861Y-107633484D01*
X129044750Y-107633484D01*
X129044750Y-107766515D01*
X129044751Y-107766523D01*
X129079180Y-107895015D01*
X129079181Y-107895018D01*
X129084935Y-107904984D01*
X129145699Y-108010231D01*
X129239769Y-108104301D01*
X129347542Y-108166523D01*
X129354981Y-108170818D01*
X129354984Y-108170819D01*
X129433621Y-108191889D01*
X129483483Y-108205250D01*
X129483484Y-108205250D01*
X129616516Y-108205250D01*
X129616517Y-108205250D01*
X129745019Y-108170818D01*
X129860231Y-108104301D01*
X129954301Y-108010231D01*
X130020818Y-107895019D01*
X130055250Y-107766517D01*
X130055250Y-107633483D01*
X130047613Y-107604981D01*
X130045090Y-107595563D01*
X130041853Y-107583484D01*
X145194750Y-107583484D01*
X145194750Y-107716515D01*
X145194751Y-107716523D01*
X145229180Y-107845015D01*
X145229181Y-107845018D01*
X145241594Y-107866517D01*
X145295699Y-107960231D01*
X145389769Y-108054301D01*
X145486644Y-108110231D01*
X145504981Y-108120818D01*
X145504984Y-108120819D01*
X145526552Y-108126598D01*
X145633483Y-108155250D01*
X145633484Y-108155250D01*
X145766516Y-108155250D01*
X145766517Y-108155250D01*
X145895019Y-108120818D01*
X146010231Y-108054301D01*
X146104301Y-107960231D01*
X146170818Y-107845019D01*
X146205250Y-107716517D01*
X146205250Y-107583483D01*
X146191719Y-107532984D01*
X149144250Y-107532984D01*
X149144250Y-107666015D01*
X149144251Y-107666023D01*
X149178680Y-107794515D01*
X149178681Y-107794518D01*
X149186970Y-107808875D01*
X149245199Y-107909731D01*
X149339269Y-108003801D01*
X149428339Y-108055225D01*
X149454481Y-108070318D01*
X149454484Y-108070319D01*
X149493921Y-108080886D01*
X149582983Y-108104750D01*
X149582984Y-108104750D01*
X149716016Y-108104750D01*
X149716017Y-108104750D01*
X149844519Y-108070318D01*
X149959731Y-108003801D01*
X150053801Y-107909731D01*
X150120318Y-107794519D01*
X150132833Y-107747813D01*
X150136673Y-107733484D01*
X154294750Y-107733484D01*
X154294750Y-107866515D01*
X154294751Y-107866523D01*
X154329180Y-107995015D01*
X154329181Y-107995018D01*
X154337967Y-108010235D01*
X154395699Y-108110231D01*
X154489769Y-108204301D01*
X154597542Y-108266523D01*
X154604981Y-108270818D01*
X154604984Y-108270819D01*
X154683621Y-108291889D01*
X154733483Y-108305250D01*
X154733484Y-108305250D01*
X154866516Y-108305250D01*
X154866517Y-108305250D01*
X154995019Y-108270818D01*
X155110231Y-108204301D01*
X155204301Y-108110231D01*
X155270818Y-107995019D01*
X155305250Y-107866517D01*
X155305250Y-107733483D01*
X155278453Y-107633476D01*
X155270819Y-107604984D01*
X155270818Y-107604981D01*
X155204301Y-107489769D01*
X155110231Y-107395699D01*
X155025891Y-107347006D01*
X154995018Y-107329181D01*
X154995015Y-107329180D01*
X154866523Y-107294751D01*
X154866518Y-107294750D01*
X154866517Y-107294750D01*
X154733483Y-107294750D01*
X154733482Y-107294750D01*
X154733476Y-107294751D01*
X154604984Y-107329180D01*
X154604981Y-107329181D01*
X154523996Y-107375937D01*
X154489769Y-107395699D01*
X154489768Y-107395700D01*
X154489764Y-107395703D01*
X154395703Y-107489764D01*
X154395700Y-107489768D01*
X154395699Y-107489769D01*
X154386761Y-107505250D01*
X154329181Y-107604981D01*
X154329180Y-107604984D01*
X154294751Y-107733476D01*
X154294750Y-107733484D01*
X150136673Y-107733484D01*
X150142105Y-107713211D01*
X150154748Y-107666023D01*
X150154750Y-107666015D01*
X150154750Y-107532984D01*
X150154748Y-107532976D01*
X150143169Y-107489764D01*
X150133850Y-107454984D01*
X150120319Y-107404484D01*
X150120318Y-107404481D01*
X150111824Y-107389769D01*
X150053801Y-107289269D01*
X149959731Y-107195199D01*
X149872350Y-107144750D01*
X149844518Y-107128681D01*
X149844515Y-107128680D01*
X149716023Y-107094251D01*
X149716018Y-107094250D01*
X149716017Y-107094250D01*
X149582983Y-107094250D01*
X149582982Y-107094250D01*
X149582976Y-107094251D01*
X149454484Y-107128680D01*
X149454481Y-107128681D01*
X149373496Y-107175437D01*
X149339269Y-107195199D01*
X149339268Y-107195200D01*
X149339264Y-107195203D01*
X149245203Y-107289264D01*
X149245200Y-107289268D01*
X149245199Y-107289269D01*
X149225437Y-107323496D01*
X149178681Y-107404481D01*
X149178680Y-107404484D01*
X149144251Y-107532976D01*
X149144250Y-107532984D01*
X146191719Y-107532984D01*
X146184287Y-107505248D01*
X146181187Y-107493677D01*
X146187430Y-107446251D01*
X146225381Y-107417131D01*
X146272804Y-107423373D01*
X146305291Y-107442130D01*
X146354975Y-107470815D01*
X146354978Y-107470816D01*
X146354981Y-107470818D01*
X146354982Y-107470818D01*
X146354984Y-107470819D01*
X146407883Y-107484993D01*
X146483483Y-107505250D01*
X146483484Y-107505250D01*
X146616516Y-107505250D01*
X146616517Y-107505250D01*
X146745019Y-107470818D01*
X146860231Y-107404301D01*
X146954301Y-107310231D01*
X147020818Y-107195019D01*
X147055250Y-107066517D01*
X147055250Y-106933483D01*
X147054689Y-106931391D01*
X147040123Y-106877028D01*
X147046366Y-106829601D01*
X147084316Y-106800481D01*
X147084317Y-106800481D01*
X147195015Y-106770819D01*
X147195013Y-106770819D01*
X147195019Y-106770818D01*
X147310231Y-106704301D01*
X147332048Y-106682484D01*
X149944250Y-106682484D01*
X149944250Y-106815515D01*
X149944251Y-106815523D01*
X149978680Y-106944015D01*
X149978681Y-106944018D01*
X149978682Y-106944019D01*
X150045199Y-107059231D01*
X150139269Y-107153301D01*
X150254481Y-107219818D01*
X150254484Y-107219819D01*
X150279885Y-107226625D01*
X150382983Y-107254250D01*
X150382984Y-107254250D01*
X150516016Y-107254250D01*
X150516017Y-107254250D01*
X150644519Y-107219818D01*
X150759731Y-107153301D01*
X150853801Y-107059231D01*
X150920318Y-106944019D01*
X150954750Y-106815517D01*
X150954750Y-106682483D01*
X150937076Y-106616523D01*
X150920319Y-106553984D01*
X150920315Y-106553975D01*
X150888874Y-106499518D01*
X150872770Y-106471626D01*
X150866527Y-106424201D01*
X150895647Y-106386251D01*
X150910713Y-106380010D01*
X150927545Y-106375500D01*
X156280137Y-106375500D01*
X156288429Y-106417189D01*
X156288431Y-106417197D01*
X156363811Y-106599178D01*
X156363812Y-106599180D01*
X156473248Y-106762962D01*
X156612537Y-106902251D01*
X156656151Y-106931393D01*
X156682727Y-106971167D01*
X156673395Y-107018083D01*
X156629226Y-107084185D01*
X156629225Y-107084188D01*
X156576419Y-107211672D01*
X156576419Y-107211673D01*
X156549500Y-107347006D01*
X156549500Y-107484993D01*
X156576419Y-107620326D01*
X156576419Y-107620327D01*
X156629225Y-107747811D01*
X156629226Y-107747813D01*
X156694177Y-107845019D01*
X156705886Y-107862542D01*
X156803458Y-107960114D01*
X156811555Y-107965524D01*
X156816059Y-107968534D01*
X156842634Y-108008309D01*
X156833300Y-108055225D01*
X156816059Y-108072466D01*
X156803457Y-108080886D01*
X156705885Y-108178458D01*
X156629226Y-108293186D01*
X156629225Y-108293188D01*
X156576419Y-108420672D01*
X156576419Y-108420673D01*
X156549500Y-108556006D01*
X156549500Y-108693993D01*
X156576419Y-108829326D01*
X156576419Y-108829327D01*
X156629225Y-108956811D01*
X156629226Y-108956813D01*
X156705885Y-109071541D01*
X156803458Y-109169114D01*
X156846364Y-109197783D01*
X156872940Y-109237557D01*
X156863608Y-109284473D01*
X156846364Y-109301717D01*
X156803458Y-109330385D01*
X156705885Y-109427958D01*
X156629226Y-109542686D01*
X156629225Y-109542688D01*
X156576419Y-109670172D01*
X156576419Y-109670173D01*
X156549500Y-109805506D01*
X156549500Y-109943493D01*
X156576419Y-110078826D01*
X156576419Y-110078827D01*
X156629225Y-110206311D01*
X156629226Y-110206313D01*
X156705885Y-110321041D01*
X156705886Y-110321042D01*
X156803458Y-110418614D01*
X156918189Y-110495275D01*
X157045672Y-110548080D01*
X157181007Y-110575000D01*
X157318993Y-110575000D01*
X157454328Y-110548080D01*
X157581811Y-110495275D01*
X157696542Y-110418614D01*
X157794114Y-110321042D01*
X157870775Y-110206311D01*
X157923580Y-110078828D01*
X157950500Y-109943493D01*
X157950500Y-109805507D01*
X157923580Y-109670172D01*
X157870775Y-109542689D01*
X157794114Y-109427958D01*
X157696542Y-109330386D01*
X157653634Y-109301715D01*
X157627059Y-109261944D01*
X157636391Y-109215027D01*
X157653633Y-109197784D01*
X157696542Y-109169114D01*
X157794114Y-109071542D01*
X157870775Y-108956811D01*
X157923580Y-108829328D01*
X157950500Y-108693993D01*
X157950500Y-108556007D01*
X157923580Y-108420672D01*
X157870775Y-108293189D01*
X157794114Y-108178458D01*
X157749140Y-108133484D01*
X159394750Y-108133484D01*
X159394750Y-108266515D01*
X159394751Y-108266523D01*
X159429180Y-108395015D01*
X159429181Y-108395018D01*
X159443993Y-108420672D01*
X159495699Y-108510231D01*
X159589769Y-108604301D01*
X159704981Y-108670818D01*
X159704984Y-108670819D01*
X159783621Y-108691889D01*
X159833483Y-108705250D01*
X159833484Y-108705250D01*
X159966516Y-108705250D01*
X159966517Y-108705250D01*
X160095019Y-108670818D01*
X160210231Y-108604301D01*
X160304301Y-108510231D01*
X160315329Y-108491127D01*
X160353276Y-108462007D01*
X160400702Y-108468247D01*
X160413650Y-108478182D01*
X160439769Y-108504301D01*
X160554981Y-108570818D01*
X160554984Y-108570819D01*
X160601370Y-108583248D01*
X160683483Y-108605250D01*
X160683484Y-108605250D01*
X160816516Y-108605250D01*
X160816517Y-108605250D01*
X160945019Y-108570818D01*
X161060231Y-108504301D01*
X161101826Y-108462705D01*
X161146017Y-108444401D01*
X161190212Y-108462706D01*
X161208518Y-108506900D01*
X161196582Y-108543637D01*
X161138768Y-108623210D01*
X161060130Y-108777548D01*
X161060126Y-108777556D01*
X161006597Y-108942300D01*
X161006597Y-108942301D01*
X160979501Y-109113375D01*
X160979500Y-109113391D01*
X160979500Y-109286608D01*
X160979501Y-109286624D01*
X161006597Y-109457698D01*
X161006597Y-109457699D01*
X161060126Y-109622443D01*
X161060130Y-109622451D01*
X161138769Y-109776790D01*
X161240585Y-109916927D01*
X161240592Y-109916935D01*
X161363064Y-110039407D01*
X161363072Y-110039414D01*
X161417320Y-110078828D01*
X161503212Y-110141232D01*
X161657555Y-110219873D01*
X161822299Y-110273402D01*
X161894407Y-110284822D01*
X161993375Y-110300498D01*
X161993381Y-110300498D01*
X161993389Y-110300500D01*
X161993391Y-110300500D01*
X162166609Y-110300500D01*
X162166611Y-110300500D01*
X162337701Y-110273402D01*
X162502445Y-110219873D01*
X162656788Y-110141232D01*
X162796928Y-110039414D01*
X162919414Y-109916928D01*
X163021232Y-109776788D01*
X163099873Y-109622445D01*
X163099874Y-109622443D01*
X163100988Y-109620257D01*
X163101809Y-109620675D01*
X163133575Y-109588901D01*
X163181411Y-109588896D01*
X163215240Y-109622716D01*
X163220000Y-109646641D01*
X163220000Y-110147835D01*
X163226402Y-110207377D01*
X163276647Y-110342091D01*
X163276649Y-110342094D01*
X163362808Y-110457186D01*
X163362813Y-110457191D01*
X163477905Y-110543350D01*
X163477908Y-110543352D01*
X163612622Y-110593597D01*
X163672164Y-110599999D01*
X163672178Y-110600000D01*
X164370000Y-110600000D01*
X164370000Y-109748482D01*
X164388409Y-109759111D01*
X164541009Y-109800000D01*
X164698991Y-109800000D01*
X164851591Y-109759111D01*
X164870000Y-109748482D01*
X164870000Y-110600000D01*
X165567822Y-110600000D01*
X165567835Y-110599999D01*
X165627377Y-110593597D01*
X165762091Y-110543352D01*
X165762094Y-110543350D01*
X165877186Y-110457191D01*
X165877191Y-110457186D01*
X165963350Y-110342094D01*
X165963352Y-110342091D01*
X166013597Y-110207377D01*
X166019999Y-110147835D01*
X166020000Y-110147822D01*
X166020000Y-109450000D01*
X165168482Y-109450000D01*
X165179111Y-109431591D01*
X165220000Y-109278991D01*
X165220000Y-109121009D01*
X165217050Y-109109999D01*
X171030136Y-109109999D01*
X171030137Y-109110000D01*
X171750000Y-109110000D01*
X171750000Y-108390136D01*
X171708311Y-108398428D01*
X171526321Y-108473811D01*
X171526319Y-108473812D01*
X171362537Y-108583248D01*
X171223248Y-108722537D01*
X171113812Y-108886319D01*
X171113811Y-108886321D01*
X171038431Y-109068302D01*
X171038429Y-109068310D01*
X171030136Y-109109999D01*
X165217050Y-109109999D01*
X165179111Y-108968409D01*
X165168482Y-108950000D01*
X166020000Y-108950000D01*
X166020000Y-108252177D01*
X166019999Y-108252164D01*
X166013597Y-108192622D01*
X165963352Y-108057908D01*
X165963350Y-108057905D01*
X165877191Y-107942813D01*
X165877186Y-107942808D01*
X165762094Y-107856649D01*
X165762091Y-107856647D01*
X165627377Y-107806402D01*
X165567835Y-107800000D01*
X164870000Y-107800000D01*
X164870000Y-108651517D01*
X164851591Y-108640889D01*
X164698991Y-108600000D01*
X164541009Y-108600000D01*
X164388409Y-108640889D01*
X164370000Y-108651517D01*
X164370000Y-107800000D01*
X163672164Y-107800000D01*
X163612622Y-107806402D01*
X163477908Y-107856647D01*
X163477905Y-107856649D01*
X163362813Y-107942808D01*
X163362808Y-107942813D01*
X163276649Y-108057905D01*
X163276647Y-108057908D01*
X163226402Y-108192622D01*
X163220000Y-108252164D01*
X163220000Y-108753358D01*
X163201694Y-108797552D01*
X163157500Y-108815858D01*
X163113306Y-108797552D01*
X163101299Y-108779584D01*
X163100988Y-108779743D01*
X163070487Y-108719881D01*
X163021232Y-108623212D01*
X163008180Y-108605248D01*
X162919414Y-108483072D01*
X162919407Y-108483064D01*
X162796935Y-108360592D01*
X162796927Y-108360585D01*
X162656790Y-108258769D01*
X162502451Y-108180130D01*
X162502443Y-108180126D01*
X162337699Y-108126597D01*
X162166624Y-108099501D01*
X162166612Y-108099500D01*
X162166611Y-108099500D01*
X161993389Y-108099500D01*
X161993387Y-108099500D01*
X161993375Y-108099501D01*
X161822301Y-108126597D01*
X161822300Y-108126597D01*
X161657556Y-108180126D01*
X161657548Y-108180130D01*
X161503209Y-108258769D01*
X161363072Y-108360585D01*
X161363064Y-108360592D01*
X161272617Y-108451039D01*
X161228423Y-108469345D01*
X161184229Y-108451039D01*
X161165923Y-108406845D01*
X161174296Y-108375597D01*
X161220818Y-108295019D01*
X161255250Y-108166517D01*
X161255250Y-108033483D01*
X161220818Y-107904981D01*
X161154301Y-107789769D01*
X161060231Y-107695699D01*
X160979246Y-107648943D01*
X160945018Y-107629181D01*
X160945015Y-107629180D01*
X160816523Y-107594751D01*
X160816518Y-107594750D01*
X160816517Y-107594750D01*
X160683483Y-107594750D01*
X160683482Y-107594750D01*
X160683476Y-107594751D01*
X160554984Y-107629180D01*
X160554981Y-107629181D01*
X160473996Y-107675937D01*
X160439769Y-107695699D01*
X160439768Y-107695700D01*
X160439764Y-107695703D01*
X160345699Y-107789768D01*
X160334667Y-107808875D01*
X160296715Y-107837993D01*
X160249289Y-107831747D01*
X160236348Y-107821816D01*
X160210235Y-107795703D01*
X160210231Y-107795699D01*
X160127286Y-107747811D01*
X160095018Y-107729181D01*
X160095015Y-107729180D01*
X159966523Y-107694751D01*
X159966518Y-107694750D01*
X159966517Y-107694750D01*
X159833483Y-107694750D01*
X159833482Y-107694750D01*
X159833476Y-107694751D01*
X159704984Y-107729180D01*
X159704981Y-107729181D01*
X159623996Y-107775937D01*
X159589769Y-107795699D01*
X159589768Y-107795700D01*
X159589764Y-107795703D01*
X159495703Y-107889764D01*
X159495700Y-107889768D01*
X159495699Y-107889769D01*
X159486915Y-107904984D01*
X159429181Y-108004981D01*
X159429180Y-108004984D01*
X159394751Y-108133476D01*
X159394750Y-108133484D01*
X157749140Y-108133484D01*
X157696542Y-108080886D01*
X157683940Y-108072466D01*
X157657365Y-108032695D01*
X157666696Y-107985778D01*
X157683938Y-107968535D01*
X157696542Y-107960114D01*
X157794114Y-107862542D01*
X157870775Y-107747811D01*
X157923580Y-107620328D01*
X157950500Y-107484993D01*
X157950500Y-107347007D01*
X157923580Y-107211672D01*
X157870775Y-107084189D01*
X157870773Y-107084187D01*
X157870773Y-107084185D01*
X157826604Y-107018082D01*
X157817272Y-106971166D01*
X157843848Y-106931392D01*
X157843849Y-106931391D01*
X157887464Y-106902249D01*
X158026751Y-106762962D01*
X158136187Y-106599180D01*
X158136188Y-106599178D01*
X158184111Y-106483484D01*
X169294750Y-106483484D01*
X169294750Y-106616515D01*
X169294751Y-106616523D01*
X169329180Y-106745015D01*
X169329181Y-106745018D01*
X169329182Y-106745019D01*
X169395699Y-106860231D01*
X169489769Y-106954301D01*
X169600242Y-107018082D01*
X169604981Y-107020818D01*
X169604984Y-107020819D01*
X169683621Y-107041889D01*
X169733483Y-107055250D01*
X169733484Y-107055250D01*
X169866516Y-107055250D01*
X169866517Y-107055250D01*
X169995019Y-107020818D01*
X170110231Y-106954301D01*
X170204301Y-106860231D01*
X170270818Y-106745019D01*
X170305250Y-106616517D01*
X170305250Y-106483483D01*
X170277660Y-106380517D01*
X170270819Y-106354984D01*
X170270818Y-106354981D01*
X170263385Y-106342106D01*
X170204301Y-106239769D01*
X170110231Y-106145699D01*
X169995435Y-106079422D01*
X169995018Y-106079181D01*
X169995015Y-106079180D01*
X169866523Y-106044751D01*
X169866518Y-106044750D01*
X169866517Y-106044750D01*
X169733483Y-106044750D01*
X169733482Y-106044750D01*
X169733476Y-106044751D01*
X169604984Y-106079180D01*
X169604981Y-106079181D01*
X169523996Y-106125937D01*
X169489769Y-106145699D01*
X169489768Y-106145700D01*
X169489764Y-106145703D01*
X169395703Y-106239764D01*
X169395700Y-106239768D01*
X169329181Y-106354981D01*
X169329180Y-106354984D01*
X169294751Y-106483476D01*
X169294750Y-106483484D01*
X158184111Y-106483484D01*
X158195714Y-106455472D01*
X158195715Y-106455470D01*
X158211570Y-106417192D01*
X158211570Y-106417189D01*
X158219863Y-106375500D01*
X157494975Y-106375500D01*
X157530070Y-106340405D01*
X157576148Y-106260595D01*
X157600000Y-106171578D01*
X157600000Y-106079422D01*
X157576148Y-105990405D01*
X157530070Y-105910595D01*
X157494975Y-105875500D01*
X157500000Y-105875500D01*
X158219863Y-105875500D01*
X158219863Y-105875499D01*
X158211570Y-105833810D01*
X158211568Y-105833802D01*
X158136188Y-105651821D01*
X158136187Y-105651819D01*
X158026751Y-105488037D01*
X157887462Y-105348748D01*
X157723680Y-105239312D01*
X157723678Y-105239311D01*
X157541688Y-105163928D01*
X157500000Y-105155636D01*
X157500000Y-105875500D01*
X157494975Y-105875500D01*
X157464905Y-105845430D01*
X157385095Y-105799352D01*
X157296078Y-105775500D01*
X157203922Y-105775500D01*
X157114905Y-105799352D01*
X157035095Y-105845430D01*
X156969930Y-105910595D01*
X156923852Y-105990405D01*
X156900000Y-106079422D01*
X156900000Y-106171578D01*
X156923852Y-106260595D01*
X156969930Y-106340405D01*
X157005025Y-106375500D01*
X156280137Y-106375500D01*
X150927545Y-106375500D01*
X150945019Y-106370818D01*
X151060231Y-106304301D01*
X151154301Y-106210231D01*
X151220818Y-106095019D01*
X151255250Y-105966517D01*
X151255250Y-105875499D01*
X156280136Y-105875499D01*
X156280137Y-105875500D01*
X157000000Y-105875500D01*
X157000000Y-105155636D01*
X156958311Y-105163928D01*
X156776321Y-105239311D01*
X156776319Y-105239312D01*
X156612537Y-105348748D01*
X156473248Y-105488037D01*
X156363812Y-105651819D01*
X156363811Y-105651821D01*
X156288431Y-105833802D01*
X156288429Y-105833810D01*
X156280136Y-105875499D01*
X151255250Y-105875499D01*
X151255250Y-105833483D01*
X151220818Y-105704981D01*
X151188496Y-105648998D01*
X151182254Y-105601574D01*
X151211374Y-105563623D01*
X151242624Y-105555250D01*
X151266516Y-105555250D01*
X151266517Y-105555250D01*
X151395019Y-105520818D01*
X151510231Y-105454301D01*
X151604301Y-105360231D01*
X151670818Y-105245019D01*
X151705250Y-105116517D01*
X151705250Y-104983483D01*
X151677303Y-104879182D01*
X151670819Y-104854984D01*
X151670818Y-104854981D01*
X151644984Y-104810235D01*
X151604301Y-104739769D01*
X151510231Y-104645699D01*
X151429246Y-104598943D01*
X151395018Y-104579181D01*
X151395015Y-104579180D01*
X151266523Y-104544751D01*
X151266518Y-104544750D01*
X151266517Y-104544750D01*
X151133483Y-104544750D01*
X151133482Y-104544750D01*
X151133476Y-104544751D01*
X151004984Y-104579180D01*
X151004981Y-104579181D01*
X150923996Y-104625937D01*
X150889769Y-104645699D01*
X150889768Y-104645700D01*
X150889764Y-104645703D01*
X150795703Y-104739764D01*
X150795700Y-104739768D01*
X150729181Y-104854981D01*
X150729180Y-104854984D01*
X150694751Y-104983476D01*
X150694750Y-104983484D01*
X150694750Y-105116515D01*
X150694751Y-105116523D01*
X150729180Y-105245015D01*
X150729181Y-105245018D01*
X150729182Y-105245019D01*
X150761503Y-105301001D01*
X150767746Y-105348426D01*
X150738626Y-105386377D01*
X150707376Y-105394750D01*
X150683483Y-105394750D01*
X150683482Y-105394750D01*
X150683476Y-105394751D01*
X150554984Y-105429180D01*
X150554981Y-105429181D01*
X150473996Y-105475937D01*
X150439769Y-105495699D01*
X150439768Y-105495700D01*
X150439764Y-105495703D01*
X150345703Y-105589764D01*
X150345700Y-105589768D01*
X150345699Y-105589769D01*
X150325937Y-105623996D01*
X150279181Y-105704981D01*
X150279180Y-105704984D01*
X150244751Y-105833476D01*
X150244750Y-105833484D01*
X150244750Y-105966515D01*
X150244751Y-105966523D01*
X150279180Y-106095015D01*
X150279181Y-106095018D01*
X150284935Y-106104984D01*
X150326728Y-106177372D01*
X150332971Y-106224797D01*
X150303851Y-106262748D01*
X150288779Y-106268991D01*
X150254482Y-106278181D01*
X150254481Y-106278181D01*
X150173496Y-106324937D01*
X150139269Y-106344699D01*
X150139268Y-106344700D01*
X150139264Y-106344703D01*
X150045203Y-106438764D01*
X150045200Y-106438768D01*
X150045199Y-106438769D01*
X150035557Y-106455470D01*
X149978681Y-106553981D01*
X149978680Y-106553984D01*
X149944251Y-106682476D01*
X149944250Y-106682484D01*
X147332048Y-106682484D01*
X147404301Y-106610231D01*
X147470818Y-106495019D01*
X147491330Y-106418466D01*
X147520450Y-106380517D01*
X147567875Y-106374273D01*
X147612578Y-106386251D01*
X147683478Y-106405249D01*
X147683481Y-106405249D01*
X147683483Y-106405250D01*
X147683484Y-106405250D01*
X147816516Y-106405250D01*
X147816517Y-106405250D01*
X147945019Y-106370818D01*
X148060231Y-106304301D01*
X148154301Y-106210231D01*
X148220818Y-106095019D01*
X148255250Y-105966517D01*
X148255250Y-105871491D01*
X148273556Y-105827297D01*
X148317750Y-105808991D01*
X148348998Y-105817364D01*
X148354981Y-105820818D01*
X148354983Y-105820818D01*
X148354984Y-105820819D01*
X148402221Y-105833476D01*
X148483483Y-105855250D01*
X148483484Y-105855250D01*
X148616516Y-105855250D01*
X148616517Y-105855250D01*
X148745019Y-105820818D01*
X148860231Y-105754301D01*
X148954301Y-105660231D01*
X149020818Y-105545019D01*
X149055250Y-105416517D01*
X149055250Y-105283483D01*
X149041889Y-105233621D01*
X149020819Y-105154984D01*
X149020818Y-105154981D01*
X148998611Y-105116517D01*
X148954301Y-105039769D01*
X148860231Y-104945699D01*
X148779246Y-104898943D01*
X148745018Y-104879181D01*
X148745015Y-104879180D01*
X148616523Y-104844751D01*
X148616518Y-104844750D01*
X148616517Y-104844750D01*
X148483483Y-104844750D01*
X148483482Y-104844750D01*
X148483476Y-104844751D01*
X148354984Y-104879180D01*
X148354981Y-104879181D01*
X148273996Y-104925937D01*
X148239769Y-104945699D01*
X148239768Y-104945700D01*
X148239764Y-104945703D01*
X148145703Y-105039764D01*
X148145700Y-105039768D01*
X148079181Y-105154981D01*
X148079180Y-105154984D01*
X148044751Y-105283476D01*
X148044750Y-105283484D01*
X148044750Y-105378508D01*
X148026444Y-105422702D01*
X147982250Y-105441008D01*
X147951002Y-105432636D01*
X147945020Y-105429182D01*
X147945015Y-105429180D01*
X147816523Y-105394751D01*
X147816518Y-105394750D01*
X147816517Y-105394750D01*
X147683483Y-105394750D01*
X147683482Y-105394750D01*
X147683476Y-105394751D01*
X147554984Y-105429180D01*
X147554981Y-105429181D01*
X147473996Y-105475937D01*
X147439769Y-105495699D01*
X147439768Y-105495700D01*
X147439764Y-105495703D01*
X147345703Y-105589764D01*
X147345700Y-105589768D01*
X147345699Y-105589769D01*
X147325937Y-105623996D01*
X147279181Y-105704981D01*
X147279181Y-105704983D01*
X147258669Y-105781533D01*
X147229548Y-105819483D01*
X147182123Y-105825726D01*
X147066523Y-105794751D01*
X147066518Y-105794750D01*
X147066517Y-105794750D01*
X146933483Y-105794750D01*
X146933482Y-105794750D01*
X146933476Y-105794751D01*
X146804984Y-105829180D01*
X146804981Y-105829181D01*
X146731699Y-105871491D01*
X146689769Y-105895699D01*
X146689768Y-105895700D01*
X146689764Y-105895703D01*
X146595703Y-105989764D01*
X146595700Y-105989768D01*
X146529181Y-106104981D01*
X146529180Y-106104984D01*
X146494751Y-106233476D01*
X146494750Y-106233484D01*
X146494750Y-106366515D01*
X146494751Y-106366523D01*
X146509876Y-106422972D01*
X146503632Y-106470398D01*
X146465683Y-106499518D01*
X146354983Y-106529181D01*
X146354981Y-106529181D01*
X146273996Y-106575937D01*
X146239769Y-106595699D01*
X146239768Y-106595700D01*
X146239764Y-106595703D01*
X146145703Y-106689764D01*
X146145700Y-106689768D01*
X146079181Y-106804981D01*
X146079180Y-106804984D01*
X146044751Y-106933476D01*
X146044750Y-106933484D01*
X146044750Y-107066515D01*
X146044751Y-107066523D01*
X146068812Y-107156322D01*
X146062568Y-107203748D01*
X146024618Y-107232868D01*
X145977193Y-107226625D01*
X145921664Y-107194565D01*
X145895018Y-107179181D01*
X145895015Y-107179180D01*
X145766523Y-107144751D01*
X145766518Y-107144750D01*
X145766517Y-107144750D01*
X145633483Y-107144750D01*
X145633482Y-107144750D01*
X145633476Y-107144751D01*
X145504984Y-107179180D01*
X145504981Y-107179181D01*
X145434595Y-107219819D01*
X145389769Y-107245699D01*
X145389768Y-107245700D01*
X145389764Y-107245703D01*
X145295703Y-107339764D01*
X145295700Y-107339768D01*
X145295699Y-107339769D01*
X145275937Y-107373996D01*
X145229181Y-107454981D01*
X145229180Y-107454984D01*
X145194751Y-107583476D01*
X145194750Y-107583484D01*
X130041853Y-107583484D01*
X130020819Y-107504984D01*
X130020818Y-107504981D01*
X130012035Y-107489768D01*
X129954301Y-107389769D01*
X129860231Y-107295699D01*
X129773628Y-107245699D01*
X129745018Y-107229181D01*
X129745015Y-107229180D01*
X129616523Y-107194751D01*
X129616518Y-107194750D01*
X129616517Y-107194750D01*
X129483483Y-107194750D01*
X129483482Y-107194750D01*
X129483476Y-107194751D01*
X129354984Y-107229180D01*
X129354981Y-107229181D01*
X129273996Y-107275937D01*
X129239769Y-107295699D01*
X129239768Y-107295700D01*
X129239764Y-107295703D01*
X129145703Y-107389764D01*
X129145700Y-107389768D01*
X129145699Y-107389769D01*
X129129902Y-107417131D01*
X129079181Y-107504981D01*
X129079180Y-107504984D01*
X129044751Y-107633476D01*
X129044750Y-107633484D01*
X127501861Y-107633484D01*
X127502116Y-106933484D01*
X130694750Y-106933484D01*
X130694750Y-107066515D01*
X130694751Y-107066523D01*
X130729180Y-107195015D01*
X130729181Y-107195018D01*
X130743500Y-107219819D01*
X130795699Y-107310231D01*
X130889769Y-107404301D01*
X131004976Y-107470815D01*
X131004981Y-107470818D01*
X131004984Y-107470819D01*
X131057883Y-107484993D01*
X131133483Y-107505250D01*
X131133484Y-107505250D01*
X131266516Y-107505250D01*
X131266517Y-107505250D01*
X131395019Y-107470818D01*
X131510231Y-107404301D01*
X131604301Y-107310231D01*
X131670818Y-107195019D01*
X131705250Y-107066517D01*
X131705250Y-106933483D01*
X131670818Y-106804981D01*
X131604301Y-106689769D01*
X131510231Y-106595699D01*
X131429246Y-106548943D01*
X131395018Y-106529181D01*
X131395015Y-106529180D01*
X131266523Y-106494751D01*
X131266518Y-106494750D01*
X131266517Y-106494750D01*
X131133483Y-106494750D01*
X131133482Y-106494750D01*
X131133476Y-106494751D01*
X131004984Y-106529180D01*
X131004981Y-106529181D01*
X130923996Y-106575937D01*
X130889769Y-106595699D01*
X130889768Y-106595700D01*
X130889764Y-106595703D01*
X130795703Y-106689764D01*
X130795700Y-106689768D01*
X130729181Y-106804981D01*
X130729180Y-106804984D01*
X130694751Y-106933476D01*
X130694750Y-106933484D01*
X127502116Y-106933484D01*
X127503027Y-104433484D01*
X129044750Y-104433484D01*
X129044750Y-104566515D01*
X129044751Y-104566523D01*
X129079180Y-104695015D01*
X129079181Y-104695018D01*
X129079182Y-104695019D01*
X129145699Y-104810231D01*
X129239769Y-104904301D01*
X129354981Y-104970818D01*
X129354984Y-104970819D01*
X129402221Y-104983476D01*
X129483483Y-105005250D01*
X129483484Y-105005250D01*
X129616516Y-105005250D01*
X129616517Y-105005250D01*
X129745019Y-104970818D01*
X129860231Y-104904301D01*
X129954301Y-104810231D01*
X130020818Y-104695019D01*
X130055250Y-104566517D01*
X130055250Y-104433483D01*
X130020818Y-104304981D01*
X129954301Y-104189769D01*
X129860231Y-104095699D01*
X129779246Y-104048943D01*
X129745018Y-104029181D01*
X129745015Y-104029180D01*
X129616523Y-103994751D01*
X129616518Y-103994750D01*
X129616517Y-103994750D01*
X129483483Y-103994750D01*
X129483482Y-103994750D01*
X129483476Y-103994751D01*
X129354984Y-104029180D01*
X129354981Y-104029181D01*
X129273996Y-104075937D01*
X129239769Y-104095699D01*
X129239768Y-104095700D01*
X129239764Y-104095703D01*
X129145703Y-104189764D01*
X129145700Y-104189768D01*
X129079181Y-104304981D01*
X129079180Y-104304984D01*
X129044751Y-104433476D01*
X129044750Y-104433484D01*
X127503027Y-104433484D01*
X127503467Y-103224681D01*
X127506442Y-103205654D01*
X127705625Y-102583484D01*
X137994750Y-102583484D01*
X137994750Y-102716515D01*
X137994751Y-102716523D01*
X138029180Y-102845015D01*
X138029181Y-102845018D01*
X138041594Y-102866517D01*
X138095699Y-102960231D01*
X138189769Y-103054301D01*
X138286644Y-103110231D01*
X138304981Y-103120818D01*
X138304984Y-103120819D01*
X138338681Y-103129848D01*
X138433483Y-103155250D01*
X138433484Y-103155250D01*
X138566516Y-103155250D01*
X138566517Y-103155250D01*
X138695019Y-103120818D01*
X138810231Y-103054301D01*
X138904301Y-102960231D01*
X138970818Y-102845019D01*
X139000704Y-102733484D01*
X143044750Y-102733484D01*
X143044750Y-102866515D01*
X143044751Y-102866523D01*
X143079180Y-102995015D01*
X143079181Y-102995018D01*
X143079182Y-102995019D01*
X143145699Y-103110231D01*
X143239769Y-103204301D01*
X143354981Y-103270818D01*
X143354984Y-103270819D01*
X143433621Y-103291889D01*
X143483483Y-103305250D01*
X143483484Y-103305250D01*
X143616516Y-103305250D01*
X143616517Y-103305250D01*
X143745019Y-103270818D01*
X143860231Y-103204301D01*
X143954301Y-103110231D01*
X144020818Y-102995019D01*
X144055250Y-102866517D01*
X144055250Y-102733483D01*
X144034216Y-102654984D01*
X144020819Y-102604984D01*
X144020818Y-102604981D01*
X144008402Y-102583476D01*
X143954301Y-102489769D01*
X143860231Y-102395699D01*
X143771984Y-102344750D01*
X143745018Y-102329181D01*
X143745015Y-102329180D01*
X143616523Y-102294751D01*
X143616518Y-102294750D01*
X143616517Y-102294750D01*
X143483483Y-102294750D01*
X143483482Y-102294750D01*
X143483476Y-102294751D01*
X143354984Y-102329180D01*
X143354981Y-102329181D01*
X143282863Y-102370819D01*
X143239769Y-102395699D01*
X143239768Y-102395700D01*
X143239764Y-102395703D01*
X143145703Y-102489764D01*
X143145700Y-102489768D01*
X143145699Y-102489769D01*
X143136761Y-102505250D01*
X143079181Y-102604981D01*
X143079180Y-102604984D01*
X143044751Y-102733476D01*
X143044750Y-102733484D01*
X139000704Y-102733484D01*
X139005250Y-102716517D01*
X139005250Y-102583483D01*
X138984287Y-102505248D01*
X138970819Y-102454984D01*
X138970818Y-102454981D01*
X138964334Y-102443750D01*
X138904301Y-102339769D01*
X138810231Y-102245699D01*
X138709468Y-102187524D01*
X138695018Y-102179181D01*
X138695015Y-102179180D01*
X138566523Y-102144751D01*
X138566518Y-102144750D01*
X138566517Y-102144750D01*
X138433483Y-102144750D01*
X138433482Y-102144750D01*
X138433476Y-102144751D01*
X138304984Y-102179180D01*
X138304981Y-102179181D01*
X138232863Y-102220819D01*
X138189769Y-102245699D01*
X138189768Y-102245700D01*
X138189764Y-102245703D01*
X138095703Y-102339764D01*
X138095700Y-102339768D01*
X138095699Y-102339769D01*
X138092823Y-102344751D01*
X138029181Y-102454981D01*
X138029180Y-102454984D01*
X137994751Y-102583476D01*
X137994750Y-102583484D01*
X127705625Y-102583484D01*
X127766153Y-102394417D01*
X127766949Y-102392094D01*
X127771655Y-102379182D01*
X127970516Y-101833484D01*
X148044750Y-101833484D01*
X148044750Y-101966515D01*
X148044751Y-101966523D01*
X148079180Y-102095015D01*
X148079181Y-102095018D01*
X148079182Y-102095019D01*
X148145699Y-102210231D01*
X148239769Y-102304301D01*
X148354981Y-102370818D01*
X148354984Y-102370819D01*
X148402221Y-102383476D01*
X148483483Y-102405250D01*
X148483484Y-102405250D01*
X148616516Y-102405250D01*
X148616517Y-102405250D01*
X148697749Y-102383484D01*
X152694750Y-102383484D01*
X152694750Y-102516515D01*
X152694751Y-102516523D01*
X152729180Y-102645015D01*
X152729181Y-102645018D01*
X152734935Y-102654984D01*
X152795699Y-102760231D01*
X152889769Y-102854301D01*
X152997542Y-102916523D01*
X153004981Y-102920818D01*
X153004984Y-102920819D01*
X153067314Y-102937520D01*
X153133483Y-102955250D01*
X153133484Y-102955250D01*
X153266516Y-102955250D01*
X153266517Y-102955250D01*
X153395019Y-102920818D01*
X153510231Y-102854301D01*
X153581048Y-102783484D01*
X159444750Y-102783484D01*
X159444750Y-102916515D01*
X159444751Y-102916523D01*
X159479180Y-103045015D01*
X159479181Y-103045018D01*
X159484541Y-103054301D01*
X159545699Y-103160231D01*
X159639769Y-103254301D01*
X159754981Y-103320818D01*
X159754984Y-103320819D01*
X159833621Y-103341889D01*
X159883483Y-103355250D01*
X159883484Y-103355250D01*
X160016516Y-103355250D01*
X160016517Y-103355250D01*
X160145019Y-103320818D01*
X160260231Y-103254301D01*
X160354301Y-103160231D01*
X160420818Y-103045019D01*
X160455250Y-102916517D01*
X160455250Y-102882484D01*
X169395750Y-102882484D01*
X169395750Y-103015515D01*
X169395751Y-103015523D01*
X169430180Y-103144015D01*
X169430181Y-103144018D01*
X169430182Y-103144019D01*
X169496699Y-103259231D01*
X169590769Y-103353301D01*
X169705981Y-103419818D01*
X169705984Y-103419819D01*
X169784621Y-103440889D01*
X169834483Y-103454250D01*
X169834484Y-103454250D01*
X169967516Y-103454250D01*
X169967517Y-103454250D01*
X170096019Y-103419818D01*
X170211231Y-103353301D01*
X170305301Y-103259231D01*
X170371818Y-103144019D01*
X170406250Y-103015517D01*
X170406250Y-102882483D01*
X170371818Y-102753981D01*
X170305301Y-102638769D01*
X170211231Y-102544699D01*
X170130246Y-102497943D01*
X170096018Y-102478181D01*
X170096015Y-102478180D01*
X169967523Y-102443751D01*
X169967518Y-102443750D01*
X169967517Y-102443750D01*
X169834483Y-102443750D01*
X169834482Y-102443750D01*
X169834476Y-102443751D01*
X169705984Y-102478180D01*
X169705981Y-102478181D01*
X169624996Y-102524937D01*
X169590769Y-102544699D01*
X169590768Y-102544700D01*
X169590764Y-102544703D01*
X169496703Y-102638764D01*
X169496700Y-102638768D01*
X169496699Y-102638769D01*
X169476937Y-102672996D01*
X169430181Y-102753981D01*
X169430180Y-102753984D01*
X169395751Y-102882476D01*
X169395750Y-102882484D01*
X160455250Y-102882484D01*
X160455250Y-102783483D01*
X160420818Y-102654981D01*
X160354301Y-102539769D01*
X160260231Y-102445699D01*
X160169415Y-102393267D01*
X160145018Y-102379181D01*
X160145015Y-102379180D01*
X160016523Y-102344751D01*
X160016518Y-102344750D01*
X160016517Y-102344750D01*
X159883483Y-102344750D01*
X159883482Y-102344750D01*
X159883476Y-102344751D01*
X159754984Y-102379180D01*
X159754981Y-102379181D01*
X159709829Y-102405250D01*
X159639769Y-102445699D01*
X159639768Y-102445700D01*
X159639764Y-102445703D01*
X159545703Y-102539764D01*
X159545700Y-102539768D01*
X159545699Y-102539769D01*
X159541798Y-102546526D01*
X159479181Y-102654981D01*
X159479180Y-102654984D01*
X159444751Y-102783476D01*
X159444750Y-102783484D01*
X153581048Y-102783484D01*
X153604301Y-102760231D01*
X153670818Y-102645019D01*
X153705250Y-102516517D01*
X153705250Y-102383483D01*
X153670818Y-102254981D01*
X153604301Y-102139769D01*
X153510231Y-102045699D01*
X153399740Y-101981908D01*
X153395020Y-101979182D01*
X153395015Y-101979180D01*
X153266523Y-101944751D01*
X153266518Y-101944750D01*
X153266517Y-101944750D01*
X153133483Y-101944750D01*
X153133482Y-101944750D01*
X153133476Y-101944751D01*
X153004984Y-101979180D01*
X153004981Y-101979181D01*
X152923996Y-102025937D01*
X152889769Y-102045699D01*
X152889768Y-102045700D01*
X152889764Y-102045703D01*
X152795703Y-102139764D01*
X152795700Y-102139768D01*
X152795699Y-102139769D01*
X152792823Y-102144751D01*
X152729181Y-102254981D01*
X152729180Y-102254984D01*
X152694751Y-102383476D01*
X152694750Y-102383484D01*
X148697749Y-102383484D01*
X148745019Y-102370818D01*
X148860231Y-102304301D01*
X148954301Y-102210231D01*
X149020818Y-102095019D01*
X149055250Y-101966517D01*
X149055250Y-101965739D01*
X149055399Y-101965377D01*
X149055784Y-101962458D01*
X149056566Y-101962560D01*
X149073556Y-101921545D01*
X149117750Y-101903239D01*
X149129410Y-101904775D01*
X149129418Y-101904715D01*
X149133483Y-101905250D01*
X149266516Y-101905250D01*
X149266517Y-101905250D01*
X149395019Y-101870818D01*
X149510231Y-101804301D01*
X149604301Y-101710231D01*
X149633633Y-101659425D01*
X149671580Y-101630307D01*
X149719006Y-101636550D01*
X149731951Y-101646483D01*
X149739769Y-101654301D01*
X149836644Y-101710231D01*
X149854981Y-101720818D01*
X149854984Y-101720819D01*
X149907226Y-101734817D01*
X149983483Y-101755250D01*
X149983484Y-101755250D01*
X150116516Y-101755250D01*
X150116517Y-101755250D01*
X150192774Y-101734817D01*
X150216074Y-101728574D01*
X150263500Y-101734817D01*
X150292620Y-101772768D01*
X150294750Y-101788944D01*
X150294750Y-101816515D01*
X150294751Y-101816523D01*
X150329180Y-101945015D01*
X150329181Y-101945018D01*
X150341594Y-101966517D01*
X150395699Y-102060231D01*
X150489769Y-102154301D01*
X150604976Y-102220815D01*
X150604981Y-102220818D01*
X150604984Y-102220819D01*
X150683621Y-102241889D01*
X150733483Y-102255250D01*
X150733484Y-102255250D01*
X150866516Y-102255250D01*
X150866517Y-102255250D01*
X150995019Y-102220818D01*
X151110231Y-102154301D01*
X151204301Y-102060231D01*
X151270818Y-101945019D01*
X151273909Y-101933484D01*
X155844750Y-101933484D01*
X155844750Y-102066515D01*
X155844751Y-102066523D01*
X155879180Y-102195015D01*
X155879181Y-102195018D01*
X155887967Y-102210235D01*
X155945699Y-102310231D01*
X156039769Y-102404301D01*
X156154981Y-102470818D01*
X156154984Y-102470819D01*
X156225688Y-102489764D01*
X156283483Y-102505250D01*
X156283484Y-102505250D01*
X156416516Y-102505250D01*
X156416517Y-102505250D01*
X156545019Y-102470818D01*
X156660231Y-102404301D01*
X156754301Y-102310231D01*
X156811938Y-102210398D01*
X156849888Y-102181280D01*
X156897311Y-102187522D01*
X156919108Y-102200107D01*
X156954975Y-102220815D01*
X156954978Y-102220816D01*
X156954981Y-102220818D01*
X156954982Y-102220818D01*
X156954984Y-102220819D01*
X157033621Y-102241889D01*
X157083483Y-102255250D01*
X157083484Y-102255250D01*
X157216516Y-102255250D01*
X157216517Y-102255250D01*
X157345019Y-102220818D01*
X157460231Y-102154301D01*
X157554301Y-102060231D01*
X157620818Y-101945019D01*
X157655250Y-101816517D01*
X157655250Y-101683483D01*
X157633427Y-101602040D01*
X157620819Y-101554984D01*
X157620818Y-101554981D01*
X157605923Y-101529182D01*
X157554301Y-101439769D01*
X157460231Y-101345699D01*
X157379246Y-101298943D01*
X157345018Y-101279181D01*
X157345015Y-101279180D01*
X157216523Y-101244751D01*
X157216518Y-101244750D01*
X157216517Y-101244750D01*
X157083483Y-101244750D01*
X157083482Y-101244750D01*
X157083476Y-101244751D01*
X156954984Y-101279180D01*
X156954981Y-101279181D01*
X156873996Y-101325937D01*
X156839769Y-101345699D01*
X156839768Y-101345700D01*
X156839764Y-101345703D01*
X156745703Y-101439764D01*
X156745696Y-101439773D01*
X156688061Y-101539599D01*
X156650111Y-101568720D01*
X156602686Y-101562476D01*
X156563062Y-101539599D01*
X156545018Y-101529181D01*
X156545015Y-101529180D01*
X156416523Y-101494751D01*
X156416518Y-101494750D01*
X156416517Y-101494750D01*
X156283483Y-101494750D01*
X156283482Y-101494750D01*
X156283476Y-101494751D01*
X156154984Y-101529180D01*
X156154981Y-101529181D01*
X156086498Y-101568720D01*
X156039769Y-101595699D01*
X156039768Y-101595700D01*
X156039764Y-101595703D01*
X155945703Y-101689764D01*
X155945700Y-101689768D01*
X155945699Y-101689769D01*
X155933883Y-101710235D01*
X155879181Y-101804981D01*
X155879180Y-101804984D01*
X155844751Y-101933476D01*
X155844750Y-101933484D01*
X151273909Y-101933484D01*
X151305250Y-101816517D01*
X151305250Y-101683483D01*
X151283427Y-101602040D01*
X151270819Y-101554984D01*
X151270818Y-101554981D01*
X151255923Y-101529182D01*
X151204301Y-101439769D01*
X151110231Y-101345699D01*
X151029246Y-101298943D01*
X150995018Y-101279181D01*
X150995015Y-101279180D01*
X150866523Y-101244751D01*
X150866518Y-101244750D01*
X150866517Y-101244750D01*
X150733483Y-101244750D01*
X150733482Y-101244750D01*
X150733476Y-101244751D01*
X150633926Y-101271425D01*
X150586500Y-101265181D01*
X150557380Y-101227231D01*
X150555250Y-101211055D01*
X150555250Y-101183484D01*
X150555248Y-101183476D01*
X150520819Y-101054984D01*
X150520818Y-101054981D01*
X150500444Y-101019692D01*
X150454301Y-100939769D01*
X150360231Y-100845699D01*
X150279246Y-100798943D01*
X150245018Y-100779181D01*
X150245015Y-100779180D01*
X150116523Y-100744751D01*
X150116518Y-100744750D01*
X150116517Y-100744750D01*
X149983483Y-100744750D01*
X149983482Y-100744750D01*
X149983476Y-100744751D01*
X149854984Y-100779180D01*
X149854981Y-100779181D01*
X149773996Y-100825937D01*
X149739769Y-100845699D01*
X149739768Y-100845700D01*
X149739764Y-100845703D01*
X149645703Y-100939764D01*
X149645698Y-100939770D01*
X149616367Y-100990572D01*
X149578416Y-101019692D01*
X149530990Y-101013447D01*
X149518047Y-101003515D01*
X149510235Y-100995703D01*
X149510231Y-100995699D01*
X149413358Y-100939770D01*
X149395018Y-100929181D01*
X149395015Y-100929180D01*
X149266523Y-100894751D01*
X149266518Y-100894750D01*
X149266517Y-100894750D01*
X149133483Y-100894750D01*
X149133482Y-100894750D01*
X149133476Y-100894751D01*
X149004984Y-100929180D01*
X149004981Y-100929181D01*
X148923996Y-100975937D01*
X148889769Y-100995699D01*
X148889768Y-100995700D01*
X148889764Y-100995703D01*
X148795703Y-101089764D01*
X148795700Y-101089768D01*
X148729181Y-101204981D01*
X148729180Y-101204984D01*
X148694751Y-101333476D01*
X148694750Y-101333484D01*
X148694750Y-101334260D01*
X148694600Y-101334621D01*
X148694216Y-101337542D01*
X148693433Y-101337438D01*
X148676444Y-101378454D01*
X148632250Y-101396760D01*
X148620588Y-101395225D01*
X148620581Y-101395285D01*
X148616517Y-101394750D01*
X148483483Y-101394750D01*
X148483482Y-101394750D01*
X148483476Y-101394751D01*
X148354984Y-101429180D01*
X148354981Y-101429181D01*
X148273996Y-101475937D01*
X148239769Y-101495699D01*
X148239768Y-101495700D01*
X148239764Y-101495703D01*
X148145703Y-101589764D01*
X148145700Y-101589768D01*
X148145699Y-101589769D01*
X148125937Y-101623996D01*
X148079181Y-101704981D01*
X148079180Y-101704984D01*
X148044751Y-101833476D01*
X148044750Y-101833484D01*
X127970516Y-101833484D01*
X128084948Y-101519471D01*
X128085814Y-101517235D01*
X128427646Y-100683484D01*
X144644750Y-100683484D01*
X144644750Y-100816515D01*
X144644751Y-100816523D01*
X144679180Y-100945015D01*
X144679181Y-100945018D01*
X144679182Y-100945019D01*
X144745699Y-101060231D01*
X144839769Y-101154301D01*
X144938071Y-101211055D01*
X144954981Y-101220818D01*
X144954984Y-101220819D01*
X145033621Y-101241889D01*
X145083483Y-101255250D01*
X145083484Y-101255250D01*
X145216516Y-101255250D01*
X145216517Y-101255250D01*
X145345019Y-101220818D01*
X145460231Y-101154301D01*
X145554301Y-101060231D01*
X145620818Y-100945019D01*
X145655250Y-100816517D01*
X145655250Y-100683483D01*
X145620818Y-100554981D01*
X145554301Y-100439769D01*
X145460231Y-100345699D01*
X145377930Y-100298183D01*
X145345018Y-100279181D01*
X145345015Y-100279180D01*
X145216523Y-100244751D01*
X145216518Y-100244750D01*
X145216517Y-100244750D01*
X145083483Y-100244750D01*
X145083482Y-100244750D01*
X145083476Y-100244751D01*
X144954984Y-100279180D01*
X144954981Y-100279181D01*
X144873996Y-100325937D01*
X144839769Y-100345699D01*
X144839768Y-100345700D01*
X144839764Y-100345703D01*
X144745703Y-100439764D01*
X144745700Y-100439768D01*
X144745699Y-100439769D01*
X144742669Y-100445018D01*
X144679181Y-100554981D01*
X144679180Y-100554984D01*
X144644751Y-100683476D01*
X144644750Y-100683484D01*
X128427646Y-100683484D01*
X128438150Y-100657865D01*
X128439104Y-100655663D01*
X128654926Y-100183484D01*
X146644750Y-100183484D01*
X146644750Y-100316515D01*
X146644751Y-100316523D01*
X146679180Y-100445015D01*
X146679181Y-100445018D01*
X146679182Y-100445019D01*
X146745699Y-100560231D01*
X146839769Y-100654301D01*
X146954981Y-100720818D01*
X146954984Y-100720819D01*
X147033621Y-100741889D01*
X147083483Y-100755250D01*
X147083484Y-100755250D01*
X147216516Y-100755250D01*
X147216517Y-100755250D01*
X147345019Y-100720818D01*
X147460231Y-100654301D01*
X147554301Y-100560231D01*
X147620818Y-100445019D01*
X147655250Y-100316517D01*
X147655250Y-100183483D01*
X147620818Y-100054981D01*
X147554301Y-99939769D01*
X147460231Y-99845699D01*
X147363724Y-99789981D01*
X147345018Y-99779181D01*
X147345015Y-99779180D01*
X147216523Y-99744751D01*
X147216518Y-99744750D01*
X147216517Y-99744750D01*
X147083483Y-99744750D01*
X147083482Y-99744750D01*
X147083476Y-99744751D01*
X146954984Y-99779180D01*
X146954981Y-99779181D01*
X146873996Y-99825937D01*
X146839769Y-99845699D01*
X146839768Y-99845700D01*
X146839764Y-99845703D01*
X146745703Y-99939764D01*
X146745700Y-99939768D01*
X146679181Y-100054981D01*
X146679180Y-100054984D01*
X146644751Y-100183476D01*
X146644750Y-100183484D01*
X128654926Y-100183484D01*
X128825226Y-99810899D01*
X128826261Y-99808747D01*
X128965515Y-99533484D01*
X145494750Y-99533484D01*
X145494750Y-99666515D01*
X145494751Y-99666523D01*
X145529180Y-99795015D01*
X145529181Y-99795018D01*
X145538373Y-99810939D01*
X145595699Y-99910231D01*
X145689769Y-100004301D01*
X145804981Y-100070818D01*
X145804984Y-100070819D01*
X145883621Y-100091889D01*
X145933483Y-100105250D01*
X145933484Y-100105250D01*
X146066516Y-100105250D01*
X146066517Y-100105250D01*
X146195019Y-100070818D01*
X146310231Y-100004301D01*
X146404301Y-99910231D01*
X146470818Y-99795019D01*
X146505250Y-99666517D01*
X146505250Y-99533483D01*
X146470818Y-99404981D01*
X146404301Y-99289769D01*
X146310231Y-99195699D01*
X146229246Y-99148943D01*
X146195018Y-99129181D01*
X146195015Y-99129180D01*
X146066523Y-99094751D01*
X146066518Y-99094750D01*
X146066517Y-99094750D01*
X145933483Y-99094750D01*
X145933482Y-99094750D01*
X145933476Y-99094751D01*
X145804984Y-99129180D01*
X145804981Y-99129181D01*
X145723996Y-99175937D01*
X145689769Y-99195699D01*
X145689768Y-99195700D01*
X145689764Y-99195703D01*
X145595703Y-99289764D01*
X145595700Y-99289768D01*
X145529181Y-99404981D01*
X145529180Y-99404984D01*
X145494751Y-99533476D01*
X145494750Y-99533484D01*
X128965515Y-99533484D01*
X129245545Y-98979951D01*
X129246683Y-98977810D01*
X129688896Y-98183484D01*
X146694750Y-98183484D01*
X146694750Y-98316515D01*
X146694751Y-98316523D01*
X146729180Y-98445015D01*
X146729181Y-98445018D01*
X146734541Y-98454301D01*
X146795699Y-98560231D01*
X146889769Y-98654301D01*
X147004981Y-98720818D01*
X147004984Y-98720819D01*
X147083621Y-98741889D01*
X147133483Y-98755250D01*
X147133484Y-98755250D01*
X147266516Y-98755250D01*
X147266517Y-98755250D01*
X147395019Y-98720818D01*
X147459684Y-98683484D01*
X160044750Y-98683484D01*
X160044750Y-98816515D01*
X160044751Y-98816523D01*
X160079180Y-98945015D01*
X160079181Y-98945018D01*
X160079182Y-98945019D01*
X160145699Y-99060231D01*
X160239769Y-99154301D01*
X160354981Y-99220818D01*
X160354984Y-99220819D01*
X160433621Y-99241889D01*
X160483483Y-99255250D01*
X160483484Y-99255250D01*
X160616516Y-99255250D01*
X160616517Y-99255250D01*
X160745019Y-99220818D01*
X160860231Y-99154301D01*
X160954301Y-99060231D01*
X161020818Y-98945019D01*
X161055250Y-98816517D01*
X161055250Y-98683483D01*
X161020818Y-98554981D01*
X160954301Y-98439769D01*
X160860231Y-98345699D01*
X160772443Y-98295015D01*
X160745018Y-98279181D01*
X160745015Y-98279180D01*
X160616523Y-98244751D01*
X160616518Y-98244750D01*
X160616517Y-98244750D01*
X160483483Y-98244750D01*
X160483482Y-98244750D01*
X160483476Y-98244751D01*
X160354984Y-98279180D01*
X160354981Y-98279181D01*
X160273996Y-98325937D01*
X160239769Y-98345699D01*
X160239768Y-98345700D01*
X160239764Y-98345703D01*
X160145703Y-98439764D01*
X160145700Y-98439768D01*
X160145699Y-98439769D01*
X160142669Y-98445018D01*
X160079181Y-98554981D01*
X160079180Y-98554984D01*
X160044751Y-98683476D01*
X160044750Y-98683484D01*
X147459684Y-98683484D01*
X147510231Y-98654301D01*
X147604301Y-98560231D01*
X147670818Y-98445019D01*
X147705250Y-98316517D01*
X147705250Y-98183483D01*
X147687306Y-98116515D01*
X147670819Y-98054984D01*
X147670818Y-98054983D01*
X147670818Y-98054981D01*
X147629540Y-97983484D01*
X152444750Y-97983484D01*
X152444750Y-98116515D01*
X152444751Y-98116523D01*
X152479180Y-98245015D01*
X152479181Y-98245018D01*
X152479182Y-98245019D01*
X152545699Y-98360231D01*
X152639769Y-98454301D01*
X152754981Y-98520818D01*
X152754984Y-98520819D01*
X152833621Y-98541889D01*
X152883483Y-98555250D01*
X152883484Y-98555250D01*
X153016516Y-98555250D01*
X153016517Y-98555250D01*
X153145019Y-98520818D01*
X153260231Y-98454301D01*
X153354301Y-98360231D01*
X153420818Y-98245019D01*
X153455250Y-98116517D01*
X153455250Y-97983483D01*
X153434216Y-97904984D01*
X153420819Y-97854984D01*
X153420818Y-97854981D01*
X153415064Y-97845015D01*
X153354301Y-97739769D01*
X153260231Y-97645699D01*
X153171984Y-97594750D01*
X153152471Y-97583484D01*
X155294750Y-97583484D01*
X155294750Y-97716515D01*
X155294751Y-97716523D01*
X155329180Y-97845015D01*
X155329181Y-97845018D01*
X155334935Y-97854984D01*
X155395699Y-97960231D01*
X155489769Y-98054301D01*
X155597542Y-98116523D01*
X155604981Y-98120818D01*
X155604984Y-98120819D01*
X155683621Y-98141889D01*
X155733483Y-98155250D01*
X155733484Y-98155250D01*
X155866516Y-98155250D01*
X155866517Y-98155250D01*
X155995019Y-98120818D01*
X156110231Y-98054301D01*
X156204301Y-97960231D01*
X156270818Y-97845019D01*
X156305250Y-97716517D01*
X156305250Y-97583484D01*
X160644750Y-97583484D01*
X160644750Y-97716515D01*
X160644751Y-97716523D01*
X160679180Y-97845015D01*
X160679181Y-97845018D01*
X160684935Y-97854984D01*
X160745699Y-97960231D01*
X160839769Y-98054301D01*
X160947542Y-98116523D01*
X160954981Y-98120818D01*
X160954984Y-98120819D01*
X161033621Y-98141889D01*
X161083483Y-98155250D01*
X161083484Y-98155250D01*
X161216516Y-98155250D01*
X161216517Y-98155250D01*
X161345019Y-98120818D01*
X161401001Y-98088496D01*
X161448426Y-98082254D01*
X161486377Y-98111374D01*
X161494750Y-98142624D01*
X161494750Y-98166515D01*
X161494751Y-98166523D01*
X161529180Y-98295015D01*
X161529181Y-98295018D01*
X161541594Y-98316517D01*
X161595699Y-98410231D01*
X161689769Y-98504301D01*
X161786644Y-98560231D01*
X161804981Y-98570818D01*
X161804984Y-98570819D01*
X161883621Y-98591889D01*
X161933483Y-98605250D01*
X161933484Y-98605250D01*
X162066516Y-98605250D01*
X162066517Y-98605250D01*
X162195019Y-98570818D01*
X162310231Y-98504301D01*
X162404301Y-98410231D01*
X162470818Y-98295019D01*
X162505250Y-98166517D01*
X162505250Y-98033483D01*
X162485622Y-97960231D01*
X162470819Y-97904984D01*
X162470818Y-97904981D01*
X162459967Y-97886187D01*
X162404301Y-97789769D01*
X162310231Y-97695699D01*
X162221641Y-97644552D01*
X162195018Y-97629181D01*
X162195015Y-97629180D01*
X162066523Y-97594751D01*
X162066518Y-97594750D01*
X162066517Y-97594750D01*
X161933483Y-97594750D01*
X161933482Y-97594750D01*
X161933476Y-97594751D01*
X161804984Y-97629180D01*
X161804977Y-97629183D01*
X161748999Y-97661502D01*
X161701573Y-97667745D01*
X161663623Y-97638624D01*
X161655250Y-97607375D01*
X161655250Y-97583484D01*
X161655248Y-97583476D01*
X161654097Y-97579182D01*
X161637857Y-97518570D01*
X161620819Y-97454984D01*
X161620818Y-97454981D01*
X161611292Y-97438481D01*
X161554301Y-97339769D01*
X161460231Y-97245699D01*
X161378602Y-97198571D01*
X161345018Y-97179181D01*
X161345015Y-97179180D01*
X161216523Y-97144751D01*
X161216518Y-97144750D01*
X161216517Y-97144750D01*
X161083483Y-97144750D01*
X161083482Y-97144750D01*
X161083476Y-97144751D01*
X160954984Y-97179180D01*
X160954981Y-97179181D01*
X160911426Y-97204328D01*
X160839769Y-97245699D01*
X160839768Y-97245700D01*
X160839764Y-97245703D01*
X160745703Y-97339764D01*
X160745700Y-97339768D01*
X160679181Y-97454981D01*
X160679180Y-97454984D01*
X160644751Y-97583476D01*
X160644750Y-97583484D01*
X156305250Y-97583484D01*
X156305250Y-97583483D01*
X156287857Y-97518570D01*
X156270819Y-97454984D01*
X156270818Y-97454981D01*
X156261292Y-97438481D01*
X156204301Y-97339769D01*
X156110231Y-97245699D01*
X156028602Y-97198571D01*
X155995018Y-97179181D01*
X155995015Y-97179180D01*
X155866523Y-97144751D01*
X155866518Y-97144750D01*
X155866517Y-97144750D01*
X155733483Y-97144750D01*
X155733482Y-97144750D01*
X155733476Y-97144751D01*
X155604984Y-97179180D01*
X155604981Y-97179181D01*
X155561426Y-97204328D01*
X155489769Y-97245699D01*
X155489768Y-97245700D01*
X155489764Y-97245703D01*
X155395703Y-97339764D01*
X155395700Y-97339768D01*
X155329181Y-97454981D01*
X155329180Y-97454984D01*
X155294751Y-97583476D01*
X155294750Y-97583484D01*
X153152471Y-97583484D01*
X153145018Y-97579181D01*
X153145015Y-97579180D01*
X153016523Y-97544751D01*
X153016518Y-97544750D01*
X153016517Y-97544750D01*
X152883483Y-97544750D01*
X152883482Y-97544750D01*
X152883476Y-97544751D01*
X152754984Y-97579180D01*
X152754981Y-97579181D01*
X152682941Y-97620774D01*
X152639769Y-97645699D01*
X152639768Y-97645700D01*
X152639764Y-97645703D01*
X152545703Y-97739764D01*
X152545700Y-97739768D01*
X152545699Y-97739769D01*
X152542823Y-97744751D01*
X152479181Y-97854981D01*
X152479180Y-97854984D01*
X152444751Y-97983476D01*
X152444750Y-97983484D01*
X147629540Y-97983484D01*
X147604301Y-97939769D01*
X147510231Y-97845699D01*
X147429246Y-97798943D01*
X147395018Y-97779181D01*
X147395015Y-97779180D01*
X147266523Y-97744751D01*
X147266518Y-97744750D01*
X147266517Y-97744750D01*
X147133483Y-97744750D01*
X147133482Y-97744750D01*
X147133476Y-97744751D01*
X147004984Y-97779180D01*
X147004981Y-97779181D01*
X146923996Y-97825937D01*
X146889769Y-97845699D01*
X146889768Y-97845700D01*
X146889764Y-97845703D01*
X146795703Y-97939764D01*
X146795700Y-97939768D01*
X146795699Y-97939769D01*
X146783112Y-97961570D01*
X146729181Y-98054981D01*
X146729180Y-98054984D01*
X146694751Y-98183476D01*
X146694750Y-98183484D01*
X129688896Y-98183484D01*
X129698456Y-98166312D01*
X129699681Y-98164213D01*
X129710270Y-98146849D01*
X129710269Y-98146849D01*
X130183263Y-97371230D01*
X130184557Y-97369202D01*
X130263895Y-97250000D01*
X131705137Y-97250000D01*
X131713429Y-97291689D01*
X131713431Y-97291697D01*
X131788811Y-97473678D01*
X131788812Y-97473680D01*
X131898248Y-97637462D01*
X132037537Y-97776751D01*
X132201319Y-97886187D01*
X132201321Y-97886188D01*
X132383302Y-97961568D01*
X132383310Y-97961570D01*
X132424999Y-97969863D01*
X132425000Y-97969863D01*
X132425000Y-97250000D01*
X131705137Y-97250000D01*
X130263895Y-97250000D01*
X130456576Y-96960504D01*
X132375000Y-96960504D01*
X132375000Y-97039496D01*
X132395444Y-97115796D01*
X132434940Y-97184205D01*
X132490795Y-97240060D01*
X132559204Y-97279556D01*
X132635504Y-97300000D01*
X132714496Y-97300000D01*
X132790796Y-97279556D01*
X132859205Y-97240060D01*
X132915060Y-97184205D01*
X132925000Y-97166988D01*
X132925000Y-97969863D01*
X132966689Y-97961570D01*
X132966697Y-97961568D01*
X133148678Y-97886188D01*
X133148680Y-97886187D01*
X133312462Y-97776751D01*
X133451749Y-97637464D01*
X133451754Y-97637458D01*
X133468392Y-97612558D01*
X133508165Y-97585981D01*
X133555081Y-97595313D01*
X133555082Y-97595313D01*
X133593185Y-97620773D01*
X133593187Y-97620773D01*
X133593189Y-97620775D01*
X133720672Y-97673580D01*
X133856007Y-97700500D01*
X133993993Y-97700500D01*
X134129328Y-97673580D01*
X134256811Y-97620775D01*
X134371542Y-97544114D01*
X134469114Y-97446542D01*
X134498033Y-97403260D01*
X134537807Y-97376685D01*
X134584723Y-97386017D01*
X134601965Y-97403259D01*
X134630886Y-97446542D01*
X134728458Y-97544114D01*
X134843189Y-97620775D01*
X134970672Y-97673580D01*
X135106007Y-97700500D01*
X135243993Y-97700500D01*
X135379328Y-97673580D01*
X135506811Y-97620775D01*
X135621542Y-97544114D01*
X135719114Y-97446542D01*
X135748033Y-97403260D01*
X135787807Y-97376685D01*
X135834723Y-97386017D01*
X135851965Y-97403259D01*
X135880886Y-97446542D01*
X135978458Y-97544114D01*
X136093189Y-97620775D01*
X136220672Y-97673580D01*
X136356007Y-97700500D01*
X136493993Y-97700500D01*
X136629328Y-97673580D01*
X136756811Y-97620775D01*
X136871542Y-97544114D01*
X136969114Y-97446542D01*
X136998033Y-97403260D01*
X137037807Y-97376685D01*
X137084723Y-97386017D01*
X137101965Y-97403259D01*
X137130886Y-97446542D01*
X137228458Y-97544114D01*
X137343189Y-97620775D01*
X137470672Y-97673580D01*
X137606007Y-97700500D01*
X137743993Y-97700500D01*
X137879328Y-97673580D01*
X138006811Y-97620775D01*
X138121542Y-97544114D01*
X138219114Y-97446542D01*
X138248033Y-97403260D01*
X138287807Y-97376685D01*
X138334723Y-97386017D01*
X138351965Y-97403259D01*
X138380886Y-97446542D01*
X138478458Y-97544114D01*
X138593189Y-97620775D01*
X138720672Y-97673580D01*
X138856007Y-97700500D01*
X138993993Y-97700500D01*
X139129328Y-97673580D01*
X139256811Y-97620775D01*
X139371542Y-97544114D01*
X139469114Y-97446542D01*
X139498033Y-97403260D01*
X139537807Y-97376685D01*
X139584723Y-97386017D01*
X139601965Y-97403259D01*
X139630886Y-97446542D01*
X139728458Y-97544114D01*
X139843189Y-97620775D01*
X139970672Y-97673580D01*
X140106007Y-97700500D01*
X140243993Y-97700500D01*
X140379328Y-97673580D01*
X140506811Y-97620775D01*
X140621542Y-97544114D01*
X140628779Y-97536876D01*
X140672970Y-97518570D01*
X140717165Y-97536873D01*
X140734272Y-97568876D01*
X140736132Y-97578230D01*
X140736133Y-97578232D01*
X140780447Y-97644552D01*
X140846767Y-97688866D01*
X140846769Y-97688867D01*
X140905252Y-97700500D01*
X141944748Y-97700500D01*
X142003231Y-97688867D01*
X142069552Y-97644552D01*
X142113867Y-97578231D01*
X142125500Y-97519748D01*
X142125500Y-96533484D01*
X146044750Y-96533484D01*
X146044750Y-96666515D01*
X146044751Y-96666523D01*
X146079180Y-96795015D01*
X146079181Y-96795018D01*
X146079182Y-96795019D01*
X146145699Y-96910231D01*
X146239769Y-97004301D01*
X146351820Y-97068993D01*
X146354981Y-97070818D01*
X146354984Y-97070819D01*
X146433621Y-97091889D01*
X146483483Y-97105250D01*
X146483484Y-97105250D01*
X146616516Y-97105250D01*
X146616517Y-97105250D01*
X146745019Y-97070818D01*
X146860231Y-97004301D01*
X146954301Y-96910231D01*
X147020818Y-96795019D01*
X147055250Y-96666517D01*
X147055250Y-96533483D01*
X147025316Y-96421767D01*
X147020819Y-96404984D01*
X147020818Y-96404981D01*
X146992220Y-96355448D01*
X146954301Y-96289769D01*
X146860231Y-96195699D01*
X146779246Y-96148943D01*
X146745018Y-96129181D01*
X146745015Y-96129180D01*
X146616523Y-96094751D01*
X146616518Y-96094750D01*
X146616517Y-96094750D01*
X146483483Y-96094750D01*
X146483482Y-96094750D01*
X146483476Y-96094751D01*
X146354984Y-96129180D01*
X146354981Y-96129181D01*
X146309829Y-96155250D01*
X146239769Y-96195699D01*
X146239768Y-96195700D01*
X146239764Y-96195703D01*
X146145703Y-96289764D01*
X146145700Y-96289768D01*
X146079181Y-96404981D01*
X146079180Y-96404984D01*
X146044751Y-96533476D01*
X146044750Y-96533484D01*
X142125500Y-96533484D01*
X142125500Y-96480252D01*
X142113867Y-96421769D01*
X142113866Y-96421767D01*
X142069552Y-96355447D01*
X142003232Y-96311133D01*
X142003230Y-96311132D01*
X141944748Y-96299500D01*
X140905252Y-96299500D01*
X140846769Y-96311132D01*
X140846767Y-96311133D01*
X140780447Y-96355447D01*
X140736133Y-96421767D01*
X140736133Y-96421768D01*
X140734272Y-96431124D01*
X140707694Y-96470897D01*
X140660778Y-96480228D01*
X140628779Y-96463123D01*
X140621541Y-96455885D01*
X140506813Y-96379226D01*
X140506811Y-96379225D01*
X140379326Y-96326419D01*
X140243993Y-96299500D01*
X140106007Y-96299500D01*
X139970673Y-96326419D01*
X139970672Y-96326419D01*
X139843188Y-96379225D01*
X139843186Y-96379226D01*
X139728458Y-96455885D01*
X139630885Y-96553458D01*
X139601967Y-96596738D01*
X139562193Y-96623314D01*
X139515277Y-96613982D01*
X139498033Y-96596738D01*
X139469114Y-96553458D01*
X139371541Y-96455885D01*
X139256813Y-96379226D01*
X139256811Y-96379225D01*
X139129326Y-96326419D01*
X138993993Y-96299500D01*
X138856007Y-96299500D01*
X138720673Y-96326419D01*
X138720672Y-96326419D01*
X138593188Y-96379225D01*
X138593186Y-96379226D01*
X138478458Y-96455885D01*
X138380885Y-96553458D01*
X138351967Y-96596738D01*
X138312193Y-96623314D01*
X138265277Y-96613982D01*
X138248033Y-96596738D01*
X138219114Y-96553458D01*
X138121541Y-96455885D01*
X138006813Y-96379226D01*
X138006811Y-96379225D01*
X137879326Y-96326419D01*
X137743993Y-96299500D01*
X137606007Y-96299500D01*
X137470673Y-96326419D01*
X137470672Y-96326419D01*
X137343188Y-96379225D01*
X137343186Y-96379226D01*
X137228458Y-96455885D01*
X137130885Y-96553458D01*
X137101967Y-96596738D01*
X137062193Y-96623314D01*
X137015277Y-96613982D01*
X136998033Y-96596738D01*
X136969114Y-96553458D01*
X136871541Y-96455885D01*
X136756813Y-96379226D01*
X136756811Y-96379225D01*
X136629326Y-96326419D01*
X136493993Y-96299500D01*
X136356007Y-96299500D01*
X136220673Y-96326419D01*
X136220672Y-96326419D01*
X136093188Y-96379225D01*
X136093186Y-96379226D01*
X135978458Y-96455885D01*
X135880885Y-96553458D01*
X135851967Y-96596738D01*
X135812193Y-96623314D01*
X135765277Y-96613982D01*
X135748033Y-96596738D01*
X135719114Y-96553458D01*
X135621541Y-96455885D01*
X135506813Y-96379226D01*
X135506811Y-96379225D01*
X135379326Y-96326419D01*
X135243993Y-96299500D01*
X135106007Y-96299500D01*
X134970673Y-96326419D01*
X134970672Y-96326419D01*
X134843188Y-96379225D01*
X134843186Y-96379226D01*
X134728458Y-96455885D01*
X134630885Y-96553458D01*
X134601967Y-96596738D01*
X134562193Y-96623314D01*
X134515277Y-96613982D01*
X134498033Y-96596738D01*
X134469114Y-96553458D01*
X134371541Y-96455885D01*
X134256813Y-96379226D01*
X134256811Y-96379225D01*
X134129326Y-96326419D01*
X133993993Y-96299500D01*
X133856007Y-96299500D01*
X133720675Y-96326419D01*
X133720673Y-96326419D01*
X133720672Y-96326420D01*
X133683336Y-96341885D01*
X133593190Y-96379224D01*
X133593189Y-96379224D01*
X133555081Y-96404687D01*
X133508165Y-96414018D01*
X133468392Y-96387442D01*
X133451751Y-96362537D01*
X133312462Y-96223248D01*
X133148680Y-96113812D01*
X133148678Y-96113811D01*
X132966688Y-96038428D01*
X132925000Y-96030136D01*
X132925000Y-96833011D01*
X132915060Y-96815795D01*
X132859205Y-96759940D01*
X132790796Y-96720444D01*
X132714496Y-96700000D01*
X132635504Y-96700000D01*
X132559204Y-96720444D01*
X132490795Y-96759940D01*
X132434940Y-96815795D01*
X132395444Y-96884204D01*
X132375000Y-96960504D01*
X130456576Y-96960504D01*
X130596682Y-96749999D01*
X131705136Y-96749999D01*
X131705137Y-96750000D01*
X132425000Y-96750000D01*
X132425000Y-96030136D01*
X132383311Y-96038428D01*
X132201321Y-96113811D01*
X132201319Y-96113812D01*
X132037537Y-96223248D01*
X131898248Y-96362537D01*
X131788812Y-96526319D01*
X131788811Y-96526321D01*
X131713431Y-96708302D01*
X131713429Y-96708310D01*
X131705136Y-96749999D01*
X130596682Y-96749999D01*
X130699166Y-96596020D01*
X130700524Y-96594063D01*
X131245385Y-95841849D01*
X131246844Y-95839917D01*
X131487486Y-95533984D01*
X152293750Y-95533984D01*
X152293750Y-95667015D01*
X152293751Y-95667023D01*
X152328180Y-95795515D01*
X152328181Y-95795518D01*
X152328182Y-95795519D01*
X152394699Y-95910731D01*
X152488769Y-96004801D01*
X152603981Y-96071318D01*
X152603984Y-96071319D01*
X152682621Y-96092389D01*
X152732483Y-96105750D01*
X152732484Y-96105750D01*
X152865516Y-96105750D01*
X152865517Y-96105750D01*
X152994019Y-96071318D01*
X153109231Y-96004801D01*
X153203301Y-95910731D01*
X153269818Y-95795519D01*
X153304250Y-95667017D01*
X153304250Y-95533983D01*
X153283082Y-95454984D01*
X153269819Y-95405484D01*
X153269818Y-95405481D01*
X153228251Y-95333484D01*
X154444750Y-95333484D01*
X154444750Y-95466515D01*
X154444751Y-95466523D01*
X154479180Y-95595015D01*
X154479181Y-95595018D01*
X154479182Y-95595019D01*
X154545699Y-95710231D01*
X154639769Y-95804301D01*
X154754981Y-95870818D01*
X154754984Y-95870819D01*
X154803229Y-95883746D01*
X154883483Y-95905250D01*
X154883484Y-95905250D01*
X155016516Y-95905250D01*
X155016517Y-95905250D01*
X155145019Y-95870818D01*
X155260231Y-95804301D01*
X155354301Y-95710231D01*
X155420818Y-95595019D01*
X155423909Y-95583484D01*
X157844750Y-95583484D01*
X157844750Y-95716515D01*
X157844751Y-95716523D01*
X157879180Y-95845015D01*
X157879181Y-95845018D01*
X157879182Y-95845019D01*
X157945699Y-95960231D01*
X158039769Y-96054301D01*
X158142846Y-96113812D01*
X158154981Y-96120818D01*
X158154984Y-96120819D01*
X158233621Y-96141889D01*
X158283483Y-96155250D01*
X158283484Y-96155250D01*
X158416516Y-96155250D01*
X158416517Y-96155250D01*
X158545019Y-96120818D01*
X158660231Y-96054301D01*
X158754301Y-95960231D01*
X158820818Y-95845019D01*
X158855250Y-95716517D01*
X158855250Y-95583483D01*
X158841889Y-95533621D01*
X158820819Y-95454984D01*
X158820818Y-95454981D01*
X158792239Y-95405481D01*
X158754301Y-95339769D01*
X158660231Y-95245699D01*
X158556264Y-95185674D01*
X158545018Y-95179181D01*
X158545015Y-95179180D01*
X158416523Y-95144751D01*
X158416518Y-95144750D01*
X158416517Y-95144750D01*
X158283483Y-95144750D01*
X158283482Y-95144750D01*
X158283476Y-95144751D01*
X158154984Y-95179180D01*
X158154981Y-95179181D01*
X158078777Y-95223178D01*
X158039769Y-95245699D01*
X158039768Y-95245700D01*
X158039764Y-95245703D01*
X157945703Y-95339764D01*
X157945700Y-95339768D01*
X157879181Y-95454981D01*
X157879180Y-95454984D01*
X157844751Y-95583476D01*
X157844750Y-95583484D01*
X155423909Y-95583484D01*
X155455250Y-95466517D01*
X155455250Y-95333483D01*
X155434120Y-95254623D01*
X155419758Y-95201024D01*
X155421112Y-95200660D01*
X155421112Y-95157859D01*
X155454935Y-95124033D01*
X155502771Y-95124032D01*
X155523049Y-95137581D01*
X155589769Y-95204301D01*
X155704981Y-95270818D01*
X155704984Y-95270819D01*
X155777554Y-95290264D01*
X155833483Y-95305250D01*
X155833484Y-95305250D01*
X155966516Y-95305250D01*
X155966517Y-95305250D01*
X156095019Y-95270818D01*
X156210231Y-95204301D01*
X156304301Y-95110231D01*
X156370818Y-94995019D01*
X156405250Y-94866517D01*
X156405250Y-94733483D01*
X156370818Y-94604981D01*
X156304301Y-94489769D01*
X156210231Y-94395699D01*
X156123628Y-94345699D01*
X156095018Y-94329181D01*
X156095015Y-94329180D01*
X155966523Y-94294751D01*
X155966518Y-94294750D01*
X155966517Y-94294750D01*
X155833483Y-94294750D01*
X155833482Y-94294750D01*
X155833476Y-94294751D01*
X155704984Y-94329180D01*
X155704981Y-94329181D01*
X155623996Y-94375937D01*
X155589769Y-94395699D01*
X155589768Y-94395700D01*
X155589764Y-94395703D01*
X155495703Y-94489764D01*
X155495700Y-94489768D01*
X155495699Y-94489769D01*
X155483112Y-94511570D01*
X155429181Y-94604981D01*
X155429180Y-94604984D01*
X155394751Y-94733476D01*
X155394750Y-94733484D01*
X155394750Y-94866515D01*
X155394751Y-94866523D01*
X155430242Y-94998976D01*
X155428889Y-94999338D01*
X155428883Y-95042149D01*
X155395054Y-95075970D01*
X155347219Y-95075963D01*
X155326950Y-95062418D01*
X155260235Y-94995703D01*
X155260231Y-94995699D01*
X155172443Y-94945015D01*
X155145018Y-94929181D01*
X155145015Y-94929180D01*
X155016523Y-94894751D01*
X155016518Y-94894750D01*
X155016517Y-94894750D01*
X154883483Y-94894750D01*
X154883482Y-94894750D01*
X154883476Y-94894751D01*
X154754984Y-94929180D01*
X154754981Y-94929181D01*
X154682863Y-94970819D01*
X154639769Y-94995699D01*
X154639768Y-94995700D01*
X154639764Y-94995703D01*
X154545703Y-95089764D01*
X154545700Y-95089768D01*
X154545699Y-95089769D01*
X154533883Y-95110235D01*
X154479181Y-95204981D01*
X154479180Y-95204984D01*
X154444751Y-95333476D01*
X154444750Y-95333484D01*
X153228251Y-95333484D01*
X153203301Y-95290269D01*
X153190742Y-95277710D01*
X153187094Y-95272013D01*
X153183985Y-95254623D01*
X153177227Y-95238307D01*
X153179910Y-95231827D01*
X153178677Y-95224924D01*
X153188773Y-95210430D01*
X153195533Y-95194113D01*
X153205436Y-95186513D01*
X153206021Y-95185674D01*
X153206684Y-95185555D01*
X153208472Y-95184183D01*
X153260231Y-95154301D01*
X153354301Y-95060231D01*
X153420818Y-94945019D01*
X153455250Y-94816517D01*
X153455250Y-94683483D01*
X153434216Y-94604984D01*
X153420819Y-94554984D01*
X153420818Y-94554981D01*
X153354301Y-94439769D01*
X153260231Y-94345699D01*
X153171984Y-94294750D01*
X153145018Y-94279181D01*
X153145015Y-94279180D01*
X153016523Y-94244751D01*
X153016518Y-94244750D01*
X153016517Y-94244750D01*
X152883483Y-94244750D01*
X152883482Y-94244750D01*
X152883476Y-94244751D01*
X152754984Y-94279180D01*
X152754981Y-94279181D01*
X152709829Y-94305250D01*
X152639769Y-94345699D01*
X152639768Y-94345700D01*
X152639764Y-94345703D01*
X152545703Y-94439764D01*
X152545700Y-94439768D01*
X152479181Y-94554981D01*
X152479180Y-94554984D01*
X152444751Y-94683476D01*
X152444750Y-94683484D01*
X152444750Y-94816515D01*
X152444751Y-94816523D01*
X152479180Y-94945015D01*
X152479181Y-94945018D01*
X152484541Y-94954301D01*
X152545699Y-95060231D01*
X152545703Y-95060235D01*
X152553467Y-95067999D01*
X152571773Y-95112193D01*
X152553467Y-95156387D01*
X152540527Y-95166316D01*
X152488769Y-95196199D01*
X152488768Y-95196200D01*
X152488764Y-95196203D01*
X152394703Y-95290264D01*
X152394700Y-95290268D01*
X152328181Y-95405481D01*
X152328180Y-95405484D01*
X152293751Y-95533976D01*
X152293750Y-95533984D01*
X131487486Y-95533984D01*
X131821068Y-95109893D01*
X131822569Y-95108061D01*
X132425286Y-94401337D01*
X132426884Y-94399538D01*
X133042131Y-93733484D01*
X133543750Y-93733484D01*
X133543750Y-93866515D01*
X133543751Y-93866523D01*
X133578180Y-93995015D01*
X133578181Y-93995018D01*
X133594728Y-94023678D01*
X133644699Y-94110231D01*
X133738769Y-94204301D01*
X133853981Y-94270818D01*
X133853984Y-94270819D01*
X133932621Y-94291889D01*
X133982483Y-94305250D01*
X133982484Y-94305250D01*
X134115516Y-94305250D01*
X134115517Y-94305250D01*
X134244019Y-94270818D01*
X134359231Y-94204301D01*
X134453301Y-94110231D01*
X134519818Y-93995019D01*
X134554250Y-93866517D01*
X134554250Y-93800000D01*
X135255637Y-93800000D01*
X135263929Y-93841689D01*
X135263931Y-93841697D01*
X135339311Y-94023678D01*
X135339312Y-94023680D01*
X135448748Y-94187462D01*
X135588037Y-94326751D01*
X135751819Y-94436187D01*
X135751821Y-94436188D01*
X135933802Y-94511568D01*
X135933810Y-94511570D01*
X135975499Y-94519863D01*
X135975500Y-94519863D01*
X135975500Y-93800000D01*
X135255637Y-93800000D01*
X134554250Y-93800000D01*
X134554250Y-93733483D01*
X134540889Y-93683621D01*
X134519819Y-93604984D01*
X134519818Y-93604981D01*
X134504923Y-93579182D01*
X134461472Y-93503922D01*
X135875500Y-93503922D01*
X135875500Y-93596078D01*
X135899352Y-93685095D01*
X135945430Y-93764905D01*
X136010595Y-93830070D01*
X136090405Y-93876148D01*
X136179422Y-93900000D01*
X136271578Y-93900000D01*
X136360595Y-93876148D01*
X136440405Y-93830070D01*
X136475500Y-93794975D01*
X136475500Y-94519863D01*
X136517189Y-94511570D01*
X136517197Y-94511568D01*
X136584997Y-94483484D01*
X142844750Y-94483484D01*
X142844750Y-94616515D01*
X142844751Y-94616523D01*
X142879180Y-94745015D01*
X142879181Y-94745018D01*
X142879182Y-94745019D01*
X142945699Y-94860231D01*
X143039769Y-94954301D01*
X143154981Y-95020818D01*
X143154984Y-95020819D01*
X143233621Y-95041889D01*
X143283483Y-95055250D01*
X143283484Y-95055250D01*
X143416516Y-95055250D01*
X143416517Y-95055250D01*
X143545019Y-95020818D01*
X143660231Y-94954301D01*
X143754301Y-94860231D01*
X143820818Y-94745019D01*
X143855250Y-94616517D01*
X143855250Y-94483483D01*
X143847431Y-94454301D01*
X143845090Y-94445563D01*
X143841853Y-94433484D01*
X144844750Y-94433484D01*
X144844750Y-94566515D01*
X144844751Y-94566523D01*
X144879180Y-94695015D01*
X144879181Y-94695018D01*
X144879182Y-94695019D01*
X144945699Y-94810231D01*
X145039769Y-94904301D01*
X145154981Y-94970818D01*
X145154984Y-94970819D01*
X145233621Y-94991889D01*
X145283483Y-95005250D01*
X145283484Y-95005250D01*
X145416516Y-95005250D01*
X145416517Y-95005250D01*
X145545019Y-94970818D01*
X145660231Y-94904301D01*
X145754301Y-94810231D01*
X145820818Y-94695019D01*
X145855250Y-94566517D01*
X145855250Y-94433483D01*
X145834216Y-94354984D01*
X145820819Y-94304984D01*
X145820818Y-94304981D01*
X145805923Y-94279182D01*
X145754301Y-94189769D01*
X145660231Y-94095699D01*
X145549740Y-94031908D01*
X145545020Y-94029182D01*
X145545015Y-94029180D01*
X145416523Y-93994751D01*
X145416518Y-93994750D01*
X145416517Y-93994750D01*
X145283483Y-93994750D01*
X145283482Y-93994750D01*
X145283476Y-93994751D01*
X145154984Y-94029180D01*
X145154981Y-94029181D01*
X145073996Y-94075937D01*
X145039769Y-94095699D01*
X145039768Y-94095700D01*
X145039764Y-94095703D01*
X144945703Y-94189764D01*
X144945700Y-94189768D01*
X144879181Y-94304981D01*
X144879180Y-94304984D01*
X144844751Y-94433476D01*
X144844750Y-94433484D01*
X143841853Y-94433484D01*
X143820819Y-94354984D01*
X143820818Y-94354981D01*
X143805923Y-94329182D01*
X143754301Y-94239769D01*
X143660231Y-94145699D01*
X143570882Y-94094114D01*
X143545018Y-94079181D01*
X143545015Y-94079180D01*
X143416523Y-94044751D01*
X143416518Y-94044750D01*
X143416517Y-94044750D01*
X143283483Y-94044750D01*
X143283482Y-94044750D01*
X143283476Y-94044751D01*
X143154984Y-94079180D01*
X143154981Y-94079181D01*
X143073996Y-94125937D01*
X143039769Y-94145699D01*
X143039768Y-94145700D01*
X143039764Y-94145703D01*
X142945703Y-94239764D01*
X142945700Y-94239768D01*
X142945699Y-94239769D01*
X142942669Y-94245018D01*
X142879181Y-94354981D01*
X142879180Y-94354984D01*
X142844751Y-94483476D01*
X142844750Y-94483484D01*
X136584997Y-94483484D01*
X136699178Y-94436188D01*
X136699181Y-94436187D01*
X136712302Y-94427420D01*
X136862962Y-94326751D01*
X137002249Y-94187464D01*
X137031391Y-94143849D01*
X137071165Y-94117272D01*
X137118081Y-94126603D01*
X137118082Y-94126604D01*
X137184185Y-94170773D01*
X137184187Y-94170773D01*
X137184189Y-94170775D01*
X137311672Y-94223580D01*
X137447007Y-94250500D01*
X137584993Y-94250500D01*
X137720328Y-94223580D01*
X137847811Y-94170775D01*
X137962542Y-94094114D01*
X138060114Y-93996542D01*
X138068533Y-93983940D01*
X138108305Y-93957365D01*
X138155222Y-93966696D01*
X138172464Y-93983938D01*
X138180886Y-93996542D01*
X138278458Y-94094114D01*
X138393189Y-94170775D01*
X138520672Y-94223580D01*
X138656007Y-94250500D01*
X138793993Y-94250500D01*
X138929328Y-94223580D01*
X139056811Y-94170775D01*
X139171542Y-94094114D01*
X139269114Y-93996542D01*
X139297784Y-93953634D01*
X139337556Y-93927059D01*
X139384473Y-93936391D01*
X139401715Y-93953633D01*
X139420331Y-93981494D01*
X139429367Y-93995018D01*
X139430386Y-93996542D01*
X139527958Y-94094114D01*
X139642689Y-94170775D01*
X139770172Y-94223580D01*
X139905507Y-94250500D01*
X140043493Y-94250500D01*
X140178828Y-94223580D01*
X140306311Y-94170775D01*
X140421042Y-94094114D01*
X140518614Y-93996542D01*
X140527339Y-93983484D01*
X149894750Y-93983484D01*
X149894750Y-94116515D01*
X149894751Y-94116523D01*
X149929180Y-94245015D01*
X149929181Y-94245018D01*
X149932346Y-94250500D01*
X149995699Y-94360231D01*
X150089769Y-94454301D01*
X150188963Y-94511570D01*
X150204981Y-94520818D01*
X150204984Y-94520819D01*
X150283621Y-94541889D01*
X150333483Y-94555250D01*
X150333484Y-94555250D01*
X150466516Y-94555250D01*
X150466517Y-94555250D01*
X150595019Y-94520818D01*
X150710231Y-94454301D01*
X150804301Y-94360231D01*
X150870818Y-94245019D01*
X150905250Y-94116517D01*
X150905250Y-93983483D01*
X150870818Y-93854981D01*
X150804301Y-93739769D01*
X150710231Y-93645699D01*
X150624284Y-93596078D01*
X150595018Y-93579181D01*
X150595015Y-93579180D01*
X150466523Y-93544751D01*
X150466518Y-93544750D01*
X150466517Y-93544750D01*
X150333483Y-93544750D01*
X150333482Y-93544750D01*
X150333476Y-93544751D01*
X150204984Y-93579180D01*
X150204981Y-93579181D01*
X150123996Y-93625937D01*
X150089769Y-93645699D01*
X150089768Y-93645700D01*
X150089764Y-93645703D01*
X149995703Y-93739764D01*
X149995700Y-93739768D01*
X149995699Y-93739769D01*
X149981187Y-93764905D01*
X149929181Y-93854981D01*
X149929180Y-93854984D01*
X149894751Y-93983476D01*
X149894750Y-93983484D01*
X140527339Y-93983484D01*
X140595275Y-93881811D01*
X140648080Y-93754328D01*
X140675000Y-93618993D01*
X140675000Y-93481007D01*
X140648080Y-93345672D01*
X140595275Y-93218189D01*
X140518614Y-93103458D01*
X140421042Y-93005886D01*
X140421041Y-93005885D01*
X140306313Y-92929226D01*
X140306311Y-92929225D01*
X140178826Y-92876419D01*
X140043493Y-92849500D01*
X139905507Y-92849500D01*
X139770173Y-92876419D01*
X139770172Y-92876419D01*
X139642688Y-92929225D01*
X139642686Y-92929226D01*
X139527958Y-93005885D01*
X139430385Y-93103458D01*
X139401717Y-93146364D01*
X139361943Y-93172940D01*
X139315027Y-93163608D01*
X139297783Y-93146364D01*
X139269114Y-93103458D01*
X139171541Y-93005885D01*
X139056813Y-92929226D01*
X139056811Y-92929225D01*
X138929326Y-92876419D01*
X138793993Y-92849500D01*
X138656007Y-92849500D01*
X138520673Y-92876419D01*
X138520672Y-92876419D01*
X138393188Y-92929225D01*
X138393186Y-92929226D01*
X138278458Y-93005885D01*
X138180886Y-93103457D01*
X138172466Y-93116059D01*
X138132691Y-93142634D01*
X138085775Y-93133300D01*
X138068534Y-93116059D01*
X138060113Y-93103457D01*
X137962541Y-93005885D01*
X137847813Y-92929226D01*
X137847811Y-92929225D01*
X137720326Y-92876419D01*
X137584993Y-92849500D01*
X137447007Y-92849500D01*
X137311673Y-92876419D01*
X137311672Y-92876419D01*
X137184188Y-92929225D01*
X137184185Y-92929226D01*
X137118083Y-92973395D01*
X137071167Y-92982727D01*
X137031393Y-92956151D01*
X137002251Y-92912537D01*
X136862962Y-92773248D01*
X136699180Y-92663812D01*
X136699178Y-92663811D01*
X136517188Y-92588428D01*
X136475500Y-92580136D01*
X136475500Y-93305025D01*
X136440405Y-93269930D01*
X136360595Y-93223852D01*
X136271578Y-93200000D01*
X136179422Y-93200000D01*
X136090405Y-93223852D01*
X136010595Y-93269930D01*
X135945430Y-93335095D01*
X135899352Y-93414905D01*
X135875500Y-93503922D01*
X134461472Y-93503922D01*
X134453301Y-93489769D01*
X134359231Y-93395699D01*
X134359226Y-93395696D01*
X134316326Y-93370927D01*
X134316324Y-93370927D01*
X134254261Y-93335095D01*
X134244018Y-93329181D01*
X134244015Y-93329180D01*
X134135109Y-93299999D01*
X135255636Y-93299999D01*
X135255637Y-93300000D01*
X135975500Y-93300000D01*
X135975500Y-92580136D01*
X135933811Y-92588428D01*
X135751821Y-92663811D01*
X135751819Y-92663812D01*
X135588037Y-92773248D01*
X135448748Y-92912537D01*
X135339312Y-93076319D01*
X135339311Y-93076321D01*
X135263931Y-93258302D01*
X135263929Y-93258310D01*
X135255636Y-93299999D01*
X134135109Y-93299999D01*
X134115523Y-93294751D01*
X134115518Y-93294750D01*
X134115517Y-93294750D01*
X133982483Y-93294750D01*
X133982482Y-93294750D01*
X133982476Y-93294751D01*
X133853984Y-93329180D01*
X133853981Y-93329181D01*
X133781676Y-93370927D01*
X133738769Y-93395699D01*
X133738768Y-93395700D01*
X133738764Y-93395703D01*
X133644703Y-93489764D01*
X133644700Y-93489768D01*
X133578181Y-93604981D01*
X133578180Y-93604984D01*
X133543751Y-93733476D01*
X133543750Y-93733484D01*
X133042131Y-93733484D01*
X133057124Y-93717253D01*
X133058767Y-93715544D01*
X133715544Y-93058768D01*
X133717279Y-93057101D01*
X134399509Y-92426910D01*
X134401349Y-92425277D01*
X135108060Y-91822570D01*
X135109892Y-91821069D01*
X135839919Y-91246841D01*
X135841813Y-91245410D01*
X136272448Y-90933484D01*
X152994750Y-90933484D01*
X152994750Y-91066515D01*
X152994751Y-91066523D01*
X153029180Y-91195015D01*
X153029181Y-91195018D01*
X153029182Y-91195019D01*
X153095699Y-91310231D01*
X153189769Y-91404301D01*
X153304981Y-91470818D01*
X153304984Y-91470819D01*
X153383621Y-91491889D01*
X153433483Y-91505250D01*
X153433484Y-91505250D01*
X153566516Y-91505250D01*
X153566517Y-91505250D01*
X153695019Y-91470818D01*
X153810231Y-91404301D01*
X153904301Y-91310231D01*
X153970818Y-91195019D01*
X154005250Y-91066517D01*
X154005250Y-90933483D01*
X153970818Y-90804981D01*
X153904301Y-90689769D01*
X153810231Y-90595699D01*
X153722443Y-90545015D01*
X153695018Y-90529181D01*
X153695015Y-90529180D01*
X153566523Y-90494751D01*
X153566518Y-90494750D01*
X153566517Y-90494750D01*
X153433483Y-90494750D01*
X153433482Y-90494750D01*
X153433476Y-90494751D01*
X153304984Y-90529180D01*
X153304981Y-90529181D01*
X153223996Y-90575937D01*
X153189769Y-90595699D01*
X153189768Y-90595700D01*
X153189764Y-90595703D01*
X153095703Y-90689764D01*
X153095700Y-90689768D01*
X153095699Y-90689769D01*
X153089889Y-90699832D01*
X153029181Y-90804981D01*
X153029180Y-90804984D01*
X152994751Y-90933476D01*
X152994750Y-90933484D01*
X136272448Y-90933484D01*
X136594069Y-90700521D01*
X136596048Y-90699149D01*
X137220569Y-90283484D01*
X155644750Y-90283484D01*
X155644750Y-90416515D01*
X155644751Y-90416523D01*
X155679180Y-90545015D01*
X155679181Y-90545018D01*
X155679182Y-90545019D01*
X155745699Y-90660231D01*
X155839769Y-90754301D01*
X155954981Y-90820818D01*
X155954984Y-90820819D01*
X156033621Y-90841889D01*
X156083483Y-90855250D01*
X156083484Y-90855250D01*
X156107376Y-90855250D01*
X156151570Y-90873556D01*
X156169876Y-90917750D01*
X156161503Y-90948997D01*
X156148367Y-90971750D01*
X156129181Y-91004981D01*
X156129180Y-91004984D01*
X156094751Y-91133476D01*
X156094750Y-91133484D01*
X156094750Y-91266515D01*
X156094751Y-91266523D01*
X156129180Y-91395015D01*
X156129181Y-91395018D01*
X156134541Y-91404301D01*
X156195699Y-91510231D01*
X156289769Y-91604301D01*
X156404981Y-91670818D01*
X156404984Y-91670819D01*
X156483621Y-91691889D01*
X156533483Y-91705250D01*
X156533484Y-91705250D01*
X156666516Y-91705250D01*
X156666517Y-91705250D01*
X156795019Y-91670818D01*
X156910231Y-91604301D01*
X157004301Y-91510231D01*
X157070818Y-91395019D01*
X157105250Y-91266517D01*
X157105250Y-91133483D01*
X157070818Y-91004981D01*
X157004301Y-90889769D01*
X156910231Y-90795699D01*
X156829246Y-90748943D01*
X156795018Y-90729181D01*
X156795015Y-90729180D01*
X156666523Y-90694751D01*
X156666518Y-90694750D01*
X156666517Y-90694750D01*
X156642624Y-90694750D01*
X156598430Y-90676444D01*
X156580124Y-90632250D01*
X156588496Y-90601002D01*
X156620818Y-90545019D01*
X156655250Y-90416517D01*
X156655250Y-90283483D01*
X156640211Y-90227358D01*
X156620819Y-90154984D01*
X156620818Y-90154981D01*
X156554301Y-90039769D01*
X156460231Y-89945699D01*
X156379246Y-89898943D01*
X156345018Y-89879181D01*
X156345015Y-89879180D01*
X156216523Y-89844751D01*
X156216518Y-89844750D01*
X156216517Y-89844750D01*
X156083483Y-89844750D01*
X156083482Y-89844750D01*
X156083476Y-89844751D01*
X155954984Y-89879180D01*
X155954981Y-89879181D01*
X155873996Y-89925937D01*
X155839769Y-89945699D01*
X155839768Y-89945700D01*
X155839764Y-89945703D01*
X155745703Y-90039764D01*
X155745700Y-90039768D01*
X155679181Y-90154981D01*
X155679180Y-90154984D01*
X155644751Y-90283476D01*
X155644750Y-90283484D01*
X137220569Y-90283484D01*
X137369224Y-90184543D01*
X137371229Y-90183264D01*
X138164252Y-89699657D01*
X138166310Y-89698457D01*
X138977809Y-89246684D01*
X138979950Y-89245546D01*
X139808746Y-88826261D01*
X139810898Y-88825226D01*
X140655673Y-88439100D01*
X140657864Y-88438151D01*
X141517234Y-88085814D01*
X141519470Y-88084948D01*
X142392113Y-87766941D01*
X142394416Y-87766153D01*
X143205653Y-87506442D01*
X143224680Y-87503467D01*
X145031748Y-87502809D01*
X145075948Y-87521099D01*
X145094270Y-87565286D01*
X145075980Y-87609487D01*
X145075965Y-87609503D01*
X145045699Y-87639769D01*
X145029291Y-87668189D01*
X144979181Y-87754981D01*
X144979180Y-87754984D01*
X144944751Y-87883476D01*
X144944750Y-87883484D01*
X144944750Y-88016515D01*
X144944751Y-88016523D01*
X144979180Y-88145015D01*
X144979181Y-88145018D01*
X144998943Y-88179246D01*
X145045699Y-88260231D01*
X145139769Y-88354301D01*
X145254981Y-88420818D01*
X145254984Y-88420819D01*
X145279373Y-88427354D01*
X145316031Y-88437176D01*
X145353981Y-88466296D01*
X145360225Y-88513722D01*
X145341548Y-88541684D01*
X145342666Y-88542802D01*
X145245703Y-88639764D01*
X145245700Y-88639768D01*
X145179181Y-88754981D01*
X145179180Y-88754984D01*
X145144751Y-88883476D01*
X145144750Y-88883484D01*
X145144750Y-89016515D01*
X145144751Y-89016523D01*
X145179180Y-89145015D01*
X145179181Y-89145018D01*
X145179182Y-89145019D01*
X145245699Y-89260231D01*
X145339769Y-89354301D01*
X145454981Y-89420818D01*
X145454984Y-89420819D01*
X145533621Y-89441889D01*
X145583483Y-89455250D01*
X145583484Y-89455250D01*
X145716516Y-89455250D01*
X145716517Y-89455250D01*
X145845019Y-89420818D01*
X145960231Y-89354301D01*
X146054301Y-89260231D01*
X146120818Y-89145019D01*
X146155250Y-89016517D01*
X146155250Y-88883483D01*
X146120818Y-88754981D01*
X146054301Y-88639769D01*
X145960231Y-88545699D01*
X145865288Y-88490884D01*
X145845018Y-88479181D01*
X145845015Y-88479180D01*
X145783968Y-88462823D01*
X145746017Y-88433703D01*
X145739774Y-88386277D01*
X145758460Y-88358324D01*
X145757334Y-88357198D01*
X145782721Y-88331811D01*
X145854301Y-88260231D01*
X145860208Y-88250000D01*
X148390137Y-88250000D01*
X148398429Y-88291689D01*
X148398431Y-88291697D01*
X148473811Y-88473678D01*
X148473812Y-88473680D01*
X148583248Y-88637462D01*
X148722537Y-88776751D01*
X148886319Y-88886187D01*
X148886321Y-88886188D01*
X149068302Y-88961568D01*
X149068310Y-88961570D01*
X149109999Y-88969863D01*
X149110000Y-88969863D01*
X149110000Y-88250000D01*
X148390137Y-88250000D01*
X145860208Y-88250000D01*
X145920818Y-88145019D01*
X145955250Y-88016517D01*
X145955250Y-87883483D01*
X145924623Y-87769180D01*
X145920819Y-87754984D01*
X145920818Y-87754981D01*
X145910055Y-87736339D01*
X145854301Y-87639769D01*
X145823730Y-87609198D01*
X145805424Y-87565004D01*
X145823730Y-87520810D01*
X145867899Y-87502504D01*
X148390498Y-87501586D01*
X148434697Y-87519875D01*
X148453019Y-87564062D01*
X148448262Y-87588003D01*
X148398429Y-87708311D01*
X148390136Y-87749999D01*
X148390137Y-87750000D01*
X149193012Y-87750000D01*
X149175795Y-87759940D01*
X149119940Y-87815795D01*
X149080444Y-87884204D01*
X149060000Y-87960504D01*
X149060000Y-88039496D01*
X149080444Y-88115796D01*
X149119940Y-88184205D01*
X149175795Y-88240060D01*
X149244204Y-88279556D01*
X149320504Y-88300000D01*
X149399496Y-88300000D01*
X149475796Y-88279556D01*
X149544205Y-88240060D01*
X149600060Y-88184205D01*
X149610000Y-88166988D01*
X149610000Y-88969863D01*
X149651689Y-88961570D01*
X149651697Y-88961568D01*
X149833678Y-88886188D01*
X149833680Y-88886187D01*
X149997462Y-88776751D01*
X150136749Y-88637464D01*
X150136754Y-88637458D01*
X150162652Y-88598699D01*
X150202425Y-88572122D01*
X150249341Y-88581454D01*
X150308189Y-88620775D01*
X150435672Y-88673580D01*
X150571007Y-88700500D01*
X150708993Y-88700500D01*
X150844328Y-88673580D01*
X150971811Y-88620775D01*
X151086542Y-88544114D01*
X151184114Y-88446542D01*
X151260775Y-88331811D01*
X151313580Y-88204328D01*
X151340500Y-88068993D01*
X151340500Y-87931007D01*
X151313580Y-87795672D01*
X151260775Y-87668189D01*
X151214024Y-87598222D01*
X151204693Y-87551307D01*
X151231269Y-87511533D01*
X151265992Y-87501000D01*
X156770246Y-87501000D01*
X156789148Y-87503927D01*
G37*
%TD.AperFunction*%
%TD*%
M02*
