%TF.GenerationSoftware,KiCad,Pcbnew,9.0.4*%
%TF.CreationDate,2026-01-16T16:12:55-08:00*%
%TF.ProjectId,u_anemometer,755f616e-656d-46f6-9d65-7465722e6b69,rev?*%
%TF.SameCoordinates,Original*%
%TF.FileFunction,Copper,L1,Top*%
%TF.FilePolarity,Positive*%
%FSLAX46Y46*%
G04 Gerber Fmt 4.6, Leading zero omitted, Abs format (unit mm)*
G04 Created by KiCad (PCBNEW 9.0.4) date 2026-01-16 16:12:55*
%MOMM*%
%LPD*%
G01*
G04 APERTURE LIST*
G04 Aperture macros list*
%AMRotRect*
0 Rectangle, with rotation*
0 The origin of the aperture is its center*
0 $1 length*
0 $2 width*
0 $3 Rotation angle, in degrees counterclockwise*
0 Add horizontal line*
21,1,$1,$2,0,0,$3*%
%AMFreePoly0*
4,1,6,0.700000,0.196000,0.700000,-0.575000,-0.700000,-0.575000,-0.700000,0.575000,0.338000,0.575000,0.700000,0.196000,0.700000,0.196000,$1*%
G04 Aperture macros list end*
%TA.AperFunction,SMDPad,CuDef*%
%ADD10R,0.500000X0.800000*%
%TD*%
%TA.AperFunction,SMDPad,CuDef*%
%ADD11R,0.800000X0.900000*%
%TD*%
%TA.AperFunction,SMDPad,CuDef*%
%ADD12R,1.803500X0.406500*%
%TD*%
%TA.AperFunction,SMDPad,CuDef*%
%ADD13R,0.700000X1.400000*%
%TD*%
%TA.AperFunction,ComponentPad*%
%ADD14R,1.000000X1.000000*%
%TD*%
%TA.AperFunction,ComponentPad*%
%ADD15C,1.000000*%
%TD*%
%TA.AperFunction,SMDPad,CuDef*%
%ADD16R,1.000000X0.550000*%
%TD*%
%TA.AperFunction,SMDPad,CuDef*%
%ADD17R,0.800000X0.500000*%
%TD*%
%TA.AperFunction,SMDPad,CuDef*%
%ADD18R,1.800000X2.600000*%
%TD*%
%TA.AperFunction,SMDPad,CuDef*%
%ADD19R,1.092000X0.990500*%
%TD*%
%TA.AperFunction,SMDPad,CuDef*%
%ADD20R,1.000000X1.100000*%
%TD*%
%TA.AperFunction,SMDPad,CuDef*%
%ADD21R,0.900000X0.800000*%
%TD*%
%TA.AperFunction,SMDPad,CuDef*%
%ADD22O,1.800000X0.280000*%
%TD*%
%TA.AperFunction,SMDPad,CuDef*%
%ADD23O,0.280000X1.800000*%
%TD*%
%TA.AperFunction,SMDPad,CuDef*%
%ADD24R,1.250000X0.700000*%
%TD*%
%TA.AperFunction,SMDPad,CuDef*%
%ADD25RotRect,0.800000X0.300000X225.000000*%
%TD*%
%TA.AperFunction,SMDPad,CuDef*%
%ADD26RotRect,0.800000X0.400000X225.000000*%
%TD*%
%TA.AperFunction,SMDPad,CuDef*%
%ADD27R,1.000000X1.700000*%
%TD*%
%TA.AperFunction,SMDPad,CuDef*%
%ADD28R,1.397000X0.406500*%
%TD*%
%TA.AperFunction,SMDPad,CuDef*%
%ADD29RotRect,1.380000X0.450000X225.000000*%
%TD*%
%TA.AperFunction,SMDPad,CuDef*%
%ADD30RotRect,1.900000X2.375000X225.000000*%
%TD*%
%TA.AperFunction,SMDPad,CuDef*%
%ADD31RotRect,2.100000X1.475000X225.000000*%
%TD*%
%TA.AperFunction,SMDPad,CuDef*%
%ADD32RotRect,1.900000X1.175000X225.000000*%
%TD*%
%TA.AperFunction,SMDPad,CuDef*%
%ADD33R,1.100000X1.000000*%
%TD*%
%TA.AperFunction,SMDPad,CuDef*%
%ADD34R,0.400000X1.493500*%
%TD*%
%TA.AperFunction,SMDPad,CuDef*%
%ADD35FreePoly0,0.000000*%
%TD*%
%TA.AperFunction,SMDPad,CuDef*%
%ADD36R,1.400000X1.150000*%
%TD*%
%TA.AperFunction,SMDPad,CuDef*%
%ADD37R,1.700000X1.000000*%
%TD*%
%TA.AperFunction,SMDPad,CuDef*%
%ADD38R,1.200000X1.400000*%
%TD*%
%TA.AperFunction,ComponentPad*%
%ADD39R,1.800000X1.800000*%
%TD*%
%TA.AperFunction,ComponentPad*%
%ADD40C,1.800000*%
%TD*%
%TA.AperFunction,SMDPad,CuDef*%
%ADD41R,0.400000X1.060000*%
%TD*%
%TA.AperFunction,ViaPad*%
%ADD42C,0.609500*%
%TD*%
%TA.AperFunction,Conductor*%
%ADD43C,0.200000*%
%TD*%
%TA.AperFunction,Conductor*%
%ADD44C,0.300000*%
%TD*%
%TA.AperFunction,Conductor*%
%ADD45C,0.250000*%
%TD*%
%TA.AperFunction,Conductor*%
%ADD46C,0.500000*%
%TD*%
%TA.AperFunction,Conductor*%
%ADD47C,0.127000*%
%TD*%
%TA.AperFunction,Conductor*%
%ADD48C,0.350000*%
%TD*%
%TA.AperFunction,Conductor*%
%ADD49C,0.150000*%
%TD*%
%TA.AperFunction,Conductor*%
%ADD50C,1.000000*%
%TD*%
G04 APERTURE END LIST*
D10*
%TO.P,C1,1,1*%
%TO.N,GND*%
X144300000Y-96950000D03*
%TO.P,C1,2,2*%
%TO.N,3.3V*%
X145300000Y-96950000D03*
%TD*%
D11*
%TO.P,C4,1,1*%
%TO.N,GND*%
X169900000Y-101700000D03*
%TO.P,C4,2,2*%
%TO.N,+5V*%
X171300000Y-101700000D03*
%TD*%
D12*
%TO.P,U5,1,Y0*%
%TO.N,/2_anemometer/NORTH_IN*%
X152600000Y-126775000D03*
%TO.P,U5,2,Y2*%
%TO.N,/2_anemometer/SOUTH_IN*%
X152600000Y-126125000D03*
%TO.P,U5,3,Y*%
%TO.N,Net-(U5-Y)*%
X152600000Y-125475000D03*
%TO.P,U5,4,Y3*%
%TO.N,/2_anemometer/WEST_IN*%
X152600000Y-124825000D03*
%TO.P,U5,5,Y1*%
%TO.N,/2_anemometer/EAST_IN*%
X152600000Y-124175000D03*
%TO.P,U5,6,EN*%
%TO.N,PWR_ON*%
X152600000Y-123525000D03*
%TO.P,U5,7,GND*%
%TO.N,GND*%
X152600000Y-122875000D03*
%TO.P,U5,8,GND*%
X152600000Y-122225000D03*
%TO.P,U5,9,B*%
%TO.N,SWITCH_B*%
X146600000Y-122225000D03*
%TO.P,U5,10,A*%
%TO.N,SWITCH_A*%
X146600000Y-122875000D03*
%TO.P,U5,11,X3*%
%TO.N,/2_anemometer/EAST_OUT*%
X146600000Y-123525000D03*
%TO.P,U5,12,X0*%
%TO.N,/2_anemometer/SOUTH_OUT*%
X146600000Y-124175000D03*
%TO.P,U5,13,X*%
%TO.N,PWM_IN*%
X146600000Y-124825000D03*
%TO.P,U5,14,X1*%
%TO.N,/2_anemometer/WEST_OUT*%
X146600000Y-125475000D03*
%TO.P,U5,15,X2*%
%TO.N,/2_anemometer/NORTH_OUT*%
X146600000Y-126125000D03*
%TO.P,U5,16,V+*%
%TO.N,3.3V*%
X146600000Y-126775000D03*
%TD*%
D13*
%TO.P,X1,1,1*%
%TO.N,Net-(U2-PC15{slash}OSC32_OUT)*%
X132650000Y-100150000D03*
%TO.P,X1,2,2*%
%TO.N,Net-(U2-PC14{slash}OSC32_IN)*%
X134150000Y-100150000D03*
%TD*%
D10*
%TO.P,R41,1,1*%
%TO.N,3.3V*%
X159900000Y-103550000D03*
%TO.P,R41,2,2*%
%TO.N,SCL*%
X158900000Y-103550000D03*
%TD*%
%TO.P,C47,1,1*%
%TO.N,3.3V*%
X166550000Y-113550000D03*
%TO.P,C47,2,2*%
%TO.N,GND*%
X167550000Y-113550000D03*
%TD*%
D14*
%TO.P,SPI1,1,1*%
%TO.N,3.3V*%
X141425000Y-97000000D03*
D15*
%TO.P,SPI1,2,2*%
%TO.N,/1_mcu/SPI1_SCK*%
X140175000Y-97000000D03*
%TO.P,SPI1,3,3*%
%TO.N,/1_mcu/SPI1_MISO*%
X138925000Y-97000000D03*
%TO.P,SPI1,4,4*%
%TO.N,/1_mcu/SPI1_MOSI*%
X137675000Y-97000000D03*
%TO.P,SPI1,5,5*%
%TO.N,/1_mcu/SPI1_CS0*%
X136425000Y-97000000D03*
%TO.P,SPI1,6,6*%
%TO.N,/1_mcu/SPI1_CS1*%
X135175000Y-97000000D03*
%TO.P,SPI1,7,7*%
%TO.N,unconnected-(SPI1-Pad7)*%
X133925000Y-97000000D03*
%TO.P,SPI1,8,8*%
%TO.N,GND*%
X132675000Y-97000000D03*
%TD*%
D10*
%TO.P,R35,1,1*%
%TO.N,VGND*%
X140650000Y-118950000D03*
%TO.P,R35,2,2*%
%TO.N,VREF+*%
X139650000Y-118950000D03*
%TD*%
D16*
%TO.P,D2,1,1*%
%TO.N,Net-(USB1-Data-)*%
X161950000Y-101000000D03*
%TO.P,D2,2,2*%
%TO.N,GND*%
X161950000Y-100050000D03*
%TO.P,D2,3,3*%
%TO.N,Net-(USB1-Data+)*%
X161950000Y-99100000D03*
%TO.P,D2,4,4*%
X159150000Y-99100000D03*
%TO.P,D2,5,5*%
%TO.N,unconnected-(D2-Pad5)*%
X159150000Y-100050000D03*
%TO.P,D2,6,6*%
%TO.N,Net-(USB1-Data-)*%
X159150000Y-101000000D03*
%TD*%
D10*
%TO.P,C19,1,1*%
%TO.N,GND*%
X151400000Y-116350000D03*
%TO.P,C19,2,2*%
%TO.N,3.3V*%
X152400000Y-116350000D03*
%TD*%
D17*
%TO.P,R27,1,1*%
%TO.N,GND*%
X131050000Y-108550000D03*
%TO.P,R27,2,2*%
%TO.N,Net-(D12-K)*%
X131050000Y-107550000D03*
%TD*%
%TO.P,C9,1,1*%
%TO.N,GND*%
X140075000Y-99700000D03*
%TO.P,C9,2,2*%
%TO.N,/1_mcu/ADC_CH3*%
X140075000Y-100700000D03*
%TD*%
D18*
%TO.P,C12,1,1*%
%TO.N,3.3V*%
X148249000Y-96200000D03*
%TO.P,C12,2,2*%
%TO.N,GND*%
X151251000Y-96200000D03*
%TD*%
D19*
%TO.P,LED1,1,A*%
%TO.N,Net-(LED1-A)*%
X164999000Y-104400000D03*
%TO.P,LED1,2,C*%
%TO.N,GND*%
X166701000Y-104400000D03*
%TD*%
D10*
%TO.P,R38,1,1*%
%TO.N,GND*%
X153800000Y-130350000D03*
%TO.P,R38,2,2*%
%TO.N,Net-(D16-A)*%
X152800000Y-130350000D03*
%TD*%
D20*
%TO.P,R6,1,1*%
%TO.N,Net-(LED1-A)*%
X163250000Y-104450000D03*
%TO.P,R6,2,2*%
%TO.N,Net-(U2-PC6)*%
X161650000Y-104450000D03*
%TD*%
D17*
%TO.P,R28,1,1*%
%TO.N,GND*%
X129750000Y-106150000D03*
%TO.P,R28,2,2*%
%TO.N,Net-(D12-A)*%
X129750000Y-105150000D03*
%TD*%
D21*
%TO.P,VBAT1,1,1*%
%TO.N,GND*%
X140250000Y-103450000D03*
%TO.P,VBAT1,2,2*%
%TO.N,VBAT*%
X140250000Y-104850000D03*
%TD*%
D22*
%TO.P,U2,1,VBAT*%
%TO.N,VBAT*%
X142325000Y-105125000D03*
%TO.P,U2,2,PC13*%
%TO.N,Net-(U1-S)*%
X142325000Y-105625000D03*
%TO.P,U2,3,PC14/OSC32_IN*%
%TO.N,Net-(U2-PC14{slash}OSC32_IN)*%
X142325000Y-106125000D03*
%TO.P,U2,4,PC15/OSC32_OUT*%
%TO.N,Net-(U2-PC15{slash}OSC32_OUT)*%
X142325000Y-106625000D03*
%TO.P,U2,5,PH0/OSCIN*%
%TO.N,Net-(U2-PH0{slash}OSCIN)*%
X142325000Y-107125000D03*
%TO.P,U2,6,PH1/OSCOUT*%
%TO.N,Net-(U2-PH1{slash}OSCOUT)*%
X142325000Y-107625000D03*
%TO.P,U2,7,NRST*%
%TO.N,/1_mcu/RST*%
X142325000Y-108125000D03*
%TO.P,U2,8,PC0*%
%TO.N,unconnected-(U2-PC0-Pad8)*%
X142325000Y-108625000D03*
%TO.P,U2,9,PC1*%
%TO.N,unconnected-(U2-PC1-Pad9)*%
X142325000Y-109125000D03*
%TO.P,U2,10,PC2*%
%TO.N,unconnected-(U2-PC2-Pad10)*%
X142325000Y-109625000D03*
%TO.P,U2,11,PC3*%
%TO.N,/1_mcu/ADC_CH3*%
X142325000Y-110125000D03*
%TO.P,U2,12,VSSA/VREF-*%
%TO.N,GND*%
X142325000Y-110625000D03*
%TO.P,U2,13,VDDA/VREF+*%
%TO.N,VREF+*%
X142325000Y-111125000D03*
%TO.P,U2,14,PA0*%
%TO.N,ECHO_OUT*%
X142325000Y-111625000D03*
%TO.P,U2,15,PA1*%
%TO.N,unconnected-(U2-PA1-Pad15)*%
X142325000Y-112125000D03*
%TO.P,U2,16,PA2*%
%TO.N,/1_mcu/USART2_TX*%
X142325000Y-112625000D03*
D23*
%TO.P,U2,17,PA3*%
%TO.N,/1_mcu/USART2_RX*%
X144125000Y-114425000D03*
%TO.P,U2,18,VSS*%
%TO.N,GND*%
X144625000Y-114425000D03*
%TO.P,U2,19,VDD*%
%TO.N,3.3V*%
X145125000Y-114425000D03*
%TO.P,U2,20,PA4*%
%TO.N,unconnected-(U2-PA4-Pad20)*%
X145625000Y-114425000D03*
%TO.P,U2,21,PA5*%
%TO.N,PWR_DRV0*%
X146125000Y-114425000D03*
%TO.P,U2,22,PA6*%
%TO.N,PWM_IN*%
X146625000Y-114425000D03*
%TO.P,U2,23,PA7*%
%TO.N,SWITCH_B*%
X147125000Y-114425000D03*
%TO.P,U2,24,PC4*%
%TO.N,/1_mcu/USART3_TX*%
X147625000Y-114425000D03*
%TO.P,U2,25,PC5*%
%TO.N,/1_mcu/USART3_RX*%
X148125000Y-114425000D03*
%TO.P,U2,26,PB0*%
%TO.N,SWITCH_A*%
X148625000Y-114425000D03*
%TO.P,U2,27,PB1*%
%TO.N,PWR_ON*%
X149125000Y-114425000D03*
%TO.P,U2,28,PB2*%
%TO.N,PWR_DRV1*%
X149625000Y-114425000D03*
%TO.P,U2,29,PB10*%
%TO.N,/1_mcu/USART1_RX*%
X150125000Y-114425000D03*
%TO.P,U2,30,PB11*%
%TO.N,/1_mcu/USART1_TX*%
X150625000Y-114425000D03*
%TO.P,U2,31,VSS*%
%TO.N,GND*%
X151125000Y-114425000D03*
%TO.P,U2,32,VDD*%
%TO.N,3.3V*%
X151625000Y-114425000D03*
D22*
%TO.P,U2,33,PB12*%
%TO.N,AS3935_INT*%
X153425000Y-112625000D03*
%TO.P,U2,34,PB13*%
%TO.N,SCL*%
X153425000Y-112125000D03*
%TO.P,U2,35,PB14*%
%TO.N,SDA*%
X153425000Y-111625000D03*
%TO.P,U2,36,PB15*%
%TO.N,Net-(U2-PB15)*%
X153425000Y-111125000D03*
%TO.P,U2,37,PC6*%
%TO.N,Net-(U2-PC6)*%
X153425000Y-110625000D03*
%TO.P,U2,38,PC7*%
%TO.N,Net-(U2-PC7)*%
X153425000Y-110125000D03*
%TO.P,U2,39,PC8*%
%TO.N,/1_mcu/SDMMC1_D0*%
X153425000Y-109625000D03*
%TO.P,U2,40,PC9*%
%TO.N,/1_mcu/SDMMC1_D1*%
X153425000Y-109125000D03*
%TO.P,U2,41,PA8*%
%TO.N,unconnected-(U2-PA8-Pad41)*%
X153425000Y-108625000D03*
%TO.P,U2,42,PA9*%
%TO.N,unconnected-(U2-PA9-Pad42)*%
X153425000Y-108125000D03*
%TO.P,U2,43,PA10*%
%TO.N,Net-(SD1-SH3)*%
X153425000Y-107625000D03*
%TO.P,U2,44,PA11*%
%TO.N,/1_mcu/USB_DM*%
X153425000Y-107125000D03*
%TO.P,U2,45,PA12*%
%TO.N,/1_mcu/USB_DP*%
X153425000Y-106625000D03*
%TO.P,U2,46,PA13*%
%TO.N,/1_mcu/SWDIO*%
X153425000Y-106125000D03*
%TO.P,U2,47,VSS*%
%TO.N,GND*%
X153425000Y-105625000D03*
%TO.P,U2,48,VDDUSB*%
%TO.N,3.3V*%
X153425000Y-105125000D03*
D23*
%TO.P,U2,49,PA14*%
%TO.N,/1_mcu/SWCLK*%
X151625000Y-103325000D03*
%TO.P,U2,50,PA15*%
%TO.N,Net-(Q1-G)*%
X151125000Y-103325000D03*
%TO.P,U2,51,PC10*%
%TO.N,/1_mcu/SDMMC1_D2*%
X150625000Y-103325000D03*
%TO.P,U2,52,PC11*%
%TO.N,/1_mcu/SDMMC1_D3*%
X150125000Y-103325000D03*
%TO.P,U2,53,PC12*%
%TO.N,/1_mcu/SDMMC1_CK*%
X149625000Y-103325000D03*
%TO.P,U2,54,PD2*%
%TO.N,/1_mcu/SDMMC1_CMD*%
X149125000Y-103325000D03*
%TO.P,U2,55,PB3*%
%TO.N,/1_mcu/SPI1_SCK*%
X148625000Y-103325000D03*
%TO.P,U2,56,PB4*%
%TO.N,/1_mcu/SPI1_MISO*%
X148125000Y-103325000D03*
%TO.P,U2,57,PB5*%
%TO.N,/1_mcu/SPI1_MOSI*%
X147625000Y-103325000D03*
%TO.P,U2,58,PB6*%
%TO.N,/1_mcu/SPI1_CS0*%
X147125000Y-103325000D03*
%TO.P,U2,59,PB7*%
%TO.N,/1_mcu/SPI1_CS1*%
X146625000Y-103325000D03*
%TO.P,U2,60,BOOT0*%
%TO.N,Net-(U2-BOOT0)*%
X146125000Y-103325000D03*
%TO.P,U2,61,PB8*%
%TO.N,/1_mcu/CAN_RX*%
X145625000Y-103325000D03*
%TO.P,U2,62,PB9*%
%TO.N,/1_mcu/CAN_TX*%
X145125000Y-103325000D03*
%TO.P,U2,63,VSS*%
%TO.N,GND*%
X144625000Y-103325000D03*
%TO.P,U2,64,VDD*%
%TO.N,3.3V*%
X144125000Y-103325000D03*
%TD*%
D15*
%TO.P,UART1,1,1*%
%TO.N,3.3V*%
X150325500Y-119850000D03*
%TO.P,UART1,2,2*%
%TO.N,/1_mcu/USART1_RX*%
X151575000Y-119850000D03*
%TO.P,UART1,3,3*%
%TO.N,/1_mcu/USART1_TX*%
X152784000Y-119850000D03*
%TO.P,UART1,4,4*%
%TO.N,GND*%
X154074500Y-119850000D03*
%TD*%
D24*
%TO.P,Q2,1,G*%
%TO.N,Net-(Q2-G)*%
X144749500Y-132050000D03*
%TO.P,Q2,2,S*%
%TO.N,3.3V*%
X144749500Y-130150000D03*
%TO.P,Q2,3,D*%
%TO.N,V_OPA*%
X142250500Y-131100000D03*
%TD*%
D17*
%TO.P,C13,1,1*%
%TO.N,GND*%
X147100000Y-92200000D03*
%TO.P,C13,2,2*%
%TO.N,3.3V*%
X147100000Y-93200000D03*
%TD*%
D10*
%TO.P,C23,1,1*%
%TO.N,GND*%
X138250000Y-117376000D03*
%TO.P,C23,2,2*%
%TO.N,3.3V*%
X139250000Y-117376000D03*
%TD*%
D17*
%TO.P,R9,1,1*%
%TO.N,GND*%
X138576000Y-99699000D03*
%TO.P,R9,2,2*%
%TO.N,/1_mcu/ADC_CH3*%
X138576000Y-100699000D03*
%TD*%
D10*
%TO.P,C2,1,1*%
%TO.N,GND*%
X153050000Y-100350000D03*
%TO.P,C2,2,2*%
%TO.N,Net-(Q1-D)*%
X154050000Y-100350000D03*
%TD*%
D25*
%TO.P,DEBUG1,1,1*%
%TO.N,+5V*%
X157640812Y-91684315D03*
%TO.P,DEBUG1,2,2*%
%TO.N,/1_mcu/USART3_TX*%
X157994365Y-92037868D03*
%TO.P,DEBUG1,3,3*%
%TO.N,/1_mcu/USART3_RX*%
X158347918Y-92391421D03*
%TO.P,DEBUG1,4,4*%
%TO.N,GND*%
X158701472Y-92744975D03*
%TO.P,DEBUG1,5,5*%
%TO.N,unconnected-(DEBUG1-Pad5)*%
X159055025Y-93098528D03*
%TO.P,DEBUG1,6,6*%
%TO.N,/1_mcu/SWCLK*%
X159408579Y-93452082D03*
%TO.P,DEBUG1,7,7*%
%TO.N,/1_mcu/SWDIO*%
X159762132Y-93805635D03*
%TO.P,DEBUG1,8,8*%
%TO.N,3.3V*%
X160115685Y-94159188D03*
D26*
%TO.P,DEBUG1,MP1,MP1*%
%TO.N,GND*%
X158701472Y-89209441D03*
%TO.P,DEBUG1,MP2,MP2*%
X162590559Y-93098528D03*
%TD*%
D17*
%TO.P,R20,1,1*%
%TO.N,/2_anemometer/EAST_OUT*%
X152100000Y-128050000D03*
%TO.P,R20,2,2*%
%TO.N,GND*%
X152100000Y-129050000D03*
%TD*%
%TO.P,R11,1,1*%
%TO.N,Net-(Q2-G)*%
X146100000Y-131950000D03*
%TO.P,R11,2,2*%
%TO.N,3.3V*%
X146100000Y-130950000D03*
%TD*%
D10*
%TO.P,R23,1,1*%
%TO.N,GND*%
X147150000Y-87900000D03*
%TO.P,R23,2,2*%
%TO.N,Net-(D8-A)*%
X146150000Y-87900000D03*
%TD*%
%TO.P,R34,1,1*%
%TO.N,VGND*%
X139350000Y-123650000D03*
%TO.P,R34,2,2*%
%TO.N,Net-(U7B-INB+)*%
X138350000Y-123650000D03*
%TD*%
%TO.P,C39,1,1*%
%TO.N,Net-(U7B-INB-)*%
X139450000Y-129800000D03*
%TO.P,C39,2,2*%
%TO.N,ECHO_OUT*%
X138450000Y-129800000D03*
%TD*%
D15*
%TO.P,WEST1,1,1*%
%TO.N,GND*%
X128000000Y-110690000D03*
%TO.P,WEST1,2,2*%
%TO.N,Net-(D12-K)*%
X128000000Y-109410000D03*
%TD*%
D10*
%TO.P,R29,1,1*%
%TO.N,Net-(U7A-OUTA)*%
X143200000Y-126800000D03*
%TO.P,R29,2,2*%
%TO.N,Net-(U7A-INA-)*%
X144200000Y-126800000D03*
%TD*%
D17*
%TO.P,R19,1,1*%
%TO.N,/2_anemometer/NORTH_OUT*%
X148500000Y-128050000D03*
%TO.P,R19,2,2*%
%TO.N,GND*%
X148500000Y-129050000D03*
%TD*%
D10*
%TO.P,R32,1,1*%
%TO.N,VGND*%
X144200000Y-124400000D03*
%TO.P,R32,2,2*%
%TO.N,Net-(U7A-INA+)*%
X143200000Y-124400000D03*
%TD*%
%TO.P,C15,1,1*%
%TO.N,GND*%
X138250000Y-113375500D03*
%TO.P,C15,2,2*%
%TO.N,VREF+*%
X139250000Y-113375500D03*
%TD*%
D27*
%TO.P,RST1,1,1*%
%TO.N,GND*%
X132900000Y-106500000D03*
%TO.P,RST1,2,2*%
%TO.N,/1_mcu/RST*%
X136300000Y-106500000D03*
%TD*%
D10*
%TO.P,R37,1,1*%
%TO.N,GND*%
X153800000Y-131550000D03*
%TO.P,R37,2,2*%
%TO.N,Net-(D16-K)*%
X152800000Y-131550000D03*
%TD*%
D28*
%TO.P,U7,1,OUTA*%
%TO.N,Net-(U7A-OUTA)*%
X141402000Y-127025000D03*
%TO.P,U7,2,INA-*%
%TO.N,Net-(U7A-INA-)*%
X141402000Y-126375000D03*
%TO.P,U7,3,INA+*%
%TO.N,Net-(U7A-INA+)*%
X141402000Y-125725000D03*
%TO.P,U7,4,-VS*%
%TO.N,GND*%
X141402000Y-125075000D03*
%TO.P,U7,5,INB+*%
%TO.N,Net-(U7B-INB+)*%
X136398000Y-125075000D03*
%TO.P,U7,6,INB-*%
%TO.N,Net-(U7B-INB-)*%
X136398000Y-125725000D03*
%TO.P,U7,7,OUTB*%
%TO.N,ECHO_OUT*%
X136398000Y-126375000D03*
%TO.P,U7,8,+VS*%
%TO.N,V_OPA*%
X136398000Y-127025000D03*
%TD*%
D10*
%TO.P,R5,1,1*%
%TO.N,/1_mcu/USB_DP*%
X156550000Y-99300000D03*
%TO.P,R5,2,2*%
%TO.N,Net-(USB1-Data+)*%
X157550000Y-99300000D03*
%TD*%
D17*
%TO.P,C3,1,1*%
%TO.N,GND*%
X135600000Y-99700000D03*
%TO.P,C3,2,2*%
%TO.N,Net-(U2-PC14{slash}OSC32_IN)*%
X135600000Y-100700000D03*
%TD*%
D29*
%TO.P,USB1,1,VBUS*%
%TO.N,+5V*%
X165329140Y-99409337D03*
%TO.P,USB1,2,Data-*%
%TO.N,Net-(USB1-Data-)*%
X164869167Y-98950071D03*
%TO.P,USB1,3,Data+*%
%TO.N,Net-(USB1-Data+)*%
X164409902Y-98490098D03*
%TO.P,USB1,4,ID*%
%TO.N,unconnected-(USB1-ID-Pad4)*%
X163949929Y-98030833D03*
%TO.P,USB1,5,GND*%
%TO.N,GND*%
X163490309Y-97571213D03*
D30*
%TO.P,USB1,6*%
X168348133Y-98667229D03*
D31*
X166405357Y-99977144D03*
D32*
X166884422Y-97203518D03*
X165696482Y-96015578D03*
D31*
X162922856Y-96494643D03*
D30*
X164232771Y-94551867D03*
%TD*%
D10*
%TO.P,R40,1,1*%
%TO.N,SDA*%
X158900000Y-102150000D03*
%TO.P,R40,2,2*%
%TO.N,3.3V*%
X159900000Y-102150000D03*
%TD*%
%TO.P,R25,1,1*%
%TO.N,PWR_DRV1*%
X163450000Y-121100000D03*
%TO.P,R25,2,2*%
%TO.N,GND*%
X164450000Y-121100000D03*
%TD*%
%TO.P,R30,1,1*%
%TO.N,Net-(U7B-INB-)*%
X138200000Y-128450000D03*
%TO.P,R30,2,2*%
%TO.N,ECHO_OUT*%
X137200000Y-128450000D03*
%TD*%
D11*
%TO.P,C38,1,1*%
%TO.N,GND*%
X160200000Y-122150000D03*
%TO.P,C38,2,2*%
%TO.N,3.3V*%
X161600000Y-122150000D03*
%TD*%
%TO.P,C37,1,1*%
%TO.N,Net-(U6-C1+)*%
X161900000Y-112400000D03*
%TO.P,C37,2,2*%
%TO.N,Net-(U6-C1\u2212)*%
X160500000Y-112400000D03*
%TD*%
D17*
%TO.P,R17,1,1*%
%TO.N,/2_anemometer/SOUTH_OUT*%
X150900000Y-128050000D03*
%TO.P,R17,2,2*%
%TO.N,GND*%
X150900000Y-129050000D03*
%TD*%
D10*
%TO.P,C22,1,1*%
%TO.N,GND*%
X138250000Y-114750000D03*
%TO.P,C22,2,2*%
%TO.N,VREF+*%
X139250000Y-114750000D03*
%TD*%
%TO.P,R13,1,1*%
%TO.N,GND*%
X168100000Y-109300000D03*
%TO.P,R13,2,2*%
%TO.N,Net-(D4-K)*%
X169100000Y-109300000D03*
%TD*%
D21*
%TO.P,C30,1,1*%
%TO.N,GND*%
X127600000Y-113700000D03*
%TO.P,C30,2,2*%
%TO.N,Net-(U4-V\u2212)*%
X127600000Y-115100000D03*
%TD*%
D33*
%TO.P,R1,1,1*%
%TO.N,Net-(U1-CANL)*%
X144350000Y-89200000D03*
%TO.P,R1,2,2*%
%TO.N,Net-(U1-CANH)*%
X144350000Y-90800000D03*
%TD*%
D15*
%TO.P,I2C1,1,1*%
%TO.N,3.3V*%
X157250000Y-109874500D03*
%TO.P,I2C1,2,2*%
%TO.N,SCL*%
X157250000Y-108625000D03*
%TO.P,I2C1,3,3*%
%TO.N,SDA*%
X157250000Y-107416000D03*
%TO.P,I2C1,4,4*%
%TO.N,GND*%
X157250000Y-106125500D03*
%TD*%
D10*
%TO.P,C45,1,1*%
%TO.N,GND*%
X141650000Y-123650000D03*
%TO.P,C45,2,2*%
%TO.N,VGND*%
X140650000Y-123650000D03*
%TD*%
%TO.P,C35,1,1*%
%TO.N,V_OPA*%
X134250000Y-125250000D03*
%TO.P,C35,2,2*%
%TO.N,GND*%
X133250000Y-125250000D03*
%TD*%
D15*
%TO.P,SOUTH1,1,1*%
%TO.N,GND*%
X149360000Y-88000000D03*
%TO.P,SOUTH1,2,2*%
%TO.N,Net-(D8-K)*%
X150640000Y-88000000D03*
%TD*%
D11*
%TO.P,C27,1,1*%
%TO.N,GND*%
X130650000Y-121250000D03*
%TO.P,C27,2,2*%
%TO.N,3.3V*%
X132050000Y-121250000D03*
%TD*%
D15*
%TO.P,CAN1,1,1*%
%TO.N,+5V*%
X139974500Y-93550000D03*
%TO.P,CAN1,2,2*%
%TO.N,Net-(U1-CANH)*%
X138725000Y-93550000D03*
%TO.P,CAN1,3,3*%
%TO.N,Net-(U1-CANL)*%
X137516000Y-93550000D03*
%TO.P,CAN1,4,4*%
%TO.N,GND*%
X136225500Y-93550000D03*
%TD*%
D10*
%TO.P,R39,1,1*%
%TO.N,GND*%
X140650000Y-120250000D03*
%TO.P,R39,2,2*%
%TO.N,VGND*%
X139650000Y-120250000D03*
%TD*%
D21*
%TO.P,C16,1,1*%
%TO.N,GND*%
X142800000Y-115850000D03*
%TO.P,C16,2,2*%
%TO.N,3.3V*%
X142800000Y-117250000D03*
%TD*%
D10*
%TO.P,C18,1,1*%
%TO.N,GND*%
X154050000Y-101650000D03*
%TO.P,C18,2,2*%
%TO.N,3.3V*%
X153050000Y-101650000D03*
%TD*%
D17*
%TO.P,R3,1,1*%
%TO.N,3.3V*%
X159000000Y-95950000D03*
%TO.P,R3,2,2*%
%TO.N,Net-(Q1-G)*%
X159000000Y-96950000D03*
%TD*%
D34*
%TO.P,U4,1,#EN*%
%TO.N,GND*%
X134875000Y-113299000D03*
%TO.P,U4,2,C1+*%
%TO.N,Net-(U4-C1+)*%
X134225000Y-113299000D03*
%TO.P,U4,3,V+*%
%TO.N,Net-(U4-V+)*%
X133575000Y-113299000D03*
%TO.P,U4,4,C1\u2212*%
%TO.N,Net-(U4-C1\u2212)*%
X132925000Y-113299000D03*
%TO.P,U4,5,C2+*%
%TO.N,Net-(U4-C2+)*%
X132275000Y-113299000D03*
%TO.P,U4,6,C2\u2212*%
%TO.N,Net-(U4-C2\u2212)*%
X131626500Y-113299000D03*
%TO.P,U4,7,V\u2212*%
%TO.N,Net-(U4-V\u2212)*%
X130975500Y-113299000D03*
%TO.P,U4,8,DOUT2*%
%TO.N,Net-(U4-DOUT2)*%
X130325500Y-113299000D03*
%TO.P,U4,9,RIN2*%
%TO.N,unconnected-(U4-RIN2-Pad9)*%
X129675500Y-113299000D03*
%TO.P,U4,10,ROUT2*%
%TO.N,unconnected-(U4-ROUT2-Pad10)*%
X129025000Y-113299000D03*
%TO.P,U4,11,NC*%
%TO.N,unconnected-(U4-NC-Pad11)*%
X129025000Y-119301000D03*
%TO.P,U4,12,DIN2*%
%TO.N,/2_anemometer/WEST_OUT*%
X129675000Y-119301000D03*
%TO.P,U4,13,DIN1*%
%TO.N,/2_anemometer/SOUTH_OUT*%
X130325000Y-119301000D03*
%TO.P,U4,14,NC*%
%TO.N,unconnected-(U4-NC-Pad14)*%
X130975000Y-119301000D03*
%TO.P,U4,15,ROUT1*%
%TO.N,unconnected-(U4-ROUT1-Pad15)*%
X131625000Y-119301000D03*
%TO.P,U4,16,RIN1*%
%TO.N,unconnected-(U4-RIN1-Pad16)*%
X132275000Y-119301000D03*
%TO.P,U4,17,DOUT1*%
%TO.N,Net-(U4-DOUT1)*%
X132925000Y-119301000D03*
%TO.P,U4,18,GND*%
%TO.N,GND*%
X133575000Y-119296000D03*
%TO.P,U4,19,VCC*%
%TO.N,3.3V*%
X134225000Y-119296000D03*
%TO.P,U4,20,#PWRDOWN*%
%TO.N,PWR_DRV0*%
X134875000Y-119301000D03*
%TD*%
D17*
%TO.P,R8,1,1*%
%TO.N,/1_mcu/ADC_CH3*%
X137100000Y-100700000D03*
%TO.P,R8,2,2*%
%TO.N,+5V*%
X137100000Y-99700000D03*
%TD*%
D35*
%TO.P,X2,1,OSC1*%
%TO.N,Net-(U2-PH1{slash}OSCOUT)*%
X133400000Y-104100000D03*
D36*
%TO.P,X2,2,GND*%
%TO.N,GND*%
X135600000Y-104100000D03*
%TO.P,X2,3,OSC2*%
%TO.N,Net-(U2-PH0{slash}OSCIN)*%
X135600000Y-102500000D03*
%TO.P,X2,4,GND*%
%TO.N,GND*%
X133400000Y-102500000D03*
%TD*%
D24*
%TO.P,U3,1,GND*%
%TO.N,GND*%
X148900500Y-91550000D03*
%TO.P,U3,2,Vout*%
%TO.N,3.3V*%
X148900500Y-93450000D03*
%TO.P,U3,3,Vin*%
%TO.N,+5V*%
X151400000Y-92500000D03*
%TD*%
D15*
%TO.P,NORTH1,1,1*%
%TO.N,GND*%
X150640000Y-132000000D03*
%TO.P,NORTH1,2,2*%
%TO.N,Net-(D16-K)*%
X149360000Y-132000000D03*
%TD*%
D17*
%TO.P,R18,1,1*%
%TO.N,/2_anemometer/WEST_OUT*%
X149700000Y-128050000D03*
%TO.P,R18,2,2*%
%TO.N,GND*%
X149700000Y-129050000D03*
%TD*%
%TO.P,C5,1,1*%
%TO.N,GND*%
X131200000Y-99700000D03*
%TO.P,C5,2,2*%
%TO.N,Net-(U2-PC15{slash}OSC32_OUT)*%
X131200000Y-100700000D03*
%TD*%
D21*
%TO.P,C28,1,1*%
%TO.N,Net-(U4-V+)*%
X136500000Y-114800000D03*
%TO.P,C28,2,2*%
%TO.N,GND*%
X136500000Y-113400000D03*
%TD*%
D37*
%TO.P,SW1,1,1*%
%TO.N,GND*%
X154650000Y-117550000D03*
%TO.P,SW1,2,2*%
%TO.N,Net-(U2-PB15)*%
X154650000Y-114150000D03*
%TD*%
D10*
%TO.P,R22,1,1*%
%TO.N,GND*%
X147150000Y-89100000D03*
%TO.P,R22,2,2*%
%TO.N,Net-(D8-K)*%
X146150000Y-89100000D03*
%TD*%
D21*
%TO.P,C43,1,1*%
%TO.N,GND*%
X164950000Y-112450000D03*
%TO.P,C43,2,2*%
%TO.N,Net-(U6-V\u2212)*%
X164950000Y-113850000D03*
%TD*%
D10*
%TO.P,R10,1,1*%
%TO.N,VREF+*%
X138249500Y-116251500D03*
%TO.P,R10,2,2*%
%TO.N,3.3V*%
X139249500Y-116251500D03*
%TD*%
%TO.P,R14,1,1*%
%TO.N,GND*%
X168100000Y-107950000D03*
%TO.P,R14,2,2*%
%TO.N,Net-(D4-A)*%
X169100000Y-107950000D03*
%TD*%
D38*
%TO.P,D3,1,-*%
%TO.N,+5V*%
X168500000Y-103900000D03*
%TO.P,D3,2,+*%
%TO.N,Net-(D3-+)*%
X171900000Y-103900000D03*
%TD*%
D11*
%TO.P,C29,1,1*%
%TO.N,Net-(U4-C2+)*%
X132400000Y-111350000D03*
%TO.P,C29,2,2*%
%TO.N,Net-(U4-C2\u2212)*%
X131000000Y-111350000D03*
%TD*%
D10*
%TO.P,R24,1,1*%
%TO.N,Net-(U7A-INA-)*%
X143200000Y-125600000D03*
%TO.P,R24,2,2*%
%TO.N,Net-(U5-Y)*%
X144200000Y-125600000D03*
%TD*%
D11*
%TO.P,C42,1,1*%
%TO.N,Net-(U6-C2+)*%
X158750000Y-112450000D03*
%TO.P,C42,2,2*%
%TO.N,Net-(U6-C2\u2212)*%
X157350000Y-112450000D03*
%TD*%
D15*
%TO.P,EAST1,1,1*%
%TO.N,GND*%
X172000000Y-109360000D03*
%TO.P,EAST1,2,2*%
%TO.N,Net-(D4-K)*%
X172000000Y-110640000D03*
%TD*%
%TO.P,UART2,1,1*%
%TO.N,3.3V*%
X142975500Y-119900000D03*
%TO.P,UART2,2,2*%
%TO.N,/1_mcu/USART2_RX*%
X144225000Y-119900000D03*
%TO.P,UART2,3,3*%
%TO.N,/1_mcu/USART2_TX*%
X145434000Y-119900000D03*
%TO.P,UART2,4,4*%
%TO.N,GND*%
X146724500Y-119900000D03*
%TD*%
D10*
%TO.P,C21,1,1*%
%TO.N,GND*%
X144800000Y-116550000D03*
%TO.P,C21,2,2*%
%TO.N,3.3V*%
X145800000Y-116550000D03*
%TD*%
%TO.P,C17,1,1*%
%TO.N,GND*%
X142900000Y-101700000D03*
%TO.P,C17,2,2*%
%TO.N,3.3V*%
X141900000Y-101700000D03*
%TD*%
D17*
%TO.P,R16,1,1*%
%TO.N,PWR_ON*%
X154650000Y-123300000D03*
%TO.P,R16,2,2*%
%TO.N,Net-(Q2-G)*%
X154650000Y-122300000D03*
%TD*%
D39*
%TO.P,BAT1,1,1*%
%TO.N,GND*%
X164620000Y-109200000D03*
D40*
%TO.P,BAT1,2,2*%
%TO.N,Net-(D3-+)*%
X162080000Y-109200000D03*
%TD*%
D11*
%TO.P,C25,1,1*%
%TO.N,Net-(U4-C1+)*%
X135300000Y-111350000D03*
%TO.P,C25,2,2*%
%TO.N,Net-(U4-C1\u2212)*%
X133900000Y-111350000D03*
%TD*%
D19*
%TO.P,LED2,1,A*%
%TO.N,Net-(LED2-A)*%
X164999000Y-102800000D03*
%TO.P,LED2,2,K*%
%TO.N,GND*%
X166701000Y-102800000D03*
%TD*%
D20*
%TO.P,R7,1,1*%
%TO.N,Net-(LED2-A)*%
X163250000Y-102750000D03*
%TO.P,R7,2,2*%
%TO.N,Net-(U2-PC7)*%
X161650000Y-102750000D03*
%TD*%
D24*
%TO.P,Q1,1,G*%
%TO.N,Net-(Q1-G)*%
X157374500Y-97575000D03*
%TO.P,Q1,2,S*%
%TO.N,3.3V*%
X157374500Y-95675000D03*
%TO.P,Q1,3,D*%
%TO.N,Net-(Q1-D)*%
X154875500Y-96625000D03*
%TD*%
D11*
%TO.P,C14,1,1*%
%TO.N,+5V*%
X153100000Y-92750000D03*
%TO.P,C14,2,2*%
%TO.N,GND*%
X154500000Y-92750000D03*
%TD*%
D24*
%TO.P,D1,1,A*%
%TO.N,Net-(U1-CANH)*%
X141949500Y-90950000D03*
%TO.P,D1,2,A*%
%TO.N,Net-(U1-CANL)*%
X141949500Y-89050000D03*
%TO.P,D1,3,C*%
%TO.N,GND*%
X139450500Y-90000000D03*
%TD*%
D10*
%TO.P,R4,1,1*%
%TO.N,/1_mcu/USB_DM*%
X156550000Y-100500000D03*
%TO.P,R4,2,2*%
%TO.N,Net-(USB1-Data-)*%
X157550000Y-100500000D03*
%TD*%
D17*
%TO.P,C8,1,1*%
%TO.N,GND*%
X137850000Y-107400000D03*
%TO.P,C8,2,2*%
%TO.N,/1_mcu/RST*%
X137850000Y-106400000D03*
%TD*%
D10*
%TO.P,R33,1,1*%
%TO.N,Net-(U7B-INB+)*%
X138350000Y-122500000D03*
%TO.P,R33,2,2*%
%TO.N,VGND*%
X139350000Y-122500000D03*
%TD*%
%TO.P,C7,1,1*%
%TO.N,GND*%
X130700000Y-104100000D03*
%TO.P,C7,2,2*%
%TO.N,Net-(U2-PH1{slash}OSCOUT)*%
X131700000Y-104100000D03*
%TD*%
%TO.P,R31,1,1*%
%TO.N,Net-(U7B-INB-)*%
X139100000Y-128450000D03*
%TO.P,R31,2,2*%
%TO.N,Net-(U7A-OUTA)*%
X140100000Y-128450000D03*
%TD*%
D11*
%TO.P,C31,1,1*%
%TO.N,GND*%
X145600000Y-128500000D03*
%TO.P,C31,2,2*%
%TO.N,3.3V*%
X147000000Y-128500000D03*
%TD*%
D10*
%TO.P,C6,1,1*%
%TO.N,Net-(U2-PH0{slash}OSCIN)*%
X131700000Y-102550000D03*
%TO.P,C6,2,2*%
%TO.N,GND*%
X130700000Y-102550000D03*
%TD*%
%TO.P,R2,1,1*%
%TO.N,Net-(U2-BOOT0)*%
X146100000Y-101400000D03*
%TO.P,R2,2,2*%
%TO.N,GND*%
X147100000Y-101400000D03*
%TD*%
%TO.P,C50,1,1*%
%TO.N,3.3V*%
X169850000Y-113550000D03*
%TO.P,C50,2,2*%
%TO.N,GND*%
X168850000Y-113550000D03*
%TD*%
D34*
%TO.P,U6,1,#EN*%
%TO.N,GND*%
X162425000Y-114299000D03*
%TO.P,U6,2,C1+*%
%TO.N,Net-(U6-C1+)*%
X161775000Y-114299000D03*
%TO.P,U6,3,V+*%
%TO.N,Net-(U6-V+)*%
X161125000Y-114299000D03*
%TO.P,U6,4,C1\u2212*%
%TO.N,Net-(U6-C1\u2212)*%
X160475000Y-114299000D03*
%TO.P,U6,5,C2+*%
%TO.N,Net-(U6-C2+)*%
X159825000Y-114299000D03*
%TO.P,U6,6,C2\u2212*%
%TO.N,Net-(U6-C2\u2212)*%
X159176500Y-114299000D03*
%TO.P,U6,7,V\u2212*%
%TO.N,Net-(U6-V\u2212)*%
X158525500Y-114299000D03*
%TO.P,U6,8,DOUT2*%
%TO.N,Net-(U6-DOUT2)*%
X157875500Y-114299000D03*
%TO.P,U6,9,RIN2*%
%TO.N,unconnected-(U6-RIN2-Pad9)*%
X157225500Y-114299000D03*
%TO.P,U6,10,ROUT2*%
%TO.N,unconnected-(U6-ROUT2-Pad10)*%
X156575000Y-114299000D03*
%TO.P,U6,11,NC*%
%TO.N,unconnected-(U6-NC-Pad11)*%
X156575000Y-120301000D03*
%TO.P,U6,12,DIN2*%
%TO.N,/2_anemometer/EAST_OUT*%
X157225000Y-120301000D03*
%TO.P,U6,13,DIN1*%
%TO.N,/2_anemometer/NORTH_OUT*%
X157875000Y-120301000D03*
%TO.P,U6,14,NC*%
%TO.N,unconnected-(U6-NC-Pad14)*%
X158525000Y-120301000D03*
%TO.P,U6,15,ROUT1*%
%TO.N,unconnected-(U6-ROUT1-Pad15)*%
X159175000Y-120301000D03*
%TO.P,U6,16,RIN1*%
%TO.N,unconnected-(U6-RIN1-Pad16)*%
X159825000Y-120301000D03*
%TO.P,U6,17,DOUT1*%
%TO.N,Net-(U6-DOUT1)*%
X160475000Y-120301000D03*
%TO.P,U6,18,GND*%
%TO.N,GND*%
X161125000Y-120296000D03*
%TO.P,U6,19,VCC*%
%TO.N,3.3V*%
X161775000Y-120296000D03*
%TO.P,U6,20,#PWRDOWN*%
%TO.N,PWR_DRV1*%
X162425000Y-120301000D03*
%TD*%
D17*
%TO.P,R15,1,1*%
%TO.N,GND*%
X134600000Y-122200000D03*
%TO.P,R15,2,2*%
%TO.N,PWR_DRV0*%
X134600000Y-121200000D03*
%TD*%
D11*
%TO.P,C36,1,1*%
%TO.N,GND*%
X133400000Y-123700000D03*
%TO.P,C36,2,2*%
%TO.N,V_OPA*%
X134800000Y-123700000D03*
%TD*%
D21*
%TO.P,C41,1,1*%
%TO.N,Net-(U6-V+)*%
X163600000Y-113900000D03*
%TO.P,C41,2,2*%
%TO.N,GND*%
X163600000Y-112500000D03*
%TD*%
D41*
%TO.P,U1,1,TXD*%
%TO.N,/1_mcu/CAN_TX*%
X143895000Y-95450000D03*
%TO.P,U1,2,GND*%
%TO.N,GND*%
X144545000Y-95450000D03*
%TO.P,U1,3,VCC*%
%TO.N,3.3V*%
X145205000Y-95450000D03*
%TO.P,U1,4,RXD*%
%TO.N,/1_mcu/CAN_RX*%
X145855000Y-95450000D03*
%TO.P,U1,5,SHDN*%
%TO.N,Net-(U1-S)*%
X145855000Y-93050000D03*
%TO.P,U1,6,CANL*%
%TO.N,Net-(U1-CANL)*%
X145205000Y-93050000D03*
%TO.P,U1,7,CANH*%
%TO.N,Net-(U1-CANH)*%
X144545000Y-93050000D03*
%TO.P,U1,8,S*%
%TO.N,Net-(U1-S)*%
X143895000Y-93050000D03*
%TD*%
D42*
%TO.N,GND*%
X140050000Y-124600000D03*
X137550000Y-94800000D03*
X128150000Y-117850000D03*
X143750000Y-131100000D03*
X164350000Y-101600000D03*
X137600000Y-113600000D03*
X131000000Y-98600000D03*
X138690054Y-107609946D03*
X143200000Y-87900000D03*
X172200000Y-102550000D03*
X162400000Y-105600000D03*
X134350000Y-103400000D03*
X154150000Y-99250000D03*
X154350000Y-91300000D03*
X142800000Y-99400000D03*
X143200000Y-132150000D03*
X161000000Y-100050000D03*
X141000000Y-115100000D03*
X132000000Y-106700000D03*
X149000000Y-111800000D03*
X139300000Y-103500000D03*
X142800000Y-115100000D03*
X130850000Y-122950000D03*
X161850000Y-95650000D03*
X171950000Y-112000000D03*
X148500000Y-88950000D03*
X152896250Y-129000000D03*
X146850000Y-112600000D03*
X152850000Y-121399500D03*
X171000000Y-100200000D03*
X167895000Y-101100000D03*
X157950000Y-93800000D03*
X141399500Y-118151000D03*
X140100000Y-127300000D03*
X129250000Y-102250000D03*
X133470000Y-98750000D03*
X132750000Y-115150000D03*
X141750000Y-93050000D03*
X156850000Y-132050000D03*
X140000000Y-126100000D03*
X144600000Y-112850000D03*
X144800000Y-117200000D03*
X130050000Y-116900000D03*
X156150000Y-130700000D03*
X132900000Y-117100000D03*
X167200000Y-107950000D03*
X151550000Y-94600000D03*
X134950000Y-94650000D03*
X169901000Y-104399000D03*
X139100000Y-125250000D03*
X146800000Y-110650000D03*
X143250000Y-130250000D03*
X157950000Y-131100000D03*
X154500000Y-131550000D03*
X154250000Y-102500000D03*
X127650000Y-112850000D03*
X161600000Y-117950000D03*
X163100000Y-106450000D03*
X132150000Y-123650000D03*
X144500000Y-94500000D03*
X141699500Y-124346000D03*
X141000000Y-99350000D03*
X172100000Y-107850000D03*
X129000000Y-103700000D03*
X139050000Y-126950000D03*
X140550000Y-88700000D03*
X155550000Y-132250000D03*
X151950000Y-88950000D03*
X142550000Y-100950000D03*
X144550000Y-128550000D03*
X143900000Y-110625000D03*
X151125000Y-113050000D03*
X131050000Y-115250000D03*
X147900000Y-131850000D03*
X164271500Y-112500000D03*
X129800000Y-106800000D03*
X127750000Y-108100000D03*
X159750000Y-104700000D03*
X131400000Y-117800000D03*
X127800000Y-116750000D03*
X161548000Y-90950000D03*
X134250000Y-106700000D03*
X135539000Y-113299000D03*
X138450000Y-118100000D03*
X151700000Y-108800000D03*
X156500000Y-115850000D03*
X140400000Y-117300000D03*
X148850000Y-90900000D03*
X133600000Y-126250000D03*
X146950000Y-108050000D03*
X159700000Y-106550000D03*
X132050000Y-115700000D03*
X142300000Y-113750000D03*
X168250000Y-113550000D03*
X145850000Y-109400000D03*
X143350000Y-128050000D03*
X154650000Y-116100000D03*
X137650000Y-90450000D03*
X151750000Y-117600000D03*
X163150000Y-118000000D03*
X147950000Y-99600000D03*
X159850000Y-89600000D03*
X140400000Y-94600000D03*
X151250000Y-121400000D03*
X172400000Y-105350000D03*
X145850000Y-111700000D03*
X163600000Y-92850000D03*
X130150000Y-100400000D03*
X153650000Y-115450000D03*
X148950000Y-109300000D03*
%TO.N,3.3V*%
X143550000Y-102800000D03*
X143350000Y-94550000D03*
X158350000Y-95650000D03*
X133550000Y-121300000D03*
X146000000Y-99600000D03*
X159950000Y-102850000D03*
X146550000Y-96600000D03*
X146700000Y-129200000D03*
X152350000Y-115250000D03*
X166550000Y-114250000D03*
X150400000Y-94050000D03*
X153200000Y-102450000D03*
X161700000Y-118800000D03*
X145350000Y-94500000D03*
X145750000Y-117300000D03*
X142350000Y-117900000D03*
%TO.N,ECHO_OUT*%
X143800000Y-111650000D03*
X136350000Y-118100000D03*
%TO.N,Net-(Q1-D)*%
X162000000Y-98100000D03*
%TO.N,SDA*%
X145150000Y-100750000D03*
X147150000Y-100250000D03*
X147200000Y-98250000D03*
X150449500Y-106749000D03*
%TO.N,/1_mcu/ADC_CH3*%
X143950000Y-109100000D03*
X138500000Y-102650000D03*
%TO.N,Net-(D4-A)*%
X169800000Y-106550000D03*
%TO.N,Net-(U6-DOUT2)*%
X157600000Y-115700000D03*
%TO.N,/2_anemometer/EAST_IN*%
X153950000Y-124150000D03*
%TO.N,PWR_DRV1*%
X156450000Y-118100000D03*
X149800000Y-118750000D03*
%TO.N,PWR_DRV0*%
X135650000Y-120450000D03*
X146150000Y-118450000D03*
%TO.N,Net-(D8-A)*%
X145450000Y-87950000D03*
%TO.N,Net-(U4-DOUT1)*%
X134049000Y-93800000D03*
X128450500Y-111999000D03*
X129000000Y-116000000D03*
%TO.N,/2_anemometer/SOUTH_IN*%
X148450000Y-122800000D03*
%TO.N,Net-(D12-A)*%
X129550000Y-104500000D03*
%TO.N,Net-(U4-DOUT2)*%
X129550000Y-107700000D03*
%TO.N,SCL*%
X149649500Y-107599500D03*
%TO.N,/2_anemometer/WEST_IN*%
X149400000Y-122700000D03*
%TO.N,Net-(D16-A)*%
X152000000Y-130300000D03*
%TO.N,V_OPA*%
X140750000Y-130850000D03*
X134450000Y-126350000D03*
%TO.N,Net-(U6-DOUT1)*%
X157300000Y-118800000D03*
%TO.N,/2_anemometer/NORTH_IN*%
X150250000Y-126200000D03*
%TO.N,+5V*%
X153500000Y-91000000D03*
X169901000Y-102949000D03*
%TO.N,Net-(D8-K)*%
X145650000Y-88950000D03*
%TO.N,Net-(D12-K)*%
X131200000Y-107000000D03*
%TO.N,Net-(D16-K)*%
X152100000Y-131300000D03*
%TO.N,/1_mcu/USART3_TX*%
X151200000Y-105050000D03*
X156600000Y-91200000D03*
X152950000Y-94750000D03*
%TO.N,/1_mcu/SWCLK*%
X155900000Y-94800000D03*
%TO.N,/1_mcu/USART3_RX*%
X150750000Y-105900000D03*
X156150000Y-90350000D03*
X152799000Y-95600500D03*
%TO.N,/1_mcu/SWDIO*%
X154950000Y-95400000D03*
%TO.N,Net-(Q1-G)*%
X155800000Y-97650000D03*
X152950000Y-98050000D03*
%TO.N,Net-(Q2-G)*%
X151950000Y-132250000D03*
X154900000Y-121700000D03*
%TO.N,Net-(U2-PC6)*%
X154800000Y-110900000D03*
X160750000Y-108100000D03*
%TO.N,Net-(U2-PC7)*%
X159900000Y-108200000D03*
X155050000Y-110050000D03*
%TO.N,/2_anemometer/SOUTH_OUT*%
X130300000Y-117850000D03*
X144850000Y-122250000D03*
%TO.N,/2_anemometer/WEST_OUT*%
X129350000Y-117850000D03*
X144300000Y-123000000D03*
%TO.N,Net-(U5-Y)*%
X144800000Y-125700000D03*
X150000000Y-124750000D03*
%TO.N,Net-(U7A-OUTA)*%
X141450500Y-128450500D03*
%TO.N,/1_mcu/SPI1_SCK*%
X148550000Y-105350000D03*
%TO.N,/1_mcu/SPI1_MOSI*%
X147000000Y-106300000D03*
%TO.N,/1_mcu/SPI1_CS0*%
X146550000Y-107000000D03*
%TO.N,/1_mcu/SPI1_MISO*%
X147750000Y-105900000D03*
%TO.N,/1_mcu/SPI1_CS1*%
X145700000Y-107650000D03*
%TO.N,Net-(U2-PB15)*%
X153000000Y-113800000D03*
X151850000Y-110950000D03*
%TO.N,/1_mcu/SDMMC1_CMD*%
X148550000Y-101900000D03*
%TO.N,/1_mcu/SDMMC1_D2*%
X150800000Y-101750000D03*
%TO.N,/1_mcu/USART2_TX*%
X143550000Y-119050000D03*
%TO.N,Net-(SD1-SH3)*%
X154800000Y-107800000D03*
%TO.N,PWM_IN*%
X147950000Y-124850000D03*
X147500000Y-120950000D03*
%TO.N,/1_mcu/SDMMC1_CK*%
X161150000Y-97650000D03*
X149200000Y-101400000D03*
X160550000Y-98750000D03*
%TO.N,/1_mcu/SDMMC1_D3*%
X150050000Y-101250000D03*
%TO.N,/1_mcu/SDMMC1_D0*%
X157150000Y-101750000D03*
%TO.N,/1_mcu/SDMMC1_D1*%
X156350000Y-102000000D03*
%TD*%
D43*
%TO.N,SCL*%
X157250000Y-108625000D02*
X158900000Y-106975000D01*
X158900000Y-106975000D02*
X158900000Y-103550000D01*
D44*
%TO.N,GND*%
X133050500Y-102499500D02*
X133401000Y-102499500D01*
D43*
X138250000Y-112999500D02*
X138250000Y-113375500D01*
D45*
X159451500Y-89200000D02*
X159850000Y-89601500D01*
D44*
X138501000Y-118151000D02*
X138450000Y-118100000D01*
X131900000Y-106700500D02*
X131999000Y-106700500D01*
D46*
X149360000Y-88001000D02*
X149261000Y-87899500D01*
D44*
X132151500Y-123099000D02*
X132151500Y-123650000D01*
X152601000Y-122875500D02*
X153800000Y-122850000D01*
X169901000Y-101699500D02*
X169901000Y-100150000D01*
X163640000Y-97470000D02*
X162923500Y-96754000D01*
X144544000Y-95451000D02*
X144501000Y-95405000D01*
X163099000Y-106449000D02*
X163200500Y-106550500D01*
D47*
X162900500Y-118600500D02*
X163149500Y-118349000D01*
D44*
X130698500Y-104099500D02*
X130698500Y-102550000D01*
D43*
X133248500Y-125900500D02*
X133599000Y-126251000D01*
D44*
X165095000Y-96015000D02*
X165697000Y-96015000D01*
X152601000Y-122225000D02*
X153800000Y-122230000D01*
D45*
X159850000Y-89601500D02*
X159850000Y-90358000D01*
D44*
X130650500Y-121049000D02*
X130650500Y-121249500D01*
X165199500Y-106550500D02*
X166700500Y-105049500D01*
X135540000Y-113299500D02*
X134874500Y-113299500D01*
X154501000Y-131549500D02*
X153800000Y-131549500D01*
D43*
X142900500Y-101699500D02*
X142900500Y-101300500D01*
D44*
X133401000Y-123701000D02*
X133248500Y-123850500D01*
X167549000Y-109299000D02*
X167201000Y-108951000D01*
X141651000Y-123650000D02*
X141699500Y-123698000D01*
D45*
X153424000Y-105626000D02*
X154374000Y-105626000D01*
D44*
X135049500Y-104099500D02*
X134351000Y-103401000D01*
X164272500Y-112499500D02*
X163599000Y-112499500D01*
D43*
X144625500Y-103325000D02*
X144625500Y-102375000D01*
D44*
X168417500Y-98666500D02*
X168349000Y-98666500D01*
X130701000Y-104099500D02*
X130698500Y-104099500D01*
D46*
X140650500Y-99700500D02*
X140076000Y-99700500D01*
D44*
X130698500Y-103325000D02*
X132225000Y-103325000D01*
D46*
X164483000Y-94551500D02*
X168499000Y-98567500D01*
D48*
X154501000Y-92751000D02*
X154351000Y-92601000D01*
D43*
X142900500Y-101300500D02*
X142550000Y-100950000D01*
D47*
X168849500Y-113551000D02*
X168250000Y-113551000D01*
D44*
X164950500Y-112451000D02*
X164899500Y-112499500D01*
D43*
X141074500Y-110625000D02*
X140701000Y-111001000D01*
D44*
X134600000Y-122199500D02*
X133050500Y-122199500D01*
D48*
X142799000Y-115849500D02*
X142799000Y-115100500D01*
D44*
X164231500Y-95235000D02*
X164231500Y-94551500D01*
D47*
X162900500Y-119901000D02*
X162900500Y-118600500D01*
D44*
X136225500Y-93226000D02*
X136225500Y-93551000D01*
D45*
X154049000Y-101651000D02*
X154049000Y-101498500D01*
D44*
X161000500Y-118963500D02*
X161000500Y-118400000D01*
X133248500Y-120449500D02*
X131249500Y-120449500D01*
X163200500Y-106550500D02*
X165199500Y-106550500D01*
D47*
X163149500Y-118349000D02*
X163149500Y-118001000D01*
D45*
X153899000Y-99250500D02*
X154150500Y-99250500D01*
D43*
X140701000Y-111001000D02*
X140701000Y-111431900D01*
D44*
X161450500Y-117950000D02*
X161600000Y-117950000D01*
X127599500Y-113701000D02*
X127650500Y-113650000D01*
D43*
X140701000Y-111431900D02*
X139582900Y-112550000D01*
X158702000Y-92746000D02*
X157950000Y-93497500D01*
D44*
X133469500Y-98750500D02*
X134651000Y-98750500D01*
X163073500Y-96396000D02*
X164231500Y-95235000D01*
D45*
X154049000Y-101498500D02*
X153050500Y-100500500D01*
D44*
X162425500Y-114297500D02*
X162400500Y-113401000D01*
D45*
X138250000Y-117376000D02*
X138250000Y-118100000D01*
D44*
X145600500Y-128499000D02*
X145550000Y-128549500D01*
X141399500Y-118151000D02*
X138501000Y-118151000D01*
D46*
X140249000Y-103449500D02*
X140200500Y-103500000D01*
D44*
X144544000Y-95451000D02*
X144544000Y-96705500D01*
X148900000Y-91549500D02*
X148199000Y-91549500D01*
D45*
X144800500Y-116299000D02*
X144800500Y-116550500D01*
D44*
X152151500Y-128999000D02*
X152100500Y-129050000D01*
X140650500Y-120249000D02*
X141399500Y-119499500D01*
D45*
X153050500Y-100500500D02*
X153050500Y-100350500D01*
D44*
X169901000Y-100150000D02*
X168417500Y-98666500D01*
X161125000Y-120297000D02*
X161100000Y-119065500D01*
X134651000Y-98750500D02*
X135600500Y-99700500D01*
D49*
X147100000Y-101401500D02*
X147051000Y-101450500D01*
D44*
X154501000Y-131549500D02*
X154501000Y-131051500D01*
D47*
X138600500Y-107650500D02*
X138600500Y-107399000D01*
D44*
X131100000Y-108499000D02*
X131750000Y-108499000D01*
X134300500Y-103401000D02*
X133401000Y-102499500D01*
D43*
X144625500Y-114424500D02*
X144600000Y-112850000D01*
X143949500Y-101699500D02*
X142900500Y-101699500D01*
D46*
X149261000Y-87899500D02*
X147150000Y-87899500D01*
D45*
X138250000Y-118100000D02*
X138450500Y-118100000D01*
D44*
X168100000Y-109299000D02*
X167549000Y-109299000D01*
D46*
X151549500Y-95900500D02*
X151549500Y-94600000D01*
D44*
X166700500Y-105049500D02*
X166700500Y-104399500D01*
X142324000Y-110625000D02*
X143899000Y-110625000D01*
X162400500Y-113401000D02*
X163299500Y-112499500D01*
D46*
X162923500Y-96495000D02*
X162077500Y-95649000D01*
D44*
X129751000Y-106751500D02*
X129799500Y-106799500D01*
D47*
X163350000Y-120350500D02*
X162900500Y-119901000D01*
D44*
X161125000Y-121224500D02*
X161125000Y-120297000D01*
X135600500Y-104099500D02*
X135049500Y-104099500D01*
D43*
X138250000Y-113599000D02*
X137599500Y-113599000D01*
D45*
X153050500Y-100099000D02*
X153899000Y-99250500D01*
D43*
X158702000Y-92746000D02*
X160470000Y-90978000D01*
D44*
X144544000Y-96705500D02*
X144300000Y-96949500D01*
X131750000Y-108499000D02*
X131900000Y-108349000D01*
X133574000Y-120124500D02*
X133248500Y-120449500D01*
X141699500Y-123698000D02*
X141699500Y-124346000D01*
X161100000Y-119065500D02*
X161000500Y-118963500D01*
X154650500Y-117551500D02*
X154650500Y-116101000D01*
D43*
X168250000Y-113551000D02*
X168849500Y-113551000D01*
D44*
X136398500Y-113299500D02*
X135540000Y-113299500D01*
X167201000Y-107950000D02*
X168100000Y-107950000D01*
X129751000Y-106149500D02*
X129751000Y-106751500D01*
X133574000Y-119296500D02*
X133574000Y-120124500D01*
X153800000Y-122850000D02*
X153800000Y-121801000D01*
X127650500Y-113650000D02*
X127650500Y-112850000D01*
D43*
X144625500Y-102375000D02*
X143949500Y-101699500D01*
D47*
X164450000Y-121100000D02*
X164450000Y-120950000D01*
D44*
X162923500Y-96754000D02*
X162923500Y-96495000D01*
X163299500Y-112499500D02*
X163599000Y-112499500D01*
X144501000Y-95405000D02*
X144501000Y-94501000D01*
D45*
X154650500Y-105349500D02*
X154650500Y-102250500D01*
D43*
X152100500Y-129050000D02*
X148499000Y-129050000D01*
D44*
X141651000Y-124826000D02*
X141651000Y-123650000D01*
X153401000Y-121399500D02*
X152850000Y-121399500D01*
D47*
X138600500Y-107399000D02*
X137851000Y-107399000D01*
D45*
X144625500Y-116126500D02*
X144800500Y-116299000D01*
D44*
X139451500Y-90000000D02*
X136225500Y-93226000D01*
D45*
X159850000Y-90358000D02*
X162591000Y-93099000D01*
D46*
X141001000Y-99350000D02*
X140650500Y-99700500D01*
X162077500Y-95649000D02*
X161849000Y-95649000D01*
D44*
X154501000Y-131051500D02*
X153800000Y-130350500D01*
D46*
X164231500Y-94551500D02*
X164483000Y-94551500D01*
D44*
X133050500Y-122199500D02*
X132151500Y-123099000D01*
X141399500Y-119499500D02*
X141399500Y-118151000D01*
X164899500Y-112499500D02*
X164272500Y-112499500D01*
D46*
X148849500Y-91498500D02*
X148849500Y-90899000D01*
D44*
X166700500Y-104399500D02*
X166700500Y-102799000D01*
X167765000Y-98666500D02*
X168349000Y-98666500D01*
X152751000Y-128999000D02*
X152151500Y-128999000D01*
D45*
X151125000Y-114557000D02*
X151125000Y-113050500D01*
D44*
X133574000Y-119296500D02*
X133551000Y-117851000D01*
D49*
X147099500Y-101399500D02*
X147950000Y-100551000D01*
D44*
X132149000Y-98750500D02*
X133469500Y-98750500D01*
X131900000Y-108349000D02*
X131900000Y-106700500D01*
D45*
X153050500Y-100350500D02*
X153050500Y-100099000D01*
X140076000Y-99700500D02*
X138575000Y-99700500D01*
X154374000Y-105626000D02*
X154650500Y-105349500D01*
D44*
X136500000Y-113401000D02*
X136398500Y-113299500D01*
X134351000Y-103401000D02*
X134300500Y-103401000D01*
X147549000Y-92199500D02*
X147099500Y-92199500D01*
X131199000Y-99700500D02*
X132149000Y-98750500D01*
D46*
X151252000Y-96200000D02*
X151549500Y-95900500D01*
D45*
X151125000Y-116075500D02*
X151399500Y-116350000D01*
D46*
X140200500Y-103500000D02*
X139299000Y-103500000D01*
D44*
X131049000Y-108549500D02*
X131100000Y-108499000D01*
X160200500Y-122149000D02*
X161125000Y-121224500D01*
D43*
X138699500Y-112550000D02*
X138250000Y-112999500D01*
D48*
X154351000Y-92601000D02*
X154351000Y-91300500D01*
D49*
X147950000Y-100551000D02*
X147950000Y-99601000D01*
D45*
X164231500Y-94551500D02*
X162778500Y-93099000D01*
D44*
X132900500Y-106500000D02*
X132700000Y-106700500D01*
D43*
X139582900Y-112550000D02*
X138699500Y-112550000D01*
D47*
X164450000Y-120950000D02*
X163850500Y-120350500D01*
D44*
X163640000Y-97470000D02*
X165095000Y-96015000D01*
X167201000Y-108951000D02*
X167201000Y-107950000D01*
X168250000Y-113551000D02*
X167549000Y-113551000D01*
D43*
X157950000Y-93497500D02*
X157950000Y-93800000D01*
D44*
X145550000Y-128549500D02*
X144549000Y-128549500D01*
D45*
X151125000Y-114424500D02*
X151125000Y-116075500D01*
D44*
X148199000Y-91549500D02*
X147549000Y-92199500D01*
D45*
X161950500Y-100051000D02*
X161000500Y-100051000D01*
X158702000Y-89200000D02*
X159451500Y-89200000D01*
X144625500Y-114424500D02*
X144625500Y-116126500D01*
D44*
X132225000Y-103325000D02*
X133050500Y-102499500D01*
X153800000Y-121801000D02*
X153401000Y-121399500D01*
X161000500Y-118400000D02*
X161450500Y-117950000D01*
D47*
X163850500Y-120350500D02*
X163350000Y-120350500D01*
D44*
X133248500Y-123850500D02*
X133248500Y-125250000D01*
D43*
X142324000Y-110625000D02*
X141074500Y-110625000D01*
X133248500Y-125250000D02*
X133248500Y-125900500D01*
D45*
X154650500Y-102250500D02*
X154049000Y-101651000D01*
X162778500Y-93099000D02*
X162591000Y-93099000D01*
D44*
X141402000Y-125075000D02*
X141651000Y-124826000D01*
X132700000Y-106700500D02*
X131999000Y-106700500D01*
X131249500Y-120449500D02*
X130650500Y-121049000D01*
D46*
X148900000Y-91549500D02*
X148849500Y-91498500D01*
X147150000Y-89101000D02*
X147150000Y-87899500D01*
D44*
X133551000Y-117851000D02*
X132900500Y-117201000D01*
X166555500Y-99878000D02*
X167765000Y-98666500D01*
X132900500Y-117201000D02*
X132900500Y-117099500D01*
D43*
X138250000Y-114750000D02*
X138250000Y-113375500D01*
%TO.N,3.3V*%
X159901000Y-102149000D02*
X159901000Y-103551000D01*
D45*
X141750000Y-117051000D02*
X140950000Y-116251000D01*
X152400500Y-116350000D02*
X152400500Y-115550000D01*
X145801500Y-117249000D02*
X145750500Y-117300000D01*
X139250500Y-117376000D02*
X139250500Y-116251000D01*
X169200000Y-112499500D02*
X167452500Y-112499500D01*
D44*
X147099500Y-93200500D02*
X148049500Y-93200500D01*
D45*
X158999000Y-95951500D02*
X158725000Y-95674500D01*
X166550500Y-113551000D02*
X166550500Y-114249500D01*
D44*
X147000500Y-128499000D02*
X146700500Y-128499000D01*
D45*
X153200500Y-101801000D02*
X153200500Y-102451000D01*
D44*
X144750000Y-130150000D02*
X145550000Y-130950000D01*
D45*
X159949000Y-102199500D02*
X159949000Y-102850000D01*
X140950000Y-116251000D02*
X139250500Y-116251000D01*
D44*
X145151000Y-96200000D02*
X145301000Y-96350000D01*
D45*
X145801500Y-116149500D02*
X145801500Y-116550500D01*
X166550500Y-113401000D02*
X166550500Y-113551000D01*
D44*
X161775500Y-121976000D02*
X161600000Y-122149000D01*
X161699000Y-120221000D02*
X161699000Y-118801000D01*
D43*
X143551000Y-102799000D02*
X144049000Y-102799000D01*
D44*
X145550000Y-130950000D02*
X146101000Y-130950000D01*
X145204500Y-95451000D02*
X145204500Y-94501000D01*
X146599000Y-126774000D02*
X147000500Y-127175500D01*
D50*
X148250000Y-94102000D02*
X148250000Y-96200000D01*
D44*
X160117000Y-94160500D02*
X158626000Y-95649000D01*
D45*
X169850000Y-113149500D02*
X169200000Y-112499500D01*
D43*
X144125000Y-102875500D02*
X144125000Y-103325000D01*
D45*
X169850000Y-113551000D02*
X169850000Y-113149500D01*
D44*
X145151000Y-95504000D02*
X145151000Y-96200000D01*
X134224000Y-119296500D02*
X134224000Y-120424000D01*
X145204500Y-95451000D02*
X145151000Y-95504000D01*
D48*
X142799000Y-117450000D02*
X142349500Y-117899500D01*
D44*
X133551000Y-121100000D02*
X133551000Y-121300500D01*
D45*
X153200500Y-104902000D02*
X153424000Y-105125500D01*
D44*
X147000500Y-127175500D02*
X147000500Y-128499000D01*
D45*
X145125500Y-115476000D02*
X145801500Y-116149500D01*
D44*
X146700500Y-128499000D02*
X146700500Y-129200000D01*
D45*
X151625500Y-114775000D02*
X151625500Y-114424500D01*
D44*
X133551000Y-121249500D02*
X132050000Y-121249500D01*
D46*
X149799500Y-93449500D02*
X150399000Y-94051500D01*
D44*
X146700500Y-130548500D02*
X146299000Y-130950000D01*
X148049500Y-93200500D02*
X148300500Y-93449500D01*
D45*
X159901000Y-102149000D02*
X159949000Y-102199500D01*
D43*
X142050000Y-101849000D02*
X142050000Y-102149000D01*
D44*
X145204500Y-94501000D02*
X145349500Y-94501000D01*
D45*
X152400500Y-115550000D02*
X151625500Y-114775000D01*
D44*
X161775500Y-120297000D02*
X161775500Y-121976000D01*
D45*
X158725000Y-95674500D02*
X157373500Y-95674500D01*
D43*
X141900000Y-101699500D02*
X142050000Y-101849000D01*
D44*
X145301000Y-96350000D02*
X145301000Y-96949500D01*
X161775500Y-120297000D02*
X161699000Y-120221000D01*
X148300500Y-93449500D02*
X148900000Y-93449500D01*
D45*
X153050500Y-101651000D02*
X153200500Y-101801000D01*
X145125500Y-114424500D02*
X145125500Y-115476000D01*
D44*
X146700500Y-129200000D02*
X146700500Y-130548500D01*
D43*
X142700000Y-102799000D02*
X143551000Y-102799000D01*
D45*
X167452500Y-112499500D02*
X166550500Y-113401000D01*
X142799000Y-117249000D02*
X142601000Y-117051000D01*
D46*
X148900000Y-93449500D02*
X149799500Y-93449500D01*
D44*
X146299000Y-130950000D02*
X146101000Y-130950000D01*
D43*
X144049000Y-102799000D02*
X144125000Y-102875500D01*
D48*
X142799000Y-117249000D02*
X142799000Y-117450000D01*
D43*
X142050000Y-102149000D02*
X142700000Y-102799000D01*
D50*
X148900000Y-93449500D02*
X148250000Y-94102000D01*
D45*
X142601000Y-117051000D02*
X141750000Y-117051000D01*
D44*
X134224000Y-120424000D02*
X133551000Y-121100000D01*
D45*
X145801500Y-116550500D02*
X145801500Y-117249000D01*
X153200500Y-102451000D02*
X153200500Y-104902000D01*
D44*
X158626000Y-95649000D02*
X158349000Y-95649000D01*
X133551000Y-121300500D02*
X133551000Y-121249500D01*
D43*
%TO.N,ECHO_OUT*%
X135476500Y-126375500D02*
X135049500Y-125951000D01*
X142324000Y-111625500D02*
X143800000Y-111651000D01*
X138450500Y-129799500D02*
X137201000Y-128549500D01*
X135049500Y-124800500D02*
X136901000Y-122949000D01*
X137500500Y-128151000D02*
X137201000Y-128450500D01*
X136901000Y-122949000D02*
X136901000Y-118651000D01*
X137500500Y-126401000D02*
X137500500Y-128151000D01*
X136398500Y-126375500D02*
X137500500Y-126401000D01*
X135049500Y-125951000D02*
X135049500Y-124800500D01*
X137201000Y-128549500D02*
X137201000Y-128450500D01*
X136398500Y-126375500D02*
X135476500Y-126375500D01*
X136901000Y-118651000D02*
X136350000Y-118100000D01*
D45*
%TO.N,Net-(Q1-D)*%
X162000000Y-97600000D02*
X161400000Y-97000000D01*
X162000000Y-98100000D02*
X162000000Y-97600000D01*
X159550500Y-97749500D02*
X158999000Y-97749500D01*
X160300000Y-97000000D02*
X159550500Y-97749500D01*
X154051500Y-100350500D02*
X155100500Y-99299000D01*
X161400000Y-97000000D02*
X160300000Y-97000000D01*
X155100500Y-96624500D02*
X154874500Y-96624500D01*
X158999000Y-97749500D02*
X158199000Y-98549500D01*
X158199000Y-98549500D02*
X155100500Y-98549500D01*
X155100500Y-99299000D02*
X155100500Y-96624500D01*
%TO.N,SDA*%
X150449500Y-110899000D02*
X150449500Y-106749000D01*
X155799000Y-110795000D02*
X155799000Y-108857000D01*
D49*
X147200000Y-98250000D02*
X147150000Y-98300000D01*
D45*
X158151000Y-106515000D02*
X157249000Y-107417000D01*
D49*
X145151000Y-100749500D02*
X145349500Y-100551000D01*
D45*
X158349000Y-102149000D02*
X158151000Y-102347000D01*
D49*
X145349500Y-100551000D02*
X146850500Y-100551000D01*
D45*
X158151000Y-102347000D02*
X158151000Y-106515000D01*
X151176000Y-111625500D02*
X150449500Y-110899000D01*
D49*
X147150000Y-98300000D02*
X147150000Y-100250000D01*
D45*
X155799000Y-108857000D02*
X157262000Y-107394000D01*
X153436500Y-111605500D02*
X154988500Y-111605500D01*
X154988500Y-111605500D02*
X155799000Y-110795000D01*
X153424000Y-111625500D02*
X151176000Y-111625500D01*
X158900000Y-102149000D02*
X158349000Y-102149000D01*
D49*
X146850500Y-100551000D02*
X147150000Y-100249000D01*
%TO.N,Net-(U2-PC14{slash}OSC32_IN)*%
X142324000Y-106124000D02*
X140223500Y-106124000D01*
X137699000Y-103599000D02*
X137699000Y-102349500D01*
X134699000Y-100701000D02*
X134150500Y-100150000D01*
X136050500Y-100701000D02*
X135600500Y-100701000D01*
X137699000Y-102349500D02*
X136050500Y-100701000D01*
X140223500Y-106124000D02*
X137699000Y-103599000D01*
X135600500Y-100701000D02*
X134699000Y-100701000D01*
%TO.N,Net-(U2-PC15{slash}OSC32_OUT)*%
X140226000Y-106624500D02*
X142324000Y-106624500D01*
X136050500Y-101249500D02*
X137300000Y-102499500D01*
X137300000Y-102499500D02*
X137300000Y-103701000D01*
X137300000Y-103701000D02*
X140226000Y-106624500D01*
X132649500Y-100150000D02*
X132751000Y-100249000D01*
X133200500Y-101249500D02*
X136050500Y-101249500D01*
X132751000Y-100800000D02*
X133200500Y-101249500D01*
X132751000Y-100249000D02*
X132751000Y-100800000D01*
X131199000Y-100701000D02*
X132100500Y-100701000D01*
X132100500Y-100701000D02*
X132649500Y-100150000D01*
%TO.N,Net-(U2-PH0{slash}OSCIN)*%
X136901000Y-103850500D02*
X136901000Y-103200500D01*
X142324000Y-107124500D02*
X140150000Y-107099500D01*
X132250500Y-101600000D02*
X131699500Y-102151500D01*
X136200000Y-102499500D02*
X135600500Y-102499500D01*
X136901000Y-103200500D02*
X136200000Y-102499500D01*
X131699500Y-102151500D02*
X131699500Y-102550000D01*
X140150000Y-107099500D02*
X136901000Y-103850500D01*
X134701500Y-101600000D02*
X132250500Y-101600000D01*
X135600500Y-102499500D02*
X134701500Y-101600000D01*
%TO.N,Net-(U2-PH1{slash}OSCOUT)*%
X131699500Y-104099500D02*
X133401000Y-104099500D01*
X133401000Y-104099500D02*
X134450000Y-105151000D01*
X137699000Y-105151000D02*
X140175500Y-107625000D01*
X140175500Y-107625000D02*
X142324000Y-107625000D01*
X134450000Y-105151000D02*
X137699000Y-105151000D01*
D44*
%TO.N,/1_mcu/RST*%
X137851000Y-106401000D02*
X137749500Y-106500000D01*
D49*
X142324000Y-108125500D02*
X140025500Y-108125500D01*
X140025500Y-108125500D02*
X138301000Y-106401000D01*
D44*
X137749500Y-106500000D02*
X136299000Y-106500000D01*
D49*
X138301000Y-106401000D02*
X137851000Y-106401000D01*
D43*
%TO.N,/1_mcu/ADC_CH3*%
X138501500Y-102649000D02*
X138575000Y-102575500D01*
X138575000Y-102575500D02*
X138575000Y-100698500D01*
X140073500Y-100701000D02*
X137099500Y-100701000D01*
D49*
X142324000Y-110124500D02*
X143474500Y-110124500D01*
D43*
X140076000Y-100698500D02*
X140073500Y-100701000D01*
D49*
X143949500Y-109649500D02*
X143949500Y-109101000D01*
X143474500Y-110124500D02*
X143949500Y-109649500D01*
D44*
%TO.N,Net-(D4-A)*%
X169101000Y-107950000D02*
X169799500Y-107249000D01*
X169799500Y-107249000D02*
X169799500Y-106550500D01*
%TO.N,Net-(U6-DOUT2)*%
X157874000Y-114300000D02*
X157874000Y-115425500D01*
X157874000Y-115425500D02*
X157599500Y-115700000D01*
%TO.N,Net-(U4-C1+)*%
X134224000Y-113299500D02*
X134224000Y-112474000D01*
X134224000Y-112474000D02*
X135301000Y-111399500D01*
X135301000Y-111399500D02*
X135301000Y-111348500D01*
%TO.N,Net-(U4-C1\u2212)*%
X133899000Y-111399500D02*
X133899000Y-111348500D01*
X132926000Y-113299500D02*
X132926000Y-112375000D01*
X132926000Y-112375000D02*
X133899000Y-111399500D01*
D49*
%TO.N,/2_anemometer/EAST_IN*%
X152624000Y-124150500D02*
X153949500Y-124150500D01*
X152601000Y-124175500D02*
X152624000Y-124150500D01*
D44*
%TO.N,Net-(U4-V+)*%
X136500000Y-114800500D02*
X136449000Y-114750000D01*
X136449000Y-114750000D02*
X133850500Y-114750000D01*
X133574000Y-114450000D02*
X133574000Y-113299500D01*
X133850500Y-114750000D02*
X133574000Y-114450000D01*
%TO.N,Net-(U4-C2\u2212)*%
X131625500Y-112126000D02*
X131001000Y-111501000D01*
X131001000Y-111501000D02*
X131001000Y-111348500D01*
X131625500Y-113299500D02*
X131625500Y-112126000D01*
D49*
%TO.N,PWR_DRV1*%
X162425500Y-120975500D02*
X162425500Y-120302000D01*
X163299500Y-121249500D02*
X162700000Y-121249500D01*
X157249000Y-117300000D02*
X156449000Y-118100000D01*
X149624000Y-118750500D02*
X149799500Y-118750500D01*
X162425500Y-120302000D02*
X162425500Y-117876500D01*
X161849000Y-117300000D02*
X157249000Y-117300000D01*
X149624000Y-114424500D02*
X149624000Y-118750500D01*
X162425500Y-117876500D02*
X161849000Y-117300000D01*
X162700000Y-121249500D02*
X162425500Y-120975500D01*
X163449500Y-121100000D02*
X163299500Y-121249500D01*
D44*
%TO.N,Net-(U4-C2+)*%
X132276000Y-113299500D02*
X132276000Y-111475500D01*
X132276000Y-111475500D02*
X132400500Y-111348500D01*
D49*
%TO.N,PWR_DRV0*%
X146124000Y-115324000D02*
X147399000Y-116599000D01*
X146360000Y-118448000D02*
X146149500Y-118450500D01*
X147399000Y-117391500D02*
X146360000Y-118448000D01*
X146124000Y-114424500D02*
X146124000Y-115324000D01*
X134874500Y-120924500D02*
X134874500Y-119301500D01*
X135649000Y-120449500D02*
X134874500Y-120467500D01*
X134600000Y-121199000D02*
X134874500Y-120924500D01*
X147399000Y-116599000D02*
X147399000Y-117391500D01*
D44*
%TO.N,Net-(U4-V\u2212)*%
X127599500Y-115100500D02*
X130099000Y-115100500D01*
X130099000Y-115100500D02*
X130975500Y-114224000D01*
X130975500Y-114224000D02*
X130975500Y-113299500D01*
D46*
%TO.N,Net-(D8-A)*%
X146149500Y-87899500D02*
X146101000Y-87950500D01*
X146101000Y-87950500D02*
X145451000Y-87950500D01*
D44*
%TO.N,Net-(U4-DOUT1)*%
X130749500Y-115999500D02*
X128999500Y-115999500D01*
X132926000Y-119301500D02*
X132926000Y-118176500D01*
X134049000Y-93800000D02*
X132200000Y-95450000D01*
X128151000Y-107500500D02*
X129299000Y-108648500D01*
X129150000Y-100550000D02*
X128242000Y-102729500D01*
X128150000Y-102950000D02*
X128150000Y-104450000D01*
X129299000Y-108648500D02*
X129299000Y-111351500D01*
X128651500Y-111999000D02*
X128450500Y-111999000D01*
X132200000Y-95450000D02*
X130850000Y-97300000D01*
X129299000Y-111351500D02*
X128651500Y-111999000D01*
X129950000Y-98900000D02*
X129150000Y-100550000D01*
X130850000Y-97300000D02*
X129950000Y-98900000D01*
X128151000Y-104450000D02*
X128151000Y-107500500D01*
X128242000Y-102729500D02*
X128150000Y-102950000D01*
X132926000Y-118176500D02*
X130749500Y-115999500D01*
D49*
%TO.N,/2_anemometer/SOUTH_IN*%
X152601000Y-126124000D02*
X151074500Y-126124000D01*
X149349500Y-123699500D02*
X148450000Y-122800000D01*
X150399000Y-125451000D02*
X149799500Y-125451000D01*
X149349500Y-125001500D02*
X149349500Y-123699500D01*
X151074500Y-126124000D02*
X150399000Y-125451000D01*
X149799500Y-125451000D02*
X149350000Y-125001000D01*
D44*
%TO.N,Net-(D12-A)*%
X129550500Y-104950500D02*
X129550500Y-104501000D01*
X129751000Y-105151000D02*
X129550500Y-104950500D01*
%TO.N,Net-(U4-DOUT2)*%
X130325000Y-113299500D02*
X130325000Y-112375000D01*
X130099000Y-108250000D02*
X129550500Y-107701500D01*
X130099000Y-112149000D02*
X130099000Y-108250000D01*
X130325000Y-112375000D02*
X130099000Y-112149000D01*
D43*
%TO.N,Net-(U6-C1\u2212)*%
X160475000Y-114300000D02*
X160500500Y-112400500D01*
%TO.N,Net-(U6-C1+)*%
X161775500Y-114300000D02*
X161775500Y-112400500D01*
X161775500Y-112400500D02*
X161900000Y-112400500D01*
D45*
%TO.N,SCL*%
X153424000Y-112126000D02*
X155174000Y-112126000D01*
X150975500Y-112126000D02*
X149649500Y-110800000D01*
X155174000Y-112126000D02*
X156350000Y-110950000D01*
X156350000Y-110950000D02*
X156350000Y-109350000D01*
X156350000Y-109350000D02*
X157074000Y-108626000D01*
X153424000Y-112126000D02*
X150975500Y-112126000D01*
X157074000Y-108626000D02*
X157249000Y-108626000D01*
X149649500Y-110800000D02*
X149649500Y-107599500D01*
D43*
%TO.N,Net-(U7B-INB-)*%
X136398500Y-125725000D02*
X137775000Y-125725000D01*
X139449000Y-129799500D02*
X139101000Y-129449000D01*
X138199000Y-126149500D02*
X138199000Y-128450500D01*
X137775000Y-125725000D02*
X138199000Y-126149500D01*
X139101000Y-128450500D02*
X138199000Y-128450500D01*
X139101000Y-129449000D02*
X139101000Y-128450500D01*
D49*
%TO.N,/2_anemometer/WEST_IN*%
X151526500Y-124826000D02*
X149400500Y-122700000D01*
X152601000Y-124826000D02*
X151526500Y-124826000D01*
D43*
%TO.N,Net-(U6-V+)*%
X163599000Y-113899000D02*
X163599000Y-114600000D01*
X161125000Y-115425500D02*
X161125000Y-114300000D01*
X161249500Y-115550000D02*
X161125000Y-115425500D01*
X163599000Y-114600000D02*
X162649000Y-115550000D01*
X162649000Y-115550000D02*
X161249500Y-115550000D01*
%TO.N,Net-(U6-C2\u2212)*%
X159149000Y-113449500D02*
X158951000Y-113251000D01*
X158951000Y-113251000D02*
X158151000Y-113251000D01*
X159177000Y-114300000D02*
X159149000Y-114272500D01*
X159149000Y-114272500D02*
X159149000Y-113449500D01*
X158151000Y-113251000D02*
X157351000Y-112451000D01*
%TO.N,Net-(U6-C2+)*%
X159824500Y-114300000D02*
X159824500Y-113474500D01*
X159824500Y-113474500D02*
X158801000Y-112451000D01*
X158801000Y-112451000D02*
X158750500Y-112451000D01*
D44*
%TO.N,Net-(U6-V\u2212)*%
X162900500Y-116050500D02*
X164950500Y-114000500D01*
X158524000Y-114300000D02*
X158524000Y-115275500D01*
X159299000Y-116050500D02*
X162900500Y-116050500D01*
X158524000Y-115275500D02*
X159299000Y-116050500D01*
X164950500Y-114000500D02*
X164950500Y-113850500D01*
%TO.N,Net-(D16-A)*%
X152050000Y-130350500D02*
X152799000Y-130350500D01*
X151999000Y-130299500D02*
X152050000Y-130350500D01*
%TO.N,V_OPA*%
X135126000Y-127025500D02*
X136398500Y-127025500D01*
X134450000Y-125451000D02*
X134450000Y-126350000D01*
X134800500Y-123701000D02*
X134249500Y-124249500D01*
X142250500Y-131100000D02*
X141999000Y-130851000D01*
X134249500Y-124249500D02*
X134249500Y-125250000D01*
X134249500Y-125250000D02*
X134450000Y-125451000D01*
X134450000Y-126350000D02*
X135126000Y-127025500D01*
X141999000Y-130851000D02*
X140749500Y-130851000D01*
%TO.N,Net-(U6-DOUT1)*%
X160475000Y-119024500D02*
X160249000Y-118801000D01*
X160475000Y-120302000D02*
X160475000Y-119024500D01*
X160249000Y-118801000D02*
X157300000Y-118801000D01*
D49*
%TO.N,/2_anemometer/NORTH_IN*%
X152601000Y-126774000D02*
X150825500Y-126774000D01*
X150825500Y-126774000D02*
X150249000Y-126200000D01*
D48*
%TO.N,+5V*%
X164600000Y-100401500D02*
X165999500Y-101801000D01*
D43*
X155750500Y-91651000D02*
X156050500Y-91651000D01*
D49*
X141699500Y-98750500D02*
X137800500Y-98750500D01*
D46*
X171300500Y-102100500D02*
X170452000Y-102949000D01*
D49*
X142349500Y-95951500D02*
X142349500Y-98100000D01*
D46*
X171300500Y-101699500D02*
X171300500Y-102100500D01*
D48*
X167749500Y-101801000D02*
X168499000Y-102547500D01*
D49*
X141900000Y-95499000D02*
X142349500Y-95951500D01*
D43*
X157074000Y-92250500D02*
X157640500Y-91684000D01*
D46*
X153101500Y-91001000D02*
X153500000Y-91001000D01*
D49*
X137800500Y-98750500D02*
X137099500Y-99449000D01*
X139974500Y-93551000D02*
X140500500Y-93551000D01*
D50*
X153101500Y-92751000D02*
X152850000Y-92499500D01*
D48*
X164600000Y-100139500D02*
X164600000Y-100401500D01*
D46*
X153101500Y-92751000D02*
X153101500Y-91001000D01*
D49*
X140500500Y-93551000D02*
X141900000Y-94950500D01*
D46*
X169901000Y-102949000D02*
X168951000Y-103899000D01*
D49*
X142349500Y-98100000D02*
X141699500Y-98750500D01*
D43*
X153850500Y-90650500D02*
X154750000Y-90650500D01*
X156649500Y-92250500D02*
X157074000Y-92250500D01*
D46*
X168951000Y-103899000D02*
X168499000Y-103899000D01*
D43*
X153500000Y-91001000D02*
X153850500Y-90650500D01*
D48*
X165329000Y-99410500D02*
X164600000Y-100139500D01*
D49*
X141900000Y-94950500D02*
X141900000Y-95499000D01*
D43*
X156050500Y-91651000D02*
X156649500Y-92250500D01*
D49*
X137099500Y-99449000D02*
X137099500Y-99700500D01*
D46*
X170452000Y-102949000D02*
X169901000Y-102949000D01*
D50*
X152850000Y-92499500D02*
X151399500Y-92499500D01*
D43*
X154750000Y-90650500D02*
X155750500Y-91651000D01*
D48*
X168499000Y-102547500D02*
X168499000Y-103899000D01*
X165999500Y-101801000D02*
X167749500Y-101801000D01*
D44*
%TO.N,Net-(U1-CANH)*%
X141950500Y-90950000D02*
X144201000Y-90950000D01*
X144201000Y-90950000D02*
X144351000Y-90800000D01*
X141950500Y-90950000D02*
X141323500Y-90950000D01*
X144544000Y-93050500D02*
X144544000Y-90993000D01*
X141323500Y-90950000D02*
X138725000Y-93551000D01*
X144544000Y-90993000D02*
X144351000Y-90800000D01*
%TO.N,Net-(U1-CANL)*%
X145499000Y-92149000D02*
X145999500Y-92149000D01*
X145204500Y-92446000D02*
X145499000Y-92149000D01*
X141950500Y-89050000D02*
X139149000Y-91849000D01*
X139149000Y-91849000D02*
X138849500Y-91849000D01*
X144800500Y-89200000D02*
X144351000Y-89200000D01*
X144351000Y-89050000D02*
X144351000Y-89200000D01*
X145204500Y-93050500D02*
X145204500Y-92446000D01*
X141950500Y-89050000D02*
X144351000Y-89050000D01*
X137516000Y-93185000D02*
X137516000Y-93551000D01*
X145999500Y-90399000D02*
X144800500Y-89200000D01*
X138849500Y-91849000D02*
X137516000Y-93185000D01*
X145999500Y-92149000D02*
X145999500Y-90399000D01*
D49*
%TO.N,Net-(USB1-Data+)*%
X159901000Y-99250500D02*
X160099000Y-99449000D01*
D45*
X159149000Y-99101000D02*
X157549000Y-99101000D01*
D49*
X160099000Y-99449000D02*
X160899000Y-99449000D01*
X160899000Y-99449000D02*
X161249500Y-99101000D01*
X159299000Y-99250500D02*
X159901000Y-99250500D01*
D45*
X164409500Y-98491500D02*
X163800000Y-99101000D01*
D49*
X161249500Y-99101000D02*
X161950500Y-99101000D01*
D45*
X157549000Y-99101000D02*
X157549000Y-99299000D01*
D49*
X159149000Y-99101000D02*
X159299000Y-99250500D01*
D45*
X163800000Y-99101000D02*
X161950500Y-99101000D01*
D49*
%TO.N,Net-(USB1-Data-)*%
X161150500Y-101001000D02*
X161950500Y-101001000D01*
D45*
X159149000Y-100851000D02*
X157800500Y-100851000D01*
X162819500Y-101001000D02*
X161950500Y-101001000D01*
X164869000Y-98951000D02*
X162819500Y-101001000D01*
X157549000Y-100599500D02*
X157549000Y-100500500D01*
D49*
X159200000Y-100950000D02*
X159799500Y-100950000D01*
X160051000Y-100701000D02*
X160851000Y-100701000D01*
X159799500Y-100950000D02*
X160051000Y-100701000D01*
D45*
X159149000Y-101001000D02*
X159149000Y-100851000D01*
X157800500Y-100851000D02*
X157549000Y-100599500D01*
D49*
X160851000Y-100701000D02*
X161150500Y-101001000D01*
X159149000Y-101001000D02*
X159200000Y-100950000D01*
D46*
%TO.N,Net-(D3-+)*%
X165801500Y-107599500D02*
X162954000Y-107599500D01*
X170198000Y-105600500D02*
X167800500Y-105600500D01*
X171900000Y-103899000D02*
X170198000Y-105600500D01*
X162080000Y-108473500D02*
X162080000Y-109200000D01*
X167800500Y-105600500D02*
X165801500Y-107599500D01*
X162954000Y-107599500D02*
X162080000Y-108473500D01*
D44*
%TO.N,Net-(D4-K)*%
X170000000Y-109299000D02*
X171341000Y-110640000D01*
X171341000Y-110640000D02*
X171999000Y-110640000D01*
X169101000Y-109299000D02*
X170000000Y-109299000D01*
D46*
%TO.N,Net-(D8-K)*%
X146149500Y-89101000D02*
X145999500Y-88951000D01*
X145999500Y-88951000D02*
X145649000Y-88951000D01*
D44*
%TO.N,Net-(D12-K)*%
X131049000Y-107549000D02*
X131199000Y-107399000D01*
X131199000Y-107399000D02*
X131199000Y-107000500D01*
%TO.N,Net-(D16-K)*%
X152799000Y-131549500D02*
X152550000Y-131300500D01*
X152550000Y-131300500D02*
X152100500Y-131300500D01*
D49*
%TO.N,/1_mcu/USART3_TX*%
X147625000Y-107574500D02*
X147625000Y-114424500D01*
X158400000Y-91633500D02*
X158400000Y-91100000D01*
X155900500Y-93449500D02*
X155550000Y-93800000D01*
X157048500Y-90752000D02*
X156599000Y-91199000D01*
X153200500Y-94750000D02*
X152949000Y-94750000D01*
X150150000Y-105049500D02*
X147625000Y-107574500D01*
X157993500Y-92037000D02*
X156583500Y-93449500D01*
X157993500Y-92037000D02*
X158400000Y-91633500D01*
X155550000Y-93800000D02*
X154150500Y-93800000D01*
X156583500Y-93449500D02*
X155900500Y-93449500D01*
X158046500Y-90747000D02*
X157048500Y-90752000D01*
X151199000Y-105049500D02*
X150150000Y-105049500D01*
X154150500Y-93800000D02*
X153200500Y-94750000D01*
X158400000Y-91100000D02*
X158046500Y-90747000D01*
%TO.N,/1_mcu/SWCLK*%
X151900000Y-102349500D02*
X151625500Y-102624000D01*
X155999500Y-94800500D02*
X155900500Y-94800500D01*
X153548500Y-95854500D02*
X153548500Y-98301000D01*
X158359000Y-94501000D02*
X156299000Y-94501000D01*
X156299000Y-94501000D02*
X155999500Y-94800500D01*
X154602500Y-94800500D02*
X153548500Y-95854500D01*
X159408000Y-93452000D02*
X158359000Y-94501000D01*
X151625500Y-102624000D02*
X151625500Y-103325000D01*
X153548500Y-98301000D02*
X151900000Y-99949000D01*
X151900000Y-99949000D02*
X151900000Y-102349500D01*
X155900500Y-94800500D02*
X154602500Y-94800500D01*
%TO.N,/1_mcu/USART3_RX*%
X156840000Y-93899000D02*
X158349000Y-92392500D01*
X148125500Y-107826000D02*
X148125500Y-114424500D01*
X158349000Y-92392500D02*
X158951000Y-91788000D01*
X156101000Y-93899000D02*
X156840000Y-93899000D01*
X158951000Y-91788000D02*
X158951000Y-91051500D01*
X154549000Y-94201000D02*
X155799000Y-94201000D01*
X153149500Y-95600500D02*
X154549000Y-94201000D01*
X158951000Y-91051500D02*
X158049500Y-90150000D01*
X152799000Y-95600500D02*
X153149500Y-95600500D01*
X150051000Y-105900500D02*
X148125500Y-107826000D01*
X155799000Y-94201000D02*
X156101000Y-93899000D01*
X150749500Y-105900500D02*
X150051000Y-105900500D01*
X158049500Y-90150000D02*
X156149500Y-90150000D01*
X156149500Y-90150000D02*
X156149500Y-90350500D01*
%TO.N,/1_mcu/SWDIO*%
X156251000Y-95400000D02*
X154600000Y-95400000D01*
X151999000Y-105649000D02*
X152474000Y-106124000D01*
X151999000Y-104849000D02*
X151999000Y-105649000D01*
X152349500Y-104498500D02*
X151999000Y-104849000D01*
X153899000Y-98450500D02*
X152349500Y-100000000D01*
X152349500Y-100000000D02*
X152349500Y-104498500D01*
X153899000Y-96101000D02*
X153899000Y-98450500D01*
X158618000Y-94950500D02*
X156700500Y-94950500D01*
X154600000Y-95400000D02*
X153899000Y-96101000D01*
X159761000Y-93805000D02*
X158618000Y-94950500D01*
X152474000Y-106124000D02*
X153424000Y-106124000D01*
X156700500Y-94950500D02*
X156251000Y-95400000D01*
D45*
%TO.N,Net-(LED1-A)*%
X164948000Y-104450000D02*
X164998500Y-104399500D01*
X163251000Y-104450000D02*
X164948000Y-104450000D01*
%TO.N,Net-(LED2-A)*%
X164948000Y-102751000D02*
X164998500Y-102799000D01*
X163251000Y-102751000D02*
X164948000Y-102751000D01*
D49*
%TO.N,Net-(Q1-G)*%
X158374500Y-97574500D02*
X157373500Y-97574500D01*
X151501000Y-99499000D02*
X152950000Y-98050000D01*
X157300000Y-97650500D02*
X155799000Y-97650500D01*
X151125000Y-103325000D02*
X151125000Y-102375000D01*
X158999000Y-96949500D02*
X158374500Y-97574500D01*
X151501000Y-101999000D02*
X151501000Y-100150000D01*
X157373500Y-97574500D02*
X157300000Y-97650500D01*
X151125000Y-102375000D02*
X151501000Y-101999000D01*
X151501000Y-100150000D02*
X151501000Y-99499000D01*
%TO.N,Net-(Q2-G)*%
X146101000Y-131950500D02*
X146550500Y-131950500D01*
X154650500Y-122301000D02*
X154899500Y-122050000D01*
X146550500Y-131950500D02*
X147450000Y-131049000D01*
X151950500Y-132100500D02*
X151950500Y-132250500D01*
D43*
X144849000Y-131950500D02*
X146101000Y-131950500D01*
D49*
X147450000Y-131049000D02*
X150899000Y-131049000D01*
D43*
X144750000Y-132049500D02*
X144849000Y-131950500D01*
D49*
X154899500Y-122050000D02*
X154899500Y-121699000D01*
X150899000Y-131049000D02*
X151950500Y-132100500D01*
%TO.N,Net-(U2-BOOT0)*%
X146124000Y-103325000D02*
X146124000Y-101399500D01*
X146124000Y-101399500D02*
X146101000Y-101399500D01*
D45*
%TO.N,/1_mcu/USB_DM*%
X155024000Y-107124500D02*
X153424000Y-107124500D01*
X156550500Y-100500500D02*
X155649000Y-101402000D01*
X155649000Y-106500000D02*
X155024000Y-107124500D01*
X155649000Y-101402000D02*
X155649000Y-106500000D01*
%TO.N,/1_mcu/USB_DP*%
X154676000Y-106624500D02*
X153424000Y-106624500D01*
X156550500Y-99299000D02*
X155151000Y-100698500D01*
X155151000Y-106149500D02*
X154676000Y-106624500D01*
X155151000Y-100698500D02*
X155151000Y-106149500D01*
D49*
%TO.N,Net-(U2-PC6)*%
X154526500Y-110625000D02*
X154800500Y-110899000D01*
X153424000Y-110625000D02*
X154526500Y-110625000D01*
X161651000Y-107198500D02*
X161651000Y-104450000D01*
X160749500Y-108100000D02*
X161651000Y-107198500D01*
%TO.N,Net-(U2-PC7)*%
X160551000Y-107201000D02*
X160551000Y-103599000D01*
X153497500Y-110051000D02*
X155049500Y-110051000D01*
X160551000Y-103599000D02*
X161399500Y-102751000D01*
X159901000Y-107848500D02*
X160551000Y-107201000D01*
X161399500Y-102751000D02*
X161651000Y-102751000D01*
X153424000Y-110124500D02*
X153497500Y-110051000D01*
X159901000Y-108199000D02*
X159901000Y-107848500D01*
%TO.N,/2_anemometer/SOUTH_OUT*%
X148600500Y-124551500D02*
X148224500Y-124175500D01*
X148224500Y-124175500D02*
X146599000Y-124175500D01*
X145250000Y-122649000D02*
X144851500Y-122250500D01*
X150899000Y-128049000D02*
X150749500Y-128049000D01*
X146599000Y-124175500D02*
X145575500Y-124175500D01*
X150749500Y-128049000D02*
X148600500Y-125900500D01*
X145575500Y-124175500D02*
X145250000Y-123850500D01*
X148600500Y-125900500D02*
X148600500Y-124551500D01*
X145250000Y-123850500D02*
X145250000Y-122649000D01*
D43*
X130300000Y-117851000D02*
X130325000Y-119301500D01*
D44*
%TO.N,VGND*%
X142850000Y-122751000D02*
X144201000Y-124099500D01*
X139350000Y-123650000D02*
X140650500Y-123650000D01*
D43*
X139350000Y-123650000D02*
X139350000Y-122499500D01*
D44*
X141001000Y-122751000D02*
X142850000Y-122751000D01*
D47*
X140650500Y-118951000D02*
X140650500Y-118999000D01*
D44*
X144201000Y-124099500D02*
X144201000Y-124399500D01*
D47*
X139649500Y-120000000D02*
X139649500Y-120249000D01*
D44*
X140650500Y-123099000D02*
X141001000Y-122751000D01*
X140650500Y-123650000D02*
X140650500Y-123099000D01*
D43*
X139649500Y-120249000D02*
X139350000Y-120551000D01*
D47*
X140650500Y-118999000D02*
X139649500Y-120000000D01*
D43*
X139350000Y-120551000D02*
X139350000Y-122499500D01*
%TO.N,VBAT*%
X140835500Y-105125500D02*
X140559000Y-104849000D01*
X142324000Y-105125500D02*
X140835500Y-105125500D01*
X140559000Y-104849000D02*
X140249000Y-104849000D01*
D47*
%TO.N,VREF+*%
X139250500Y-118801000D02*
X139400500Y-118951000D01*
X137650500Y-118250000D02*
X138201500Y-118801000D01*
D45*
X139250500Y-113375500D02*
X139250500Y-114750000D01*
D43*
X141102500Y-111247000D02*
X141102500Y-111597500D01*
D47*
X138250000Y-116251000D02*
X137650500Y-116850500D01*
X137650500Y-116850500D02*
X137650500Y-118250000D01*
D43*
X141102500Y-111597500D02*
X139324500Y-113375500D01*
D45*
X139250500Y-114998500D02*
X138250000Y-115999500D01*
X138250000Y-115999500D02*
X138250000Y-116251000D01*
D47*
X139400500Y-118951000D02*
X139649500Y-118951000D01*
D43*
X141224500Y-111125000D02*
X141102500Y-111247000D01*
X139324500Y-113375500D02*
X139250500Y-113375500D01*
D47*
X138201500Y-118801000D02*
X139250500Y-118801000D01*
D45*
X139250500Y-114750000D02*
X139250500Y-114998500D01*
D43*
X142324000Y-111125000D02*
X141224500Y-111125000D01*
D49*
%TO.N,/2_anemometer/WEST_OUT*%
X144849000Y-124899500D02*
X144849000Y-123548500D01*
X148849500Y-126700500D02*
X147625000Y-125476000D01*
X147625000Y-125476000D02*
X146599000Y-125476000D01*
X148849500Y-127198500D02*
X148849500Y-126700500D01*
X146599000Y-125476000D02*
X145425500Y-125476000D01*
D43*
X129675000Y-119301500D02*
X129675000Y-118176500D01*
X129675000Y-118176500D02*
X129350000Y-117851000D01*
D49*
X149700500Y-128049000D02*
X148849500Y-127198500D01*
X144849000Y-123548500D02*
X144300000Y-122999500D01*
X145425500Y-125476000D02*
X144849000Y-124899500D01*
%TO.N,/2_anemometer/NORTH_OUT*%
X147749500Y-128699500D02*
X148400000Y-128049000D01*
X153449500Y-129601000D02*
X152288500Y-129601000D01*
X157300000Y-121750000D02*
X156449000Y-121750000D01*
X154249500Y-128801000D02*
X153449500Y-129601000D01*
X155900500Y-122301000D02*
X155900500Y-123701000D01*
X148049500Y-126700500D02*
X147472500Y-126124000D01*
X148499000Y-128049000D02*
X148450500Y-128001000D01*
X148450500Y-128001000D02*
X148450500Y-127099500D01*
X147472500Y-126124000D02*
X146599000Y-126124000D01*
X156449000Y-121750000D02*
X155900500Y-122301000D01*
X154249500Y-125349000D02*
X154249500Y-128801000D01*
X152288500Y-129601000D02*
X152133500Y-129700000D01*
X152133500Y-129700000D02*
X148001000Y-129700000D01*
X148400000Y-128049000D02*
X148499000Y-128049000D01*
X155900500Y-123701000D02*
X154249500Y-125349000D01*
X147749500Y-129449000D02*
X147749500Y-128699500D01*
X157874000Y-120302000D02*
X157874000Y-121176000D01*
X148001000Y-129700000D02*
X147749500Y-129449000D01*
X157874000Y-121176000D02*
X157300000Y-121750000D01*
X148450500Y-127099500D02*
X148049500Y-126700500D01*
%TO.N,/2_anemometer/EAST_OUT*%
X148125500Y-123525500D02*
X146599000Y-123525500D01*
X157226500Y-120302000D02*
X157226500Y-121023500D01*
X152100500Y-127899500D02*
X151651000Y-127450000D01*
X152100500Y-128049000D02*
X152100500Y-127899500D01*
X148951000Y-125750500D02*
X148951000Y-124351000D01*
X155550000Y-123551000D02*
X153899000Y-125202000D01*
X153899000Y-127450000D02*
X153299500Y-128049000D01*
X151651000Y-127450000D02*
X150650000Y-127450000D01*
X150650000Y-127450000D02*
X148951000Y-125750500D01*
X155550000Y-122050000D02*
X156200000Y-121399500D01*
X157226500Y-121224500D02*
X157226500Y-120302000D01*
X153899000Y-125202000D02*
X153899000Y-127450000D01*
X148951000Y-124351000D02*
X148125500Y-123525500D01*
X156200000Y-121399500D02*
X157099500Y-121399500D01*
X155550000Y-122700000D02*
X155550000Y-123551000D01*
X155550000Y-122700000D02*
X155550000Y-122050000D01*
X157099500Y-121399500D02*
X157226500Y-121224500D01*
X153299500Y-128049000D02*
X152100500Y-128049000D01*
%TO.N,Net-(U5-Y)*%
X150599500Y-124750000D02*
X150000000Y-124750000D01*
X152601000Y-125476000D02*
X151326000Y-125476000D01*
X144699000Y-125600500D02*
X144201000Y-125600500D01*
X144800500Y-125699500D02*
X144699000Y-125600500D01*
X151326000Y-125476000D02*
X150599500Y-124750000D01*
D43*
%TO.N,Net-(U7A-INA-)*%
X143200500Y-125600500D02*
X142425500Y-126375500D01*
X144201000Y-126799500D02*
X144201000Y-126700500D01*
X142425500Y-126375500D02*
X141402000Y-126375500D01*
X144201000Y-126700500D02*
X143200500Y-125699500D01*
X143200500Y-125699500D02*
X143200500Y-125600500D01*
%TO.N,Net-(U7A-OUTA)*%
X142250500Y-127650500D02*
X141450500Y-128450500D01*
X142974500Y-127025500D02*
X141402000Y-127025500D01*
X142250500Y-127025500D02*
X142250500Y-127650500D01*
X141450500Y-128450500D02*
X140099000Y-128450500D01*
X143200500Y-126799500D02*
X142974500Y-127025500D01*
%TO.N,Net-(U7A-INA+)*%
X142499500Y-125400000D02*
X142174500Y-125725000D01*
X142174500Y-125725000D02*
X141402000Y-125725000D01*
X142499500Y-125100500D02*
X142499500Y-125400000D01*
X143200500Y-124399500D02*
X142499500Y-125100500D01*
%TO.N,Net-(U7B-INB+)*%
X136398500Y-125075000D02*
X136474500Y-124998500D01*
X138349000Y-124399500D02*
X138349000Y-122499500D01*
X136474500Y-124998500D02*
X137749500Y-124998500D01*
X137749500Y-124998500D02*
X138349000Y-124399500D01*
%TO.N,/1_mcu/SPI1_SCK*%
X148626000Y-103325000D02*
X148626000Y-105275500D01*
X148626000Y-105275500D02*
X148549500Y-105349500D01*
%TO.N,/1_mcu/SPI1_MOSI*%
X146649500Y-105499000D02*
X146649500Y-106299000D01*
X147625000Y-104524000D02*
X146649500Y-105499000D01*
X146649500Y-106299000D02*
X147000500Y-106299000D01*
X147625000Y-103325000D02*
X147625000Y-104524000D01*
%TO.N,/1_mcu/SPI1_CS0*%
X147124500Y-103325000D02*
X147124500Y-104325500D01*
X146101000Y-105349500D02*
X146101000Y-106649500D01*
X147124500Y-104325500D02*
X146101000Y-105349500D01*
X146101000Y-106649500D02*
X146449000Y-107000500D01*
X146449000Y-107000500D02*
X146550500Y-107000500D01*
%TO.N,/1_mcu/SPI1_MISO*%
X148125500Y-103325000D02*
X148125500Y-104775000D01*
X148125500Y-104775000D02*
X147749500Y-105151000D01*
X147749500Y-105151000D02*
X147749500Y-105900500D01*
%TO.N,/1_mcu/SPI1_CS1*%
X146624500Y-103325000D02*
X146624500Y-104224000D01*
X145700000Y-105649000D02*
X145700000Y-107650000D01*
X146624500Y-104224000D02*
X145700000Y-105151000D01*
X145700000Y-105151000D02*
X145700000Y-105649000D01*
D49*
%TO.N,Net-(U2-PB15)*%
X152024500Y-111125000D02*
X151849000Y-110950000D01*
X153424000Y-111125000D02*
X152024500Y-111125000D01*
X154300000Y-113800000D02*
X152999500Y-113800000D01*
X154650500Y-114150500D02*
X154300000Y-113800000D01*
%TO.N,/1_mcu/CAN_RX*%
X144049000Y-98349000D02*
X144600000Y-97800500D01*
X145854500Y-97495500D02*
X145854500Y-95451000D01*
X145550000Y-97800500D02*
X145854500Y-97495500D01*
X145626000Y-102174500D02*
X144049000Y-100599500D01*
X144049000Y-100599500D02*
X144049000Y-98349000D01*
X145626000Y-103325000D02*
X145626000Y-102174500D01*
X144600000Y-97800500D02*
X145550000Y-97800500D01*
%TO.N,Net-(U1-S)*%
X143500000Y-104750000D02*
X143500000Y-105400000D01*
X143500000Y-105400000D02*
X143274000Y-105626000D01*
X143101500Y-93899000D02*
X142700000Y-94300500D01*
X143274000Y-105626000D02*
X142324000Y-105626000D01*
X142700000Y-94300500D02*
X142700000Y-98600500D01*
X145854500Y-93594000D02*
X145550000Y-93899000D01*
X145550000Y-93899000D02*
X143101500Y-93899000D01*
X145854500Y-93050500D02*
X145854500Y-93594000D01*
X141100000Y-100200500D02*
X141100000Y-102349500D01*
X143894000Y-93050500D02*
X143899000Y-93899000D01*
X142700000Y-98600500D02*
X141100000Y-100200500D01*
X141100000Y-102349500D02*
X143500000Y-104750000D01*
%TO.N,/1_mcu/CAN_TX*%
X143599000Y-100698500D02*
X143599000Y-98001000D01*
X143599000Y-96500000D02*
X143599000Y-98001000D01*
X143894000Y-96205500D02*
X143599000Y-96500000D01*
X145125500Y-103325000D02*
X145125500Y-102225000D01*
X143894000Y-95451000D02*
X143894000Y-96205500D01*
X145125500Y-102225000D02*
X143599000Y-100698500D01*
%TO.N,/1_mcu/USART1_TX*%
X150625000Y-117691000D02*
X152784000Y-119850000D01*
X150625000Y-114424500D02*
X150625000Y-117691000D01*
%TO.N,/1_mcu/SDMMC1_CMD*%
X148801000Y-101900000D02*
X148549500Y-101900000D01*
X149123500Y-103325000D02*
X149101000Y-102199500D01*
X149101000Y-102199500D02*
X148801000Y-101900000D01*
%TO.N,/1_mcu/SDMMC1_D2*%
X150625000Y-101750000D02*
X150800000Y-101750000D01*
X150625000Y-103325000D02*
X150625000Y-101750000D01*
D43*
%TO.N,/1_mcu/USART2_TX*%
X143599000Y-119050000D02*
X143551000Y-119050000D01*
X142324000Y-112624000D02*
X142674500Y-112624000D01*
X142674500Y-112624000D02*
X143599000Y-113551000D01*
X143599000Y-113551000D02*
X143599000Y-119050000D01*
D49*
%TO.N,/1_mcu/USART1_RX*%
X150124500Y-114424500D02*
X150124500Y-118074500D01*
X150124500Y-118074500D02*
X151575000Y-119525000D01*
X151575000Y-119525000D02*
X151575000Y-119850000D01*
%TO.N,Net-(SD1-SH3)*%
X154526500Y-107625000D02*
X154701500Y-107800500D01*
X154701500Y-107800500D02*
X154800500Y-107800500D01*
X153424000Y-107625000D02*
X154526500Y-107625000D01*
%TO.N,SWITCH_A*%
X148626000Y-114424500D02*
X148626000Y-121773000D01*
X148626000Y-121773000D02*
X147523500Y-122875500D01*
X147523500Y-122875500D02*
X146599000Y-122875500D01*
%TO.N,SWITCH_B*%
X147175500Y-122225000D02*
X146599000Y-122225000D01*
X147124500Y-114424500D02*
X147124500Y-115275500D01*
X148151000Y-121249500D02*
X147175500Y-122225000D01*
X148151000Y-116299000D02*
X148151000Y-120249000D01*
X147124500Y-115275500D02*
X148151000Y-116299000D01*
X148151000Y-120249000D02*
X148151000Y-121249500D01*
%TO.N,PWR_ON*%
X151625500Y-123525500D02*
X152601000Y-123525500D01*
X154650500Y-123299500D02*
X154424500Y-123525500D01*
X149123500Y-114424500D02*
X149123500Y-121026000D01*
X154424500Y-123525500D02*
X152601000Y-123525500D01*
X149123500Y-121026000D02*
X151625500Y-123525500D01*
%TO.N,PWM_IN*%
X146624500Y-114424500D02*
X146624500Y-115324000D01*
X146624500Y-115324000D02*
X147749500Y-116449000D01*
X147749500Y-120701000D02*
X147500500Y-120950000D01*
X147925000Y-124826000D02*
X146599000Y-124826000D01*
X147950000Y-124851500D02*
X147925000Y-124826000D01*
X147749500Y-116449000D02*
X147749500Y-120701000D01*
%TO.N,/1_mcu/SDMMC1_CK*%
X160550000Y-98250000D02*
X160550000Y-98750000D01*
X149624000Y-101826500D02*
X149200000Y-101399500D01*
X149624000Y-103325000D02*
X149624000Y-101826500D01*
X161150000Y-97650000D02*
X160550000Y-98250000D01*
%TO.N,/1_mcu/SDMMC1_D3*%
X150051000Y-101249500D02*
X149949000Y-101150500D01*
X150124500Y-101326000D02*
X150051000Y-101249500D01*
X150127000Y-103320000D02*
X150124500Y-101326000D01*
X149949000Y-101150500D02*
X150051000Y-101249500D01*
D43*
%TO.N,/1_mcu/USART2_RX*%
X144224000Y-118476000D02*
X144224000Y-119901000D01*
X144125000Y-118377000D02*
X144224000Y-118476000D01*
X144125000Y-114424500D02*
X144125000Y-118377000D01*
D49*
%TO.N,/1_mcu/SDMMC1_D0*%
X157150000Y-101750000D02*
X157150000Y-102149000D01*
X156451500Y-102847500D02*
X156451500Y-107597000D01*
X156451500Y-107597000D02*
X154427000Y-109624000D01*
X157150000Y-102149000D02*
X156451500Y-102847500D01*
X154427000Y-109624000D02*
X153424000Y-109624000D01*
%TO.N,/1_mcu/SDMMC1_D1*%
X154376500Y-109123500D02*
X153424000Y-109123500D01*
X156350000Y-101999000D02*
X156050500Y-102298500D01*
X156050500Y-107450000D02*
X154376500Y-109123500D01*
X156050500Y-102298500D02*
X156050500Y-107450000D01*
%TD*%
%TA.AperFunction,NonConductor*%
G36*
X154731694Y-88868306D02*
G01*
X154750000Y-88912500D01*
X154750000Y-89787500D01*
X154731694Y-89831694D01*
X154687500Y-89850000D01*
X153962500Y-89850000D01*
X153918306Y-89831694D01*
X153900000Y-89787500D01*
X153900000Y-88912500D01*
X153918306Y-88868306D01*
X153962500Y-88850000D01*
X154687500Y-88850000D01*
X154731694Y-88868306D01*
G37*
%TD.AperFunction*%
M02*
