%TF.GenerationSoftware,KiCad,Pcbnew,9.0.4*%
%TF.CreationDate,2026-01-16T16:12:55-08:00*%
%TF.ProjectId,u_anemometer,755f616e-656d-46f6-9d65-7465722e6b69,rev?*%
%TF.SameCoordinates,Original*%
%TF.FileFunction,Paste,Top*%
%TF.FilePolarity,Positive*%
%FSLAX46Y46*%
G04 Gerber Fmt 4.6, Leading zero omitted, Abs format (unit mm)*
G04 Created by KiCad (PCBNEW 9.0.4) date 2026-01-16 16:12:55*
%MOMM*%
%LPD*%
G01*
G04 APERTURE LIST*
G04 Aperture macros list*
%AMRotRect*
0 Rectangle, with rotation*
0 The origin of the aperture is its center*
0 $1 length*
0 $2 width*
0 $3 Rotation angle, in degrees counterclockwise*
0 Add horizontal line*
21,1,$1,$2,0,0,$3*%
%AMFreePoly0*
4,1,6,0.700000,0.196000,0.700000,-0.575000,-0.700000,-0.575000,-0.700000,0.575000,0.338000,0.575000,0.700000,0.196000,0.700000,0.196000,$1*%
G04 Aperture macros list end*
%ADD10R,0.500000X0.800000*%
%ADD11R,0.800000X0.900000*%
%ADD12R,1.803500X0.406500*%
%ADD13R,0.700000X1.400000*%
%ADD14R,1.000000X0.550000*%
%ADD15R,0.800000X0.500000*%
%ADD16R,1.800000X2.600000*%
%ADD17R,1.092000X0.990500*%
%ADD18R,1.000000X1.100000*%
%ADD19R,0.900000X0.800000*%
%ADD20O,1.800000X0.280000*%
%ADD21O,0.280000X1.800000*%
%ADD22R,1.250000X0.700000*%
%ADD23RotRect,0.800000X0.300000X225.000000*%
%ADD24RotRect,0.800000X0.400000X225.000000*%
%ADD25R,1.000000X1.700000*%
%ADD26R,1.397000X0.406500*%
%ADD27RotRect,1.380000X0.450000X225.000000*%
%ADD28RotRect,1.900000X2.375000X225.000000*%
%ADD29RotRect,2.100000X1.475000X225.000000*%
%ADD30RotRect,1.900000X1.175000X225.000000*%
%ADD31R,1.100000X1.000000*%
%ADD32R,0.400000X1.493500*%
%ADD33FreePoly0,0.000000*%
%ADD34R,1.400000X1.150000*%
%ADD35R,1.700000X1.000000*%
%ADD36R,1.200000X1.400000*%
%ADD37R,0.400000X1.060000*%
G04 APERTURE END LIST*
D10*
%TO.C,C1*%
X144300000Y-96950000D03*
X145300000Y-96950000D03*
%TD*%
D11*
%TO.C,C4*%
X169900000Y-101700000D03*
X171300000Y-101700000D03*
%TD*%
D12*
%TO.C,U5*%
X152600000Y-126775000D03*
X152600000Y-126125000D03*
X152600000Y-125475000D03*
X152600000Y-124825000D03*
X152600000Y-124175000D03*
X152600000Y-123525000D03*
X152600000Y-122875000D03*
X152600000Y-122225000D03*
X146600000Y-122225000D03*
X146600000Y-122875000D03*
X146600000Y-123525000D03*
X146600000Y-124175000D03*
X146600000Y-124825000D03*
X146600000Y-125475000D03*
X146600000Y-126125000D03*
X146600000Y-126775000D03*
%TD*%
D13*
%TO.C,X1*%
X132650000Y-100150000D03*
X134150000Y-100150000D03*
%TD*%
D10*
%TO.C,R41*%
X159900000Y-103550000D03*
X158900000Y-103550000D03*
%TD*%
%TO.C,C47*%
X166550000Y-113550000D03*
X167550000Y-113550000D03*
%TD*%
%TO.C,R35*%
X140650000Y-118950000D03*
X139650000Y-118950000D03*
%TD*%
D14*
%TO.C,D2*%
X161950000Y-101000000D03*
X161950000Y-100050000D03*
X161950000Y-99100000D03*
X159150000Y-99100000D03*
X159150000Y-100050000D03*
X159150000Y-101000000D03*
%TD*%
D10*
%TO.C,C19*%
X151400000Y-116350000D03*
X152400000Y-116350000D03*
%TD*%
D15*
%TO.C,R27*%
X131050000Y-108550000D03*
X131050000Y-107550000D03*
%TD*%
%TO.C,C9*%
X140075000Y-99700000D03*
X140075000Y-100700000D03*
%TD*%
D16*
%TO.C,C12*%
X148249000Y-96200000D03*
X151251000Y-96200000D03*
%TD*%
D17*
%TO.C,LED1*%
X164999000Y-104400000D03*
X166701000Y-104400000D03*
%TD*%
D10*
%TO.C,R38*%
X153800000Y-130350000D03*
X152800000Y-130350000D03*
%TD*%
D18*
%TO.C,R6*%
X163250000Y-104450000D03*
X161650000Y-104450000D03*
%TD*%
D15*
%TO.C,R28*%
X129750000Y-106150000D03*
X129750000Y-105150000D03*
%TD*%
D19*
%TO.C,VBAT1*%
X140250000Y-103450000D03*
X140250000Y-104850000D03*
%TD*%
D20*
%TO.C,U2*%
X142325000Y-105125000D03*
X142325000Y-105625000D03*
X142325000Y-106125000D03*
X142325000Y-106625000D03*
X142325000Y-107125000D03*
X142325000Y-107625000D03*
X142325000Y-108125000D03*
X142325000Y-108625000D03*
X142325000Y-109125000D03*
X142325000Y-109625000D03*
X142325000Y-110125000D03*
X142325000Y-110625000D03*
X142325000Y-111125000D03*
X142325000Y-111625000D03*
X142325000Y-112125000D03*
X142325000Y-112625000D03*
D21*
X144125000Y-114425000D03*
X144625000Y-114425000D03*
X145125000Y-114425000D03*
X145625000Y-114425000D03*
X146125000Y-114425000D03*
X146625000Y-114425000D03*
X147125000Y-114425000D03*
X147625000Y-114425000D03*
X148125000Y-114425000D03*
X148625000Y-114425000D03*
X149125000Y-114425000D03*
X149625000Y-114425000D03*
X150125000Y-114425000D03*
X150625000Y-114425000D03*
X151125000Y-114425000D03*
X151625000Y-114425000D03*
D20*
X153425000Y-112625000D03*
X153425000Y-112125000D03*
X153425000Y-111625000D03*
X153425000Y-111125000D03*
X153425000Y-110625000D03*
X153425000Y-110125000D03*
X153425000Y-109625000D03*
X153425000Y-109125000D03*
X153425000Y-108625000D03*
X153425000Y-108125000D03*
X153425000Y-107625000D03*
X153425000Y-107125000D03*
X153425000Y-106625000D03*
X153425000Y-106125000D03*
X153425000Y-105625000D03*
X153425000Y-105125000D03*
D21*
X151625000Y-103325000D03*
X151125000Y-103325000D03*
X150625000Y-103325000D03*
X150125000Y-103325000D03*
X149625000Y-103325000D03*
X149125000Y-103325000D03*
X148625000Y-103325000D03*
X148125000Y-103325000D03*
X147625000Y-103325000D03*
X147125000Y-103325000D03*
X146625000Y-103325000D03*
X146125000Y-103325000D03*
X145625000Y-103325000D03*
X145125000Y-103325000D03*
X144625000Y-103325000D03*
X144125000Y-103325000D03*
%TD*%
D22*
%TO.C,Q2*%
X144749500Y-132050000D03*
X144749500Y-130150000D03*
X142250500Y-131100000D03*
%TD*%
D15*
%TO.C,C13*%
X147100000Y-92200000D03*
X147100000Y-93200000D03*
%TD*%
D10*
%TO.C,C23*%
X138250000Y-117376000D03*
X139250000Y-117376000D03*
%TD*%
D15*
%TO.C,R9*%
X138576000Y-99699000D03*
X138576000Y-100699000D03*
%TD*%
D10*
%TO.C,C2*%
X153050000Y-100350000D03*
X154050000Y-100350000D03*
%TD*%
D23*
%TO.C,DEBUG1*%
X157640812Y-91684315D03*
X157994365Y-92037868D03*
X158347918Y-92391421D03*
X158701472Y-92744975D03*
X159055025Y-93098528D03*
X159408579Y-93452082D03*
X159762132Y-93805635D03*
X160115685Y-94159188D03*
D24*
X158701472Y-89209441D03*
X162590559Y-93098528D03*
%TD*%
D15*
%TO.C,R20*%
X152100000Y-128050000D03*
X152100000Y-129050000D03*
%TD*%
%TO.C,R11*%
X146100000Y-131950000D03*
X146100000Y-130950000D03*
%TD*%
D10*
%TO.C,R23*%
X147150000Y-87900000D03*
X146150000Y-87900000D03*
%TD*%
%TO.C,R34*%
X139350000Y-123650000D03*
X138350000Y-123650000D03*
%TD*%
%TO.C,C39*%
X139450000Y-129800000D03*
X138450000Y-129800000D03*
%TD*%
%TO.C,R29*%
X143200000Y-126800000D03*
X144200000Y-126800000D03*
%TD*%
D15*
%TO.C,R19*%
X148500000Y-128050000D03*
X148500000Y-129050000D03*
%TD*%
D10*
%TO.C,R32*%
X144200000Y-124400000D03*
X143200000Y-124400000D03*
%TD*%
%TO.C,C15*%
X138250000Y-113375500D03*
X139250000Y-113375500D03*
%TD*%
D25*
%TO.C,RST1*%
X132900000Y-106500000D03*
X136300000Y-106500000D03*
%TD*%
D10*
%TO.C,R37*%
X153800000Y-131550000D03*
X152800000Y-131550000D03*
%TD*%
D26*
%TO.C,U7*%
X141402000Y-127025000D03*
X141402000Y-126375000D03*
X141402000Y-125725000D03*
X141402000Y-125075000D03*
X136398000Y-125075000D03*
X136398000Y-125725000D03*
X136398000Y-126375000D03*
X136398000Y-127025000D03*
%TD*%
D10*
%TO.C,R5*%
X156550000Y-99300000D03*
X157550000Y-99300000D03*
%TD*%
D15*
%TO.C,C3*%
X135600000Y-99700000D03*
X135600000Y-100700000D03*
%TD*%
D27*
%TO.C,USB1*%
X165329140Y-99409337D03*
X164869167Y-98950071D03*
X164409902Y-98490098D03*
X163949929Y-98030833D03*
X163490309Y-97571213D03*
D28*
X168348133Y-98667229D03*
D29*
X166405357Y-99977144D03*
D30*
X166884422Y-97203518D03*
X165696482Y-96015578D03*
D29*
X162922856Y-96494643D03*
D28*
X164232771Y-94551867D03*
%TD*%
D10*
%TO.C,R40*%
X158900000Y-102150000D03*
X159900000Y-102150000D03*
%TD*%
%TO.C,R25*%
X163450000Y-121100000D03*
X164450000Y-121100000D03*
%TD*%
%TO.C,R30*%
X138200000Y-128450000D03*
X137200000Y-128450000D03*
%TD*%
D11*
%TO.C,C38*%
X160200000Y-122150000D03*
X161600000Y-122150000D03*
%TD*%
%TO.C,C37*%
X161900000Y-112400000D03*
X160500000Y-112400000D03*
%TD*%
D15*
%TO.C,R17*%
X150900000Y-128050000D03*
X150900000Y-129050000D03*
%TD*%
D10*
%TO.C,C22*%
X138250000Y-114750000D03*
X139250000Y-114750000D03*
%TD*%
%TO.C,R13*%
X168100000Y-109300000D03*
X169100000Y-109300000D03*
%TD*%
D19*
%TO.C,C30*%
X127600000Y-113700000D03*
X127600000Y-115100000D03*
%TD*%
D31*
%TO.C,R1*%
X144350000Y-89200000D03*
X144350000Y-90800000D03*
%TD*%
D10*
%TO.C,C45*%
X141650000Y-123650000D03*
X140650000Y-123650000D03*
%TD*%
%TO.C,C35*%
X134250000Y-125250000D03*
X133250000Y-125250000D03*
%TD*%
D11*
%TO.C,C27*%
X130650000Y-121250000D03*
X132050000Y-121250000D03*
%TD*%
D10*
%TO.C,R39*%
X140650000Y-120250000D03*
X139650000Y-120250000D03*
%TD*%
D19*
%TO.C,C16*%
X142800000Y-115850000D03*
X142800000Y-117250000D03*
%TD*%
D10*
%TO.C,C18*%
X154050000Y-101650000D03*
X153050000Y-101650000D03*
%TD*%
D15*
%TO.C,R3*%
X159000000Y-95950000D03*
X159000000Y-96950000D03*
%TD*%
D32*
%TO.C,U4*%
X134875000Y-113299000D03*
X134225000Y-113299000D03*
X133575000Y-113299000D03*
X132925000Y-113299000D03*
X132275000Y-113299000D03*
X131626500Y-113299000D03*
X130975500Y-113299000D03*
X130325500Y-113299000D03*
X129675500Y-113299000D03*
X129025000Y-113299000D03*
X129025000Y-119301000D03*
X129675000Y-119301000D03*
X130325000Y-119301000D03*
X130975000Y-119301000D03*
X131625000Y-119301000D03*
X132275000Y-119301000D03*
X132925000Y-119301000D03*
X133575000Y-119296000D03*
X134225000Y-119296000D03*
X134875000Y-119301000D03*
%TD*%
D15*
%TO.C,R8*%
X137100000Y-100700000D03*
X137100000Y-99700000D03*
%TD*%
D33*
%TO.C,X2*%
X133400000Y-104100000D03*
D34*
X135600000Y-104100000D03*
X135600000Y-102500000D03*
X133400000Y-102500000D03*
%TD*%
D22*
%TO.C,U3*%
X148900500Y-91550000D03*
X148900500Y-93450000D03*
X151400000Y-92500000D03*
%TD*%
D15*
%TO.C,R18*%
X149700000Y-128050000D03*
X149700000Y-129050000D03*
%TD*%
%TO.C,C5*%
X131200000Y-99700000D03*
X131200000Y-100700000D03*
%TD*%
D19*
%TO.C,C28*%
X136500000Y-114800000D03*
X136500000Y-113400000D03*
%TD*%
D35*
%TO.C,SW1*%
X154650000Y-117550000D03*
X154650000Y-114150000D03*
%TD*%
D10*
%TO.C,R22*%
X147150000Y-89100000D03*
X146150000Y-89100000D03*
%TD*%
D19*
%TO.C,C43*%
X164950000Y-112450000D03*
X164950000Y-113850000D03*
%TD*%
D10*
%TO.C,R10*%
X138249500Y-116251500D03*
X139249500Y-116251500D03*
%TD*%
%TO.C,R14*%
X168100000Y-107950000D03*
X169100000Y-107950000D03*
%TD*%
D36*
%TO.C,D3*%
X168500000Y-103900000D03*
X171900000Y-103900000D03*
%TD*%
D11*
%TO.C,C29*%
X132400000Y-111350000D03*
X131000000Y-111350000D03*
%TD*%
D10*
%TO.C,R24*%
X143200000Y-125600000D03*
X144200000Y-125600000D03*
%TD*%
D11*
%TO.C,C42*%
X158750000Y-112450000D03*
X157350000Y-112450000D03*
%TD*%
D10*
%TO.C,C21*%
X144800000Y-116550000D03*
X145800000Y-116550000D03*
%TD*%
%TO.C,C17*%
X142900000Y-101700000D03*
X141900000Y-101700000D03*
%TD*%
D15*
%TO.C,R16*%
X154650000Y-123300000D03*
X154650000Y-122300000D03*
%TD*%
D11*
%TO.C,C25*%
X135300000Y-111350000D03*
X133900000Y-111350000D03*
%TD*%
D17*
%TO.C,LED2*%
X164999000Y-102800000D03*
X166701000Y-102800000D03*
%TD*%
D18*
%TO.C,R7*%
X163250000Y-102750000D03*
X161650000Y-102750000D03*
%TD*%
D22*
%TO.C,Q1*%
X157374500Y-97575000D03*
X157374500Y-95675000D03*
X154875500Y-96625000D03*
%TD*%
D11*
%TO.C,C14*%
X153100000Y-92750000D03*
X154500000Y-92750000D03*
%TD*%
D22*
%TO.C,D1*%
X141949500Y-90950000D03*
X141949500Y-89050000D03*
X139450500Y-90000000D03*
%TD*%
D10*
%TO.C,R4*%
X156550000Y-100500000D03*
X157550000Y-100500000D03*
%TD*%
D15*
%TO.C,C8*%
X137850000Y-107400000D03*
X137850000Y-106400000D03*
%TD*%
D10*
%TO.C,R33*%
X138350000Y-122500000D03*
X139350000Y-122500000D03*
%TD*%
%TO.C,C7*%
X130700000Y-104100000D03*
X131700000Y-104100000D03*
%TD*%
%TO.C,R31*%
X139100000Y-128450000D03*
X140100000Y-128450000D03*
%TD*%
D11*
%TO.C,C31*%
X145600000Y-128500000D03*
X147000000Y-128500000D03*
%TD*%
D10*
%TO.C,C6*%
X131700000Y-102550000D03*
X130700000Y-102550000D03*
%TD*%
%TO.C,R2*%
X146100000Y-101400000D03*
X147100000Y-101400000D03*
%TD*%
%TO.C,C50*%
X169850000Y-113550000D03*
X168850000Y-113550000D03*
%TD*%
D32*
%TO.C,U6*%
X162425000Y-114299000D03*
X161775000Y-114299000D03*
X161125000Y-114299000D03*
X160475000Y-114299000D03*
X159825000Y-114299000D03*
X159176500Y-114299000D03*
X158525500Y-114299000D03*
X157875500Y-114299000D03*
X157225500Y-114299000D03*
X156575000Y-114299000D03*
X156575000Y-120301000D03*
X157225000Y-120301000D03*
X157875000Y-120301000D03*
X158525000Y-120301000D03*
X159175000Y-120301000D03*
X159825000Y-120301000D03*
X160475000Y-120301000D03*
X161125000Y-120296000D03*
X161775000Y-120296000D03*
X162425000Y-120301000D03*
%TD*%
D15*
%TO.C,R15*%
X134600000Y-122200000D03*
X134600000Y-121200000D03*
%TD*%
D11*
%TO.C,C36*%
X133400000Y-123700000D03*
X134800000Y-123700000D03*
%TD*%
D19*
%TO.C,C41*%
X163600000Y-113900000D03*
X163600000Y-112500000D03*
%TD*%
D37*
%TO.C,U1*%
X143895000Y-95450000D03*
X144545000Y-95450000D03*
X145205000Y-95450000D03*
X145855000Y-95450000D03*
X145855000Y-93050000D03*
X145205000Y-93050000D03*
X144545000Y-93050000D03*
X143895000Y-93050000D03*
%TD*%
M02*
