%TF.GenerationSoftware,KiCad,Pcbnew,9.0.4*%
%TF.CreationDate,2026-01-16T02:39:11-08:00*%
%TF.ProjectId,u_anemometer,755f616e-656d-46f6-9d65-7465722e6b69,rev?*%
%TF.SameCoordinates,Original*%
%TF.FileFunction,Drillmap*%
%TF.FilePolarity,Positive*%
%FSLAX45Y45*%
G04 Gerber Fmt 4.5, Leading zero omitted, Abs format (unit mm)*
G04 Created by KiCad (PCBNEW 9.0.4) date 2026-01-16 02:39:11*
%MOMM*%
%LPD*%
G01*
G04 APERTURE LIST*
%ADD10C,0.150000*%
%ADD11C,0.200000*%
G04 APERTURE END LIST*
D10*
X17300500Y-11683747D02*
G75*
G02*
X15685549Y-13299950I-2300454J683719D01*
G01*
X17182507Y-10001957D02*
G75*
G02*
X17300751Y-10317251I-2189057J-1000773D01*
G01*
X15000000Y-13299950D02*
X14314729Y-13300200D01*
X15000000Y-8700050D02*
X14313701Y-8700300D01*
X12700300Y-10313701D02*
G75*
G02*
X14313701Y-8700300I2299700J-686299D01*
G01*
X14314729Y-13300200D02*
G75*
G02*
X12700046Y-11686051I685231J2300140D01*
G01*
X15000000Y-8700050D02*
X15685717Y-8700050D01*
X15685717Y-8700050D02*
G75*
G02*
X15999749Y-8818151I-685577J-2299530D01*
G01*
X17299950Y-11000000D02*
X17300750Y-10317251D01*
X17299950Y-11000000D02*
X17300500Y-11683747D01*
X15000000Y-13299950D02*
X15685549Y-13299950D01*
X12700050Y-11000000D02*
X12700300Y-10313701D01*
X17182507Y-10001957D02*
X15999750Y-8818150D01*
X12700050Y-11000000D02*
X12700050Y-11686050D01*
D11*
X12953327Y-13619184D02*
X12953327Y-13419184D01*
X12953327Y-13419184D02*
X13000946Y-13419184D01*
X13000946Y-13419184D02*
X13029517Y-13428708D01*
X13029517Y-13428708D02*
X13048565Y-13447755D01*
X13048565Y-13447755D02*
X13058089Y-13466803D01*
X13058089Y-13466803D02*
X13067612Y-13504898D01*
X13067612Y-13504898D02*
X13067612Y-13533470D01*
X13067612Y-13533470D02*
X13058089Y-13571565D01*
X13058089Y-13571565D02*
X13048565Y-13590613D01*
X13048565Y-13590613D02*
X13029517Y-13609660D01*
X13029517Y-13609660D02*
X13000946Y-13619184D01*
X13000946Y-13619184D02*
X12953327Y-13619184D01*
X13153327Y-13619184D02*
X13153327Y-13485851D01*
X13153327Y-13523946D02*
X13162851Y-13504898D01*
X13162851Y-13504898D02*
X13172374Y-13495374D01*
X13172374Y-13495374D02*
X13191422Y-13485851D01*
X13191422Y-13485851D02*
X13210470Y-13485851D01*
X13277136Y-13619184D02*
X13277136Y-13485851D01*
X13277136Y-13419184D02*
X13267612Y-13428708D01*
X13267612Y-13428708D02*
X13277136Y-13438232D01*
X13277136Y-13438232D02*
X13286660Y-13428708D01*
X13286660Y-13428708D02*
X13277136Y-13419184D01*
X13277136Y-13419184D02*
X13277136Y-13438232D01*
X13400946Y-13619184D02*
X13381898Y-13609660D01*
X13381898Y-13609660D02*
X13372374Y-13590613D01*
X13372374Y-13590613D02*
X13372374Y-13419184D01*
X13505708Y-13619184D02*
X13486660Y-13609660D01*
X13486660Y-13609660D02*
X13477136Y-13590613D01*
X13477136Y-13590613D02*
X13477136Y-13419184D01*
X13734279Y-13619184D02*
X13734279Y-13419184D01*
X13734279Y-13419184D02*
X13800946Y-13562041D01*
X13800946Y-13562041D02*
X13867612Y-13419184D01*
X13867612Y-13419184D02*
X13867612Y-13619184D01*
X14048565Y-13619184D02*
X14048565Y-13514422D01*
X14048565Y-13514422D02*
X14039041Y-13495374D01*
X14039041Y-13495374D02*
X14019993Y-13485851D01*
X14019993Y-13485851D02*
X13981898Y-13485851D01*
X13981898Y-13485851D02*
X13962851Y-13495374D01*
X14048565Y-13609660D02*
X14029517Y-13619184D01*
X14029517Y-13619184D02*
X13981898Y-13619184D01*
X13981898Y-13619184D02*
X13962851Y-13609660D01*
X13962851Y-13609660D02*
X13953327Y-13590613D01*
X13953327Y-13590613D02*
X13953327Y-13571565D01*
X13953327Y-13571565D02*
X13962851Y-13552517D01*
X13962851Y-13552517D02*
X13981898Y-13542994D01*
X13981898Y-13542994D02*
X14029517Y-13542994D01*
X14029517Y-13542994D02*
X14048565Y-13533470D01*
X14143803Y-13485851D02*
X14143803Y-13685851D01*
X14143803Y-13495374D02*
X14162851Y-13485851D01*
X14162851Y-13485851D02*
X14200946Y-13485851D01*
X14200946Y-13485851D02*
X14219993Y-13495374D01*
X14219993Y-13495374D02*
X14229517Y-13504898D01*
X14229517Y-13504898D02*
X14239041Y-13523946D01*
X14239041Y-13523946D02*
X14239041Y-13581089D01*
X14239041Y-13581089D02*
X14229517Y-13600136D01*
X14229517Y-13600136D02*
X14219993Y-13609660D01*
X14219993Y-13609660D02*
X14200946Y-13619184D01*
X14200946Y-13619184D02*
X14162851Y-13619184D01*
X14162851Y-13619184D02*
X14143803Y-13609660D01*
X14324755Y-13600136D02*
X14334279Y-13609660D01*
X14334279Y-13609660D02*
X14324755Y-13619184D01*
X14324755Y-13619184D02*
X14315232Y-13609660D01*
X14315232Y-13609660D02*
X14324755Y-13600136D01*
X14324755Y-13600136D02*
X14324755Y-13619184D01*
X14324755Y-13495374D02*
X14334279Y-13504898D01*
X14334279Y-13504898D02*
X14324755Y-13514422D01*
X14324755Y-13514422D02*
X14315232Y-13504898D01*
X14315232Y-13504898D02*
X14324755Y-13495374D01*
X14324755Y-13495374D02*
X14324755Y-13514422D01*
M02*
