%TF.GenerationSoftware,KiCad,Pcbnew,9.0.4*%
%TF.CreationDate,2026-01-16T16:04:55-08:00*%
%TF.ProjectId,u_anemometer,755f616e-656d-46f6-9d65-7465722e6b69,rev?*%
%TF.SameCoordinates,Original*%
%TF.FileFunction,Paste,Bot*%
%TF.FilePolarity,Positive*%
%FSLAX46Y46*%
G04 Gerber Fmt 4.6, Leading zero omitted, Abs format (unit mm)*
G04 Created by KiCad (PCBNEW 9.0.4) date 2026-01-16 16:04:55*
%MOMM*%
%LPD*%
G01*
G04 APERTURE LIST*
G04 Aperture macros list*
%AMFreePoly0*
4,1,5,0.425000,-0.550000,-0.425000,-0.550000,-0.425000,0.550000,0.425000,0.550000,0.425000,-0.550000,0.425000,-0.550000,$1*%
%AMFreePoly1*
4,1,5,0.425500,-0.549500,-0.424500,-0.549501,-0.424500,0.550500,0.425501,0.550500,0.425500,-0.549500,0.425500,-0.549500,$1*%
%AMFreePoly2*
4,1,5,0.425500,-0.550000,-0.424500,-0.550000,-0.424500,0.549999,0.425500,0.550000,0.425500,-0.550000,0.425500,-0.550000,$1*%
%AMFreePoly3*
4,1,5,0.375000,-0.550000,-0.375000,-0.550000,-0.375000,0.550000,0.375000,0.550000,0.375000,-0.550000,0.375000,-0.550000,$1*%
%AMFreePoly4*
4,1,5,0.585000,-0.900000,-0.585000,-0.900000,-0.585000,0.900000,0.585000,0.900000,0.585000,-0.900000,0.585000,-0.900000,$1*%
%AMFreePoly5*
4,1,5,0.950000,-0.675000,-0.950000,-0.675000,-0.950000,0.675000,0.950000,0.675000,0.950000,-0.675000,0.950000,-0.675000,$1*%
%AMFreePoly6*
4,1,5,0.950500,-0.675000,-0.949500,-0.675000,-0.949500,0.674999,0.950500,0.675000,0.950500,-0.675000,0.950500,-0.675000,$1*%
%AMFreePoly7*
4,1,5,0.600000,-0.500000,-0.600000,-0.500000,-0.600000,0.500000,0.600000,0.500000,0.600000,-0.500000,0.600000,-0.500000,$1*%
%AMFreePoly8*
4,1,5,0.775000,-0.675000,-0.775000,-0.675000,-0.775000,0.675000,0.775000,0.675000,0.775000,-0.675000,0.775000,-0.675000,$1*%
G04 Aperture macros list end*
%ADD10C,2.000000*%
%ADD11C,2.500000*%
%ADD12R,0.500000X0.800000*%
%ADD13R,0.800000X0.900000*%
%ADD14R,1.000000X1.000000*%
%ADD15R,1.000000X2.000000*%
%ADD16R,0.800000X0.500000*%
%ADD17R,0.900000X0.800000*%
%ADD18FreePoly0,136.000000*%
%ADD19FreePoly1,136.000000*%
%ADD20FreePoly2,136.000000*%
%ADD21FreePoly3,136.000000*%
%ADD22FreePoly4,136.000000*%
%ADD23FreePoly5,46.000000*%
%ADD24FreePoly6,46.000000*%
%ADD25FreePoly7,46.000000*%
%ADD26FreePoly8,46.000000*%
%ADD27R,0.675000X0.250000*%
%ADD28R,0.250000X0.675000*%
G04 APERTURE END LIST*
D10*
%TO.C,*%
X139900000Y-113100000D03*
%TD*%
%TO.C,*%
X145100000Y-103400000D03*
%TD*%
%TO.C,*%
X141751500Y-129001000D03*
%TD*%
D11*
%TO.C,*%
X131750000Y-101900000D03*
%TD*%
D12*
%TO.C,R26*%
X129900000Y-109900000D03*
X130900000Y-109900000D03*
%TD*%
D13*
%TO.C,C32*%
X144500000Y-92050000D03*
X143100000Y-92050000D03*
%TD*%
D14*
%TO.C,D14*%
X130300000Y-111350000D03*
X130300000Y-113750000D03*
%TD*%
D12*
%TO.C,C52*%
X146000000Y-95800000D03*
X145000000Y-95800000D03*
%TD*%
D15*
%TO.C,UART3*%
X153100000Y-88850000D03*
X154600000Y-88850000D03*
X156100000Y-88850000D03*
X157600000Y-88850000D03*
%TD*%
D12*
%TO.C,C26*%
X166500000Y-112451000D03*
X167500000Y-112451000D03*
%TD*%
D16*
%TO.C,C46*%
X149350000Y-127100000D03*
X149350000Y-128100000D03*
%TD*%
D12*
%TO.C,R12*%
X169699000Y-112449000D03*
X168699000Y-112449000D03*
%TD*%
D15*
%TO.C,SWD1*%
X152700000Y-92850000D03*
X154200000Y-92850000D03*
X155700000Y-92850000D03*
X157200000Y-92850000D03*
%TD*%
D14*
%TO.C,D6*%
X169250000Y-108850000D03*
X166850000Y-108850000D03*
%TD*%
%TO.C,D16*%
X153550000Y-130100000D03*
X151150000Y-130100000D03*
%TD*%
%TO.C,D11*%
X147000500Y-94400000D03*
X147000500Y-92000000D03*
%TD*%
%TO.C,D17*%
X151100000Y-128000000D03*
X153500000Y-128000000D03*
%TD*%
%TO.C,D5*%
X168675500Y-106375000D03*
X171075500Y-106375000D03*
%TD*%
D16*
%TO.C,R36*%
X149300000Y-130250000D03*
X149300000Y-129250000D03*
%TD*%
D12*
%TO.C,C40*%
X133150000Y-109900000D03*
X132150000Y-109900000D03*
%TD*%
D14*
%TO.C,D19*%
X145500000Y-127750000D03*
X147900000Y-127750000D03*
%TD*%
%TO.C,D10*%
X148951000Y-92000000D03*
X148951000Y-94400000D03*
%TD*%
D17*
%TO.C,C34*%
X128200000Y-105100000D03*
X128200000Y-106500000D03*
%TD*%
D12*
%TO.C,C33*%
X151550000Y-92450000D03*
X150550000Y-92450000D03*
%TD*%
D14*
%TO.C,D13*%
X132900000Y-105850000D03*
X132900000Y-108250000D03*
%TD*%
%TO.C,D4*%
X171101000Y-104399000D03*
X168701000Y-104399000D03*
%TD*%
D12*
%TO.C,C51*%
X143850000Y-95800000D03*
X142850000Y-95800000D03*
%TD*%
D14*
%TO.C,D8*%
X146850000Y-88250000D03*
X144450000Y-88250000D03*
%TD*%
%TO.C,D15*%
X132350000Y-113700000D03*
X132350000Y-111300000D03*
%TD*%
D18*
%TO.C,SD1*%
X166748784Y-98268698D03*
X165957510Y-97504573D03*
D19*
X165165529Y-96740461D03*
D20*
X164374603Y-95975978D03*
X163583329Y-95211853D03*
D19*
X162791708Y-94448089D03*
D20*
X162000781Y-93683605D03*
D21*
X161245834Y-92954561D03*
D22*
X160132302Y-92365793D03*
D23*
X154312419Y-101307561D03*
D24*
X158606518Y-105454324D03*
D25*
X161801859Y-107184619D03*
X164372095Y-104523062D03*
D26*
X168431527Y-100067475D03*
%TD*%
D14*
%TO.C,D7*%
X166850000Y-110650000D03*
X169250000Y-110650000D03*
%TD*%
%TO.C,D18*%
X147900000Y-129950000D03*
X145500000Y-129950000D03*
%TD*%
D13*
%TO.C,C24*%
X167100000Y-106400000D03*
X165700000Y-106400000D03*
%TD*%
D14*
%TO.C,D9*%
X144450000Y-90100000D03*
X146850000Y-90100000D03*
%TD*%
%TO.C,D12*%
X130850000Y-108150000D03*
X130850000Y-105750000D03*
%TD*%
D27*
%TO.C,U9*%
X143587500Y-98950000D03*
X143587500Y-98450000D03*
X143587500Y-97950000D03*
X143587500Y-97450000D03*
D28*
X144350000Y-97187000D03*
X144850000Y-97187000D03*
X145350000Y-97187000D03*
D27*
X146112500Y-97450000D03*
X146112500Y-97950000D03*
X146112500Y-98450000D03*
X146112500Y-98950000D03*
D28*
X145350000Y-99213000D03*
X144850000Y-99213000D03*
X144350000Y-99213000D03*
%TD*%
D12*
%TO.C,R21*%
X151550000Y-91100000D03*
X150550000Y-91100000D03*
%TD*%
D13*
%TO.C,C44*%
X151300000Y-126200000D03*
X152700000Y-126200000D03*
%TD*%
M02*
