M48
; DRILL file {KiCad 9.0.4} date 2026-01-16T13:37:42-0800
; FORMAT={-:-/ absolute / metric / decimal}
; #@! TF.CreationDate,2026-01-16T13:37:42-08:00
; #@! TF.GenerationSoftware,Kicad,Pcbnew,9.0.4
; #@! TF.FileFunction,Plated,1,4,PTH
FMAT,2
METRIC
; #@! TA.AperFunction,Plated,PTH,ViaDrill
T1C0.305
; #@! TA.AperFunction,Plated,PTH,ComponentDrill
T2C0.600
; #@! TA.AperFunction,Plated,PTH,ComponentDrill
T3C0.700
; #@! TA.AperFunction,Plated,PTH,ComponentDrill
T4C1.200
%
G90
G05
T1
X127.65Y-112.85
X127.75Y-108.1
X127.8Y-116.75
X128.15Y-117.85
X128.451Y-111.999
X129.0Y-103.7
X129.0Y-116.0
X129.25Y-102.25
X129.35Y-117.85
X129.55Y-104.5
X129.55Y-107.7
X129.8Y-106.8
X130.05Y-116.9
X130.15Y-100.4
X130.3Y-117.85
X130.85Y-122.95
X131.0Y-98.6
X131.05Y-115.25
X131.2Y-107.0
X131.4Y-117.8
X132.0Y-106.7
X132.05Y-115.7
X132.15Y-123.65
X132.75Y-115.15
X132.9Y-117.1
X133.47Y-98.75
X133.55Y-121.3
X133.6Y-126.25
X134.049Y-93.8
X134.25Y-106.7
X134.35Y-103.4
X134.45Y-126.35
X134.95Y-94.65
X135.539Y-113.299
X135.65Y-120.45
X135.85Y-107.95
X136.1Y-109.949
X136.35Y-118.1
X136.95Y-111.9
X137.15Y-123.9
X137.55Y-94.8
X137.6Y-113.6
X137.65Y-90.45
X138.45Y-118.1
X138.5Y-102.65
X138.69Y-107.61
X139.05Y-126.95
X139.1Y-125.25
X139.3Y-103.5
X140.0Y-126.1
X140.05Y-124.6
X140.1Y-127.3
X140.4Y-94.6
X140.4Y-117.3
X140.55Y-88.7
X140.75Y-130.85
X141.0Y-99.35
X141.0Y-115.1
X141.399Y-118.151
X141.451Y-128.451
X141.7Y-124.346
X141.75Y-93.05
X142.3Y-113.75
X142.35Y-117.9
X142.55Y-100.95
X142.8Y-99.4
X142.8Y-115.1
X143.2Y-87.9
X143.2Y-132.15
X143.25Y-130.25
X143.35Y-94.55
X143.35Y-128.05
X143.55Y-102.8
X143.55Y-119.05
X143.75Y-131.1
X143.8Y-111.65
X143.9Y-110.625
X143.95Y-109.1
X144.3Y-123.0
X144.5Y-94.5
X144.55Y-128.55
X144.6Y-112.85
X144.8Y-117.2
X144.8Y-125.7
X144.85Y-122.25
X145.15Y-100.75
X145.35Y-94.5
X145.45Y-87.95
X145.65Y-88.95
X145.7Y-107.65
X145.75Y-117.3
X145.85Y-109.4
X145.85Y-111.7
X146.0Y-99.6
X146.15Y-118.45
X146.55Y-96.6
X146.55Y-107.0
X146.7Y-129.2
X146.8Y-110.65
X146.85Y-112.6
X146.95Y-108.05
X147.0Y-106.3
X147.15Y-100.25
X147.2Y-98.25
X147.5Y-120.95
X147.75Y-105.9
X147.9Y-131.85
X147.95Y-99.6
X147.95Y-124.85
X148.45Y-122.8
X148.5Y-88.95
X148.55Y-101.9
X148.55Y-105.35
X148.85Y-90.9
X148.95Y-109.3
X149.0Y-111.8
X149.2Y-101.4
X149.4Y-122.7
X149.649Y-107.599
X149.75Y-96.6
X149.8Y-118.75
X150.0Y-124.75
X150.05Y-101.25
X150.25Y-126.2
X150.4Y-94.05
X150.45Y-106.749
X150.75Y-105.9
X150.8Y-101.75
X151.125Y-113.05
X151.2Y-105.05
X151.25Y-121.4
X151.55Y-94.6
X151.7Y-108.8
X151.75Y-117.6
X151.85Y-110.95
X151.95Y-88.95
X151.95Y-132.25
X152.0Y-130.3
X152.1Y-131.3
X152.35Y-115.25
X152.799Y-95.6
X152.85Y-121.399
X152.896Y-129.0
X152.95Y-94.75
X152.95Y-98.05
X153.0Y-113.8
X153.2Y-102.45
X153.5Y-91.0
X153.65Y-115.45
X153.95Y-124.15
X154.15Y-99.25
X154.25Y-102.5
X154.35Y-91.3
X154.5Y-131.55
X154.65Y-116.1
X154.8Y-107.8
X154.8Y-110.9
X154.9Y-121.7
X154.95Y-95.4
X155.05Y-110.05
X155.55Y-132.25
X155.8Y-97.65
X155.9Y-94.8
X156.15Y-90.35
X156.15Y-130.7
X156.35Y-102.0
X156.45Y-118.1
X156.5Y-115.85
X156.6Y-91.2
X156.85Y-132.05
X157.15Y-101.75
X157.3Y-118.8
X157.6Y-115.7
X157.95Y-93.8
X157.95Y-131.1
X158.3Y-110.6
X158.35Y-95.65
X158.75Y-116.65
X159.7Y-106.55
X159.75Y-104.7
X159.85Y-89.6
X159.9Y-108.2
X159.95Y-102.85
X160.55Y-98.75
X160.75Y-108.1
X161.0Y-100.05
X161.15Y-97.65
X161.548Y-90.95
X161.6Y-117.95
X161.7Y-118.8
X161.85Y-95.65
X162.0Y-98.1
X162.4Y-105.6
X163.1Y-106.45
X163.15Y-118.0
X163.6Y-92.85
X164.272Y-112.5
X164.35Y-101.6
X166.55Y-114.25
X167.2Y-107.95
X167.895Y-101.1
X168.25Y-113.55
X169.8Y-106.55
X169.901Y-102.949
X169.901Y-104.399
X171.0Y-100.2
X171.95Y-112.0
X172.1Y-107.85
X172.2Y-102.55
X172.4Y-105.35
T2
X128.0Y-109.41
X128.0Y-110.69
X132.675Y-97.0
X133.925Y-97.0
X135.175Y-97.0
X136.425Y-97.0
X137.675Y-97.0
X138.925Y-97.0
X140.175Y-97.0
X141.425Y-97.0
X149.36Y-88.0
X149.36Y-132.0
X150.64Y-88.0
X150.64Y-132.0
X172.0Y-109.36
X172.0Y-110.64
T3
X136.225Y-93.55
X137.516Y-93.55
X138.725Y-93.55
X139.975Y-93.55
X142.975Y-119.9
X144.225Y-119.9
X145.434Y-119.9
X146.725Y-119.9
X150.326Y-119.85
X151.575Y-119.85
X152.784Y-119.85
X154.075Y-119.85
X157.25Y-106.125
X157.25Y-107.416
X157.25Y-108.625
X157.25Y-109.874
T4
X162.08Y-109.2
X164.62Y-109.2
M30
