%TF.GenerationSoftware,KiCad,Pcbnew,9.0.4*%
%TF.CreationDate,2026-01-16T16:04:57-08:00*%
%TF.ProjectId,u_anemometer,755f616e-656d-46f6-9d65-7465722e6b69,rev?*%
%TF.SameCoordinates,Original*%
%TF.FileFunction,Drillmap*%
%TF.FilePolarity,Positive*%
%FSLAX45Y45*%
G04 Gerber Fmt 4.5, Leading zero omitted, Abs format (unit mm)*
G04 Created by KiCad (PCBNEW 9.0.4) date 2026-01-16 16:04:57*
%MOMM*%
%LPD*%
G01*
G04 APERTURE LIST*
%ADD10C,0.150000*%
%ADD11C,0.200000*%
%ADD12C,0.100000*%
%ADD13C,0.120000*%
G04 APERTURE END LIST*
D10*
X17300500Y-11683747D02*
G75*
G02*
X15685549Y-13299950I-2300454J683719D01*
G01*
X17182507Y-10001957D02*
G75*
G02*
X17300751Y-10317251I-2189057J-1000773D01*
G01*
X15000000Y-13299950D02*
X14314729Y-13300200D01*
X15000000Y-8700050D02*
X14313701Y-8700300D01*
X12700300Y-10313701D02*
G75*
G02*
X14313701Y-8700300I2299700J-686299D01*
G01*
X14314729Y-13300200D02*
G75*
G02*
X12700046Y-11686051I685231J2300140D01*
G01*
X15000000Y-8700050D02*
X15685717Y-8700050D01*
X15685717Y-8700050D02*
G75*
G02*
X15999749Y-8818151I-685577J-2299530D01*
G01*
X17299950Y-11000000D02*
X17300750Y-10317251D01*
X17299950Y-11000000D02*
X17300500Y-11683747D01*
X15000000Y-13299950D02*
X15685549Y-13299950D01*
X12700050Y-11000000D02*
X12700300Y-10313701D01*
X17182507Y-10001957D02*
X15999750Y-8818150D01*
X12700050Y-11000000D02*
X12700050Y-11686050D01*
D11*
D12*
X12749750Y-11269750D02*
X12780250Y-11300250D01*
X12780250Y-11269750D02*
X12749750Y-11300250D01*
X12759750Y-10794750D02*
X12790250Y-10825250D01*
X12790250Y-10794750D02*
X12759750Y-10825250D01*
X12764750Y-11659750D02*
X12795250Y-11690250D01*
X12795250Y-11659750D02*
X12764750Y-11690250D01*
X12799750Y-11769750D02*
X12830250Y-11800250D01*
X12830250Y-11769750D02*
X12799750Y-11800250D01*
X12829800Y-11184650D02*
X12860300Y-11215150D01*
X12860300Y-11184650D02*
X12829800Y-11215150D01*
X12884750Y-10354750D02*
X12915250Y-10385250D01*
X12915250Y-10354750D02*
X12884750Y-10385250D01*
X12884750Y-11584750D02*
X12915250Y-11615250D01*
X12915250Y-11584750D02*
X12884750Y-11615250D01*
X12909750Y-10209750D02*
X12940250Y-10240250D01*
X12940250Y-10209750D02*
X12909750Y-10240250D01*
X12919750Y-11769750D02*
X12950250Y-11800250D01*
X12950250Y-11769750D02*
X12919750Y-11800250D01*
X12939750Y-10434750D02*
X12970250Y-10465250D01*
X12970250Y-10434750D02*
X12939750Y-10465250D01*
X12939750Y-10754750D02*
X12970250Y-10785250D01*
X12970250Y-10754750D02*
X12939750Y-10785250D01*
X12964750Y-10664750D02*
X12995250Y-10695250D01*
X12995250Y-10664750D02*
X12964750Y-10695250D01*
X12989750Y-11674750D02*
X13020250Y-11705250D01*
X13020250Y-11674750D02*
X12989750Y-11705250D01*
X12999750Y-10024750D02*
X13030250Y-10055250D01*
X13030250Y-10024750D02*
X12999750Y-10055250D01*
X13014750Y-11769750D02*
X13045250Y-11800250D01*
X13045250Y-11769750D02*
X13014750Y-11800250D01*
X13069750Y-12279750D02*
X13100250Y-12310250D01*
X13100250Y-12279750D02*
X13069750Y-12310250D01*
X13084750Y-9844750D02*
X13115250Y-9875250D01*
X13115250Y-9844750D02*
X13084750Y-9875250D01*
X13089750Y-11509750D02*
X13120250Y-11540250D01*
X13120250Y-11509750D02*
X13089750Y-11540250D01*
X13104750Y-10684750D02*
X13135250Y-10715250D01*
X13135250Y-10684750D02*
X13104750Y-10715250D01*
X13124750Y-11764750D02*
X13155250Y-11795250D01*
X13155250Y-11764750D02*
X13124750Y-11795250D01*
X13184750Y-10654750D02*
X13215250Y-10685250D01*
X13215250Y-10654750D02*
X13184750Y-10685250D01*
X13189750Y-11554750D02*
X13220250Y-11585250D01*
X13220250Y-11554750D02*
X13189750Y-11585250D01*
X13199750Y-12349750D02*
X13230250Y-12380250D01*
X13230250Y-12349750D02*
X13199750Y-12380250D01*
X13259750Y-11499750D02*
X13290250Y-11530250D01*
X13290250Y-11499750D02*
X13259750Y-11530250D01*
X13274750Y-11694750D02*
X13305250Y-11725250D01*
X13305250Y-11694750D02*
X13274750Y-11725250D01*
X13331750Y-9859750D02*
X13362250Y-9890250D01*
X13362250Y-9859750D02*
X13331750Y-9890250D01*
X13339750Y-12114750D02*
X13370250Y-12145250D01*
X13370250Y-12114750D02*
X13339750Y-12145250D01*
X13344750Y-12609750D02*
X13375250Y-12640250D01*
X13375250Y-12609750D02*
X13344750Y-12640250D01*
X13389650Y-9364750D02*
X13420150Y-9395250D01*
X13420150Y-9364750D02*
X13389650Y-9395250D01*
X13409750Y-10654750D02*
X13440250Y-10685250D01*
X13440250Y-10654750D02*
X13409750Y-10685250D01*
X13419750Y-10324750D02*
X13450250Y-10355250D01*
X13450250Y-10324750D02*
X13419750Y-10355250D01*
X13429750Y-12619750D02*
X13460250Y-12650250D01*
X13460250Y-12619750D02*
X13429750Y-12650250D01*
X13479750Y-9449750D02*
X13510250Y-9480250D01*
X13510250Y-9449750D02*
X13479750Y-9480250D01*
X13538650Y-11314650D02*
X13569150Y-11345150D01*
X13569150Y-11314650D02*
X13538650Y-11345150D01*
X13549750Y-12029750D02*
X13580250Y-12060250D01*
X13580250Y-12029750D02*
X13549750Y-12060250D01*
X13619750Y-11794750D02*
X13650250Y-11825250D01*
X13650250Y-11794750D02*
X13619750Y-11825250D01*
X13739750Y-9464750D02*
X13770250Y-9495250D01*
X13770250Y-9464750D02*
X13739750Y-9495250D01*
X13744750Y-11344750D02*
X13775250Y-11375250D01*
X13775250Y-11344750D02*
X13744750Y-11375250D01*
X13749750Y-9029750D02*
X13780250Y-9060250D01*
X13780250Y-9029750D02*
X13749750Y-9060250D01*
X13829750Y-11794750D02*
X13860250Y-11825250D01*
X13860250Y-11794750D02*
X13829750Y-11825250D01*
X13834750Y-10249750D02*
X13865250Y-10280250D01*
X13865250Y-10249750D02*
X13834750Y-10280250D01*
X13853755Y-10745745D02*
X13884255Y-10776245D01*
X13884255Y-10745745D02*
X13853755Y-10776245D01*
X13889750Y-12679750D02*
X13920250Y-12710250D01*
X13920250Y-12679750D02*
X13889750Y-12710250D01*
X13894750Y-12509750D02*
X13925250Y-12540250D01*
X13925250Y-12509750D02*
X13894750Y-12540250D01*
X13914750Y-10334750D02*
X13945250Y-10365250D01*
X13945250Y-10334750D02*
X13914750Y-10365250D01*
X13984750Y-12594750D02*
X14015250Y-12625250D01*
X14015250Y-12594750D02*
X13984750Y-12625250D01*
X13989750Y-12444750D02*
X14020250Y-12475250D01*
X14020250Y-12444750D02*
X13989750Y-12475250D01*
X13994750Y-12714750D02*
X14025250Y-12745250D01*
X14025250Y-12714750D02*
X13994750Y-12745250D01*
X14024750Y-9444750D02*
X14055250Y-9475250D01*
X14055250Y-9444750D02*
X14024750Y-9475250D01*
X14024750Y-11714750D02*
X14055250Y-11745250D01*
X14055250Y-11714750D02*
X14024750Y-11745250D01*
X14039750Y-8854750D02*
X14070250Y-8885250D01*
X14070250Y-8854750D02*
X14039750Y-8885250D01*
X14059750Y-13069750D02*
X14090250Y-13100250D01*
X14090250Y-13069750D02*
X14059750Y-13100250D01*
X14084750Y-9919750D02*
X14115250Y-9950250D01*
X14115250Y-9919750D02*
X14084750Y-9950250D01*
X14084750Y-11494750D02*
X14115250Y-11525250D01*
X14115250Y-11494750D02*
X14084750Y-11525250D01*
X14124700Y-11799850D02*
X14155200Y-11830350D01*
X14155200Y-11799850D02*
X14124700Y-11830350D01*
X14129800Y-12829800D02*
X14160300Y-12860300D01*
X14160300Y-12829800D02*
X14129800Y-12860300D01*
X14154700Y-12419350D02*
X14185200Y-12449850D01*
X14185200Y-12419350D02*
X14154700Y-12449850D01*
X14159750Y-9289750D02*
X14190250Y-9320250D01*
X14190250Y-9289750D02*
X14159750Y-9320250D01*
X14214750Y-11359750D02*
X14245250Y-11390250D01*
X14245250Y-11359750D02*
X14214750Y-11390250D01*
X14219750Y-11774750D02*
X14250250Y-11805250D01*
X14250250Y-11774750D02*
X14219750Y-11805250D01*
X14239750Y-10079750D02*
X14270250Y-10110250D01*
X14270250Y-10079750D02*
X14239750Y-10110250D01*
X14264750Y-9924750D02*
X14295250Y-9955250D01*
X14295250Y-9924750D02*
X14264750Y-9955250D01*
X14264750Y-11494750D02*
X14295250Y-11525250D01*
X14295250Y-11494750D02*
X14264750Y-11525250D01*
X14304750Y-8774750D02*
X14335250Y-8805250D01*
X14335250Y-8774750D02*
X14304750Y-8805250D01*
X14304750Y-13199750D02*
X14335250Y-13230250D01*
X14335250Y-13199750D02*
X14304750Y-13230250D01*
X14309750Y-13009750D02*
X14340250Y-13040250D01*
X14340250Y-13009750D02*
X14309750Y-13040250D01*
X14319750Y-9439750D02*
X14350250Y-9470250D01*
X14350250Y-9439750D02*
X14319750Y-9470250D01*
X14319750Y-12789750D02*
X14350250Y-12820250D01*
X14350250Y-12789750D02*
X14319750Y-12820250D01*
X14339750Y-10264750D02*
X14370250Y-10295250D01*
X14370250Y-10264750D02*
X14339750Y-10295250D01*
X14339750Y-11889750D02*
X14370250Y-11920250D01*
X14370250Y-11889750D02*
X14339750Y-11920250D01*
X14359750Y-13094750D02*
X14390250Y-13125250D01*
X14390250Y-13094750D02*
X14359750Y-13125250D01*
X14364750Y-11149750D02*
X14395250Y-11180250D01*
X14395250Y-11149750D02*
X14364750Y-11180250D01*
X14374750Y-11047250D02*
X14405250Y-11077750D01*
X14405250Y-11047250D02*
X14374750Y-11077750D01*
X14379750Y-10894750D02*
X14410250Y-10925250D01*
X14410250Y-10894750D02*
X14379750Y-10925250D01*
X14414750Y-12284750D02*
X14445250Y-12315250D01*
X14445250Y-12284750D02*
X14414750Y-12315250D01*
X14434750Y-9434750D02*
X14465250Y-9465250D01*
X14465250Y-9434750D02*
X14434750Y-9465250D01*
X14439750Y-12839750D02*
X14470250Y-12870250D01*
X14470250Y-12839750D02*
X14439750Y-12870250D01*
X14444750Y-11269750D02*
X14475250Y-11300250D01*
X14475250Y-11269750D02*
X14444750Y-11300250D01*
X14464750Y-11704750D02*
X14495250Y-11735250D01*
X14495250Y-11704750D02*
X14464750Y-11735250D01*
X14464750Y-12554750D02*
X14495250Y-12585250D01*
X14495250Y-12554750D02*
X14464750Y-12585250D01*
X14469750Y-12209750D02*
X14500250Y-12240250D01*
X14500250Y-12209750D02*
X14469750Y-12240250D01*
X14499750Y-10059750D02*
X14530250Y-10090250D01*
X14530250Y-10059750D02*
X14499750Y-10090250D01*
X14519750Y-9434750D02*
X14550250Y-9465250D01*
X14550250Y-9434750D02*
X14519750Y-9465250D01*
X14529750Y-8779750D02*
X14560250Y-8810250D01*
X14560250Y-8779750D02*
X14529750Y-8810250D01*
X14549750Y-8879750D02*
X14580250Y-8910250D01*
X14580250Y-8879750D02*
X14549750Y-8910250D01*
X14554750Y-10749750D02*
X14585250Y-10780250D01*
X14585250Y-10749750D02*
X14554750Y-10780250D01*
X14559750Y-11714750D02*
X14590250Y-11745250D01*
X14590250Y-11714750D02*
X14559750Y-11745250D01*
X14569750Y-10924750D02*
X14600250Y-10955250D01*
X14600250Y-10924750D02*
X14569750Y-10955250D01*
X14569750Y-11154750D02*
X14600250Y-11185250D01*
X14600250Y-11154750D02*
X14569750Y-11185250D01*
X14584750Y-9944750D02*
X14615250Y-9975250D01*
X14615250Y-9944750D02*
X14584750Y-9975250D01*
X14599750Y-11829750D02*
X14630250Y-11860250D01*
X14630250Y-11829750D02*
X14599750Y-11860250D01*
X14639750Y-9644750D02*
X14670250Y-9675250D01*
X14670250Y-9644750D02*
X14639750Y-9675250D01*
X14639750Y-10684750D02*
X14670250Y-10715250D01*
X14670250Y-10684750D02*
X14639750Y-10715250D01*
X14654750Y-12904750D02*
X14685250Y-12935250D01*
X14685250Y-12904750D02*
X14654750Y-12935250D01*
X14664750Y-11049750D02*
X14695250Y-11080250D01*
X14695250Y-11049750D02*
X14664750Y-11080250D01*
X14669750Y-11244750D02*
X14700250Y-11275250D01*
X14700250Y-11244750D02*
X14669750Y-11275250D01*
X14679750Y-10789750D02*
X14710250Y-10820250D01*
X14710250Y-10789750D02*
X14679750Y-10820250D01*
X14684750Y-10614750D02*
X14715250Y-10645250D01*
X14715250Y-10614750D02*
X14684750Y-10645250D01*
X14699750Y-10009750D02*
X14730250Y-10040250D01*
X14730250Y-10009750D02*
X14699750Y-10040250D01*
X14704750Y-9809750D02*
X14735250Y-9840250D01*
X14735250Y-9809750D02*
X14704750Y-9840250D01*
X14734750Y-12079750D02*
X14765250Y-12110250D01*
X14765250Y-12079750D02*
X14734750Y-12110250D01*
X14759750Y-10574750D02*
X14790250Y-10605250D01*
X14790250Y-10574750D02*
X14759750Y-10605250D01*
X14774750Y-13169750D02*
X14805250Y-13200250D01*
X14805250Y-13169750D02*
X14774750Y-13200250D01*
X14779750Y-9944750D02*
X14810250Y-9975250D01*
X14810250Y-9944750D02*
X14779750Y-9975250D01*
X14779750Y-12469750D02*
X14810250Y-12500250D01*
X14810250Y-12469750D02*
X14779750Y-12500250D01*
X14829750Y-12264750D02*
X14860250Y-12295250D01*
X14860250Y-12264750D02*
X14829750Y-12295250D01*
X14834750Y-8879750D02*
X14865250Y-8910250D01*
X14865250Y-8879750D02*
X14834750Y-8910250D01*
X14839750Y-10174750D02*
X14870250Y-10205250D01*
X14870250Y-10174750D02*
X14839750Y-10205250D01*
X14839750Y-10519750D02*
X14870250Y-10550250D01*
X14870250Y-10519750D02*
X14839750Y-10550250D01*
X14869750Y-9074750D02*
X14900250Y-9105250D01*
X14900250Y-9074750D02*
X14869750Y-9105250D01*
X14879750Y-10914750D02*
X14910250Y-10945250D01*
X14910250Y-10914750D02*
X14879750Y-10945250D01*
X14884750Y-11164750D02*
X14915250Y-11195250D01*
X14915250Y-11164750D02*
X14884750Y-11195250D01*
X14904750Y-10124750D02*
X14935250Y-10155250D01*
X14935250Y-10124750D02*
X14904750Y-10155250D01*
X14924750Y-12254750D02*
X14955250Y-12285250D01*
X14955250Y-12254750D02*
X14924750Y-12285250D01*
X14949700Y-10744700D02*
X14980200Y-10775200D01*
X14980200Y-10744700D02*
X14949700Y-10775200D01*
X14964750Y-11859750D02*
X14995250Y-11890250D01*
X14995250Y-11859750D02*
X14964750Y-11890250D01*
X14984750Y-12459750D02*
X15015250Y-12490250D01*
X15015250Y-12459750D02*
X14984750Y-12490250D01*
X14989750Y-10109750D02*
X15020250Y-10140250D01*
X15020250Y-10109750D02*
X14989750Y-10140250D01*
X15009750Y-12604750D02*
X15040250Y-12635250D01*
X15040250Y-12604750D02*
X15009750Y-12635250D01*
X15024750Y-9389750D02*
X15055250Y-9420250D01*
X15055250Y-9389750D02*
X15024750Y-9420250D01*
X15029700Y-10659650D02*
X15060200Y-10690150D01*
X15060200Y-10659650D02*
X15029700Y-10690150D01*
X15059750Y-10574750D02*
X15090250Y-10605250D01*
X15090250Y-10574750D02*
X15059750Y-10605250D01*
X15064750Y-10159750D02*
X15095250Y-10190250D01*
X15095250Y-10159750D02*
X15064750Y-10190250D01*
X15097250Y-11289750D02*
X15127750Y-11320250D01*
X15127750Y-11289750D02*
X15097250Y-11320250D01*
X15104750Y-10489750D02*
X15135250Y-10520250D01*
X15135250Y-10489750D02*
X15104750Y-10520250D01*
X15109750Y-12124750D02*
X15140250Y-12155250D01*
X15140250Y-12124750D02*
X15109750Y-12155250D01*
X15139750Y-9444750D02*
X15170250Y-9475250D01*
X15170250Y-9444750D02*
X15139750Y-9475250D01*
X15154750Y-10864750D02*
X15185250Y-10895250D01*
X15185250Y-10864750D02*
X15154750Y-10895250D01*
X15159750Y-11744750D02*
X15190250Y-11775250D01*
X15190250Y-11744750D02*
X15159750Y-11775250D01*
X15169750Y-11079750D02*
X15200250Y-11110250D01*
X15200250Y-11079750D02*
X15169750Y-11110250D01*
X15179750Y-8879750D02*
X15210250Y-8910250D01*
X15210250Y-8879750D02*
X15179750Y-8910250D01*
X15179750Y-13209750D02*
X15210250Y-13240250D01*
X15210250Y-13209750D02*
X15179750Y-13240250D01*
X15184750Y-13014750D02*
X15215250Y-13045250D01*
X15215250Y-13014750D02*
X15184750Y-13045250D01*
X15194750Y-13114750D02*
X15225250Y-13145250D01*
X15225250Y-13114750D02*
X15194750Y-13145250D01*
X15219750Y-11509750D02*
X15250250Y-11540250D01*
X15250250Y-11509750D02*
X15219750Y-11540250D01*
X15264650Y-9544800D02*
X15295150Y-9575300D01*
X15295150Y-9544800D02*
X15264650Y-9575300D01*
X15269750Y-12124700D02*
X15300250Y-12155200D01*
X15300250Y-12124700D02*
X15269750Y-12155200D01*
X15274375Y-12884750D02*
X15304875Y-12915250D01*
X15304875Y-12884750D02*
X15274375Y-12915250D01*
X15279750Y-9459750D02*
X15310250Y-9490250D01*
X15310250Y-9459750D02*
X15279750Y-9490250D01*
X15279750Y-9789750D02*
X15310250Y-9820250D01*
X15310250Y-9789750D02*
X15279750Y-9820250D01*
X15284750Y-11364750D02*
X15315250Y-11395250D01*
X15315250Y-11364750D02*
X15284750Y-11395250D01*
X15304750Y-10229750D02*
X15335250Y-10260250D01*
X15335250Y-10229750D02*
X15304750Y-10260250D01*
X15334750Y-9084750D02*
X15365250Y-9115250D01*
X15365250Y-9084750D02*
X15334750Y-9115250D01*
X15349750Y-11529750D02*
X15380250Y-11560250D01*
X15380250Y-11529750D02*
X15349750Y-11560250D01*
X15379750Y-12399750D02*
X15410250Y-12430250D01*
X15410250Y-12399750D02*
X15379750Y-12430250D01*
X15399750Y-9909750D02*
X15430250Y-9940250D01*
X15430250Y-9909750D02*
X15399750Y-9940250D01*
X15409750Y-10234750D02*
X15440250Y-10265250D01*
X15440250Y-10234750D02*
X15409750Y-10265250D01*
X15419750Y-9114750D02*
X15450250Y-9145250D01*
X15450250Y-9114750D02*
X15419750Y-9145250D01*
X15434750Y-13139750D02*
X15465250Y-13170250D01*
X15465250Y-13139750D02*
X15434750Y-13170250D01*
X15449750Y-11594750D02*
X15480250Y-11625250D01*
X15480250Y-11594750D02*
X15449750Y-11625250D01*
X15464750Y-10764750D02*
X15495250Y-10795250D01*
X15495250Y-10764750D02*
X15464750Y-10795250D01*
X15464750Y-11074750D02*
X15495250Y-11105250D01*
X15495250Y-11074750D02*
X15464750Y-11105250D01*
X15474750Y-12154750D02*
X15505250Y-12185250D01*
X15505250Y-12154750D02*
X15474750Y-12185250D01*
X15479750Y-9524750D02*
X15510250Y-9555250D01*
X15510250Y-9524750D02*
X15479750Y-9555250D01*
X15489750Y-10989750D02*
X15520250Y-11020250D01*
X15520250Y-10989750D02*
X15489750Y-11020250D01*
X15539750Y-13209750D02*
X15570250Y-13240250D01*
X15570250Y-13209750D02*
X15539750Y-13240250D01*
X15564750Y-9749750D02*
X15595250Y-9780250D01*
X15595250Y-9749750D02*
X15564750Y-9780250D01*
X15574750Y-9464750D02*
X15605250Y-9495250D01*
X15605250Y-9464750D02*
X15574750Y-9495250D01*
X15599750Y-9019750D02*
X15630250Y-9050250D01*
X15630250Y-9019750D02*
X15599750Y-9050250D01*
X15599750Y-13054750D02*
X15630250Y-13085250D01*
X15630250Y-13054750D02*
X15599750Y-13085250D01*
X15619750Y-10184750D02*
X15650250Y-10215250D01*
X15650250Y-10184750D02*
X15619750Y-10215250D01*
X15629750Y-11794750D02*
X15660250Y-11825250D01*
X15660250Y-11794750D02*
X15629750Y-11825250D01*
X15634750Y-11569750D02*
X15665250Y-11600250D01*
X15665250Y-11569750D02*
X15634750Y-11600250D01*
X15644750Y-9104750D02*
X15675250Y-9135250D01*
X15675250Y-9104750D02*
X15644750Y-9135250D01*
X15669750Y-13189750D02*
X15700250Y-13220250D01*
X15700250Y-13189750D02*
X15669750Y-13220250D01*
X15699750Y-10159750D02*
X15730250Y-10190250D01*
X15730250Y-10159750D02*
X15699750Y-10190250D01*
X15714750Y-11864750D02*
X15745250Y-11895250D01*
X15745250Y-11864750D02*
X15714750Y-11895250D01*
X15744750Y-11554750D02*
X15775250Y-11585250D01*
X15775250Y-11554750D02*
X15744750Y-11585250D01*
X15779750Y-9364750D02*
X15810250Y-9395250D01*
X15810250Y-9364750D02*
X15779750Y-9395250D01*
X15779750Y-13094750D02*
X15810250Y-13125250D01*
X15810250Y-13094750D02*
X15779750Y-13125250D01*
X15814750Y-11044750D02*
X15845250Y-11075250D01*
X15845250Y-11044750D02*
X15814750Y-11075250D01*
X15819750Y-9549750D02*
X15850250Y-9580250D01*
X15850250Y-9549750D02*
X15819750Y-9580250D01*
X15954750Y-10639750D02*
X15985250Y-10670250D01*
X15985250Y-10639750D02*
X15954750Y-10670250D01*
X15959750Y-10454750D02*
X15990250Y-10485250D01*
X15990250Y-10454750D02*
X15959750Y-10485250D01*
X15969750Y-8944750D02*
X16000250Y-8975250D01*
X16000250Y-8944750D02*
X15969750Y-8975250D01*
X15974750Y-10804750D02*
X16005250Y-10835250D01*
X16005250Y-10804750D02*
X15974750Y-10835250D01*
X15979750Y-10269750D02*
X16010250Y-10300250D01*
X16010250Y-10269750D02*
X15979750Y-10300250D01*
X16039750Y-9859750D02*
X16070250Y-9890250D01*
X16070250Y-9859750D02*
X16039750Y-9890250D01*
X16059750Y-10794750D02*
X16090250Y-10825250D01*
X16090250Y-10794750D02*
X16059750Y-10825250D01*
X16084750Y-9989750D02*
X16115250Y-10020250D01*
X16115250Y-9989750D02*
X16084750Y-10020250D01*
X16099750Y-9749750D02*
X16130250Y-9780250D01*
X16130250Y-9749750D02*
X16099750Y-9780250D01*
X16139550Y-9079750D02*
X16170050Y-9110250D01*
X16170050Y-9079750D02*
X16139550Y-9110250D01*
X16144750Y-11779750D02*
X16175250Y-11810250D01*
X16175250Y-11779750D02*
X16144750Y-11810250D01*
X16154750Y-11864750D02*
X16185250Y-11895250D01*
X16185250Y-11864750D02*
X16154750Y-11895250D01*
X16169750Y-9549750D02*
X16200250Y-9580250D01*
X16200250Y-9549750D02*
X16169750Y-9580250D01*
X16184750Y-9794750D02*
X16215250Y-9825250D01*
X16215250Y-9794750D02*
X16184750Y-9825250D01*
X16224750Y-10544750D02*
X16255250Y-10575250D01*
X16255250Y-10544750D02*
X16224750Y-10575250D01*
X16294750Y-10629750D02*
X16325250Y-10660250D01*
X16325250Y-10629750D02*
X16294750Y-10660250D01*
X16299750Y-11784750D02*
X16330250Y-11815250D01*
X16330250Y-11784750D02*
X16299750Y-11815250D01*
X16344750Y-9269750D02*
X16375250Y-9300250D01*
X16375250Y-9269750D02*
X16344750Y-9300250D01*
X16411900Y-11234750D02*
X16442400Y-11265250D01*
X16442400Y-11234750D02*
X16411900Y-11265250D01*
X16419750Y-10144750D02*
X16450250Y-10175250D01*
X16450250Y-10144750D02*
X16419750Y-10175250D01*
X16639750Y-11409750D02*
X16670250Y-11440250D01*
X16670250Y-11409750D02*
X16639750Y-11440250D01*
X16704750Y-10779750D02*
X16735250Y-10810250D01*
X16735250Y-10779750D02*
X16704750Y-10810250D01*
X16774250Y-10094750D02*
X16804750Y-10125250D01*
X16804750Y-10094750D02*
X16774250Y-10125250D01*
X16809750Y-11339750D02*
X16840250Y-11370250D01*
X16840250Y-11339750D02*
X16809750Y-11370250D01*
X16964750Y-10639750D02*
X16995250Y-10670250D01*
X16995250Y-10639750D02*
X16964750Y-10670250D01*
X16974850Y-10279650D02*
X17005350Y-10310150D01*
X17005350Y-10279650D02*
X16974850Y-10310150D01*
X16974850Y-10424650D02*
X17005350Y-10455150D01*
X17005350Y-10424650D02*
X16974850Y-10455150D01*
X17084750Y-10004750D02*
X17115250Y-10035250D01*
X17115250Y-10004750D02*
X17084750Y-10035250D01*
X17179750Y-11184750D02*
X17210250Y-11215250D01*
X17210250Y-11184750D02*
X17179750Y-11215250D01*
X17194750Y-10769750D02*
X17225250Y-10800250D01*
X17225250Y-10769750D02*
X17194750Y-10800250D01*
X17204750Y-10239750D02*
X17235250Y-10270250D01*
X17235250Y-10239750D02*
X17204750Y-10270250D01*
X17224750Y-10519750D02*
X17255250Y-10550250D01*
X17255250Y-10519750D02*
X17224750Y-10550250D01*
X12830000Y-10941000D02*
G75*
G02*
X12770000Y-10941000I-30000J0D01*
G01*
X12770000Y-10941000D02*
G75*
G02*
X12830000Y-10941000I30000J0D01*
G01*
X12830000Y-11069000D02*
G75*
G02*
X12770000Y-11069000I-30000J0D01*
G01*
X12770000Y-11069000D02*
G75*
G02*
X12830000Y-11069000I30000J0D01*
G01*
X13297500Y-9700000D02*
G75*
G02*
X13237500Y-9700000I-30000J0D01*
G01*
X13237500Y-9700000D02*
G75*
G02*
X13297500Y-9700000I30000J0D01*
G01*
X13422500Y-9700000D02*
G75*
G02*
X13362500Y-9700000I-30000J0D01*
G01*
X13362500Y-9700000D02*
G75*
G02*
X13422500Y-9700000I30000J0D01*
G01*
X13547500Y-9700000D02*
G75*
G02*
X13487500Y-9700000I-30000J0D01*
G01*
X13487500Y-9700000D02*
G75*
G02*
X13547500Y-9700000I30000J0D01*
G01*
X13672500Y-9700000D02*
G75*
G02*
X13612500Y-9700000I-30000J0D01*
G01*
X13612500Y-9700000D02*
G75*
G02*
X13672500Y-9700000I30000J0D01*
G01*
X13797500Y-9700000D02*
G75*
G02*
X13737500Y-9700000I-30000J0D01*
G01*
X13737500Y-9700000D02*
G75*
G02*
X13797500Y-9700000I30000J0D01*
G01*
X13922500Y-9700000D02*
G75*
G02*
X13862500Y-9700000I-30000J0D01*
G01*
X13862500Y-9700000D02*
G75*
G02*
X13922500Y-9700000I30000J0D01*
G01*
X14047500Y-9700000D02*
G75*
G02*
X13987500Y-9700000I-30000J0D01*
G01*
X13987500Y-9700000D02*
G75*
G02*
X14047500Y-9700000I30000J0D01*
G01*
X14172500Y-9700000D02*
G75*
G02*
X14112500Y-9700000I-30000J0D01*
G01*
X14112500Y-9700000D02*
G75*
G02*
X14172500Y-9700000I30000J0D01*
G01*
X14966000Y-8800000D02*
G75*
G02*
X14906000Y-8800000I-30000J0D01*
G01*
X14906000Y-8800000D02*
G75*
G02*
X14966000Y-8800000I30000J0D01*
G01*
X14966000Y-13200000D02*
G75*
G02*
X14906000Y-13200000I-30000J0D01*
G01*
X14906000Y-13200000D02*
G75*
G02*
X14966000Y-13200000I30000J0D01*
G01*
X15094000Y-8800000D02*
G75*
G02*
X15034000Y-8800000I-30000J0D01*
G01*
X15034000Y-8800000D02*
G75*
G02*
X15094000Y-8800000I30000J0D01*
G01*
X15094000Y-13200000D02*
G75*
G02*
X15034000Y-13200000I-30000J0D01*
G01*
X15034000Y-13200000D02*
G75*
G02*
X15094000Y-13200000I30000J0D01*
G01*
X17230000Y-10936000D02*
G75*
G02*
X17170000Y-10936000I-30000J0D01*
G01*
X17170000Y-10936000D02*
G75*
G02*
X17230000Y-10936000I30000J0D01*
G01*
X17230000Y-11064000D02*
G75*
G02*
X17170000Y-11064000I-30000J0D01*
G01*
X17170000Y-11064000D02*
G75*
G02*
X17230000Y-11064000I30000J0D01*
G01*
X13622550Y-9320000D02*
X13622550Y-9390000D01*
X13587550Y-9355000D02*
X13657550Y-9355000D01*
X13751600Y-9320000D02*
X13751600Y-9390000D01*
X13716600Y-9355000D02*
X13786600Y-9355000D01*
X13872500Y-9320000D02*
X13872500Y-9390000D01*
X13837500Y-9355000D02*
X13907500Y-9355000D01*
X13997450Y-9320000D02*
X13997450Y-9390000D01*
X13962450Y-9355000D02*
X14032450Y-9355000D01*
X14297550Y-11955000D02*
X14297550Y-12025000D01*
X14262550Y-11990000D02*
X14332550Y-11990000D01*
X14422500Y-11955000D02*
X14422500Y-12025000D01*
X14387500Y-11990000D02*
X14457500Y-11990000D01*
X14543400Y-11955000D02*
X14543400Y-12025000D01*
X14508400Y-11990000D02*
X14578400Y-11990000D01*
X14672450Y-11955000D02*
X14672450Y-12025000D01*
X14637450Y-11990000D02*
X14707450Y-11990000D01*
X15032550Y-11950000D02*
X15032550Y-12020000D01*
X14997550Y-11985000D02*
X15067550Y-11985000D01*
X15157500Y-11950000D02*
X15157500Y-12020000D01*
X15122500Y-11985000D02*
X15192500Y-11985000D01*
X15278400Y-11950000D02*
X15278400Y-12020000D01*
X15243400Y-11985000D02*
X15313400Y-11985000D01*
X15407450Y-11950000D02*
X15407450Y-12020000D01*
X15372450Y-11985000D02*
X15442450Y-11985000D01*
X15725000Y-10577550D02*
X15725000Y-10647550D01*
X15690000Y-10612550D02*
X15760000Y-10612550D01*
X15725000Y-10706600D02*
X15725000Y-10776600D01*
X15690000Y-10741600D02*
X15760000Y-10741600D01*
X15725000Y-10827500D02*
X15725000Y-10897500D01*
X15690000Y-10862500D02*
X15760000Y-10862500D01*
X15725000Y-10952450D02*
X15725000Y-11022450D01*
X15690000Y-10987450D02*
X15760000Y-10987450D01*
D13*
X16250427Y-10962427D02*
X16250427Y-10877573D01*
X16165573Y-10877573D01*
X16165573Y-10962427D01*
X16250427Y-10962427D01*
X16504427Y-10962427D02*
X16504427Y-10877573D01*
X16419573Y-10877573D01*
X16419573Y-10962427D01*
X16504427Y-10962427D01*
D11*
X12953327Y-13619184D02*
X12953327Y-13419184D01*
X12953327Y-13419184D02*
X13000946Y-13419184D01*
X13000946Y-13419184D02*
X13029517Y-13428708D01*
X13029517Y-13428708D02*
X13048565Y-13447755D01*
X13048565Y-13447755D02*
X13058089Y-13466803D01*
X13058089Y-13466803D02*
X13067612Y-13504898D01*
X13067612Y-13504898D02*
X13067612Y-13533470D01*
X13067612Y-13533470D02*
X13058089Y-13571565D01*
X13058089Y-13571565D02*
X13048565Y-13590613D01*
X13048565Y-13590613D02*
X13029517Y-13609660D01*
X13029517Y-13609660D02*
X13000946Y-13619184D01*
X13000946Y-13619184D02*
X12953327Y-13619184D01*
X13153327Y-13619184D02*
X13153327Y-13485851D01*
X13153327Y-13523946D02*
X13162851Y-13504898D01*
X13162851Y-13504898D02*
X13172374Y-13495374D01*
X13172374Y-13495374D02*
X13191422Y-13485851D01*
X13191422Y-13485851D02*
X13210470Y-13485851D01*
X13277136Y-13619184D02*
X13277136Y-13485851D01*
X13277136Y-13419184D02*
X13267612Y-13428708D01*
X13267612Y-13428708D02*
X13277136Y-13438232D01*
X13277136Y-13438232D02*
X13286660Y-13428708D01*
X13286660Y-13428708D02*
X13277136Y-13419184D01*
X13277136Y-13419184D02*
X13277136Y-13438232D01*
X13400946Y-13619184D02*
X13381898Y-13609660D01*
X13381898Y-13609660D02*
X13372374Y-13590613D01*
X13372374Y-13590613D02*
X13372374Y-13419184D01*
X13505708Y-13619184D02*
X13486660Y-13609660D01*
X13486660Y-13609660D02*
X13477136Y-13590613D01*
X13477136Y-13590613D02*
X13477136Y-13419184D01*
X13734279Y-13619184D02*
X13734279Y-13419184D01*
X13734279Y-13419184D02*
X13800946Y-13562041D01*
X13800946Y-13562041D02*
X13867612Y-13419184D01*
X13867612Y-13419184D02*
X13867612Y-13619184D01*
X14048565Y-13619184D02*
X14048565Y-13514422D01*
X14048565Y-13514422D02*
X14039041Y-13495374D01*
X14039041Y-13495374D02*
X14019993Y-13485851D01*
X14019993Y-13485851D02*
X13981898Y-13485851D01*
X13981898Y-13485851D02*
X13962851Y-13495374D01*
X14048565Y-13609660D02*
X14029517Y-13619184D01*
X14029517Y-13619184D02*
X13981898Y-13619184D01*
X13981898Y-13619184D02*
X13962851Y-13609660D01*
X13962851Y-13609660D02*
X13953327Y-13590613D01*
X13953327Y-13590613D02*
X13953327Y-13571565D01*
X13953327Y-13571565D02*
X13962851Y-13552517D01*
X13962851Y-13552517D02*
X13981898Y-13542994D01*
X13981898Y-13542994D02*
X14029517Y-13542994D01*
X14029517Y-13542994D02*
X14048565Y-13533470D01*
X14143803Y-13485851D02*
X14143803Y-13685851D01*
X14143803Y-13495374D02*
X14162851Y-13485851D01*
X14162851Y-13485851D02*
X14200946Y-13485851D01*
X14200946Y-13485851D02*
X14219993Y-13495374D01*
X14219993Y-13495374D02*
X14229517Y-13504898D01*
X14229517Y-13504898D02*
X14239041Y-13523946D01*
X14239041Y-13523946D02*
X14239041Y-13581089D01*
X14239041Y-13581089D02*
X14229517Y-13600136D01*
X14229517Y-13600136D02*
X14219993Y-13609660D01*
X14219993Y-13609660D02*
X14200946Y-13619184D01*
X14200946Y-13619184D02*
X14162851Y-13619184D01*
X14162851Y-13619184D02*
X14143803Y-13609660D01*
X14324755Y-13600136D02*
X14334279Y-13609660D01*
X14334279Y-13609660D02*
X14324755Y-13619184D01*
X14324755Y-13619184D02*
X14315232Y-13609660D01*
X14315232Y-13609660D02*
X14324755Y-13600136D01*
X14324755Y-13600136D02*
X14324755Y-13619184D01*
X14324755Y-13495374D02*
X14334279Y-13504898D01*
X14334279Y-13504898D02*
X14324755Y-13514422D01*
X14324755Y-13514422D02*
X14315232Y-13504898D01*
X14315232Y-13504898D02*
X14324755Y-13495374D01*
X14324755Y-13495374D02*
X14324755Y-13514422D01*
D12*
X12662050Y-13932450D02*
X12692550Y-13962950D01*
X12692550Y-13932450D02*
X12662050Y-13962950D01*
D11*
X12991422Y-13839184D02*
X13010470Y-13839184D01*
X13010470Y-13839184D02*
X13029517Y-13848708D01*
X13029517Y-13848708D02*
X13039041Y-13858232D01*
X13039041Y-13858232D02*
X13048565Y-13877279D01*
X13048565Y-13877279D02*
X13058089Y-13915374D01*
X13058089Y-13915374D02*
X13058089Y-13962994D01*
X13058089Y-13962994D02*
X13048565Y-14001089D01*
X13048565Y-14001089D02*
X13039041Y-14020136D01*
X13039041Y-14020136D02*
X13029517Y-14029660D01*
X13029517Y-14029660D02*
X13010470Y-14039184D01*
X13010470Y-14039184D02*
X12991422Y-14039184D01*
X12991422Y-14039184D02*
X12972374Y-14029660D01*
X12972374Y-14029660D02*
X12962851Y-14020136D01*
X12962851Y-14020136D02*
X12953327Y-14001089D01*
X12953327Y-14001089D02*
X12943803Y-13962994D01*
X12943803Y-13962994D02*
X12943803Y-13915374D01*
X12943803Y-13915374D02*
X12953327Y-13877279D01*
X12953327Y-13877279D02*
X12962851Y-13858232D01*
X12962851Y-13858232D02*
X12972374Y-13848708D01*
X12972374Y-13848708D02*
X12991422Y-13839184D01*
X13143803Y-14020136D02*
X13153327Y-14029660D01*
X13153327Y-14029660D02*
X13143803Y-14039184D01*
X13143803Y-14039184D02*
X13134279Y-14029660D01*
X13134279Y-14029660D02*
X13143803Y-14020136D01*
X13143803Y-14020136D02*
X13143803Y-14039184D01*
X13219993Y-13839184D02*
X13343803Y-13839184D01*
X13343803Y-13839184D02*
X13277136Y-13915374D01*
X13277136Y-13915374D02*
X13305708Y-13915374D01*
X13305708Y-13915374D02*
X13324755Y-13924898D01*
X13324755Y-13924898D02*
X13334279Y-13934422D01*
X13334279Y-13934422D02*
X13343803Y-13953470D01*
X13343803Y-13953470D02*
X13343803Y-14001089D01*
X13343803Y-14001089D02*
X13334279Y-14020136D01*
X13334279Y-14020136D02*
X13324755Y-14029660D01*
X13324755Y-14029660D02*
X13305708Y-14039184D01*
X13305708Y-14039184D02*
X13248565Y-14039184D01*
X13248565Y-14039184D02*
X13229517Y-14029660D01*
X13229517Y-14029660D02*
X13219993Y-14020136D01*
X13467612Y-13839184D02*
X13486660Y-13839184D01*
X13486660Y-13839184D02*
X13505708Y-13848708D01*
X13505708Y-13848708D02*
X13515232Y-13858232D01*
X13515232Y-13858232D02*
X13524755Y-13877279D01*
X13524755Y-13877279D02*
X13534279Y-13915374D01*
X13534279Y-13915374D02*
X13534279Y-13962994D01*
X13534279Y-13962994D02*
X13524755Y-14001089D01*
X13524755Y-14001089D02*
X13515232Y-14020136D01*
X13515232Y-14020136D02*
X13505708Y-14029660D01*
X13505708Y-14029660D02*
X13486660Y-14039184D01*
X13486660Y-14039184D02*
X13467612Y-14039184D01*
X13467612Y-14039184D02*
X13448565Y-14029660D01*
X13448565Y-14029660D02*
X13439041Y-14020136D01*
X13439041Y-14020136D02*
X13429517Y-14001089D01*
X13429517Y-14001089D02*
X13419993Y-13962994D01*
X13419993Y-13962994D02*
X13419993Y-13915374D01*
X13419993Y-13915374D02*
X13429517Y-13877279D01*
X13429517Y-13877279D02*
X13439041Y-13858232D01*
X13439041Y-13858232D02*
X13448565Y-13848708D01*
X13448565Y-13848708D02*
X13467612Y-13839184D01*
X13715232Y-13839184D02*
X13619993Y-13839184D01*
X13619993Y-13839184D02*
X13610470Y-13934422D01*
X13610470Y-13934422D02*
X13619993Y-13924898D01*
X13619993Y-13924898D02*
X13639041Y-13915374D01*
X13639041Y-13915374D02*
X13686660Y-13915374D01*
X13686660Y-13915374D02*
X13705708Y-13924898D01*
X13705708Y-13924898D02*
X13715232Y-13934422D01*
X13715232Y-13934422D02*
X13724755Y-13953470D01*
X13724755Y-13953470D02*
X13724755Y-14001089D01*
X13724755Y-14001089D02*
X13715232Y-14020136D01*
X13715232Y-14020136D02*
X13705708Y-14029660D01*
X13705708Y-14029660D02*
X13686660Y-14039184D01*
X13686660Y-14039184D02*
X13639041Y-14039184D01*
X13639041Y-14039184D02*
X13619993Y-14029660D01*
X13619993Y-14029660D02*
X13610470Y-14020136D01*
X13810470Y-14039184D02*
X13810470Y-13905851D01*
X13810470Y-13924898D02*
X13819993Y-13915374D01*
X13819993Y-13915374D02*
X13839041Y-13905851D01*
X13839041Y-13905851D02*
X13867613Y-13905851D01*
X13867613Y-13905851D02*
X13886660Y-13915374D01*
X13886660Y-13915374D02*
X13896184Y-13934422D01*
X13896184Y-13934422D02*
X13896184Y-14039184D01*
X13896184Y-13934422D02*
X13905708Y-13915374D01*
X13905708Y-13915374D02*
X13924755Y-13905851D01*
X13924755Y-13905851D02*
X13953327Y-13905851D01*
X13953327Y-13905851D02*
X13972374Y-13915374D01*
X13972374Y-13915374D02*
X13981898Y-13934422D01*
X13981898Y-13934422D02*
X13981898Y-14039184D01*
X14077136Y-14039184D02*
X14077136Y-13905851D01*
X14077136Y-13924898D02*
X14086660Y-13915374D01*
X14086660Y-13915374D02*
X14105708Y-13905851D01*
X14105708Y-13905851D02*
X14134279Y-13905851D01*
X14134279Y-13905851D02*
X14153327Y-13915374D01*
X14153327Y-13915374D02*
X14162851Y-13934422D01*
X14162851Y-13934422D02*
X14162851Y-14039184D01*
X14162851Y-13934422D02*
X14172374Y-13915374D01*
X14172374Y-13915374D02*
X14191422Y-13905851D01*
X14191422Y-13905851D02*
X14219993Y-13905851D01*
X14219993Y-13905851D02*
X14239041Y-13915374D01*
X14239041Y-13915374D02*
X14248565Y-13934422D01*
X14248565Y-13934422D02*
X14248565Y-14039184D01*
X14639041Y-13829660D02*
X14467613Y-14086803D01*
X14896184Y-13839184D02*
X14915232Y-13839184D01*
X14915232Y-13839184D02*
X14934279Y-13848708D01*
X14934279Y-13848708D02*
X14943803Y-13858232D01*
X14943803Y-13858232D02*
X14953327Y-13877279D01*
X14953327Y-13877279D02*
X14962851Y-13915374D01*
X14962851Y-13915374D02*
X14962851Y-13962994D01*
X14962851Y-13962994D02*
X14953327Y-14001089D01*
X14953327Y-14001089D02*
X14943803Y-14020136D01*
X14943803Y-14020136D02*
X14934279Y-14029660D01*
X14934279Y-14029660D02*
X14915232Y-14039184D01*
X14915232Y-14039184D02*
X14896184Y-14039184D01*
X14896184Y-14039184D02*
X14877136Y-14029660D01*
X14877136Y-14029660D02*
X14867613Y-14020136D01*
X14867613Y-14020136D02*
X14858089Y-14001089D01*
X14858089Y-14001089D02*
X14848565Y-13962994D01*
X14848565Y-13962994D02*
X14848565Y-13915374D01*
X14848565Y-13915374D02*
X14858089Y-13877279D01*
X14858089Y-13877279D02*
X14867613Y-13858232D01*
X14867613Y-13858232D02*
X14877136Y-13848708D01*
X14877136Y-13848708D02*
X14896184Y-13839184D01*
X15048565Y-14020136D02*
X15058089Y-14029660D01*
X15058089Y-14029660D02*
X15048565Y-14039184D01*
X15048565Y-14039184D02*
X15039041Y-14029660D01*
X15039041Y-14029660D02*
X15048565Y-14020136D01*
X15048565Y-14020136D02*
X15048565Y-14039184D01*
X15181898Y-13839184D02*
X15200946Y-13839184D01*
X15200946Y-13839184D02*
X15219994Y-13848708D01*
X15219994Y-13848708D02*
X15229517Y-13858232D01*
X15229517Y-13858232D02*
X15239041Y-13877279D01*
X15239041Y-13877279D02*
X15248565Y-13915374D01*
X15248565Y-13915374D02*
X15248565Y-13962994D01*
X15248565Y-13962994D02*
X15239041Y-14001089D01*
X15239041Y-14001089D02*
X15229517Y-14020136D01*
X15229517Y-14020136D02*
X15219994Y-14029660D01*
X15219994Y-14029660D02*
X15200946Y-14039184D01*
X15200946Y-14039184D02*
X15181898Y-14039184D01*
X15181898Y-14039184D02*
X15162851Y-14029660D01*
X15162851Y-14029660D02*
X15153327Y-14020136D01*
X15153327Y-14020136D02*
X15143803Y-14001089D01*
X15143803Y-14001089D02*
X15134279Y-13962994D01*
X15134279Y-13962994D02*
X15134279Y-13915374D01*
X15134279Y-13915374D02*
X15143803Y-13877279D01*
X15143803Y-13877279D02*
X15153327Y-13858232D01*
X15153327Y-13858232D02*
X15162851Y-13848708D01*
X15162851Y-13848708D02*
X15181898Y-13839184D01*
X15439041Y-14039184D02*
X15324756Y-14039184D01*
X15381898Y-14039184D02*
X15381898Y-13839184D01*
X15381898Y-13839184D02*
X15362851Y-13867755D01*
X15362851Y-13867755D02*
X15343803Y-13886803D01*
X15343803Y-13886803D02*
X15324756Y-13896327D01*
X15515232Y-13858232D02*
X15524756Y-13848708D01*
X15524756Y-13848708D02*
X15543803Y-13839184D01*
X15543803Y-13839184D02*
X15591422Y-13839184D01*
X15591422Y-13839184D02*
X15610470Y-13848708D01*
X15610470Y-13848708D02*
X15619994Y-13858232D01*
X15619994Y-13858232D02*
X15629517Y-13877279D01*
X15629517Y-13877279D02*
X15629517Y-13896327D01*
X15629517Y-13896327D02*
X15619994Y-13924898D01*
X15619994Y-13924898D02*
X15505708Y-14039184D01*
X15505708Y-14039184D02*
X15629517Y-14039184D01*
X15753327Y-13839184D02*
X15772375Y-13839184D01*
X15772375Y-13839184D02*
X15791422Y-13848708D01*
X15791422Y-13848708D02*
X15800946Y-13858232D01*
X15800946Y-13858232D02*
X15810470Y-13877279D01*
X15810470Y-13877279D02*
X15819994Y-13915374D01*
X15819994Y-13915374D02*
X15819994Y-13962994D01*
X15819994Y-13962994D02*
X15810470Y-14001089D01*
X15810470Y-14001089D02*
X15800946Y-14020136D01*
X15800946Y-14020136D02*
X15791422Y-14029660D01*
X15791422Y-14029660D02*
X15772375Y-14039184D01*
X15772375Y-14039184D02*
X15753327Y-14039184D01*
X15753327Y-14039184D02*
X15734279Y-14029660D01*
X15734279Y-14029660D02*
X15724756Y-14020136D01*
X15724756Y-14020136D02*
X15715232Y-14001089D01*
X15715232Y-14001089D02*
X15705708Y-13962994D01*
X15705708Y-13962994D02*
X15705708Y-13915374D01*
X15705708Y-13915374D02*
X15715232Y-13877279D01*
X15715232Y-13877279D02*
X15724756Y-13858232D01*
X15724756Y-13858232D02*
X15734279Y-13848708D01*
X15734279Y-13848708D02*
X15753327Y-13839184D01*
X15896184Y-13839184D02*
X15896184Y-13877279D01*
X15972375Y-13839184D02*
X15972375Y-13877279D01*
X16267613Y-14115374D02*
X16258089Y-14105851D01*
X16258089Y-14105851D02*
X16239041Y-14077279D01*
X16239041Y-14077279D02*
X16229518Y-14058232D01*
X16229518Y-14058232D02*
X16219994Y-14029660D01*
X16219994Y-14029660D02*
X16210470Y-13982041D01*
X16210470Y-13982041D02*
X16210470Y-13943946D01*
X16210470Y-13943946D02*
X16219994Y-13896327D01*
X16219994Y-13896327D02*
X16229518Y-13867755D01*
X16229518Y-13867755D02*
X16239041Y-13848708D01*
X16239041Y-13848708D02*
X16258089Y-13820136D01*
X16258089Y-13820136D02*
X16267613Y-13810613D01*
X16334279Y-13858232D02*
X16343803Y-13848708D01*
X16343803Y-13848708D02*
X16362851Y-13839184D01*
X16362851Y-13839184D02*
X16410470Y-13839184D01*
X16410470Y-13839184D02*
X16429518Y-13848708D01*
X16429518Y-13848708D02*
X16439041Y-13858232D01*
X16439041Y-13858232D02*
X16448565Y-13877279D01*
X16448565Y-13877279D02*
X16448565Y-13896327D01*
X16448565Y-13896327D02*
X16439041Y-13924898D01*
X16439041Y-13924898D02*
X16324756Y-14039184D01*
X16324756Y-14039184D02*
X16448565Y-14039184D01*
X16572375Y-13839184D02*
X16591422Y-13839184D01*
X16591422Y-13839184D02*
X16610470Y-13848708D01*
X16610470Y-13848708D02*
X16619994Y-13858232D01*
X16619994Y-13858232D02*
X16629518Y-13877279D01*
X16629518Y-13877279D02*
X16639041Y-13915374D01*
X16639041Y-13915374D02*
X16639041Y-13962994D01*
X16639041Y-13962994D02*
X16629518Y-14001089D01*
X16629518Y-14001089D02*
X16619994Y-14020136D01*
X16619994Y-14020136D02*
X16610470Y-14029660D01*
X16610470Y-14029660D02*
X16591422Y-14039184D01*
X16591422Y-14039184D02*
X16572375Y-14039184D01*
X16572375Y-14039184D02*
X16553327Y-14029660D01*
X16553327Y-14029660D02*
X16543803Y-14020136D01*
X16543803Y-14020136D02*
X16534279Y-14001089D01*
X16534279Y-14001089D02*
X16524756Y-13962994D01*
X16524756Y-13962994D02*
X16524756Y-13915374D01*
X16524756Y-13915374D02*
X16534279Y-13877279D01*
X16534279Y-13877279D02*
X16543803Y-13858232D01*
X16543803Y-13858232D02*
X16553327Y-13848708D01*
X16553327Y-13848708D02*
X16572375Y-13839184D01*
X16810470Y-13905851D02*
X16810470Y-14039184D01*
X16762851Y-13829660D02*
X16715232Y-13972517D01*
X16715232Y-13972517D02*
X16839041Y-13972517D01*
X17067613Y-14039184D02*
X17067613Y-13839184D01*
X17153327Y-14039184D02*
X17153327Y-13934422D01*
X17153327Y-13934422D02*
X17143803Y-13915374D01*
X17143803Y-13915374D02*
X17124756Y-13905851D01*
X17124756Y-13905851D02*
X17096184Y-13905851D01*
X17096184Y-13905851D02*
X17077137Y-13915374D01*
X17077137Y-13915374D02*
X17067613Y-13924898D01*
X17277137Y-14039184D02*
X17258089Y-14029660D01*
X17258089Y-14029660D02*
X17248565Y-14020136D01*
X17248565Y-14020136D02*
X17239042Y-14001089D01*
X17239042Y-14001089D02*
X17239042Y-13943946D01*
X17239042Y-13943946D02*
X17248565Y-13924898D01*
X17248565Y-13924898D02*
X17258089Y-13915374D01*
X17258089Y-13915374D02*
X17277137Y-13905851D01*
X17277137Y-13905851D02*
X17305708Y-13905851D01*
X17305708Y-13905851D02*
X17324756Y-13915374D01*
X17324756Y-13915374D02*
X17334280Y-13924898D01*
X17334280Y-13924898D02*
X17343803Y-13943946D01*
X17343803Y-13943946D02*
X17343803Y-14001089D01*
X17343803Y-14001089D02*
X17334280Y-14020136D01*
X17334280Y-14020136D02*
X17324756Y-14029660D01*
X17324756Y-14029660D02*
X17305708Y-14039184D01*
X17305708Y-14039184D02*
X17277137Y-14039184D01*
X17458089Y-14039184D02*
X17439042Y-14029660D01*
X17439042Y-14029660D02*
X17429518Y-14010613D01*
X17429518Y-14010613D02*
X17429518Y-13839184D01*
X17610470Y-14029660D02*
X17591423Y-14039184D01*
X17591423Y-14039184D02*
X17553327Y-14039184D01*
X17553327Y-14039184D02*
X17534280Y-14029660D01*
X17534280Y-14029660D02*
X17524756Y-14010613D01*
X17524756Y-14010613D02*
X17524756Y-13934422D01*
X17524756Y-13934422D02*
X17534280Y-13915374D01*
X17534280Y-13915374D02*
X17553327Y-13905851D01*
X17553327Y-13905851D02*
X17591423Y-13905851D01*
X17591423Y-13905851D02*
X17610470Y-13915374D01*
X17610470Y-13915374D02*
X17619994Y-13934422D01*
X17619994Y-13934422D02*
X17619994Y-13953470D01*
X17619994Y-13953470D02*
X17524756Y-13972517D01*
X17696184Y-14029660D02*
X17715232Y-14039184D01*
X17715232Y-14039184D02*
X17753327Y-14039184D01*
X17753327Y-14039184D02*
X17772375Y-14029660D01*
X17772375Y-14029660D02*
X17781899Y-14010613D01*
X17781899Y-14010613D02*
X17781899Y-14001089D01*
X17781899Y-14001089D02*
X17772375Y-13982041D01*
X17772375Y-13982041D02*
X17753327Y-13972517D01*
X17753327Y-13972517D02*
X17724756Y-13972517D01*
X17724756Y-13972517D02*
X17705708Y-13962994D01*
X17705708Y-13962994D02*
X17696184Y-13943946D01*
X17696184Y-13943946D02*
X17696184Y-13934422D01*
X17696184Y-13934422D02*
X17705708Y-13915374D01*
X17705708Y-13915374D02*
X17724756Y-13905851D01*
X17724756Y-13905851D02*
X17753327Y-13905851D01*
X17753327Y-13905851D02*
X17772375Y-13915374D01*
X17848565Y-14115374D02*
X17858089Y-14105851D01*
X17858089Y-14105851D02*
X17877137Y-14077279D01*
X17877137Y-14077279D02*
X17886661Y-14058232D01*
X17886661Y-14058232D02*
X17896184Y-14029660D01*
X17896184Y-14029660D02*
X17905708Y-13982041D01*
X17905708Y-13982041D02*
X17905708Y-13943946D01*
X17905708Y-13943946D02*
X17896184Y-13896327D01*
X17896184Y-13896327D02*
X17886661Y-13867755D01*
X17886661Y-13867755D02*
X17877137Y-13848708D01*
X17877137Y-13848708D02*
X17858089Y-13820136D01*
X17858089Y-13820136D02*
X17848565Y-13810613D01*
D12*
X12692550Y-14211700D02*
G75*
G02*
X12632550Y-14211700I-30000J0D01*
G01*
X12632550Y-14211700D02*
G75*
G02*
X12692550Y-14211700I30000J0D01*
G01*
D11*
X12991422Y-14103184D02*
X13010470Y-14103184D01*
X13010470Y-14103184D02*
X13029517Y-14112708D01*
X13029517Y-14112708D02*
X13039041Y-14122232D01*
X13039041Y-14122232D02*
X13048565Y-14141279D01*
X13048565Y-14141279D02*
X13058089Y-14179374D01*
X13058089Y-14179374D02*
X13058089Y-14226994D01*
X13058089Y-14226994D02*
X13048565Y-14265089D01*
X13048565Y-14265089D02*
X13039041Y-14284136D01*
X13039041Y-14284136D02*
X13029517Y-14293660D01*
X13029517Y-14293660D02*
X13010470Y-14303184D01*
X13010470Y-14303184D02*
X12991422Y-14303184D01*
X12991422Y-14303184D02*
X12972374Y-14293660D01*
X12972374Y-14293660D02*
X12962851Y-14284136D01*
X12962851Y-14284136D02*
X12953327Y-14265089D01*
X12953327Y-14265089D02*
X12943803Y-14226994D01*
X12943803Y-14226994D02*
X12943803Y-14179374D01*
X12943803Y-14179374D02*
X12953327Y-14141279D01*
X12953327Y-14141279D02*
X12962851Y-14122232D01*
X12962851Y-14122232D02*
X12972374Y-14112708D01*
X12972374Y-14112708D02*
X12991422Y-14103184D01*
X13143803Y-14284136D02*
X13153327Y-14293660D01*
X13153327Y-14293660D02*
X13143803Y-14303184D01*
X13143803Y-14303184D02*
X13134279Y-14293660D01*
X13134279Y-14293660D02*
X13143803Y-14284136D01*
X13143803Y-14284136D02*
X13143803Y-14303184D01*
X13324755Y-14103184D02*
X13286660Y-14103184D01*
X13286660Y-14103184D02*
X13267612Y-14112708D01*
X13267612Y-14112708D02*
X13258089Y-14122232D01*
X13258089Y-14122232D02*
X13239041Y-14150803D01*
X13239041Y-14150803D02*
X13229517Y-14188898D01*
X13229517Y-14188898D02*
X13229517Y-14265089D01*
X13229517Y-14265089D02*
X13239041Y-14284136D01*
X13239041Y-14284136D02*
X13248565Y-14293660D01*
X13248565Y-14293660D02*
X13267612Y-14303184D01*
X13267612Y-14303184D02*
X13305708Y-14303184D01*
X13305708Y-14303184D02*
X13324755Y-14293660D01*
X13324755Y-14293660D02*
X13334279Y-14284136D01*
X13334279Y-14284136D02*
X13343803Y-14265089D01*
X13343803Y-14265089D02*
X13343803Y-14217470D01*
X13343803Y-14217470D02*
X13334279Y-14198422D01*
X13334279Y-14198422D02*
X13324755Y-14188898D01*
X13324755Y-14188898D02*
X13305708Y-14179374D01*
X13305708Y-14179374D02*
X13267612Y-14179374D01*
X13267612Y-14179374D02*
X13248565Y-14188898D01*
X13248565Y-14188898D02*
X13239041Y-14198422D01*
X13239041Y-14198422D02*
X13229517Y-14217470D01*
X13467612Y-14103184D02*
X13486660Y-14103184D01*
X13486660Y-14103184D02*
X13505708Y-14112708D01*
X13505708Y-14112708D02*
X13515232Y-14122232D01*
X13515232Y-14122232D02*
X13524755Y-14141279D01*
X13524755Y-14141279D02*
X13534279Y-14179374D01*
X13534279Y-14179374D02*
X13534279Y-14226994D01*
X13534279Y-14226994D02*
X13524755Y-14265089D01*
X13524755Y-14265089D02*
X13515232Y-14284136D01*
X13515232Y-14284136D02*
X13505708Y-14293660D01*
X13505708Y-14293660D02*
X13486660Y-14303184D01*
X13486660Y-14303184D02*
X13467612Y-14303184D01*
X13467612Y-14303184D02*
X13448565Y-14293660D01*
X13448565Y-14293660D02*
X13439041Y-14284136D01*
X13439041Y-14284136D02*
X13429517Y-14265089D01*
X13429517Y-14265089D02*
X13419993Y-14226994D01*
X13419993Y-14226994D02*
X13419993Y-14179374D01*
X13419993Y-14179374D02*
X13429517Y-14141279D01*
X13429517Y-14141279D02*
X13439041Y-14122232D01*
X13439041Y-14122232D02*
X13448565Y-14112708D01*
X13448565Y-14112708D02*
X13467612Y-14103184D01*
X13658089Y-14103184D02*
X13677136Y-14103184D01*
X13677136Y-14103184D02*
X13696184Y-14112708D01*
X13696184Y-14112708D02*
X13705708Y-14122232D01*
X13705708Y-14122232D02*
X13715232Y-14141279D01*
X13715232Y-14141279D02*
X13724755Y-14179374D01*
X13724755Y-14179374D02*
X13724755Y-14226994D01*
X13724755Y-14226994D02*
X13715232Y-14265089D01*
X13715232Y-14265089D02*
X13705708Y-14284136D01*
X13705708Y-14284136D02*
X13696184Y-14293660D01*
X13696184Y-14293660D02*
X13677136Y-14303184D01*
X13677136Y-14303184D02*
X13658089Y-14303184D01*
X13658089Y-14303184D02*
X13639041Y-14293660D01*
X13639041Y-14293660D02*
X13629517Y-14284136D01*
X13629517Y-14284136D02*
X13619993Y-14265089D01*
X13619993Y-14265089D02*
X13610470Y-14226994D01*
X13610470Y-14226994D02*
X13610470Y-14179374D01*
X13610470Y-14179374D02*
X13619993Y-14141279D01*
X13619993Y-14141279D02*
X13629517Y-14122232D01*
X13629517Y-14122232D02*
X13639041Y-14112708D01*
X13639041Y-14112708D02*
X13658089Y-14103184D01*
X13810470Y-14303184D02*
X13810470Y-14169851D01*
X13810470Y-14188898D02*
X13819993Y-14179374D01*
X13819993Y-14179374D02*
X13839041Y-14169851D01*
X13839041Y-14169851D02*
X13867613Y-14169851D01*
X13867613Y-14169851D02*
X13886660Y-14179374D01*
X13886660Y-14179374D02*
X13896184Y-14198422D01*
X13896184Y-14198422D02*
X13896184Y-14303184D01*
X13896184Y-14198422D02*
X13905708Y-14179374D01*
X13905708Y-14179374D02*
X13924755Y-14169851D01*
X13924755Y-14169851D02*
X13953327Y-14169851D01*
X13953327Y-14169851D02*
X13972374Y-14179374D01*
X13972374Y-14179374D02*
X13981898Y-14198422D01*
X13981898Y-14198422D02*
X13981898Y-14303184D01*
X14077136Y-14303184D02*
X14077136Y-14169851D01*
X14077136Y-14188898D02*
X14086660Y-14179374D01*
X14086660Y-14179374D02*
X14105708Y-14169851D01*
X14105708Y-14169851D02*
X14134279Y-14169851D01*
X14134279Y-14169851D02*
X14153327Y-14179374D01*
X14153327Y-14179374D02*
X14162851Y-14198422D01*
X14162851Y-14198422D02*
X14162851Y-14303184D01*
X14162851Y-14198422D02*
X14172374Y-14179374D01*
X14172374Y-14179374D02*
X14191422Y-14169851D01*
X14191422Y-14169851D02*
X14219993Y-14169851D01*
X14219993Y-14169851D02*
X14239041Y-14179374D01*
X14239041Y-14179374D02*
X14248565Y-14198422D01*
X14248565Y-14198422D02*
X14248565Y-14303184D01*
X14639041Y-14093660D02*
X14467613Y-14350803D01*
X14896184Y-14103184D02*
X14915232Y-14103184D01*
X14915232Y-14103184D02*
X14934279Y-14112708D01*
X14934279Y-14112708D02*
X14943803Y-14122232D01*
X14943803Y-14122232D02*
X14953327Y-14141279D01*
X14953327Y-14141279D02*
X14962851Y-14179374D01*
X14962851Y-14179374D02*
X14962851Y-14226994D01*
X14962851Y-14226994D02*
X14953327Y-14265089D01*
X14953327Y-14265089D02*
X14943803Y-14284136D01*
X14943803Y-14284136D02*
X14934279Y-14293660D01*
X14934279Y-14293660D02*
X14915232Y-14303184D01*
X14915232Y-14303184D02*
X14896184Y-14303184D01*
X14896184Y-14303184D02*
X14877136Y-14293660D01*
X14877136Y-14293660D02*
X14867613Y-14284136D01*
X14867613Y-14284136D02*
X14858089Y-14265089D01*
X14858089Y-14265089D02*
X14848565Y-14226994D01*
X14848565Y-14226994D02*
X14848565Y-14179374D01*
X14848565Y-14179374D02*
X14858089Y-14141279D01*
X14858089Y-14141279D02*
X14867613Y-14122232D01*
X14867613Y-14122232D02*
X14877136Y-14112708D01*
X14877136Y-14112708D02*
X14896184Y-14103184D01*
X15048565Y-14284136D02*
X15058089Y-14293660D01*
X15058089Y-14293660D02*
X15048565Y-14303184D01*
X15048565Y-14303184D02*
X15039041Y-14293660D01*
X15039041Y-14293660D02*
X15048565Y-14284136D01*
X15048565Y-14284136D02*
X15048565Y-14303184D01*
X15181898Y-14103184D02*
X15200946Y-14103184D01*
X15200946Y-14103184D02*
X15219994Y-14112708D01*
X15219994Y-14112708D02*
X15229517Y-14122232D01*
X15229517Y-14122232D02*
X15239041Y-14141279D01*
X15239041Y-14141279D02*
X15248565Y-14179374D01*
X15248565Y-14179374D02*
X15248565Y-14226994D01*
X15248565Y-14226994D02*
X15239041Y-14265089D01*
X15239041Y-14265089D02*
X15229517Y-14284136D01*
X15229517Y-14284136D02*
X15219994Y-14293660D01*
X15219994Y-14293660D02*
X15200946Y-14303184D01*
X15200946Y-14303184D02*
X15181898Y-14303184D01*
X15181898Y-14303184D02*
X15162851Y-14293660D01*
X15162851Y-14293660D02*
X15153327Y-14284136D01*
X15153327Y-14284136D02*
X15143803Y-14265089D01*
X15143803Y-14265089D02*
X15134279Y-14226994D01*
X15134279Y-14226994D02*
X15134279Y-14179374D01*
X15134279Y-14179374D02*
X15143803Y-14141279D01*
X15143803Y-14141279D02*
X15153327Y-14122232D01*
X15153327Y-14122232D02*
X15162851Y-14112708D01*
X15162851Y-14112708D02*
X15181898Y-14103184D01*
X15324756Y-14122232D02*
X15334279Y-14112708D01*
X15334279Y-14112708D02*
X15353327Y-14103184D01*
X15353327Y-14103184D02*
X15400946Y-14103184D01*
X15400946Y-14103184D02*
X15419994Y-14112708D01*
X15419994Y-14112708D02*
X15429517Y-14122232D01*
X15429517Y-14122232D02*
X15439041Y-14141279D01*
X15439041Y-14141279D02*
X15439041Y-14160327D01*
X15439041Y-14160327D02*
X15429517Y-14188898D01*
X15429517Y-14188898D02*
X15315232Y-14303184D01*
X15315232Y-14303184D02*
X15439041Y-14303184D01*
X15505708Y-14103184D02*
X15629517Y-14103184D01*
X15629517Y-14103184D02*
X15562851Y-14179374D01*
X15562851Y-14179374D02*
X15591422Y-14179374D01*
X15591422Y-14179374D02*
X15610470Y-14188898D01*
X15610470Y-14188898D02*
X15619994Y-14198422D01*
X15619994Y-14198422D02*
X15629517Y-14217470D01*
X15629517Y-14217470D02*
X15629517Y-14265089D01*
X15629517Y-14265089D02*
X15619994Y-14284136D01*
X15619994Y-14284136D02*
X15610470Y-14293660D01*
X15610470Y-14293660D02*
X15591422Y-14303184D01*
X15591422Y-14303184D02*
X15534279Y-14303184D01*
X15534279Y-14303184D02*
X15515232Y-14293660D01*
X15515232Y-14293660D02*
X15505708Y-14284136D01*
X15800946Y-14103184D02*
X15762851Y-14103184D01*
X15762851Y-14103184D02*
X15743803Y-14112708D01*
X15743803Y-14112708D02*
X15734279Y-14122232D01*
X15734279Y-14122232D02*
X15715232Y-14150803D01*
X15715232Y-14150803D02*
X15705708Y-14188898D01*
X15705708Y-14188898D02*
X15705708Y-14265089D01*
X15705708Y-14265089D02*
X15715232Y-14284136D01*
X15715232Y-14284136D02*
X15724756Y-14293660D01*
X15724756Y-14293660D02*
X15743803Y-14303184D01*
X15743803Y-14303184D02*
X15781898Y-14303184D01*
X15781898Y-14303184D02*
X15800946Y-14293660D01*
X15800946Y-14293660D02*
X15810470Y-14284136D01*
X15810470Y-14284136D02*
X15819994Y-14265089D01*
X15819994Y-14265089D02*
X15819994Y-14217470D01*
X15819994Y-14217470D02*
X15810470Y-14198422D01*
X15810470Y-14198422D02*
X15800946Y-14188898D01*
X15800946Y-14188898D02*
X15781898Y-14179374D01*
X15781898Y-14179374D02*
X15743803Y-14179374D01*
X15743803Y-14179374D02*
X15724756Y-14188898D01*
X15724756Y-14188898D02*
X15715232Y-14198422D01*
X15715232Y-14198422D02*
X15705708Y-14217470D01*
X15896184Y-14103184D02*
X15896184Y-14141279D01*
X15972375Y-14103184D02*
X15972375Y-14141279D01*
X16267613Y-14379374D02*
X16258089Y-14369851D01*
X16258089Y-14369851D02*
X16239041Y-14341279D01*
X16239041Y-14341279D02*
X16229518Y-14322232D01*
X16229518Y-14322232D02*
X16219994Y-14293660D01*
X16219994Y-14293660D02*
X16210470Y-14246041D01*
X16210470Y-14246041D02*
X16210470Y-14207946D01*
X16210470Y-14207946D02*
X16219994Y-14160327D01*
X16219994Y-14160327D02*
X16229518Y-14131755D01*
X16229518Y-14131755D02*
X16239041Y-14112708D01*
X16239041Y-14112708D02*
X16258089Y-14084136D01*
X16258089Y-14084136D02*
X16267613Y-14074613D01*
X16448565Y-14303184D02*
X16334279Y-14303184D01*
X16391422Y-14303184D02*
X16391422Y-14103184D01*
X16391422Y-14103184D02*
X16372375Y-14131755D01*
X16372375Y-14131755D02*
X16353327Y-14150803D01*
X16353327Y-14150803D02*
X16334279Y-14160327D01*
X16619994Y-14103184D02*
X16581898Y-14103184D01*
X16581898Y-14103184D02*
X16562851Y-14112708D01*
X16562851Y-14112708D02*
X16553327Y-14122232D01*
X16553327Y-14122232D02*
X16534279Y-14150803D01*
X16534279Y-14150803D02*
X16524756Y-14188898D01*
X16524756Y-14188898D02*
X16524756Y-14265089D01*
X16524756Y-14265089D02*
X16534279Y-14284136D01*
X16534279Y-14284136D02*
X16543803Y-14293660D01*
X16543803Y-14293660D02*
X16562851Y-14303184D01*
X16562851Y-14303184D02*
X16600946Y-14303184D01*
X16600946Y-14303184D02*
X16619994Y-14293660D01*
X16619994Y-14293660D02*
X16629518Y-14284136D01*
X16629518Y-14284136D02*
X16639041Y-14265089D01*
X16639041Y-14265089D02*
X16639041Y-14217470D01*
X16639041Y-14217470D02*
X16629518Y-14198422D01*
X16629518Y-14198422D02*
X16619994Y-14188898D01*
X16619994Y-14188898D02*
X16600946Y-14179374D01*
X16600946Y-14179374D02*
X16562851Y-14179374D01*
X16562851Y-14179374D02*
X16543803Y-14188898D01*
X16543803Y-14188898D02*
X16534279Y-14198422D01*
X16534279Y-14198422D02*
X16524756Y-14217470D01*
X16877137Y-14303184D02*
X16877137Y-14103184D01*
X16962851Y-14303184D02*
X16962851Y-14198422D01*
X16962851Y-14198422D02*
X16953327Y-14179374D01*
X16953327Y-14179374D02*
X16934280Y-14169851D01*
X16934280Y-14169851D02*
X16905708Y-14169851D01*
X16905708Y-14169851D02*
X16886661Y-14179374D01*
X16886661Y-14179374D02*
X16877137Y-14188898D01*
X17086661Y-14303184D02*
X17067613Y-14293660D01*
X17067613Y-14293660D02*
X17058089Y-14284136D01*
X17058089Y-14284136D02*
X17048565Y-14265089D01*
X17048565Y-14265089D02*
X17048565Y-14207946D01*
X17048565Y-14207946D02*
X17058089Y-14188898D01*
X17058089Y-14188898D02*
X17067613Y-14179374D01*
X17067613Y-14179374D02*
X17086661Y-14169851D01*
X17086661Y-14169851D02*
X17115232Y-14169851D01*
X17115232Y-14169851D02*
X17134280Y-14179374D01*
X17134280Y-14179374D02*
X17143803Y-14188898D01*
X17143803Y-14188898D02*
X17153327Y-14207946D01*
X17153327Y-14207946D02*
X17153327Y-14265089D01*
X17153327Y-14265089D02*
X17143803Y-14284136D01*
X17143803Y-14284136D02*
X17134280Y-14293660D01*
X17134280Y-14293660D02*
X17115232Y-14303184D01*
X17115232Y-14303184D02*
X17086661Y-14303184D01*
X17267613Y-14303184D02*
X17248565Y-14293660D01*
X17248565Y-14293660D02*
X17239042Y-14274613D01*
X17239042Y-14274613D02*
X17239042Y-14103184D01*
X17419994Y-14293660D02*
X17400946Y-14303184D01*
X17400946Y-14303184D02*
X17362851Y-14303184D01*
X17362851Y-14303184D02*
X17343803Y-14293660D01*
X17343803Y-14293660D02*
X17334280Y-14274613D01*
X17334280Y-14274613D02*
X17334280Y-14198422D01*
X17334280Y-14198422D02*
X17343803Y-14179374D01*
X17343803Y-14179374D02*
X17362851Y-14169851D01*
X17362851Y-14169851D02*
X17400946Y-14169851D01*
X17400946Y-14169851D02*
X17419994Y-14179374D01*
X17419994Y-14179374D02*
X17429518Y-14198422D01*
X17429518Y-14198422D02*
X17429518Y-14217470D01*
X17429518Y-14217470D02*
X17334280Y-14236517D01*
X17505708Y-14293660D02*
X17524756Y-14303184D01*
X17524756Y-14303184D02*
X17562851Y-14303184D01*
X17562851Y-14303184D02*
X17581899Y-14293660D01*
X17581899Y-14293660D02*
X17591423Y-14274613D01*
X17591423Y-14274613D02*
X17591423Y-14265089D01*
X17591423Y-14265089D02*
X17581899Y-14246041D01*
X17581899Y-14246041D02*
X17562851Y-14236517D01*
X17562851Y-14236517D02*
X17534280Y-14236517D01*
X17534280Y-14236517D02*
X17515232Y-14226994D01*
X17515232Y-14226994D02*
X17505708Y-14207946D01*
X17505708Y-14207946D02*
X17505708Y-14198422D01*
X17505708Y-14198422D02*
X17515232Y-14179374D01*
X17515232Y-14179374D02*
X17534280Y-14169851D01*
X17534280Y-14169851D02*
X17562851Y-14169851D01*
X17562851Y-14169851D02*
X17581899Y-14179374D01*
X17658089Y-14379374D02*
X17667613Y-14369851D01*
X17667613Y-14369851D02*
X17686661Y-14341279D01*
X17686661Y-14341279D02*
X17696184Y-14322232D01*
X17696184Y-14322232D02*
X17705708Y-14293660D01*
X17705708Y-14293660D02*
X17715232Y-14246041D01*
X17715232Y-14246041D02*
X17715232Y-14207946D01*
X17715232Y-14207946D02*
X17705708Y-14160327D01*
X17705708Y-14160327D02*
X17696184Y-14131755D01*
X17696184Y-14131755D02*
X17686661Y-14112708D01*
X17686661Y-14112708D02*
X17667613Y-14084136D01*
X17667613Y-14084136D02*
X17658089Y-14074613D01*
D12*
X12657550Y-14440700D02*
X12657550Y-14510700D01*
X12622550Y-14475700D02*
X12692550Y-14475700D01*
D11*
X12991422Y-14367184D02*
X13010470Y-14367184D01*
X13010470Y-14367184D02*
X13029517Y-14376708D01*
X13029517Y-14376708D02*
X13039041Y-14386232D01*
X13039041Y-14386232D02*
X13048565Y-14405279D01*
X13048565Y-14405279D02*
X13058089Y-14443374D01*
X13058089Y-14443374D02*
X13058089Y-14490994D01*
X13058089Y-14490994D02*
X13048565Y-14529089D01*
X13048565Y-14529089D02*
X13039041Y-14548136D01*
X13039041Y-14548136D02*
X13029517Y-14557660D01*
X13029517Y-14557660D02*
X13010470Y-14567184D01*
X13010470Y-14567184D02*
X12991422Y-14567184D01*
X12991422Y-14567184D02*
X12972374Y-14557660D01*
X12972374Y-14557660D02*
X12962851Y-14548136D01*
X12962851Y-14548136D02*
X12953327Y-14529089D01*
X12953327Y-14529089D02*
X12943803Y-14490994D01*
X12943803Y-14490994D02*
X12943803Y-14443374D01*
X12943803Y-14443374D02*
X12953327Y-14405279D01*
X12953327Y-14405279D02*
X12962851Y-14386232D01*
X12962851Y-14386232D02*
X12972374Y-14376708D01*
X12972374Y-14376708D02*
X12991422Y-14367184D01*
X13143803Y-14548136D02*
X13153327Y-14557660D01*
X13153327Y-14557660D02*
X13143803Y-14567184D01*
X13143803Y-14567184D02*
X13134279Y-14557660D01*
X13134279Y-14557660D02*
X13143803Y-14548136D01*
X13143803Y-14548136D02*
X13143803Y-14567184D01*
X13219993Y-14367184D02*
X13353327Y-14367184D01*
X13353327Y-14367184D02*
X13267612Y-14567184D01*
X13467612Y-14367184D02*
X13486660Y-14367184D01*
X13486660Y-14367184D02*
X13505708Y-14376708D01*
X13505708Y-14376708D02*
X13515232Y-14386232D01*
X13515232Y-14386232D02*
X13524755Y-14405279D01*
X13524755Y-14405279D02*
X13534279Y-14443374D01*
X13534279Y-14443374D02*
X13534279Y-14490994D01*
X13534279Y-14490994D02*
X13524755Y-14529089D01*
X13524755Y-14529089D02*
X13515232Y-14548136D01*
X13515232Y-14548136D02*
X13505708Y-14557660D01*
X13505708Y-14557660D02*
X13486660Y-14567184D01*
X13486660Y-14567184D02*
X13467612Y-14567184D01*
X13467612Y-14567184D02*
X13448565Y-14557660D01*
X13448565Y-14557660D02*
X13439041Y-14548136D01*
X13439041Y-14548136D02*
X13429517Y-14529089D01*
X13429517Y-14529089D02*
X13419993Y-14490994D01*
X13419993Y-14490994D02*
X13419993Y-14443374D01*
X13419993Y-14443374D02*
X13429517Y-14405279D01*
X13429517Y-14405279D02*
X13439041Y-14386232D01*
X13439041Y-14386232D02*
X13448565Y-14376708D01*
X13448565Y-14376708D02*
X13467612Y-14367184D01*
X13658089Y-14367184D02*
X13677136Y-14367184D01*
X13677136Y-14367184D02*
X13696184Y-14376708D01*
X13696184Y-14376708D02*
X13705708Y-14386232D01*
X13705708Y-14386232D02*
X13715232Y-14405279D01*
X13715232Y-14405279D02*
X13724755Y-14443374D01*
X13724755Y-14443374D02*
X13724755Y-14490994D01*
X13724755Y-14490994D02*
X13715232Y-14529089D01*
X13715232Y-14529089D02*
X13705708Y-14548136D01*
X13705708Y-14548136D02*
X13696184Y-14557660D01*
X13696184Y-14557660D02*
X13677136Y-14567184D01*
X13677136Y-14567184D02*
X13658089Y-14567184D01*
X13658089Y-14567184D02*
X13639041Y-14557660D01*
X13639041Y-14557660D02*
X13629517Y-14548136D01*
X13629517Y-14548136D02*
X13619993Y-14529089D01*
X13619993Y-14529089D02*
X13610470Y-14490994D01*
X13610470Y-14490994D02*
X13610470Y-14443374D01*
X13610470Y-14443374D02*
X13619993Y-14405279D01*
X13619993Y-14405279D02*
X13629517Y-14386232D01*
X13629517Y-14386232D02*
X13639041Y-14376708D01*
X13639041Y-14376708D02*
X13658089Y-14367184D01*
X13810470Y-14567184D02*
X13810470Y-14433851D01*
X13810470Y-14452898D02*
X13819993Y-14443374D01*
X13819993Y-14443374D02*
X13839041Y-14433851D01*
X13839041Y-14433851D02*
X13867613Y-14433851D01*
X13867613Y-14433851D02*
X13886660Y-14443374D01*
X13886660Y-14443374D02*
X13896184Y-14462422D01*
X13896184Y-14462422D02*
X13896184Y-14567184D01*
X13896184Y-14462422D02*
X13905708Y-14443374D01*
X13905708Y-14443374D02*
X13924755Y-14433851D01*
X13924755Y-14433851D02*
X13953327Y-14433851D01*
X13953327Y-14433851D02*
X13972374Y-14443374D01*
X13972374Y-14443374D02*
X13981898Y-14462422D01*
X13981898Y-14462422D02*
X13981898Y-14567184D01*
X14077136Y-14567184D02*
X14077136Y-14433851D01*
X14077136Y-14452898D02*
X14086660Y-14443374D01*
X14086660Y-14443374D02*
X14105708Y-14433851D01*
X14105708Y-14433851D02*
X14134279Y-14433851D01*
X14134279Y-14433851D02*
X14153327Y-14443374D01*
X14153327Y-14443374D02*
X14162851Y-14462422D01*
X14162851Y-14462422D02*
X14162851Y-14567184D01*
X14162851Y-14462422D02*
X14172374Y-14443374D01*
X14172374Y-14443374D02*
X14191422Y-14433851D01*
X14191422Y-14433851D02*
X14219993Y-14433851D01*
X14219993Y-14433851D02*
X14239041Y-14443374D01*
X14239041Y-14443374D02*
X14248565Y-14462422D01*
X14248565Y-14462422D02*
X14248565Y-14567184D01*
X14639041Y-14357660D02*
X14467613Y-14614803D01*
X14896184Y-14367184D02*
X14915232Y-14367184D01*
X14915232Y-14367184D02*
X14934279Y-14376708D01*
X14934279Y-14376708D02*
X14943803Y-14386232D01*
X14943803Y-14386232D02*
X14953327Y-14405279D01*
X14953327Y-14405279D02*
X14962851Y-14443374D01*
X14962851Y-14443374D02*
X14962851Y-14490994D01*
X14962851Y-14490994D02*
X14953327Y-14529089D01*
X14953327Y-14529089D02*
X14943803Y-14548136D01*
X14943803Y-14548136D02*
X14934279Y-14557660D01*
X14934279Y-14557660D02*
X14915232Y-14567184D01*
X14915232Y-14567184D02*
X14896184Y-14567184D01*
X14896184Y-14567184D02*
X14877136Y-14557660D01*
X14877136Y-14557660D02*
X14867613Y-14548136D01*
X14867613Y-14548136D02*
X14858089Y-14529089D01*
X14858089Y-14529089D02*
X14848565Y-14490994D01*
X14848565Y-14490994D02*
X14848565Y-14443374D01*
X14848565Y-14443374D02*
X14858089Y-14405279D01*
X14858089Y-14405279D02*
X14867613Y-14386232D01*
X14867613Y-14386232D02*
X14877136Y-14376708D01*
X14877136Y-14376708D02*
X14896184Y-14367184D01*
X15048565Y-14548136D02*
X15058089Y-14557660D01*
X15058089Y-14557660D02*
X15048565Y-14567184D01*
X15048565Y-14567184D02*
X15039041Y-14557660D01*
X15039041Y-14557660D02*
X15048565Y-14548136D01*
X15048565Y-14548136D02*
X15048565Y-14567184D01*
X15181898Y-14367184D02*
X15200946Y-14367184D01*
X15200946Y-14367184D02*
X15219994Y-14376708D01*
X15219994Y-14376708D02*
X15229517Y-14386232D01*
X15229517Y-14386232D02*
X15239041Y-14405279D01*
X15239041Y-14405279D02*
X15248565Y-14443374D01*
X15248565Y-14443374D02*
X15248565Y-14490994D01*
X15248565Y-14490994D02*
X15239041Y-14529089D01*
X15239041Y-14529089D02*
X15229517Y-14548136D01*
X15229517Y-14548136D02*
X15219994Y-14557660D01*
X15219994Y-14557660D02*
X15200946Y-14567184D01*
X15200946Y-14567184D02*
X15181898Y-14567184D01*
X15181898Y-14567184D02*
X15162851Y-14557660D01*
X15162851Y-14557660D02*
X15153327Y-14548136D01*
X15153327Y-14548136D02*
X15143803Y-14529089D01*
X15143803Y-14529089D02*
X15134279Y-14490994D01*
X15134279Y-14490994D02*
X15134279Y-14443374D01*
X15134279Y-14443374D02*
X15143803Y-14405279D01*
X15143803Y-14405279D02*
X15153327Y-14386232D01*
X15153327Y-14386232D02*
X15162851Y-14376708D01*
X15162851Y-14376708D02*
X15181898Y-14367184D01*
X15324756Y-14386232D02*
X15334279Y-14376708D01*
X15334279Y-14376708D02*
X15353327Y-14367184D01*
X15353327Y-14367184D02*
X15400946Y-14367184D01*
X15400946Y-14367184D02*
X15419994Y-14376708D01*
X15419994Y-14376708D02*
X15429517Y-14386232D01*
X15429517Y-14386232D02*
X15439041Y-14405279D01*
X15439041Y-14405279D02*
X15439041Y-14424327D01*
X15439041Y-14424327D02*
X15429517Y-14452898D01*
X15429517Y-14452898D02*
X15315232Y-14567184D01*
X15315232Y-14567184D02*
X15439041Y-14567184D01*
X15505708Y-14367184D02*
X15639041Y-14367184D01*
X15639041Y-14367184D02*
X15553327Y-14567184D01*
X15800946Y-14367184D02*
X15762851Y-14367184D01*
X15762851Y-14367184D02*
X15743803Y-14376708D01*
X15743803Y-14376708D02*
X15734279Y-14386232D01*
X15734279Y-14386232D02*
X15715232Y-14414803D01*
X15715232Y-14414803D02*
X15705708Y-14452898D01*
X15705708Y-14452898D02*
X15705708Y-14529089D01*
X15705708Y-14529089D02*
X15715232Y-14548136D01*
X15715232Y-14548136D02*
X15724756Y-14557660D01*
X15724756Y-14557660D02*
X15743803Y-14567184D01*
X15743803Y-14567184D02*
X15781898Y-14567184D01*
X15781898Y-14567184D02*
X15800946Y-14557660D01*
X15800946Y-14557660D02*
X15810470Y-14548136D01*
X15810470Y-14548136D02*
X15819994Y-14529089D01*
X15819994Y-14529089D02*
X15819994Y-14481470D01*
X15819994Y-14481470D02*
X15810470Y-14462422D01*
X15810470Y-14462422D02*
X15800946Y-14452898D01*
X15800946Y-14452898D02*
X15781898Y-14443374D01*
X15781898Y-14443374D02*
X15743803Y-14443374D01*
X15743803Y-14443374D02*
X15724756Y-14452898D01*
X15724756Y-14452898D02*
X15715232Y-14462422D01*
X15715232Y-14462422D02*
X15705708Y-14481470D01*
X15896184Y-14367184D02*
X15896184Y-14405279D01*
X15972375Y-14367184D02*
X15972375Y-14405279D01*
X16267613Y-14643374D02*
X16258089Y-14633851D01*
X16258089Y-14633851D02*
X16239041Y-14605279D01*
X16239041Y-14605279D02*
X16229518Y-14586232D01*
X16229518Y-14586232D02*
X16219994Y-14557660D01*
X16219994Y-14557660D02*
X16210470Y-14510041D01*
X16210470Y-14510041D02*
X16210470Y-14471946D01*
X16210470Y-14471946D02*
X16219994Y-14424327D01*
X16219994Y-14424327D02*
X16229518Y-14395755D01*
X16229518Y-14395755D02*
X16239041Y-14376708D01*
X16239041Y-14376708D02*
X16258089Y-14348136D01*
X16258089Y-14348136D02*
X16267613Y-14338613D01*
X16448565Y-14567184D02*
X16334279Y-14567184D01*
X16391422Y-14567184D02*
X16391422Y-14367184D01*
X16391422Y-14367184D02*
X16372375Y-14395755D01*
X16372375Y-14395755D02*
X16353327Y-14414803D01*
X16353327Y-14414803D02*
X16334279Y-14424327D01*
X16619994Y-14367184D02*
X16581898Y-14367184D01*
X16581898Y-14367184D02*
X16562851Y-14376708D01*
X16562851Y-14376708D02*
X16553327Y-14386232D01*
X16553327Y-14386232D02*
X16534279Y-14414803D01*
X16534279Y-14414803D02*
X16524756Y-14452898D01*
X16524756Y-14452898D02*
X16524756Y-14529089D01*
X16524756Y-14529089D02*
X16534279Y-14548136D01*
X16534279Y-14548136D02*
X16543803Y-14557660D01*
X16543803Y-14557660D02*
X16562851Y-14567184D01*
X16562851Y-14567184D02*
X16600946Y-14567184D01*
X16600946Y-14567184D02*
X16619994Y-14557660D01*
X16619994Y-14557660D02*
X16629518Y-14548136D01*
X16629518Y-14548136D02*
X16639041Y-14529089D01*
X16639041Y-14529089D02*
X16639041Y-14481470D01*
X16639041Y-14481470D02*
X16629518Y-14462422D01*
X16629518Y-14462422D02*
X16619994Y-14452898D01*
X16619994Y-14452898D02*
X16600946Y-14443374D01*
X16600946Y-14443374D02*
X16562851Y-14443374D01*
X16562851Y-14443374D02*
X16543803Y-14452898D01*
X16543803Y-14452898D02*
X16534279Y-14462422D01*
X16534279Y-14462422D02*
X16524756Y-14481470D01*
X16877137Y-14567184D02*
X16877137Y-14367184D01*
X16962851Y-14567184D02*
X16962851Y-14462422D01*
X16962851Y-14462422D02*
X16953327Y-14443374D01*
X16953327Y-14443374D02*
X16934280Y-14433851D01*
X16934280Y-14433851D02*
X16905708Y-14433851D01*
X16905708Y-14433851D02*
X16886661Y-14443374D01*
X16886661Y-14443374D02*
X16877137Y-14452898D01*
X17086661Y-14567184D02*
X17067613Y-14557660D01*
X17067613Y-14557660D02*
X17058089Y-14548136D01*
X17058089Y-14548136D02*
X17048565Y-14529089D01*
X17048565Y-14529089D02*
X17048565Y-14471946D01*
X17048565Y-14471946D02*
X17058089Y-14452898D01*
X17058089Y-14452898D02*
X17067613Y-14443374D01*
X17067613Y-14443374D02*
X17086661Y-14433851D01*
X17086661Y-14433851D02*
X17115232Y-14433851D01*
X17115232Y-14433851D02*
X17134280Y-14443374D01*
X17134280Y-14443374D02*
X17143803Y-14452898D01*
X17143803Y-14452898D02*
X17153327Y-14471946D01*
X17153327Y-14471946D02*
X17153327Y-14529089D01*
X17153327Y-14529089D02*
X17143803Y-14548136D01*
X17143803Y-14548136D02*
X17134280Y-14557660D01*
X17134280Y-14557660D02*
X17115232Y-14567184D01*
X17115232Y-14567184D02*
X17086661Y-14567184D01*
X17267613Y-14567184D02*
X17248565Y-14557660D01*
X17248565Y-14557660D02*
X17239042Y-14538613D01*
X17239042Y-14538613D02*
X17239042Y-14367184D01*
X17419994Y-14557660D02*
X17400946Y-14567184D01*
X17400946Y-14567184D02*
X17362851Y-14567184D01*
X17362851Y-14567184D02*
X17343803Y-14557660D01*
X17343803Y-14557660D02*
X17334280Y-14538613D01*
X17334280Y-14538613D02*
X17334280Y-14462422D01*
X17334280Y-14462422D02*
X17343803Y-14443374D01*
X17343803Y-14443374D02*
X17362851Y-14433851D01*
X17362851Y-14433851D02*
X17400946Y-14433851D01*
X17400946Y-14433851D02*
X17419994Y-14443374D01*
X17419994Y-14443374D02*
X17429518Y-14462422D01*
X17429518Y-14462422D02*
X17429518Y-14481470D01*
X17429518Y-14481470D02*
X17334280Y-14500517D01*
X17505708Y-14557660D02*
X17524756Y-14567184D01*
X17524756Y-14567184D02*
X17562851Y-14567184D01*
X17562851Y-14567184D02*
X17581899Y-14557660D01*
X17581899Y-14557660D02*
X17591423Y-14538613D01*
X17591423Y-14538613D02*
X17591423Y-14529089D01*
X17591423Y-14529089D02*
X17581899Y-14510041D01*
X17581899Y-14510041D02*
X17562851Y-14500517D01*
X17562851Y-14500517D02*
X17534280Y-14500517D01*
X17534280Y-14500517D02*
X17515232Y-14490994D01*
X17515232Y-14490994D02*
X17505708Y-14471946D01*
X17505708Y-14471946D02*
X17505708Y-14462422D01*
X17505708Y-14462422D02*
X17515232Y-14443374D01*
X17515232Y-14443374D02*
X17534280Y-14433851D01*
X17534280Y-14433851D02*
X17562851Y-14433851D01*
X17562851Y-14433851D02*
X17581899Y-14443374D01*
X17658089Y-14643374D02*
X17667613Y-14633851D01*
X17667613Y-14633851D02*
X17686661Y-14605279D01*
X17686661Y-14605279D02*
X17696184Y-14586232D01*
X17696184Y-14586232D02*
X17705708Y-14557660D01*
X17705708Y-14557660D02*
X17715232Y-14510041D01*
X17715232Y-14510041D02*
X17715232Y-14471946D01*
X17715232Y-14471946D02*
X17705708Y-14424327D01*
X17705708Y-14424327D02*
X17696184Y-14395755D01*
X17696184Y-14395755D02*
X17686661Y-14376708D01*
X17686661Y-14376708D02*
X17667613Y-14348136D01*
X17667613Y-14348136D02*
X17658089Y-14338613D01*
D13*
X12674977Y-14782127D02*
X12674977Y-14697273D01*
X12590123Y-14697273D01*
X12590123Y-14782127D01*
X12674977Y-14782127D01*
D11*
X13058089Y-14831184D02*
X12943803Y-14831184D01*
X13000946Y-14831184D02*
X13000946Y-14631184D01*
X13000946Y-14631184D02*
X12981898Y-14659755D01*
X12981898Y-14659755D02*
X12962851Y-14678803D01*
X12962851Y-14678803D02*
X12943803Y-14688327D01*
X13143803Y-14812136D02*
X13153327Y-14821660D01*
X13153327Y-14821660D02*
X13143803Y-14831184D01*
X13143803Y-14831184D02*
X13134279Y-14821660D01*
X13134279Y-14821660D02*
X13143803Y-14812136D01*
X13143803Y-14812136D02*
X13143803Y-14831184D01*
X13229517Y-14650232D02*
X13239041Y-14640708D01*
X13239041Y-14640708D02*
X13258089Y-14631184D01*
X13258089Y-14631184D02*
X13305708Y-14631184D01*
X13305708Y-14631184D02*
X13324755Y-14640708D01*
X13324755Y-14640708D02*
X13334279Y-14650232D01*
X13334279Y-14650232D02*
X13343803Y-14669279D01*
X13343803Y-14669279D02*
X13343803Y-14688327D01*
X13343803Y-14688327D02*
X13334279Y-14716898D01*
X13334279Y-14716898D02*
X13219993Y-14831184D01*
X13219993Y-14831184D02*
X13343803Y-14831184D01*
X13467612Y-14631184D02*
X13486660Y-14631184D01*
X13486660Y-14631184D02*
X13505708Y-14640708D01*
X13505708Y-14640708D02*
X13515232Y-14650232D01*
X13515232Y-14650232D02*
X13524755Y-14669279D01*
X13524755Y-14669279D02*
X13534279Y-14707374D01*
X13534279Y-14707374D02*
X13534279Y-14754994D01*
X13534279Y-14754994D02*
X13524755Y-14793089D01*
X13524755Y-14793089D02*
X13515232Y-14812136D01*
X13515232Y-14812136D02*
X13505708Y-14821660D01*
X13505708Y-14821660D02*
X13486660Y-14831184D01*
X13486660Y-14831184D02*
X13467612Y-14831184D01*
X13467612Y-14831184D02*
X13448565Y-14821660D01*
X13448565Y-14821660D02*
X13439041Y-14812136D01*
X13439041Y-14812136D02*
X13429517Y-14793089D01*
X13429517Y-14793089D02*
X13419993Y-14754994D01*
X13419993Y-14754994D02*
X13419993Y-14707374D01*
X13419993Y-14707374D02*
X13429517Y-14669279D01*
X13429517Y-14669279D02*
X13439041Y-14650232D01*
X13439041Y-14650232D02*
X13448565Y-14640708D01*
X13448565Y-14640708D02*
X13467612Y-14631184D01*
X13658089Y-14631184D02*
X13677136Y-14631184D01*
X13677136Y-14631184D02*
X13696184Y-14640708D01*
X13696184Y-14640708D02*
X13705708Y-14650232D01*
X13705708Y-14650232D02*
X13715232Y-14669279D01*
X13715232Y-14669279D02*
X13724755Y-14707374D01*
X13724755Y-14707374D02*
X13724755Y-14754994D01*
X13724755Y-14754994D02*
X13715232Y-14793089D01*
X13715232Y-14793089D02*
X13705708Y-14812136D01*
X13705708Y-14812136D02*
X13696184Y-14821660D01*
X13696184Y-14821660D02*
X13677136Y-14831184D01*
X13677136Y-14831184D02*
X13658089Y-14831184D01*
X13658089Y-14831184D02*
X13639041Y-14821660D01*
X13639041Y-14821660D02*
X13629517Y-14812136D01*
X13629517Y-14812136D02*
X13619993Y-14793089D01*
X13619993Y-14793089D02*
X13610470Y-14754994D01*
X13610470Y-14754994D02*
X13610470Y-14707374D01*
X13610470Y-14707374D02*
X13619993Y-14669279D01*
X13619993Y-14669279D02*
X13629517Y-14650232D01*
X13629517Y-14650232D02*
X13639041Y-14640708D01*
X13639041Y-14640708D02*
X13658089Y-14631184D01*
X13810470Y-14831184D02*
X13810470Y-14697851D01*
X13810470Y-14716898D02*
X13819993Y-14707374D01*
X13819993Y-14707374D02*
X13839041Y-14697851D01*
X13839041Y-14697851D02*
X13867613Y-14697851D01*
X13867613Y-14697851D02*
X13886660Y-14707374D01*
X13886660Y-14707374D02*
X13896184Y-14726422D01*
X13896184Y-14726422D02*
X13896184Y-14831184D01*
X13896184Y-14726422D02*
X13905708Y-14707374D01*
X13905708Y-14707374D02*
X13924755Y-14697851D01*
X13924755Y-14697851D02*
X13953327Y-14697851D01*
X13953327Y-14697851D02*
X13972374Y-14707374D01*
X13972374Y-14707374D02*
X13981898Y-14726422D01*
X13981898Y-14726422D02*
X13981898Y-14831184D01*
X14077136Y-14831184D02*
X14077136Y-14697851D01*
X14077136Y-14716898D02*
X14086660Y-14707374D01*
X14086660Y-14707374D02*
X14105708Y-14697851D01*
X14105708Y-14697851D02*
X14134279Y-14697851D01*
X14134279Y-14697851D02*
X14153327Y-14707374D01*
X14153327Y-14707374D02*
X14162851Y-14726422D01*
X14162851Y-14726422D02*
X14162851Y-14831184D01*
X14162851Y-14726422D02*
X14172374Y-14707374D01*
X14172374Y-14707374D02*
X14191422Y-14697851D01*
X14191422Y-14697851D02*
X14219993Y-14697851D01*
X14219993Y-14697851D02*
X14239041Y-14707374D01*
X14239041Y-14707374D02*
X14248565Y-14726422D01*
X14248565Y-14726422D02*
X14248565Y-14831184D01*
X14639041Y-14621660D02*
X14467613Y-14878803D01*
X14896184Y-14631184D02*
X14915232Y-14631184D01*
X14915232Y-14631184D02*
X14934279Y-14640708D01*
X14934279Y-14640708D02*
X14943803Y-14650232D01*
X14943803Y-14650232D02*
X14953327Y-14669279D01*
X14953327Y-14669279D02*
X14962851Y-14707374D01*
X14962851Y-14707374D02*
X14962851Y-14754994D01*
X14962851Y-14754994D02*
X14953327Y-14793089D01*
X14953327Y-14793089D02*
X14943803Y-14812136D01*
X14943803Y-14812136D02*
X14934279Y-14821660D01*
X14934279Y-14821660D02*
X14915232Y-14831184D01*
X14915232Y-14831184D02*
X14896184Y-14831184D01*
X14896184Y-14831184D02*
X14877136Y-14821660D01*
X14877136Y-14821660D02*
X14867613Y-14812136D01*
X14867613Y-14812136D02*
X14858089Y-14793089D01*
X14858089Y-14793089D02*
X14848565Y-14754994D01*
X14848565Y-14754994D02*
X14848565Y-14707374D01*
X14848565Y-14707374D02*
X14858089Y-14669279D01*
X14858089Y-14669279D02*
X14867613Y-14650232D01*
X14867613Y-14650232D02*
X14877136Y-14640708D01*
X14877136Y-14640708D02*
X14896184Y-14631184D01*
X15048565Y-14812136D02*
X15058089Y-14821660D01*
X15058089Y-14821660D02*
X15048565Y-14831184D01*
X15048565Y-14831184D02*
X15039041Y-14821660D01*
X15039041Y-14821660D02*
X15048565Y-14812136D01*
X15048565Y-14812136D02*
X15048565Y-14831184D01*
X15181898Y-14631184D02*
X15200946Y-14631184D01*
X15200946Y-14631184D02*
X15219994Y-14640708D01*
X15219994Y-14640708D02*
X15229517Y-14650232D01*
X15229517Y-14650232D02*
X15239041Y-14669279D01*
X15239041Y-14669279D02*
X15248565Y-14707374D01*
X15248565Y-14707374D02*
X15248565Y-14754994D01*
X15248565Y-14754994D02*
X15239041Y-14793089D01*
X15239041Y-14793089D02*
X15229517Y-14812136D01*
X15229517Y-14812136D02*
X15219994Y-14821660D01*
X15219994Y-14821660D02*
X15200946Y-14831184D01*
X15200946Y-14831184D02*
X15181898Y-14831184D01*
X15181898Y-14831184D02*
X15162851Y-14821660D01*
X15162851Y-14821660D02*
X15153327Y-14812136D01*
X15153327Y-14812136D02*
X15143803Y-14793089D01*
X15143803Y-14793089D02*
X15134279Y-14754994D01*
X15134279Y-14754994D02*
X15134279Y-14707374D01*
X15134279Y-14707374D02*
X15143803Y-14669279D01*
X15143803Y-14669279D02*
X15153327Y-14650232D01*
X15153327Y-14650232D02*
X15162851Y-14640708D01*
X15162851Y-14640708D02*
X15181898Y-14631184D01*
X15419994Y-14697851D02*
X15419994Y-14831184D01*
X15372375Y-14621660D02*
X15324756Y-14764517D01*
X15324756Y-14764517D02*
X15448565Y-14764517D01*
X15505708Y-14631184D02*
X15639041Y-14631184D01*
X15639041Y-14631184D02*
X15553327Y-14831184D01*
X15705708Y-14650232D02*
X15715232Y-14640708D01*
X15715232Y-14640708D02*
X15734279Y-14631184D01*
X15734279Y-14631184D02*
X15781898Y-14631184D01*
X15781898Y-14631184D02*
X15800946Y-14640708D01*
X15800946Y-14640708D02*
X15810470Y-14650232D01*
X15810470Y-14650232D02*
X15819994Y-14669279D01*
X15819994Y-14669279D02*
X15819994Y-14688327D01*
X15819994Y-14688327D02*
X15810470Y-14716898D01*
X15810470Y-14716898D02*
X15696184Y-14831184D01*
X15696184Y-14831184D02*
X15819994Y-14831184D01*
X15896184Y-14631184D02*
X15896184Y-14669279D01*
X15972375Y-14631184D02*
X15972375Y-14669279D01*
X16267613Y-14907374D02*
X16258089Y-14897851D01*
X16258089Y-14897851D02*
X16239041Y-14869279D01*
X16239041Y-14869279D02*
X16229518Y-14850232D01*
X16229518Y-14850232D02*
X16219994Y-14821660D01*
X16219994Y-14821660D02*
X16210470Y-14774041D01*
X16210470Y-14774041D02*
X16210470Y-14735946D01*
X16210470Y-14735946D02*
X16219994Y-14688327D01*
X16219994Y-14688327D02*
X16229518Y-14659755D01*
X16229518Y-14659755D02*
X16239041Y-14640708D01*
X16239041Y-14640708D02*
X16258089Y-14612136D01*
X16258089Y-14612136D02*
X16267613Y-14602613D01*
X16334279Y-14650232D02*
X16343803Y-14640708D01*
X16343803Y-14640708D02*
X16362851Y-14631184D01*
X16362851Y-14631184D02*
X16410470Y-14631184D01*
X16410470Y-14631184D02*
X16429518Y-14640708D01*
X16429518Y-14640708D02*
X16439041Y-14650232D01*
X16439041Y-14650232D02*
X16448565Y-14669279D01*
X16448565Y-14669279D02*
X16448565Y-14688327D01*
X16448565Y-14688327D02*
X16439041Y-14716898D01*
X16439041Y-14716898D02*
X16324756Y-14831184D01*
X16324756Y-14831184D02*
X16448565Y-14831184D01*
X16686660Y-14831184D02*
X16686660Y-14631184D01*
X16772375Y-14831184D02*
X16772375Y-14726422D01*
X16772375Y-14726422D02*
X16762851Y-14707374D01*
X16762851Y-14707374D02*
X16743803Y-14697851D01*
X16743803Y-14697851D02*
X16715232Y-14697851D01*
X16715232Y-14697851D02*
X16696184Y-14707374D01*
X16696184Y-14707374D02*
X16686660Y-14716898D01*
X16896184Y-14831184D02*
X16877137Y-14821660D01*
X16877137Y-14821660D02*
X16867613Y-14812136D01*
X16867613Y-14812136D02*
X16858089Y-14793089D01*
X16858089Y-14793089D02*
X16858089Y-14735946D01*
X16858089Y-14735946D02*
X16867613Y-14716898D01*
X16867613Y-14716898D02*
X16877137Y-14707374D01*
X16877137Y-14707374D02*
X16896184Y-14697851D01*
X16896184Y-14697851D02*
X16924756Y-14697851D01*
X16924756Y-14697851D02*
X16943803Y-14707374D01*
X16943803Y-14707374D02*
X16953327Y-14716898D01*
X16953327Y-14716898D02*
X16962851Y-14735946D01*
X16962851Y-14735946D02*
X16962851Y-14793089D01*
X16962851Y-14793089D02*
X16953327Y-14812136D01*
X16953327Y-14812136D02*
X16943803Y-14821660D01*
X16943803Y-14821660D02*
X16924756Y-14831184D01*
X16924756Y-14831184D02*
X16896184Y-14831184D01*
X17077137Y-14831184D02*
X17058089Y-14821660D01*
X17058089Y-14821660D02*
X17048565Y-14802613D01*
X17048565Y-14802613D02*
X17048565Y-14631184D01*
X17229518Y-14821660D02*
X17210470Y-14831184D01*
X17210470Y-14831184D02*
X17172375Y-14831184D01*
X17172375Y-14831184D02*
X17153327Y-14821660D01*
X17153327Y-14821660D02*
X17143803Y-14802613D01*
X17143803Y-14802613D02*
X17143803Y-14726422D01*
X17143803Y-14726422D02*
X17153327Y-14707374D01*
X17153327Y-14707374D02*
X17172375Y-14697851D01*
X17172375Y-14697851D02*
X17210470Y-14697851D01*
X17210470Y-14697851D02*
X17229518Y-14707374D01*
X17229518Y-14707374D02*
X17239042Y-14726422D01*
X17239042Y-14726422D02*
X17239042Y-14745470D01*
X17239042Y-14745470D02*
X17143803Y-14764517D01*
X17315232Y-14821660D02*
X17334280Y-14831184D01*
X17334280Y-14831184D02*
X17372375Y-14831184D01*
X17372375Y-14831184D02*
X17391423Y-14821660D01*
X17391423Y-14821660D02*
X17400946Y-14802613D01*
X17400946Y-14802613D02*
X17400946Y-14793089D01*
X17400946Y-14793089D02*
X17391423Y-14774041D01*
X17391423Y-14774041D02*
X17372375Y-14764517D01*
X17372375Y-14764517D02*
X17343803Y-14764517D01*
X17343803Y-14764517D02*
X17324756Y-14754994D01*
X17324756Y-14754994D02*
X17315232Y-14735946D01*
X17315232Y-14735946D02*
X17315232Y-14726422D01*
X17315232Y-14726422D02*
X17324756Y-14707374D01*
X17324756Y-14707374D02*
X17343803Y-14697851D01*
X17343803Y-14697851D02*
X17372375Y-14697851D01*
X17372375Y-14697851D02*
X17391423Y-14707374D01*
X17467613Y-14907374D02*
X17477137Y-14897851D01*
X17477137Y-14897851D02*
X17496184Y-14869279D01*
X17496184Y-14869279D02*
X17505708Y-14850232D01*
X17505708Y-14850232D02*
X17515232Y-14821660D01*
X17515232Y-14821660D02*
X17524756Y-14774041D01*
X17524756Y-14774041D02*
X17524756Y-14735946D01*
X17524756Y-14735946D02*
X17515232Y-14688327D01*
X17515232Y-14688327D02*
X17505708Y-14659755D01*
X17505708Y-14659755D02*
X17496184Y-14640708D01*
X17496184Y-14640708D02*
X17477137Y-14612136D01*
X17477137Y-14612136D02*
X17467613Y-14602613D01*
M02*
