%TF.GenerationSoftware,KiCad,Pcbnew,9.0.4*%
%TF.CreationDate,2026-01-16T16:04:57-08:00*%
%TF.ProjectId,u_anemometer,755f616e-656d-46f6-9d65-7465722e6b69,rev?*%
%TF.SameCoordinates,Original*%
%TF.FileFunction,Drillmap*%
%TF.FilePolarity,Positive*%
%FSLAX45Y45*%
G04 Gerber Fmt 4.5, Leading zero omitted, Abs format (unit mm)*
G04 Created by KiCad (PCBNEW 9.0.4) date 2026-01-16 16:04:57*
%MOMM*%
%LPD*%
G01*
G04 APERTURE LIST*
%ADD10C,0.150000*%
%ADD11C,0.200000*%
%ADD12C,0.220000*%
G04 APERTURE END LIST*
D10*
X17300500Y-11683747D02*
G75*
G02*
X15685549Y-13299950I-2300454J683719D01*
G01*
X17182507Y-10001957D02*
G75*
G02*
X17300751Y-10317251I-2189057J-1000773D01*
G01*
X15000000Y-13299950D02*
X14314729Y-13300200D01*
X15000000Y-8700050D02*
X14313701Y-8700300D01*
X12700300Y-10313701D02*
G75*
G02*
X14313701Y-8700300I2299700J-686299D01*
G01*
X14314729Y-13300200D02*
G75*
G02*
X12700046Y-11686051I685231J2300140D01*
G01*
X15000000Y-8700050D02*
X15685717Y-8700050D01*
X15685717Y-8700050D02*
G75*
G02*
X15999749Y-8818151I-685577J-2299530D01*
G01*
X17299950Y-11000000D02*
X17300750Y-10317251D01*
X17299950Y-11000000D02*
X17300500Y-11683747D01*
X15000000Y-13299950D02*
X15685549Y-13299950D01*
X12700050Y-11000000D02*
X12700300Y-10313701D01*
X17182507Y-10001957D02*
X15999750Y-8818150D01*
X12700050Y-11000000D02*
X12700050Y-11686050D01*
D11*
D12*
X13730000Y-10910000D02*
X13950000Y-11130000D01*
X13950000Y-10910000D02*
X13730000Y-11130000D01*
X15620000Y-12700000D02*
X15840000Y-12920000D01*
X15840000Y-12700000D02*
X15620000Y-12920000D01*
X16710000Y-12060000D02*
X16930000Y-12280000D01*
X16930000Y-12060000D02*
X16710000Y-12280000D01*
D11*
X12953327Y-13619184D02*
X12953327Y-13419184D01*
X12953327Y-13419184D02*
X13000946Y-13419184D01*
X13000946Y-13419184D02*
X13029517Y-13428708D01*
X13029517Y-13428708D02*
X13048565Y-13447755D01*
X13048565Y-13447755D02*
X13058089Y-13466803D01*
X13058089Y-13466803D02*
X13067612Y-13504898D01*
X13067612Y-13504898D02*
X13067612Y-13533470D01*
X13067612Y-13533470D02*
X13058089Y-13571565D01*
X13058089Y-13571565D02*
X13048565Y-13590613D01*
X13048565Y-13590613D02*
X13029517Y-13609660D01*
X13029517Y-13609660D02*
X13000946Y-13619184D01*
X13000946Y-13619184D02*
X12953327Y-13619184D01*
X13153327Y-13619184D02*
X13153327Y-13485851D01*
X13153327Y-13523946D02*
X13162851Y-13504898D01*
X13162851Y-13504898D02*
X13172374Y-13495374D01*
X13172374Y-13495374D02*
X13191422Y-13485851D01*
X13191422Y-13485851D02*
X13210470Y-13485851D01*
X13277136Y-13619184D02*
X13277136Y-13485851D01*
X13277136Y-13419184D02*
X13267612Y-13428708D01*
X13267612Y-13428708D02*
X13277136Y-13438232D01*
X13277136Y-13438232D02*
X13286660Y-13428708D01*
X13286660Y-13428708D02*
X13277136Y-13419184D01*
X13277136Y-13419184D02*
X13277136Y-13438232D01*
X13400946Y-13619184D02*
X13381898Y-13609660D01*
X13381898Y-13609660D02*
X13372374Y-13590613D01*
X13372374Y-13590613D02*
X13372374Y-13419184D01*
X13505708Y-13619184D02*
X13486660Y-13609660D01*
X13486660Y-13609660D02*
X13477136Y-13590613D01*
X13477136Y-13590613D02*
X13477136Y-13419184D01*
X13734279Y-13619184D02*
X13734279Y-13419184D01*
X13734279Y-13419184D02*
X13800946Y-13562041D01*
X13800946Y-13562041D02*
X13867612Y-13419184D01*
X13867612Y-13419184D02*
X13867612Y-13619184D01*
X14048565Y-13619184D02*
X14048565Y-13514422D01*
X14048565Y-13514422D02*
X14039041Y-13495374D01*
X14039041Y-13495374D02*
X14019993Y-13485851D01*
X14019993Y-13485851D02*
X13981898Y-13485851D01*
X13981898Y-13485851D02*
X13962851Y-13495374D01*
X14048565Y-13609660D02*
X14029517Y-13619184D01*
X14029517Y-13619184D02*
X13981898Y-13619184D01*
X13981898Y-13619184D02*
X13962851Y-13609660D01*
X13962851Y-13609660D02*
X13953327Y-13590613D01*
X13953327Y-13590613D02*
X13953327Y-13571565D01*
X13953327Y-13571565D02*
X13962851Y-13552517D01*
X13962851Y-13552517D02*
X13981898Y-13542994D01*
X13981898Y-13542994D02*
X14029517Y-13542994D01*
X14029517Y-13542994D02*
X14048565Y-13533470D01*
X14143803Y-13485851D02*
X14143803Y-13685851D01*
X14143803Y-13495374D02*
X14162851Y-13485851D01*
X14162851Y-13485851D02*
X14200946Y-13485851D01*
X14200946Y-13485851D02*
X14219993Y-13495374D01*
X14219993Y-13495374D02*
X14229517Y-13504898D01*
X14229517Y-13504898D02*
X14239041Y-13523946D01*
X14239041Y-13523946D02*
X14239041Y-13581089D01*
X14239041Y-13581089D02*
X14229517Y-13600136D01*
X14229517Y-13600136D02*
X14219993Y-13609660D01*
X14219993Y-13609660D02*
X14200946Y-13619184D01*
X14200946Y-13619184D02*
X14162851Y-13619184D01*
X14162851Y-13619184D02*
X14143803Y-13609660D01*
X14324755Y-13600136D02*
X14334279Y-13609660D01*
X14334279Y-13609660D02*
X14324755Y-13619184D01*
X14324755Y-13619184D02*
X14315232Y-13609660D01*
X14315232Y-13609660D02*
X14324755Y-13600136D01*
X14324755Y-13600136D02*
X14324755Y-13619184D01*
X14324755Y-13495374D02*
X14334279Y-13504898D01*
X14334279Y-13504898D02*
X14324755Y-13514422D01*
X14324755Y-13514422D02*
X14315232Y-13504898D01*
X14315232Y-13504898D02*
X14324755Y-13495374D01*
X14324755Y-13495374D02*
X14324755Y-13514422D01*
X12492550Y-13847700D02*
X12692550Y-14047700D01*
X12692550Y-13847700D02*
X12492550Y-14047700D01*
X12943803Y-13858232D02*
X12953327Y-13848708D01*
X12953327Y-13848708D02*
X12972374Y-13839184D01*
X12972374Y-13839184D02*
X13019993Y-13839184D01*
X13019993Y-13839184D02*
X13039041Y-13848708D01*
X13039041Y-13848708D02*
X13048565Y-13858232D01*
X13048565Y-13858232D02*
X13058089Y-13877279D01*
X13058089Y-13877279D02*
X13058089Y-13896327D01*
X13058089Y-13896327D02*
X13048565Y-13924898D01*
X13048565Y-13924898D02*
X12934279Y-14039184D01*
X12934279Y-14039184D02*
X13058089Y-14039184D01*
X13143803Y-14020136D02*
X13153327Y-14029660D01*
X13153327Y-14029660D02*
X13143803Y-14039184D01*
X13143803Y-14039184D02*
X13134279Y-14029660D01*
X13134279Y-14029660D02*
X13143803Y-14020136D01*
X13143803Y-14020136D02*
X13143803Y-14039184D01*
X13229517Y-13858232D02*
X13239041Y-13848708D01*
X13239041Y-13848708D02*
X13258089Y-13839184D01*
X13258089Y-13839184D02*
X13305708Y-13839184D01*
X13305708Y-13839184D02*
X13324755Y-13848708D01*
X13324755Y-13848708D02*
X13334279Y-13858232D01*
X13334279Y-13858232D02*
X13343803Y-13877279D01*
X13343803Y-13877279D02*
X13343803Y-13896327D01*
X13343803Y-13896327D02*
X13334279Y-13924898D01*
X13334279Y-13924898D02*
X13219993Y-14039184D01*
X13219993Y-14039184D02*
X13343803Y-14039184D01*
X13467612Y-13839184D02*
X13486660Y-13839184D01*
X13486660Y-13839184D02*
X13505708Y-13848708D01*
X13505708Y-13848708D02*
X13515232Y-13858232D01*
X13515232Y-13858232D02*
X13524755Y-13877279D01*
X13524755Y-13877279D02*
X13534279Y-13915374D01*
X13534279Y-13915374D02*
X13534279Y-13962994D01*
X13534279Y-13962994D02*
X13524755Y-14001089D01*
X13524755Y-14001089D02*
X13515232Y-14020136D01*
X13515232Y-14020136D02*
X13505708Y-14029660D01*
X13505708Y-14029660D02*
X13486660Y-14039184D01*
X13486660Y-14039184D02*
X13467612Y-14039184D01*
X13467612Y-14039184D02*
X13448565Y-14029660D01*
X13448565Y-14029660D02*
X13439041Y-14020136D01*
X13439041Y-14020136D02*
X13429517Y-14001089D01*
X13429517Y-14001089D02*
X13419993Y-13962994D01*
X13419993Y-13962994D02*
X13419993Y-13915374D01*
X13419993Y-13915374D02*
X13429517Y-13877279D01*
X13429517Y-13877279D02*
X13439041Y-13858232D01*
X13439041Y-13858232D02*
X13448565Y-13848708D01*
X13448565Y-13848708D02*
X13467612Y-13839184D01*
X13658089Y-13839184D02*
X13677136Y-13839184D01*
X13677136Y-13839184D02*
X13696184Y-13848708D01*
X13696184Y-13848708D02*
X13705708Y-13858232D01*
X13705708Y-13858232D02*
X13715232Y-13877279D01*
X13715232Y-13877279D02*
X13724755Y-13915374D01*
X13724755Y-13915374D02*
X13724755Y-13962994D01*
X13724755Y-13962994D02*
X13715232Y-14001089D01*
X13715232Y-14001089D02*
X13705708Y-14020136D01*
X13705708Y-14020136D02*
X13696184Y-14029660D01*
X13696184Y-14029660D02*
X13677136Y-14039184D01*
X13677136Y-14039184D02*
X13658089Y-14039184D01*
X13658089Y-14039184D02*
X13639041Y-14029660D01*
X13639041Y-14029660D02*
X13629517Y-14020136D01*
X13629517Y-14020136D02*
X13619993Y-14001089D01*
X13619993Y-14001089D02*
X13610470Y-13962994D01*
X13610470Y-13962994D02*
X13610470Y-13915374D01*
X13610470Y-13915374D02*
X13619993Y-13877279D01*
X13619993Y-13877279D02*
X13629517Y-13858232D01*
X13629517Y-13858232D02*
X13639041Y-13848708D01*
X13639041Y-13848708D02*
X13658089Y-13839184D01*
X13810470Y-14039184D02*
X13810470Y-13905851D01*
X13810470Y-13924898D02*
X13819993Y-13915374D01*
X13819993Y-13915374D02*
X13839041Y-13905851D01*
X13839041Y-13905851D02*
X13867613Y-13905851D01*
X13867613Y-13905851D02*
X13886660Y-13915374D01*
X13886660Y-13915374D02*
X13896184Y-13934422D01*
X13896184Y-13934422D02*
X13896184Y-14039184D01*
X13896184Y-13934422D02*
X13905708Y-13915374D01*
X13905708Y-13915374D02*
X13924755Y-13905851D01*
X13924755Y-13905851D02*
X13953327Y-13905851D01*
X13953327Y-13905851D02*
X13972374Y-13915374D01*
X13972374Y-13915374D02*
X13981898Y-13934422D01*
X13981898Y-13934422D02*
X13981898Y-14039184D01*
X14077136Y-14039184D02*
X14077136Y-13905851D01*
X14077136Y-13924898D02*
X14086660Y-13915374D01*
X14086660Y-13915374D02*
X14105708Y-13905851D01*
X14105708Y-13905851D02*
X14134279Y-13905851D01*
X14134279Y-13905851D02*
X14153327Y-13915374D01*
X14153327Y-13915374D02*
X14162851Y-13934422D01*
X14162851Y-13934422D02*
X14162851Y-14039184D01*
X14162851Y-13934422D02*
X14172374Y-13915374D01*
X14172374Y-13915374D02*
X14191422Y-13905851D01*
X14191422Y-13905851D02*
X14219993Y-13905851D01*
X14219993Y-13905851D02*
X14239041Y-13915374D01*
X14239041Y-13915374D02*
X14248565Y-13934422D01*
X14248565Y-13934422D02*
X14248565Y-14039184D01*
X14639041Y-13829660D02*
X14467613Y-14086803D01*
X14896184Y-13839184D02*
X14915232Y-13839184D01*
X14915232Y-13839184D02*
X14934279Y-13848708D01*
X14934279Y-13848708D02*
X14943803Y-13858232D01*
X14943803Y-13858232D02*
X14953327Y-13877279D01*
X14953327Y-13877279D02*
X14962851Y-13915374D01*
X14962851Y-13915374D02*
X14962851Y-13962994D01*
X14962851Y-13962994D02*
X14953327Y-14001089D01*
X14953327Y-14001089D02*
X14943803Y-14020136D01*
X14943803Y-14020136D02*
X14934279Y-14029660D01*
X14934279Y-14029660D02*
X14915232Y-14039184D01*
X14915232Y-14039184D02*
X14896184Y-14039184D01*
X14896184Y-14039184D02*
X14877136Y-14029660D01*
X14877136Y-14029660D02*
X14867613Y-14020136D01*
X14867613Y-14020136D02*
X14858089Y-14001089D01*
X14858089Y-14001089D02*
X14848565Y-13962994D01*
X14848565Y-13962994D02*
X14848565Y-13915374D01*
X14848565Y-13915374D02*
X14858089Y-13877279D01*
X14858089Y-13877279D02*
X14867613Y-13858232D01*
X14867613Y-13858232D02*
X14877136Y-13848708D01*
X14877136Y-13848708D02*
X14896184Y-13839184D01*
X15048565Y-14020136D02*
X15058089Y-14029660D01*
X15058089Y-14029660D02*
X15048565Y-14039184D01*
X15048565Y-14039184D02*
X15039041Y-14029660D01*
X15039041Y-14029660D02*
X15048565Y-14020136D01*
X15048565Y-14020136D02*
X15048565Y-14039184D01*
X15181898Y-13839184D02*
X15200946Y-13839184D01*
X15200946Y-13839184D02*
X15219994Y-13848708D01*
X15219994Y-13848708D02*
X15229517Y-13858232D01*
X15229517Y-13858232D02*
X15239041Y-13877279D01*
X15239041Y-13877279D02*
X15248565Y-13915374D01*
X15248565Y-13915374D02*
X15248565Y-13962994D01*
X15248565Y-13962994D02*
X15239041Y-14001089D01*
X15239041Y-14001089D02*
X15229517Y-14020136D01*
X15229517Y-14020136D02*
X15219994Y-14029660D01*
X15219994Y-14029660D02*
X15200946Y-14039184D01*
X15200946Y-14039184D02*
X15181898Y-14039184D01*
X15181898Y-14039184D02*
X15162851Y-14029660D01*
X15162851Y-14029660D02*
X15153327Y-14020136D01*
X15153327Y-14020136D02*
X15143803Y-14001089D01*
X15143803Y-14001089D02*
X15134279Y-13962994D01*
X15134279Y-13962994D02*
X15134279Y-13915374D01*
X15134279Y-13915374D02*
X15143803Y-13877279D01*
X15143803Y-13877279D02*
X15153327Y-13858232D01*
X15153327Y-13858232D02*
X15162851Y-13848708D01*
X15162851Y-13848708D02*
X15181898Y-13839184D01*
X15362851Y-13924898D02*
X15343803Y-13915374D01*
X15343803Y-13915374D02*
X15334279Y-13905851D01*
X15334279Y-13905851D02*
X15324756Y-13886803D01*
X15324756Y-13886803D02*
X15324756Y-13877279D01*
X15324756Y-13877279D02*
X15334279Y-13858232D01*
X15334279Y-13858232D02*
X15343803Y-13848708D01*
X15343803Y-13848708D02*
X15362851Y-13839184D01*
X15362851Y-13839184D02*
X15400946Y-13839184D01*
X15400946Y-13839184D02*
X15419994Y-13848708D01*
X15419994Y-13848708D02*
X15429517Y-13858232D01*
X15429517Y-13858232D02*
X15439041Y-13877279D01*
X15439041Y-13877279D02*
X15439041Y-13886803D01*
X15439041Y-13886803D02*
X15429517Y-13905851D01*
X15429517Y-13905851D02*
X15419994Y-13915374D01*
X15419994Y-13915374D02*
X15400946Y-13924898D01*
X15400946Y-13924898D02*
X15362851Y-13924898D01*
X15362851Y-13924898D02*
X15343803Y-13934422D01*
X15343803Y-13934422D02*
X15334279Y-13943946D01*
X15334279Y-13943946D02*
X15324756Y-13962994D01*
X15324756Y-13962994D02*
X15324756Y-14001089D01*
X15324756Y-14001089D02*
X15334279Y-14020136D01*
X15334279Y-14020136D02*
X15343803Y-14029660D01*
X15343803Y-14029660D02*
X15362851Y-14039184D01*
X15362851Y-14039184D02*
X15400946Y-14039184D01*
X15400946Y-14039184D02*
X15419994Y-14029660D01*
X15419994Y-14029660D02*
X15429517Y-14020136D01*
X15429517Y-14020136D02*
X15439041Y-14001089D01*
X15439041Y-14001089D02*
X15439041Y-13962994D01*
X15439041Y-13962994D02*
X15429517Y-13943946D01*
X15429517Y-13943946D02*
X15419994Y-13934422D01*
X15419994Y-13934422D02*
X15400946Y-13924898D01*
X15610470Y-13839184D02*
X15572375Y-13839184D01*
X15572375Y-13839184D02*
X15553327Y-13848708D01*
X15553327Y-13848708D02*
X15543803Y-13858232D01*
X15543803Y-13858232D02*
X15524756Y-13886803D01*
X15524756Y-13886803D02*
X15515232Y-13924898D01*
X15515232Y-13924898D02*
X15515232Y-14001089D01*
X15515232Y-14001089D02*
X15524756Y-14020136D01*
X15524756Y-14020136D02*
X15534279Y-14029660D01*
X15534279Y-14029660D02*
X15553327Y-14039184D01*
X15553327Y-14039184D02*
X15591422Y-14039184D01*
X15591422Y-14039184D02*
X15610470Y-14029660D01*
X15610470Y-14029660D02*
X15619994Y-14020136D01*
X15619994Y-14020136D02*
X15629517Y-14001089D01*
X15629517Y-14001089D02*
X15629517Y-13953470D01*
X15629517Y-13953470D02*
X15619994Y-13934422D01*
X15619994Y-13934422D02*
X15610470Y-13924898D01*
X15610470Y-13924898D02*
X15591422Y-13915374D01*
X15591422Y-13915374D02*
X15553327Y-13915374D01*
X15553327Y-13915374D02*
X15534279Y-13924898D01*
X15534279Y-13924898D02*
X15524756Y-13934422D01*
X15524756Y-13934422D02*
X15515232Y-13953470D01*
X15800946Y-13839184D02*
X15762851Y-13839184D01*
X15762851Y-13839184D02*
X15743803Y-13848708D01*
X15743803Y-13848708D02*
X15734279Y-13858232D01*
X15734279Y-13858232D02*
X15715232Y-13886803D01*
X15715232Y-13886803D02*
X15705708Y-13924898D01*
X15705708Y-13924898D02*
X15705708Y-14001089D01*
X15705708Y-14001089D02*
X15715232Y-14020136D01*
X15715232Y-14020136D02*
X15724756Y-14029660D01*
X15724756Y-14029660D02*
X15743803Y-14039184D01*
X15743803Y-14039184D02*
X15781898Y-14039184D01*
X15781898Y-14039184D02*
X15800946Y-14029660D01*
X15800946Y-14029660D02*
X15810470Y-14020136D01*
X15810470Y-14020136D02*
X15819994Y-14001089D01*
X15819994Y-14001089D02*
X15819994Y-13953470D01*
X15819994Y-13953470D02*
X15810470Y-13934422D01*
X15810470Y-13934422D02*
X15800946Y-13924898D01*
X15800946Y-13924898D02*
X15781898Y-13915374D01*
X15781898Y-13915374D02*
X15743803Y-13915374D01*
X15743803Y-13915374D02*
X15724756Y-13924898D01*
X15724756Y-13924898D02*
X15715232Y-13934422D01*
X15715232Y-13934422D02*
X15705708Y-13953470D01*
X15896184Y-13839184D02*
X15896184Y-13877279D01*
X15972375Y-13839184D02*
X15972375Y-13877279D01*
X16267613Y-14115374D02*
X16258089Y-14105851D01*
X16258089Y-14105851D02*
X16239041Y-14077279D01*
X16239041Y-14077279D02*
X16229518Y-14058232D01*
X16229518Y-14058232D02*
X16219994Y-14029660D01*
X16219994Y-14029660D02*
X16210470Y-13982041D01*
X16210470Y-13982041D02*
X16210470Y-13943946D01*
X16210470Y-13943946D02*
X16219994Y-13896327D01*
X16219994Y-13896327D02*
X16229518Y-13867755D01*
X16229518Y-13867755D02*
X16239041Y-13848708D01*
X16239041Y-13848708D02*
X16258089Y-13820136D01*
X16258089Y-13820136D02*
X16267613Y-13810613D01*
X16324756Y-13839184D02*
X16448565Y-13839184D01*
X16448565Y-13839184D02*
X16381898Y-13915374D01*
X16381898Y-13915374D02*
X16410470Y-13915374D01*
X16410470Y-13915374D02*
X16429518Y-13924898D01*
X16429518Y-13924898D02*
X16439041Y-13934422D01*
X16439041Y-13934422D02*
X16448565Y-13953470D01*
X16448565Y-13953470D02*
X16448565Y-14001089D01*
X16448565Y-14001089D02*
X16439041Y-14020136D01*
X16439041Y-14020136D02*
X16429518Y-14029660D01*
X16429518Y-14029660D02*
X16410470Y-14039184D01*
X16410470Y-14039184D02*
X16353327Y-14039184D01*
X16353327Y-14039184D02*
X16334279Y-14029660D01*
X16334279Y-14029660D02*
X16324756Y-14020136D01*
X16686660Y-14039184D02*
X16686660Y-13839184D01*
X16772375Y-14039184D02*
X16772375Y-13934422D01*
X16772375Y-13934422D02*
X16762851Y-13915374D01*
X16762851Y-13915374D02*
X16743803Y-13905851D01*
X16743803Y-13905851D02*
X16715232Y-13905851D01*
X16715232Y-13905851D02*
X16696184Y-13915374D01*
X16696184Y-13915374D02*
X16686660Y-13924898D01*
X16896184Y-14039184D02*
X16877137Y-14029660D01*
X16877137Y-14029660D02*
X16867613Y-14020136D01*
X16867613Y-14020136D02*
X16858089Y-14001089D01*
X16858089Y-14001089D02*
X16858089Y-13943946D01*
X16858089Y-13943946D02*
X16867613Y-13924898D01*
X16867613Y-13924898D02*
X16877137Y-13915374D01*
X16877137Y-13915374D02*
X16896184Y-13905851D01*
X16896184Y-13905851D02*
X16924756Y-13905851D01*
X16924756Y-13905851D02*
X16943803Y-13915374D01*
X16943803Y-13915374D02*
X16953327Y-13924898D01*
X16953327Y-13924898D02*
X16962851Y-13943946D01*
X16962851Y-13943946D02*
X16962851Y-14001089D01*
X16962851Y-14001089D02*
X16953327Y-14020136D01*
X16953327Y-14020136D02*
X16943803Y-14029660D01*
X16943803Y-14029660D02*
X16924756Y-14039184D01*
X16924756Y-14039184D02*
X16896184Y-14039184D01*
X17077137Y-14039184D02*
X17058089Y-14029660D01*
X17058089Y-14029660D02*
X17048565Y-14010613D01*
X17048565Y-14010613D02*
X17048565Y-13839184D01*
X17229518Y-14029660D02*
X17210470Y-14039184D01*
X17210470Y-14039184D02*
X17172375Y-14039184D01*
X17172375Y-14039184D02*
X17153327Y-14029660D01*
X17153327Y-14029660D02*
X17143803Y-14010613D01*
X17143803Y-14010613D02*
X17143803Y-13934422D01*
X17143803Y-13934422D02*
X17153327Y-13915374D01*
X17153327Y-13915374D02*
X17172375Y-13905851D01*
X17172375Y-13905851D02*
X17210470Y-13905851D01*
X17210470Y-13905851D02*
X17229518Y-13915374D01*
X17229518Y-13915374D02*
X17239042Y-13934422D01*
X17239042Y-13934422D02*
X17239042Y-13953470D01*
X17239042Y-13953470D02*
X17143803Y-13972517D01*
X17315232Y-14029660D02*
X17334280Y-14039184D01*
X17334280Y-14039184D02*
X17372375Y-14039184D01*
X17372375Y-14039184D02*
X17391423Y-14029660D01*
X17391423Y-14029660D02*
X17400946Y-14010613D01*
X17400946Y-14010613D02*
X17400946Y-14001089D01*
X17400946Y-14001089D02*
X17391423Y-13982041D01*
X17391423Y-13982041D02*
X17372375Y-13972517D01*
X17372375Y-13972517D02*
X17343803Y-13972517D01*
X17343803Y-13972517D02*
X17324756Y-13962994D01*
X17324756Y-13962994D02*
X17315232Y-13943946D01*
X17315232Y-13943946D02*
X17315232Y-13934422D01*
X17315232Y-13934422D02*
X17324756Y-13915374D01*
X17324756Y-13915374D02*
X17343803Y-13905851D01*
X17343803Y-13905851D02*
X17372375Y-13905851D01*
X17372375Y-13905851D02*
X17391423Y-13915374D01*
X17467613Y-14115374D02*
X17477137Y-14105851D01*
X17477137Y-14105851D02*
X17496184Y-14077279D01*
X17496184Y-14077279D02*
X17505708Y-14058232D01*
X17505708Y-14058232D02*
X17515232Y-14029660D01*
X17515232Y-14029660D02*
X17524756Y-13982041D01*
X17524756Y-13982041D02*
X17524756Y-13943946D01*
X17524756Y-13943946D02*
X17515232Y-13896327D01*
X17515232Y-13896327D02*
X17505708Y-13867755D01*
X17505708Y-13867755D02*
X17496184Y-13848708D01*
X17496184Y-13848708D02*
X17477137Y-13820136D01*
X17477137Y-13820136D02*
X17467613Y-13810613D01*
X17829518Y-14115374D02*
X17819994Y-14105851D01*
X17819994Y-14105851D02*
X17800946Y-14077279D01*
X17800946Y-14077279D02*
X17791423Y-14058232D01*
X17791423Y-14058232D02*
X17781899Y-14029660D01*
X17781899Y-14029660D02*
X17772375Y-13982041D01*
X17772375Y-13982041D02*
X17772375Y-13943946D01*
X17772375Y-13943946D02*
X17781899Y-13896327D01*
X17781899Y-13896327D02*
X17791423Y-13867755D01*
X17791423Y-13867755D02*
X17800946Y-13848708D01*
X17800946Y-13848708D02*
X17819994Y-13820136D01*
X17819994Y-13820136D02*
X17829518Y-13810613D01*
X17905708Y-13905851D02*
X17905708Y-14039184D01*
X17905708Y-13924898D02*
X17915232Y-13915374D01*
X17915232Y-13915374D02*
X17934280Y-13905851D01*
X17934280Y-13905851D02*
X17962851Y-13905851D01*
X17962851Y-13905851D02*
X17981899Y-13915374D01*
X17981899Y-13915374D02*
X17991423Y-13934422D01*
X17991423Y-13934422D02*
X17991423Y-14039184D01*
X18115232Y-14039184D02*
X18096184Y-14029660D01*
X18096184Y-14029660D02*
X18086661Y-14020136D01*
X18086661Y-14020136D02*
X18077137Y-14001089D01*
X18077137Y-14001089D02*
X18077137Y-13943946D01*
X18077137Y-13943946D02*
X18086661Y-13924898D01*
X18086661Y-13924898D02*
X18096184Y-13915374D01*
X18096184Y-13915374D02*
X18115232Y-13905851D01*
X18115232Y-13905851D02*
X18143804Y-13905851D01*
X18143804Y-13905851D02*
X18162851Y-13915374D01*
X18162851Y-13915374D02*
X18172375Y-13924898D01*
X18172375Y-13924898D02*
X18181899Y-13943946D01*
X18181899Y-13943946D02*
X18181899Y-14001089D01*
X18181899Y-14001089D02*
X18172375Y-14020136D01*
X18172375Y-14020136D02*
X18162851Y-14029660D01*
X18162851Y-14029660D02*
X18143804Y-14039184D01*
X18143804Y-14039184D02*
X18115232Y-14039184D01*
X18239042Y-13905851D02*
X18315232Y-13905851D01*
X18267613Y-13839184D02*
X18267613Y-14010613D01*
X18267613Y-14010613D02*
X18277137Y-14029660D01*
X18277137Y-14029660D02*
X18296184Y-14039184D01*
X18296184Y-14039184D02*
X18315232Y-14039184D01*
X18534280Y-13905851D02*
X18534280Y-14105851D01*
X18534280Y-13915374D02*
X18553327Y-13905851D01*
X18553327Y-13905851D02*
X18591423Y-13905851D01*
X18591423Y-13905851D02*
X18610470Y-13915374D01*
X18610470Y-13915374D02*
X18619994Y-13924898D01*
X18619994Y-13924898D02*
X18629518Y-13943946D01*
X18629518Y-13943946D02*
X18629518Y-14001089D01*
X18629518Y-14001089D02*
X18619994Y-14020136D01*
X18619994Y-14020136D02*
X18610470Y-14029660D01*
X18610470Y-14029660D02*
X18591423Y-14039184D01*
X18591423Y-14039184D02*
X18553327Y-14039184D01*
X18553327Y-14039184D02*
X18534280Y-14029660D01*
X18743804Y-14039184D02*
X18724756Y-14029660D01*
X18724756Y-14029660D02*
X18715232Y-14010613D01*
X18715232Y-14010613D02*
X18715232Y-13839184D01*
X18905708Y-14039184D02*
X18905708Y-13934422D01*
X18905708Y-13934422D02*
X18896185Y-13915374D01*
X18896185Y-13915374D02*
X18877137Y-13905851D01*
X18877137Y-13905851D02*
X18839042Y-13905851D01*
X18839042Y-13905851D02*
X18819994Y-13915374D01*
X18905708Y-14029660D02*
X18886661Y-14039184D01*
X18886661Y-14039184D02*
X18839042Y-14039184D01*
X18839042Y-14039184D02*
X18819994Y-14029660D01*
X18819994Y-14029660D02*
X18810470Y-14010613D01*
X18810470Y-14010613D02*
X18810470Y-13991565D01*
X18810470Y-13991565D02*
X18819994Y-13972517D01*
X18819994Y-13972517D02*
X18839042Y-13962994D01*
X18839042Y-13962994D02*
X18886661Y-13962994D01*
X18886661Y-13962994D02*
X18905708Y-13953470D01*
X18972375Y-13905851D02*
X19048565Y-13905851D01*
X19000946Y-13839184D02*
X19000946Y-14010613D01*
X19000946Y-14010613D02*
X19010470Y-14029660D01*
X19010470Y-14029660D02*
X19029518Y-14039184D01*
X19029518Y-14039184D02*
X19048565Y-14039184D01*
X19191423Y-14029660D02*
X19172375Y-14039184D01*
X19172375Y-14039184D02*
X19134280Y-14039184D01*
X19134280Y-14039184D02*
X19115232Y-14029660D01*
X19115232Y-14029660D02*
X19105708Y-14010613D01*
X19105708Y-14010613D02*
X19105708Y-13934422D01*
X19105708Y-13934422D02*
X19115232Y-13915374D01*
X19115232Y-13915374D02*
X19134280Y-13905851D01*
X19134280Y-13905851D02*
X19172375Y-13905851D01*
X19172375Y-13905851D02*
X19191423Y-13915374D01*
X19191423Y-13915374D02*
X19200946Y-13934422D01*
X19200946Y-13934422D02*
X19200946Y-13953470D01*
X19200946Y-13953470D02*
X19105708Y-13972517D01*
X19372375Y-14039184D02*
X19372375Y-13839184D01*
X19372375Y-14029660D02*
X19353327Y-14039184D01*
X19353327Y-14039184D02*
X19315232Y-14039184D01*
X19315232Y-14039184D02*
X19296185Y-14029660D01*
X19296185Y-14029660D02*
X19286661Y-14020136D01*
X19286661Y-14020136D02*
X19277137Y-14001089D01*
X19277137Y-14001089D02*
X19277137Y-13943946D01*
X19277137Y-13943946D02*
X19286661Y-13924898D01*
X19286661Y-13924898D02*
X19296185Y-13915374D01*
X19296185Y-13915374D02*
X19315232Y-13905851D01*
X19315232Y-13905851D02*
X19353327Y-13905851D01*
X19353327Y-13905851D02*
X19372375Y-13915374D01*
X19448566Y-14115374D02*
X19458089Y-14105851D01*
X19458089Y-14105851D02*
X19477137Y-14077279D01*
X19477137Y-14077279D02*
X19486661Y-14058232D01*
X19486661Y-14058232D02*
X19496185Y-14029660D01*
X19496185Y-14029660D02*
X19505708Y-13982041D01*
X19505708Y-13982041D02*
X19505708Y-13943946D01*
X19505708Y-13943946D02*
X19496185Y-13896327D01*
X19496185Y-13896327D02*
X19486661Y-13867755D01*
X19486661Y-13867755D02*
X19477137Y-13848708D01*
X19477137Y-13848708D02*
X19458089Y-13820136D01*
X19458089Y-13820136D02*
X19448566Y-13810613D01*
M02*
